# Blender 4.0.2
# www.blender.org
mtllib desert_palm.mtl
o DesertTree
v 0.000000 0.000000 0.000000
v 0.035000 0.220000 0.000000
v 0.000000 0.000000 -0.050000
v 0.035355 0.000000 -0.035355
v 0.068234 0.220000 -0.033234
v 0.050000 0.000000 0.000000
v 0.082000 0.220000 0.000000
v 0.035355 0.000000 0.035355
v 0.068234 0.220000 0.033234
v 0.000000 0.000000 0.050000
v 0.035000 0.220000 0.047000
v -0.035355 0.000000 0.035355
v 0.001766 0.220000 0.033234
v -0.050000 0.000000 0.000000
v -0.035355 0.000000 -0.035355
v 0.001766 0.220000 -0.033234
v 0.070000 0.440000 0.000000
v 0.035000 0.220000 -0.047000
v 0.070000 0.440000 -0.044000
v 0.101113 0.440000 -0.031113
v 0.114000 0.440000 0.000000
v 0.101113 0.440000 0.031113
v -0.012000 0.220000 0.000000
v 0.026000 0.440000 0.000000
v 0.038887 0.440000 -0.031113
v 0.105000 0.660000 0.000000
v 0.105000 0.660000 -0.041000
v 0.133991 0.660000 -0.028991
v 0.146000 0.660000 0.000000
v 0.133991 0.660000 0.028991
v 0.070000 0.440000 0.044000
v 0.038887 0.440000 0.031113
v 0.076009 0.660000 0.028991
v 0.140000 0.880000 0.000000
v 0.166870 0.880000 -0.026870
v 0.178000 0.880000 0.000000
v 0.166870 0.880000 0.026870
v 0.105000 0.660000 0.041000
v 0.113130 0.880000 0.026870
v 0.064000 0.660000 0.000000
v 0.102000 0.880000 0.000000
v 0.076009 0.660000 -0.028991
v 0.175000 1.100000 0.000000
v 0.140000 0.880000 -0.038000
v 0.175000 1.100000 -0.035000
v 0.199749 1.100000 -0.024749
v 0.210000 1.100000 0.000000
v 0.199749 1.100000 0.024749
v 0.140000 0.880000 0.038000
v 0.175000 1.100000 0.035000
v 0.150251 1.100000 0.024749
v 0.140000 1.100000 0.000000
v 0.113130 0.880000 -0.026870
v 0.150251 1.100000 -0.024749
v 0.172681 1.100000 0.025072
v 0.175000 1.100000 0.000000
v 0.177319 1.100000 -0.025072
v 0.268863 1.195745 0.064620
v 0.273993 1.206745 0.009157
v 0.279124 1.195745 -0.046306
v 0.386550 1.270703 0.068276
v 0.391018 1.280703 0.019982
v 0.395485 1.270703 -0.028311
v 0.530533 1.304322 0.066541
v 0.533619 1.313322 0.033174
v 0.536706 1.304322 -0.000194
v 0.695104 1.273029 0.069354
v 0.697053 1.281029 0.048292
v 0.699001 1.273029 0.027229
v 0.859189 1.153446 0.073472
v 0.860123 1.160446 0.063376
v 0.861057 1.153446 0.053280
v 0.982227 0.930790 0.074671
v 0.982227 0.936790 0.074671
v 0.982227 0.930790 0.074671
v 0.191174 1.100000 0.018626
v 0.175000 1.100000 0.000000
v 0.158826 1.100000 -0.018626
v 0.281838 1.198682 -0.020505
v 0.246059 1.209682 -0.061707
v 0.210279 1.198682 -0.102909
v 0.361762 1.278627 -0.099252
v 0.330608 1.288627 -0.135128
v 0.299454 1.278627 -0.171004
v 0.456417 1.321085 -0.200900
v 0.434892 1.330085 -0.225687
v 0.413367 1.321085 -0.250475
v 0.570527 1.304059 -0.316025
v 0.556939 1.312059 -0.331672
v 0.543352 1.304059 -0.347319
v 0.690218 1.204662 -0.434253
v 0.683705 1.211662 -0.441753
v 0.677192 1.204662 -0.449253
v 0.788675 1.005979 -0.532908
v 0.788675 1.011979 -0.532908
v 0.788675 1.005979 -0.532908
v 0.197535 1.100000 0.005163
v 0.175000 1.100000 0.000000
v 0.152465 1.100000 -0.005163
v 0.252013 1.224230 -0.107137
v 0.202163 1.235230 -0.118558
v 0.152312 1.224230 -0.129979
v 0.277605 1.325031 -0.248442
v 0.234199 1.335031 -0.258387
v 0.190793 1.325031 -0.268332
v 0.303370 1.379252 -0.422526
v 0.273379 1.388252 -0.429397
v 0.243389 1.379252 -0.436268
v 0.337980 1.359957 -0.624393
v 0.319049 1.367957 -0.628731
v 0.300118 1.359957 -0.633068
v 0.375708 1.239082 -0.834345
v 0.366633 1.246082 -0.836424
v 0.357559 1.239082 -0.838503
v 0.406785 0.995340 -1.011677
v 0.406785 1.001340 -1.011677
v 0.406785 0.995340 -1.011677
v 0.194631 1.100000 -0.014631
v 0.175000 1.100000 0.000000
v 0.155369 1.100000 0.014631
v 0.136126 1.185297 -0.142790
v 0.092700 1.196297 -0.110425
v 0.049274 1.185297 -0.078060
v 0.038005 1.239288 -0.262727
v 0.000193 1.249288 -0.234546
v -0.037619 1.239288 -0.206364
v -0.078115 1.233533 -0.394140
v -0.104241 1.242533 -0.374669
v -0.130366 1.233533 -0.355198
v -0.195016 1.139435 -0.530884
v -0.211507 1.147435 -0.518593
v -0.227999 1.139435 -0.506302
v -0.290988 0.935085 -0.641733
v -0.298893 0.942085 -0.635841
v -0.306797 0.935085 -0.629950
v -0.329835 0.619311 -0.677358
v -0.329835 0.625311 -0.677358
v -0.329835 0.619311 -0.677358
v 0.169269 1.100000 -0.022503
v 0.175000 1.100000 0.000000
v 0.180731 1.100000 0.022503
v 0.063124 1.207360 -0.024517
v 0.075801 1.218360 0.025263
v 0.088478 1.207360 0.075042
v -0.055534 1.291614 0.012554
v -0.044495 1.301614 0.055898
v -0.033457 1.291614 0.099243
v -0.202354 1.329082 0.064210
v -0.194727 1.338082 0.094157
v -0.187100 1.329082 0.124105
v -0.373914 1.291911 0.119660
v -0.369100 1.299911 0.138565
v -0.364286 1.291911 0.157469
v -0.544262 1.152499 0.173524
v -0.541955 1.159499 0.182585
v -0.539647 1.152499 0.191646
v -0.664258 0.894734 0.213731
v -0.664258 0.900734 0.213731
v -0.664258 0.894734 0.213731
v 0.160964 1.100000 -0.021179
v 0.175000 1.100000 0.000000
v 0.189036 1.100000 0.021179
v 0.052332 1.191740 0.013868
v 0.083381 1.202740 0.060719
v 0.114431 1.191740 0.107570
v -0.050373 1.259287 0.090651
v -0.023338 1.269287 0.131445
v 0.003698 1.259287 0.172239
v -0.168999 1.279323 0.187414
v -0.150320 1.288323 0.215600
v -0.131640 1.279323 0.243786
v -0.302411 1.226205 0.290790
v -0.290620 1.234204 0.308582
v -0.278829 1.226205 0.326374
v -0.427026 1.076533 0.386709
v -0.421374 1.083533 0.395237
v -0.415723 1.076533 0.403766
v -0.501883 0.819845 0.448593
v -0.501883 0.825845 0.448593
v -0.501883 0.819845 0.448593
v 0.152262 1.100000 0.001657
v 0.175000 1.100000 0.000000
v 0.197738 1.100000 -0.001657
v 0.132529 1.185573 0.111091
v 0.182827 1.196573 0.107426
v 0.233126 1.185573 0.103761
v 0.147982 1.249626 0.233469
v 0.191779 1.259626 0.230278
v 0.235575 1.249626 0.227087
v 0.172004 1.271937 0.376389
v 0.202264 1.280937 0.374184
v 0.232524 1.271937 0.371979
v 0.194746 1.230515 0.534539
v 0.213847 1.238515 0.533148
v 0.232948 1.230515 0.531756
v 0.215828 1.104675 0.686662
v 0.224984 1.111675 0.685995
v 0.234140 1.104675 0.685327
v 0.232866 0.882689 0.794169
v 0.232866 0.888689 0.794169
v 0.232866 0.882689 0.794169
v 0.154475 1.100000 0.015010
v 0.175000 1.100000 0.000000
v 0.195525 1.100000 -0.015010
v 0.205355 1.176691 0.136795
v 0.250758 1.187691 0.103591
v 0.296162 1.176691 0.070387
v 0.294676 1.229093 0.246615
v 0.334210 1.239093 0.217703
v 0.373744 1.229093 0.188791
v 0.400038 1.235702 0.365041
v 0.427353 1.244702 0.345065
v 0.454668 1.235702 0.325089
v 0.508006 1.174731 0.491536
v 0.525249 1.182731 0.478927
v 0.542491 1.174731 0.466317
v 0.605914 1.027315 0.606573
v 0.614179 1.034316 0.600529
v 0.622444 1.027315 0.594485
v 0.670790 0.784946 0.677938
v 0.670790 0.790946 0.677938
v 0.670790 0.784946 0.677938
vn -0.0000 -1.0000 -0.0000
vn -0.0000 1.0000 -0.0000
vn 0.3822 -0.0482 -0.9228
vn 0.9156 -0.1332 -0.3793
vn 0.9156 -0.1332 0.3793
vn 0.3822 -0.0482 0.9228
vn -0.3817 0.0733 0.9214
vn -0.9123 0.1576 0.3779
vn -0.9123 0.1576 -0.3779
vn -0.3817 0.0733 -0.9214
vn -0.7287 0.6815 -0.0674
vn -0.5361 0.8361 0.1162
vn -0.5057 0.8361 -0.2126
vn -0.2217 0.9587 0.1780
vn -0.1853 0.9587 -0.2157
vn 0.1624 0.9488 0.2709
vn 0.2094 0.9488 -0.2366
vn 0.5380 0.7703 0.3423
vn 0.5916 0.7703 -0.2379
vn 0.7997 0.4563 0.3903
vn 0.8577 0.4563 -0.2370
vn -0.5730 0.6512 0.4976
vn -0.3209 0.8078 0.4944
vn -0.5345 0.8078 0.2485
vn -0.0728 0.9426 0.3259
vn -0.3329 0.9426 0.0264
vn 0.2631 0.9574 0.1192
vn -0.0811 0.9574 -0.2772
vn 0.5741 0.8147 -0.0820
vn 0.1616 0.8147 -0.5569
vn 0.8197 0.5300 -0.2171
vn 0.3299 0.5300 -0.7812
vn -0.1660 0.6687 0.7247
vn 0.0445 0.8095 0.5855
vn -0.2949 0.8095 0.5077
vn 0.1443 0.9385 0.3137
vn -0.2665 0.9385 0.2195
vn 0.2936 0.9555 -0.0300
vn -0.2513 0.9555 -0.1548
vn 0.4326 0.8174 -0.3805
vn -0.2238 0.8174 -0.5309
vn 0.5609 0.5409 -0.6268
vn -0.2320 0.5409 -0.8085
vn 0.3424 0.8195 0.4595
vn 0.3401 0.9299 0.1403
vn 0.0373 0.9299 0.3660
vn 0.1366 0.9771 -0.1635
vn -0.1957 0.9771 0.0842
vn -0.0817 0.8584 -0.5064
vn -0.4619 0.8584 -0.2230
vn -0.2984 0.5658 -0.7686
vn -0.6513 0.5658 -0.5056
vn -0.4947 0.1603 -0.8542
vn -0.6772 0.1603 -0.7182
vn 0.7330 0.6542 -0.1867
vn 0.4863 0.8189 -0.3048
vn 0.5728 0.8189 0.0351
vn 0.1523 0.9538 -0.2589
vn 0.2576 0.9538 0.1545
vn -0.2610 0.9408 -0.2163
vn -0.1258 0.9408 0.3148
vn -0.6462 0.7479 -0.1519
vn -0.4948 0.7479 0.4425
vn -0.9045 0.4165 -0.0914
vn -0.7506 0.4165 0.5129
vn 0.5692 0.7305 -0.3772
vn 0.2822 0.8754 -0.3926
vn 0.4715 0.8754 -0.1070
vn -0.0196 0.9740 -0.2257
vn 0.2003 0.9740 0.1060
vn -0.3830 0.9228 -0.0408
vn -0.1116 0.9228 0.3687
vn -0.7016 0.6962 0.1519
vn -0.4133 0.6962 0.5869
vn -0.8879 0.3413 0.3084
vn -0.6300 0.3413 0.6976
vn -0.0485 0.7446 -0.6658
vn -0.2227 0.8750 -0.4299
vn 0.1580 0.8750 -0.4576
vn -0.2290 0.9669 -0.1125
vn 0.2102 0.9669 -0.1445
vn -0.2569 0.9289 0.2666
vn 0.2928 0.9289 0.2266
vn -0.2614 0.7333 0.6276
vn 0.3496 0.7333 0.5831
vn -0.2536 0.4149 0.8738
vn 0.3775 0.4149 0.8278
vn -0.3330 0.8257 -0.4554
vn -0.3430 0.9252 -0.1625
vn -0.0509 0.9252 -0.3761
vn -0.1743 0.9796 0.1004
vn 0.1485 0.9796 -0.1357
vn 0.0054 0.9090 0.4169
vn 0.3956 0.9090 0.1315
vn 0.1922 0.6883 0.6995
vn 0.6083 0.6883 0.3952
vn 0.3365 0.3556 0.8720
vn 0.7290 0.3556 0.5849
vn -0.7182 0.6922 0.0708
vn -0.6930 0.6922 -0.2014
vn -0.5383 0.8338 0.1229
vn -0.5066 0.8338 -0.2195
vn -0.2373 0.9432 0.2325
vn -0.1906 0.9432 -0.2720
vn 0.1680 0.9163 0.3636
vn 0.2319 0.9163 -0.3266
vn 0.4921 0.6934 0.5263
vn 0.5803 0.6934 -0.4271
vn -0.0097 -0.0000 1.0000
vn 0.1738 -0.0000 -0.9848
vn -0.4690 0.6625 0.5841
vn -0.6441 0.6625 0.3825
vn -0.3176 0.8055 0.5003
vn -0.5399 0.8055 0.2443
vn -0.0434 0.9264 0.3741
vn -0.3765 0.9264 -0.0094
vn 0.3130 0.9279 0.2026
vn -0.1567 0.9279 -0.3383
vn 0.6838 0.7249 0.0828
vn 0.0139 0.7249 -0.6887
vn 0.7078 -0.0000 0.7064
vn -0.6002 -0.0000 -0.7999
vn -0.0199 0.6752 0.7373
vn -0.3031 0.6753 0.6725
vn 0.0513 0.8073 0.5879
vn -0.3021 0.8073 0.5070
vn 0.2003 0.9215 0.3327
vn -0.3252 0.9215 0.2123
vn 0.3931 0.9192 -0.0205
vn -0.3450 0.9192 -0.1896
vn 0.6247 0.7200 -0.3023
vn -0.4308 0.7200 -0.5441
vn 0.9850 -0.0000 0.1726
vn -0.9619 -0.0000 -0.2734
vn 0.4594 0.8217 0.3372
vn 0.1918 0.8217 0.5366
vn 0.3475 0.9276 0.1371
vn 0.0320 0.9276 0.3721
vn 0.1911 0.9632 -0.1888
vn -0.2356 0.9632 0.1291
vn -0.0141 0.8293 -0.5586
vn -0.5313 0.8293 -0.1731
vn -0.1564 0.5267 -0.8356
vn -0.7560 0.5267 -0.3886
vn 0.6759 -0.0000 -0.7370
vn -0.8994 -0.0000 0.4371
vn 0.6770 0.6633 -0.3190
vn 0.7471 0.6633 -0.0437
vn 0.4856 0.8166 -0.3121
vn 0.5758 0.8166 0.0418
vn 0.1462 0.9365 -0.3187
vn 0.2808 0.9365 0.2099
vn -0.2954 0.9045 -0.3076
vn -0.1123 0.9045 0.4114
vn -0.6571 0.6682 -0.3488
vn -0.4102 0.6682 0.6207
vn -0.3177 -0.0000 -0.9482
vn 0.1745 -0.0000 0.9847
vn 0.4682 0.7393 -0.4839
vn 0.6281 0.7393 -0.2427
vn 0.2797 0.8731 -0.3994
vn 0.4768 0.8731 -0.1020
vn -0.0411 0.9594 -0.2791
vn 0.2410 0.9594 0.1466
vn -0.4397 0.8914 -0.1094
vn -0.0706 0.8914 0.4476
vn -0.7717 0.6358 -0.0104
vn -0.2911 0.6359 0.7148
vn -0.6372 -0.0000 -0.7707
vn 0.4616 -0.0000 0.8871
vn -0.2099 0.7515 -0.6255
vn 0.1170 0.7515 -0.6493
vn -0.2306 0.8724 -0.4310
vn 0.1657 0.8724 -0.4598
vn -0.2910 0.9492 -0.1194
vn 0.2706 0.9492 -0.1603
vn -0.3527 0.8915 0.2842
vn 0.3901 0.8915 0.2301
vn -0.4558 0.6538 0.6040
vn 0.5386 0.6538 0.5315
vn -0.9877 -0.0000 0.1565
vn 0.9999 -0.0000 0.0117
vn -0.4465 0.8294 -0.3358
vn -0.1846 0.8294 -0.5273
vn -0.3502 0.9230 -0.1596
vn -0.0460 0.9230 -0.3821
vn -0.2276 0.9658 0.1239
vn 0.1871 0.9658 -0.1793
vn -0.0603 0.8781 0.4747
vn 0.4706 0.8781 0.0864
vn 0.0350 0.6292 0.7765
vn 0.7294 0.6292 0.2687
vn -0.7399 -0.0000 0.6727
vn 0.8653 -0.0000 -0.5013
s 0
usemtl DesertTrunkMat
f 1//1 3//1 4//1
f 2//2 5//2 18//2
f 18//3 4//3 3//3
f 1//1 4//1 6//1
f 2//2 7//2 5//2
f 5//4 6//4 4//4
f 1//1 6//1 8//1
f 2//2 9//2 7//2
f 6//5 9//5 8//5
f 1//1 8//1 10//1
f 2//2 11//2 9//2
f 8//6 11//6 10//6
f 1//1 10//1 12//1
f 2//2 13//2 11//2
f 10//7 13//7 12//7
f 1//1 12//1 14//1
f 2//2 23//2 13//2
f 12//8 23//8 14//8
f 1//1 14//1 15//1
f 2//2 16//2 23//2
f 23//9 15//9 14//9
f 1//1 15//1 3//1
f 2//2 18//2 16//2
f 16//10 3//10 15//10
f 17//2 20//2 19//2
f 19//3 5//3 18//3
f 17//2 21//2 20//2
f 20//4 7//4 5//4
f 17//2 22//2 21//2
f 7//5 22//5 9//5
f 17//2 31//2 22//2
f 9//6 31//6 11//6
f 17//2 32//2 31//2
f 11//7 32//7 13//7
f 17//2 24//2 32//2
f 13//8 24//8 23//8
f 17//2 25//2 24//2
f 24//9 16//9 23//9
f 17//2 19//2 25//2
f 25//10 18//10 16//10
f 26//2 28//2 27//2
f 27//3 20//3 19//3
f 26//2 29//2 28//2
f 28//4 21//4 20//4
f 26//2 30//2 29//2
f 21//5 30//5 22//5
f 26//2 38//2 30//2
f 22//6 38//6 31//6
f 26//2 33//2 38//2
f 31//7 33//7 32//7
f 26//2 40//2 33//2
f 32//8 40//8 24//8
f 26//2 42//2 40//2
f 40//9 25//9 24//9
f 26//2 27//2 42//2
f 42//10 19//10 25//10
f 34//2 35//2 44//2
f 44//3 28//3 27//3
f 34//2 36//2 35//2
f 35//4 29//4 28//4
f 34//2 37//2 36//2
f 29//5 37//5 30//5
f 34//2 49//2 37//2
f 30//6 49//6 38//6
f 34//2 39//2 49//2
f 38//7 39//7 33//7
f 34//2 41//2 39//2
f 33//8 41//8 40//8
f 34//2 53//2 41//2
f 41//9 42//9 40//9
f 34//2 44//2 53//2
f 53//10 27//10 42//10
f 43//2 46//2 45//2
f 45//3 35//3 44//3
f 43//2 47//2 46//2
f 46//4 36//4 35//4
f 43//2 48//2 47//2
f 36//5 48//5 37//5
f 43//2 50//2 48//2
f 37//6 50//6 49//6
f 43//2 51//2 50//2
f 49//7 51//7 39//7
f 43//2 52//2 51//2
f 39//8 52//8 41//8
f 43//2 54//2 52//2
f 52//9 53//9 41//9
f 43//2 45//2 54//2
f 54//10 44//10 53//10
f 18//3 5//3 4//3
f 5//4 7//4 6//4
f 6//5 7//5 9//5
f 8//6 9//6 11//6
f 10//7 11//7 13//7
f 12//8 13//8 23//8
f 23//9 16//9 15//9
f 16//10 18//10 3//10
f 19//3 20//3 5//3
f 20//4 21//4 7//4
f 7//5 21//5 22//5
f 9//6 22//6 31//6
f 11//7 31//7 32//7
f 13//8 32//8 24//8
f 24//9 25//9 16//9
f 25//10 19//10 18//10
f 27//3 28//3 20//3
f 28//4 29//4 21//4
f 21//5 29//5 30//5
f 22//6 30//6 38//6
f 31//7 38//7 33//7
f 32//8 33//8 40//8
f 40//9 42//9 25//9
f 42//10 27//10 19//10
f 44//3 35//3 28//3
f 35//4 36//4 29//4
f 29//5 36//5 37//5
f 30//6 37//6 49//6
f 38//7 49//7 39//7
f 33//8 39//8 41//8
f 41//9 53//9 42//9
f 53//10 44//10 27//10
f 45//3 46//3 35//3
f 46//4 47//4 36//4
f 36//5 47//5 48//5
f 37//6 48//6 50//6
f 49//7 50//7 51//7
f 39//8 51//8 52//8
f 52//9 54//9 53//9
f 54//10 45//10 44//10
usemtl DesertFrondMat
f 55//11 59//11 56//11
f 59//11 57//11 56//11
f 61//12 59//12 58//12
f 59//13 63//13 60//13
f 64//14 62//14 61//14
f 62//15 66//15 63//15
f 64//16 68//16 65//16
f 68//17 66//17 65//17
f 67//18 71//18 68//18
f 71//19 69//19 68//19
f 70//20 74//20 71//20
f 74//21 72//21 71//21
f 76//22 80//22 77//22
f 80//22 78//22 77//22
f 82//23 80//23 79//23
f 80//24 84//24 81//24
f 85//25 83//25 82//25
f 83//26 87//26 84//26
f 88//27 86//27 85//27
f 86//28 90//28 87//28
f 88//29 92//29 89//29
f 92//30 90//30 89//30
f 91//31 95//31 92//31
f 95//32 93//32 92//32
f 97//33 101//33 98//33
f 101//33 99//33 98//33
f 103//34 101//34 100//34
f 101//35 105//35 102//35
f 106//36 104//36 103//36
f 104//37 108//37 105//37
f 106//38 110//38 107//38
f 110//39 108//39 107//39
f 109//40 113//40 110//40
f 113//41 111//41 110//41
f 112//42 116//42 113//42
f 116//43 114//43 113//43
f 118//44 122//44 119//44
f 122//44 120//44 119//44
f 124//45 122//45 121//45
f 122//46 126//46 123//46
f 127//47 125//47 124//47
f 125//48 129//48 126//48
f 127//49 131//49 128//49
f 131//50 129//50 128//50
f 130//51 134//51 131//51
f 134//52 132//52 131//52
f 133//53 137//53 134//53
f 137//54 135//54 134//54
f 139//55 143//55 140//55
f 143//55 141//55 140//55
f 145//56 143//56 142//56
f 143//57 147//57 144//57
f 148//58 146//58 145//58
f 146//59 150//59 147//59
f 148//60 152//60 149//60
f 152//61 150//61 149//61
f 151//62 155//62 152//62
f 155//63 153//63 152//63
f 154//64 158//64 155//64
f 158//65 156//65 155//65
f 160//66 164//66 161//66
f 164//66 162//66 161//66
f 166//67 164//67 163//67
f 164//68 168//68 165//68
f 169//69 167//69 166//69
f 167//70 171//70 168//70
f 169//71 173//71 170//71
f 173//72 171//72 170//72
f 172//73 176//73 173//73
f 176//74 174//74 173//74
f 175//75 179//75 176//75
f 179//76 177//76 176//76
f 181//77 185//77 182//77
f 185//77 183//77 182//77
f 187//78 185//78 184//78
f 185//79 189//79 186//79
f 190//80 188//80 187//80
f 188//81 192//81 189//81
f 190//82 194//82 191//82
f 194//83 192//83 191//83
f 193//84 197//84 194//84
f 197//85 195//85 194//85
f 196//86 200//86 197//86
f 200//87 198//87 197//87
f 202//88 206//88 203//88
f 206//88 204//88 203//88
f 208//89 206//89 205//89
f 206//90 210//90 207//90
f 211//91 209//91 208//91
f 209//92 213//92 210//92
f 211//93 215//93 212//93
f 215//94 213//94 212//94
f 214//95 218//95 215//95
f 218//96 216//96 215//96
f 217//97 221//97 218//97
f 221//98 219//98 218//98
f 55//99 58//99 59//99
f 59//100 60//100 57//100
f 61//101 62//101 59//101
f 59//102 62//102 63//102
f 64//103 65//103 62//103
f 62//104 65//104 66//104
f 64//105 67//105 68//105
f 68//106 69//106 66//106
f 67//107 70//107 71//107
f 71//108 72//108 69//108
f 70//109 73//109 74//109
f 74//110 75//110 72//110
f 76//111 79//111 80//111
f 80//112 81//112 78//112
f 82//113 83//113 80//113
f 80//114 83//114 84//114
f 85//115 86//115 83//115
f 83//116 86//116 87//116
f 88//117 89//117 86//117
f 86//118 89//118 90//118
f 88//119 91//119 92//119
f 92//120 93//120 90//120
f 91//121 94//121 95//121
f 95//122 96//122 93//122
f 97//123 100//123 101//123
f 101//124 102//124 99//124
f 103//125 104//125 101//125
f 101//126 104//126 105//126
f 106//127 107//127 104//127
f 104//128 107//128 108//128
f 106//129 109//129 110//129
f 110//130 111//130 108//130
f 109//131 112//131 113//131
f 113//132 114//132 111//132
f 112//133 115//133 116//133
f 116//134 117//134 114//134
f 118//135 121//135 122//135
f 122//136 123//136 120//136
f 124//137 125//137 122//137
f 122//138 125//138 126//138
f 127//139 128//139 125//139
f 125//140 128//140 129//140
f 127//141 130//141 131//141
f 131//142 132//142 129//142
f 130//143 133//143 134//143
f 134//144 135//144 132//144
f 133//145 136//145 137//145
f 137//146 138//146 135//146
f 139//147 142//147 143//147
f 143//148 144//148 141//148
f 145//149 146//149 143//149
f 143//150 146//150 147//150
f 148//151 149//151 146//151
f 146//152 149//152 150//152
f 148//153 151//153 152//153
f 152//154 153//154 150//154
f 151//155 154//155 155//155
f 155//156 156//156 153//156
f 154//157 157//157 158//157
f 158//158 159//158 156//158
f 160//159 163//159 164//159
f 164//160 165//160 162//160
f 166//161 167//161 164//161
f 164//162 167//162 168//162
f 169//163 170//163 167//163
f 167//164 170//164 171//164
f 169//165 172//165 173//165
f 173//166 174//166 171//166
f 172//167 175//167 176//167
f 176//168 177//168 174//168
f 175//169 178//169 179//169
f 179//170 180//170 177//170
f 181//171 184//171 185//171
f 185//172 186//172 183//172
f 187//173 188//173 185//173
f 185//174 188//174 189//174
f 190//175 191//175 188//175
f 188//176 191//176 192//176
f 190//177 193//177 194//177
f 194//178 195//178 192//178
f 193//179 196//179 197//179
f 197//180 198//180 195//180
f 196//181 199//181 200//181
f 200//182 201//182 198//182
f 202//183 205//183 206//183
f 206//184 207//184 204//184
f 208//185 209//185 206//185
f 206//186 209//186 210//186
f 211//187 212//187 209//187
f 209//188 212//188 213//188
f 211//189 214//189 215//189
f 215//190 216//190 213//190
f 214//191 217//191 218//191
f 218//192 219//192 216//192
f 217//193 220//193 221//193
f 221//194 222//194 219//194
