# File produced by Open Asset Import Library (http://www.assimp.sf.net)
# (assimp v5.3.0)

mtllib palmera_tri.mtl

# 373 vertex positions
v 365.115417 2386.14282 547.078064
v 365.302094 2402.49976 552.026855
v 234.040115 2273.35864 921.801636
v 233.853455 2257.00195 916.852722
v 8.63638878 2180.10474 1282.93445
v 8.82304001 2196.46167 1287.8833
v -214.497086 2278.4917 921.753662
v -214.683746 2262.13477 916.80481
v -331.264038 2377.12305 544.573608
v -331.070892 2394.02734 547.079468
v -206.672379 2493.10425 182.392578
v -206.859024 2476.74731 177.443848
v 12.9683609 2545.07446 -171.507385
v 13.1615381 2561.97852 -169.001526
v 242.103745 2508.88525 185.540771
v 241.917084 2492.52832 180.59198
v 11.9603415 2426.47949 564.942017
v -331.457245 2360.21875 542.06781
v -207.04567 2460.39062 172.495087
v 12.7751808 2528.16992 -174.013184
v 12.3481398 2497.84863 575.223511
v 364.928802 2369.78564 542.129272
v 241.730423 2476.17163 175.643219
v 233.666809 2240.64502 911.903931
v 8.4497366 2163.74805 1277.9856
v -214.870392 2245.77783 911.856079
v 237.885162 2520.59033 -114.154114
v 176.584732 2547.32202 -289.756287
v 130.863129 2540.98486 -243.482483
v 178.47139 2521.1626 -113.433472
v 133.658173 2502.23022 17.7364502
v 180.358032 2495.00293 62.8892517
v 0.229993567 2522.87891 -111.271667
v -1.65665841 2549.03857 -287.594482
v -133.198181 2543.52783 -240.279785
v -178.011383 2524.59546 -109.109863
v -130.403137 2504.77295 20.9391479
v 2.11664462 2496.71948 65.0511169
v -237.425156 2525.16748 -108.389282
v -176.124725 2498.43579 67.2129211
v -179.898041 2550.75488 -285.432617
v 2.74552917 2487.99951 123.825378
v -2.28554177 2557.7583 -346.368774
v -1.96143007 2255.82007 -79.9122314
v 50.5958519 2257.87109 -97.7990723
v 43.713604 2502.1123 -71.1508179
v 0.711498916 2499.96924 -53.3798828
v 0.0698458627 2508.86646 -113.348877
v -64.2071152 2509.48535 -112.569275
v -42.6597023 2502.94409 -70.1033325
v 69.3499069 2265.42578 -150.207397
v 49.4793854 2273.35229 -202.147278
v 42.7994118 2514.78882 -156.59436
v 62.5688019 2508.26465 -114.106873
v -76.5363007 2266.83057 -148.437927
v -54.8877716 2258.88696 -96.5197144
v -3.46606731 2276.68359 -220.538696
v -56.004261 2274.36816 -200.867859
v -43.5739136 2515.62061 -155.546814
v -0.59089309 2518.02808 -175.101746
v -677.177307 2444.75659 232.031464
v -679.482117 2461.49854 234.573517
v -1068.23584 2409.32275 105.002686
v -1065.93103 2392.58081 102.460632
v -1445.23206 2403.73267 -113.544373
v -1447.53687 2420.47485 -111.002319
v -1078.93225 2475.2002 -338.571167
v -1076.62744 2458.45825 -341.113098
v -694.060486 2530.0332 -458.964111
v -693.86731 2546.9375 -456.458252
v -315.047119 2571.39062 -337.356934
v -312.742371 2554.64844 -339.899048
v 48.1591034 2538.45264 -129.548279
v 48.3522797 2555.35693 -127.042419
v -304.111725 2526.427 109.317078
v -301.806976 2509.68481 106.775024
v -691.668701 2571.48511 -106.802124
v -694.253601 2513.12891 -461.470032
v -310.437561 2537.90625 -342.44104
v 47.9659195 2521.5481 -132.05426
v -696.456909 2606.26929 -101.520752
v -674.872559 2428.01416 229.48941
v -299.502167 2492.94287 104.233063
v -1063.62634 2375.83862 99.9185791
v -1442.92725 2386.99072 -116.086365
v -1074.32275 2441.71606 -343.655212
v 687.547363 2536.49292 -492.013733
v 690.23291 2553.20337 -489.642761
v 1079.41895 2458.021 -389.06958
v 1076.7334 2441.31055 -391.440796
v 1459.32397 2381.81592 -189.608032
v 1462.00952 2398.52637 -187.237
v 1098.27014 2392.0918 54.2246704
v 1095.58447 2375.38135 51.8535767
v 716.699585 2417.18823 193.51413
v 716.892761 2434.09253 196.02002
v 337.095978 2499.51685 97.2180176
v 334.410492 2482.8064 94.8468933
v -29.8317375 2535.47217 -103.429382
v -29.6385612 2552.37622 -100.923523
v 318.483887 2586.35986 -342.976196
v 315.798431 2569.64941 -345.347168
v 710.177368 2559.10913 -131.382751
v 716.506409 2400.28418 191.00824
v 331.725006 2466.09595 92.4758301
v -30.0249176 2518.56763 -105.935303
v 715.756531 2593.82739 -126.456543
v 684.861755 2519.78223 -494.384949
v 313.112885 2552.93896 -347.718201
v 1074.04797 2424.6001 -393.811707
v 1456.63855 2365.10547 -191.979126
v 1092.89893 2358.6709 49.482605
v 365.115479 2386.14307 547.078186
v 365.302155 2402.5 552.026978
v 234.040146 2273.35889 921.801636
v 233.853485 2257.00195 916.852722
v -214.497116 2278.4917 921.753662
v -214.683777 2262.13477 916.80481
v -331.264099 2377.12329 544.57373
v -331.070923 2394.02759 547.07959
v -206.672394 2493.10449 182.392731
v -206.859039 2476.7478 177.44397
v 12.9683657 2545.07471 -171.507202
v 13.1615429 2561.979 -169.001343
v 242.10376 2508.8855 185.540894
v 241.917114 2492.52881 180.592133
v 11.9603453 2463.86523 564.942078
v -331.457306 2360.21899 542.067871
v -207.045685 2460.39087 172.495178
v 12.7751856 2528.17041 -174.013062
v 12.3481426 2497.84888 575.223633
v 364.928833 2369.78589 542.129333
v 241.730453 2476.17188 175.643372
v 233.666824 2240.64502 911.903931
v -214.870422 2245.77808 911.856079
v -691.668701 2526.43237 -106.802124
v 710.177368 2517.34106 -131.382751
v -335.293152 2562.27197 -778.22467
v -335.060791 2579.34692 -778.904358
v -210.161102 2544.05762 -1171.07153
v -210.393448 2526.98242 -1170.39185
v 9.90354919 2538.95605 -1547.19043
v 10.1359043 2556.03125 -1547.87061
v 238.333496 2537.75586 -1176.05957
v 238.101135 2520.68091 -1175.37939
v 360.565186 2535.4397 -787.882507
v 360.824158 2552.43042 -786.060608
v 241.911072 2559.73779 -406.463257
v 241.678726 2542.66284 -405.783447
v 26.4049263 2526.56836 -47.7921143
v 26.6639156 2543.55908 -45.9700928
v -206.263031 2587.0603 -399.221252
v -206.495377 2569.98535 -398.541382
v 19.7477169 2599.89111 -780.976868
v 360.306183 2518.44897 -789.704529
v 241.44635 2525.58789 -405.103455
v 26.1459255 2509.57739 -49.6141357
v 20.2304611 2668.57715 -782.389343
v -335.525482 2545.19678 -777.544861
v -206.727722 2552.9104 -397.861389
v -210.625763 2509.90747 -1169.71191
v 9.67120361 2521.8811 -1546.51123
v 237.868759 2503.60596 -1174.69971
v 679.579346 2537.28833 263.182953
v 681.129761 2553.68896 267.731262
v 781.046265 2420.67114 645.836182
v 779.495911 2404.27051 641.287842
v 795.477234 2391.33813 1079.78394
v 797.027649 2407.73877 1084.3324
v 404.820953 2389.06494 888.050049
v 403.270538 2372.66431 883.501587
v 95.484375 2471.24634 636.684753
v 95.6775589 2488.15063 639.190613
v -5.12220478 2570.271 265.144135
v -6.6725769 2553.87036 260.595825
v -16.6889763 2606.63989 -153.641113
v -16.4957981 2623.54419 -151.135254
v 371.575958 2643.25635 29.0643921
v 370.025574 2626.85571 24.5160522
v 387.266296 2586.13599 471.138062
v 95.2911987 2454.34204 634.178833
v -8.22303009 2537.46973 256.047516
v -16.8821564 2589.73535 -156.147034
v 390.487366 2620.21069 480.587769
v 678.02887 2520.88745 258.634583
v 368.475098 2610.45508 19.9677124
v 777.945496 2387.86987 636.739502
v 793.926636 2374.9375 1075.23572
v 401.720123 2356.26367 878.953247
v -368.489136 2504.90039 562.46228
v -370.356598 2521.43921 566.342041
v -761.990417 2435.37207 665.618225
v -760.123047 2418.83325 661.738403
v -1194.48657 2483.11426 698.116455
v -1196.35413 2499.65308 701.996216
v -1015.68298 2499.83691 301.266541
v -1013.81555 2483.2981 297.38678
v -762.648254 2576.50562 -7.22467041
v -762.455017 2593.40991 -4.71875
v -382.822845 2634.11719 -110.74585
v -380.955353 2617.57837 -114.62561
v 35.9895935 2604.20093 -137.450256
v 36.1764717 2620.5542 -135.026123
v -128.615585 2614.69653 260.283142
v -126.748138 2598.15771 256.403412
v -573.615967 2624.11865 288.987793
v -762.841431 2559.60156 -9.73052979
v -379.08786 2601.03955 -118.50531
v 35.8141975 2588.85278 -139.725464
v -577.495667 2658.48047 297.04837
v -366.621643 2488.36133 558.582458
v -124.88063 2581.61914 252.52359
v -758.255493 2402.29443 657.858643
v -1192.61914 2466.57544 694.236572
v -1011.94812 2466.75928 293.506989
v 376.541718 2695.47705 -780.571838
v 378.765472 2712.38989 -779.530701
v 766.623352 2651.14795 -907.811584
v 764.399658 2634.23511 -908.852966
v 1199.53259 2687.03345 -935.872131
v 1201.75635 2703.94629 -934.83075
v 1027.08594 2594.6853 -547.002625
v 1024.86206 2577.77246 -548.044006
v 780.688843 2590.8728 -223.117798
v 780.882019 2607.77686 -220.611877
v 403.946259 2620.08545 -99.7689209
v 401.722656 2603.17261 -100.810425
v -15.0146856 2594.74805 -73.5509033
v -14.8215084 2611.65234 -71.0450439
v 143.952255 2717.54102 -454.50116
v 141.728653 2700.62817 -455.542725
v 588.579895 2726.12402 -488.717468
v 780.495667 2573.96851 -225.623657
v 399.498962 2586.25977 -101.851868
v -15.2078638 2577.84375 -76.0568237
v 593.199646 2761.2627 -486.553528
v 374.318054 2678.56396 -781.613342
v 139.505051 2683.71558 -456.584167
v 762.175964 2617.32227 -909.894714
v 1197.30908 2670.12061 -936.913757
v 1022.63849 2560.85962 -549.085632
v -637.079895 2632.46265 -468.507751
v -638.588562 2649.48511 -468.698181
v -743.069275 2617.73975 -867.090393
v -741.560608 2600.71729 -866.899841
v -760.581116 2705.35254 -1290.41284
v -762.089722 2722.375 -1290.60327
v -369.423798 2655.55029 -1112.44653
v -367.915131 2638.52783 -1112.25586
v -57.1879272 2662.52466 -853.024963
v -57.3158722 2679.50854 -851.12738
v 47.2670479 2656.40747 -471.409485
v 48.7756844 2639.38501 -471.219177
v 62.8592415 2591.44507 -57.3622437
v 62.731308 2608.42896 -55.4645996
v -326.140076 2674.30371 -218.562622
v -324.6315 2657.28149 -218.372253
v -346.644897 2732.06177 -660.35614
v -57.0600433 2645.54077 -854.922424
v 50.2842636 2622.36279 -471.028748
v 62.987175 2574.46094 -59.2598267
v -349.779236 2767.42822 -660.751526
v -635.571228 2615.44019 -468.317322
v -323.122772 2640.25903 -218.181824
v -740.051941 2583.69507 -866.709412
v -759.072449 2688.33032 -1290.22241
v -366.406525 2621.50562 -1112.06567
v -212.852554 2289.80566 -143.570801
v -148.638947 2112.84351 -170.512207
v -113.605156 2141.9707 -54.5039673
v -158.583328 2266.14014 11.8896484
v -171.739349 2440.3623 53.3821411
v -231.282013 2466.3269 -117.18457
v -175.404465 2491.18115 -289.151245
v -161.923843 2312.45801 -300.307129
v -115.951363 2174.5022 -273.776062
v -4.68366909 2318.6582 -354.253906
v -5.99763823 2132.61401 -314.876282
v -2.8850739 2497.98315 -348.339966
v 170.856049 2487.84668 -293.35083
v 153.670013 2309.41895 -304.134949
v 105.706665 2172.36768 -276.464478
v 207.939255 2285.75342 -148.674438
v 139.695633 2110.06689 -174.009277
v 230.398666 2461.8811 -122.78418
v 174.521149 2437.02783 49.1825562
v 157.010513 2263.10107 8.06195068
v 108.052864 2139.83594 -57.1923828
v -0.229658544 2256.90088 62.0085754
v -2.94566941 2090.29663 -29.6453247
v 2.00173068 2430.22485 108.371155
v -5.14331865 2052.68042 -180.973511
v -4.91696692 1986.08569 -109.4328
v 57.9911423 1988.03687 -127.445251
v 57.4780846 2013.63 -124.447205
v -4.63433981 2011.67114 -106.444519
v 107.977646 1150.78271 -250.562927
v 107.431732 1176.93384 -256.623535
v 88.1170731 1176.93384 -168.506348
v 88.6629868 1150.78271 -161.899841
v -4.5171837e-06 1150.78259 -144.463013
v -4.45420937e-06 1176.93372 -151.069458
v -88.1170883 1176.93384 -168.50647
v -88.663002 1150.78271 -161.899963
v -109.755783 1150.78271 -250.562988
v -109.209877 1176.93384 -256.623596
v -88.1170044 1176.93384 -344.740601
v -88.6629257 1150.78271 -339.225952
v 6.34116586e-05 53.213623 -251.539612
v 6.32934753e-05 4.13452148 -252.564209
v -112.599503 4.13452148 -233.323792
v -111.574966 53.213623 -232.299255
v 76.6356506 1997.11072 -190.092957
v 56.6555634 2006.5564 -252.272217
v 56.1593513 2031.91602 -247.700012
v 76.1310196 2022.58716 -186.307861
v -89.9522781 1998.71484 -188.072449
v -68.1941681 1989.25208 -125.914856
v -67.11586 2014.82983 -122.936096
v -88.8655396 2024.1759 -184.306641
v -6.64072657 2009.98743 -270.538086
v -69.5297546 2007.77161 -250.741821
v -68.4346008 2033.11572 -246.188904
v -6.3412528 2035.33936 -265.975464
v 65.4547195 1597.47253 -323.048645
v -10.6139326 1600.83521 -341.226074
v -11.1982269 1624.17065 -339.973511
v 64.2071686 1620.62292 -321.854492
v -86.2965698 1598.84546 -321.319641
v -86.1963501 1622.07129 -320.030396
v -106.632553 1588.57678 -245.968811
v -106.490669 1611.23743 -245.382263
v -84.7876663 1577.92334 -171.102905
v -84.6043777 1599.99744 -171.24585
v 66.963562 1576.55054 -172.831909
v 85.5215607 1586.83533 -248.162231
v 84.3154221 1609.40015 -247.696533
v 65.7990723 1598.54907 -173.069946
v 111.575111 53.213623 -232.299133
v 112.599655 4.13452148 -233.323669
v -122.106941 559.119873 -120.724121
v -121.451157 590.534302 -120.724243
v -100.358284 590.534302 -221.082581
v -101.014061 559.119873 -221.738342
v -101.014137 559.120117 -19.710022
v -100.35836 590.534302 -20.3657837
v -6.9675707e-07 559.120117 -2.27307129
v -1.09794564e-06 590.534302 -2.92883301
v 101.014122 559.120117 -19.710022
v 100.358345 590.534302 -20.3657227
v 120.328773 559.119873 -120.724182
v 119.672981 590.534302 -120.724121
v 101.014175 559.119873 -221.738281
v 100.358391 590.534302 -221.08252
v 88.6631012 1150.78271 -339.22583
v 88.1171951 1176.93384 -344.740601
v -8.73714828 1574.81152 -154.710327
v -9.21812057 1596.71448 -154.910706
v 7.27304359e-05 1150.78271 -358.466431
v 7.27934093e-05 1176.93384 -363.98114
v 6.36762561e-05 559.119873 -240.97876
v 6.37519115e-05 590.534302 -240.322937
v -133.692383 4.13452148 -120.724182
v -132.667847 53.213623 -120.724121
v -112.599586 4.13476562 -8.12457275
v -111.57505 53.2138672 -9.14910889
v 1.32255718e-05 4.13476562 9.31243896
v 1.19132474e-05 53.2138672 8.2878418
v 112.59964 4.13476562 -8.12451172
v 111.575096 53.2138672 -9.14904785
v 131.914261 4.13452148 -120.724121
v 130.889709 53.213623 -120.724121
v 3.75442687e-05 4.13452148 -120.724121

# 0 UV coordinates

# 361 vertex normals
vn 212.658066 -22.8516102 67.508194
vn -192.652252 -31.2365417 110.509666
vn -213.104767 17.6006432 -67.6725616
vn 188.751297 24.4369888 -118.654076
vn 31.2443771 -219.098465 -36.368084
vn 39.1608467 218.887207 29.2884064
vn -51.4804726 216.731018 26.0850468
vn -65.1530685 198.034271 82.7073135
vn 64.3688431 196.763947 86.2763367
vn -19.0149536 -219.992355 -39.3037987
vn -46.5054016 -204.398102 -79.7600403
vn 46.784111 -205.579758 -76.4931564
vn 188.359909 24.5749149 -119.246086
vn -190.530777 27.9451523 -114.978691
vn -190.901077 27.8185768 -114.393677
vn -213.239151 17.512104 -67.2709808
vn -214.690994 -11.8473787 63.799839
vn -214.807037 -11.7619553 63.4239197
vn -192.65242 -31.2363777 110.509468
vn 191.863525 -35.6367149 110.550491
vn 191.863403 -35.6368256 110.550713
vn 212.658066 -22.8512402 67.5083466
vn 213.431427 17.7157001 -66.60466
vn 213.431366 17.7157211 -66.6047897
vn 2.53517318 221.844696 32.8860931
vn 2.53518271 221.844696 32.8861008
vn 2.53517747 221.844696 32.8861008
vn 2.53519392 221.844681 32.8860931
vn 2.53519535 221.844696 32.8861008
vn 2.53519392 221.844711 32.8860931
vn 2.53510237 221.844696 32.8861008
vn 2.53517532 221.844711 32.8861008
vn 2.53522825 221.844696 32.8861427
vn 2.535151 221.844696 32.8861046
vn 2.53519964 221.844696 32.8861313
vn 2.53517032 221.844696 32.8861008
vn 78.8786621 -22.0556374 208.793457
vn 2.53525639 221.844681 32.886116
vn 207.055603 19.8975353 -83.8753738
vn -204.028824 -1.6231457 93.1268539
vn -85.4958954 40.9382896 -203.267136
vn 81.3136826 39.3319168 -205.290283
vn -205.937866 24.8476696 -85.2947388
vn 208.827042 -4.66532803 81.6854324
vn 2.53512049 221.844711 32.8860664
vn 2.53519392 221.844681 32.8861046
vn 2.5351882 221.844681 32.8861122
vn -74.20224 -20.5812626 210.65004
vn -64.7648773 -40.9223595 210.793457
vn -118.974167 12.4275875 -189.720078
vn 64.0886002 35.818676 -211.926117
vn 125.843292 -19.797514 184.59285
vn -6.7430687 -223.205765 20.8977642
vn 6.56434679 213.430908 68.608757
vn 7.05266762 223.129944 -21.5935268
vn -52.1404953 215.323837 -34.9285927
vn -52.5280113 197.050735 93.3532028
vn -6.28534174 -213.682465 -67.8475723
vn 52.2784615 -197.398102 -92.7574463
vn 52.0112877 -215.497284 34.0403938
vn 126.439232 -19.6988029 184.195755
vn 112.999069 35.6608086 -190.4272
vn 112.39196 35.6779633 -190.782944
vn 63.674633 35.8101006 -212.052292
vn -70.3775406 27.2687435 -211.202301
vn -69.9958572 27.3111248 -211.323639
vn -118.974365 12.4279137 -189.71994
vn -109.804733 -44.0461884 190.54097
vn -109.804565 -44.0478325 190.54068
vn -64.7649612 -40.9211197 210.793671
vn 74.0379181 -21.7819901 210.587128
vn 74.0380402 -21.7820606 210.587067
vn 60.6196251 20.7541656 -214.936096
vn 122.019516 -45.5203362 182.598312
vn -60.0548286 -25.9814625 214.52597
vn -128.995117 37.1153336 -179.682266
vn 0.847468972 -207.619034 -84.83284
vn -2.2271502 224.242569 -3.64737844
vn -1.14860356 207.350677 85.4832077
vn 58.0199623 194.846115 94.7189178
vn 56.0672264 214.589249 -33.3304787
vn 1.93080437 -224.256851 2.85212016
vn -55.8352089 -214.753632 32.6544571
vn -57.8821411 -195.272324 -93.9221878
vn -129.582458 37.1051025 -179.261246
vn -109.264061 -18.9267368 194.95166
vn -108.651726 -19.0282993 195.283707
vn -59.6393204 -26.0329456 214.63559
vn 74.1301041 -36.5965805 208.490829
vn 73.7514191 -36.5853462 208.627029
vn 122.019958 -45.5182877 182.598526
vn 105.859573 11.0009232 -197.422745
vn 105.859322 11.0004292 -197.422897
vn 60.6195602 20.7554932 -214.936005
vn -77.6427383 41.7416191 -206.233505
vn -77.6428223 41.7401123 -206.233749
vn 212.658081 -22.8515701 67.5081635
vn -192.652344 -31.2364979 110.509529
vn -213.104721 17.6006489 -67.6726532
vn 188.75119 24.438097 -118.654022
vn 50.8096428 -216.846909 -26.4347076
vn 39.1608315 218.887207 29.2884693
vn -51.4804611 216.730988 26.0851078
vn -65.153038 198.034271 82.7073746
vn 64.3688202 196.763901 86.2763977
vn -38.3656769 -218.990585 -29.5668335
vn -63.7380486 -197.065842 -86.0553055
vn 64.2935486 -198.339874 -82.6476669
vn 188.359909 24.5749111 -119.246071
vn -190.530746 27.9455223 -114.978645
vn -190.901062 27.8185673 -114.393715
vn -213.239243 17.512289 -67.2706909
vn -214.690964 -11.8474073 63.7999382
vn -214.806992 -11.7619953 63.4240799
vn -192.652283 -31.236414 110.509705
vn 191.863434 -35.6367645 110.550652
vn 191.86351 -35.636776 110.550545
vn 212.65802 -22.8513794 67.5084152
vn 213.431412 17.7157784 -66.6047211
vn 213.431412 17.7157097 -66.6046677
vn 4.30057049 -224.207077 -3.95950484
vn 5.69250727 -219.562073 -45.4212074
vn 43.7435608 -207.661011 -72.5699844
vn 42.0451317 -220.043335 10.7768965
vn -8.65657616 -214.838776 -63.8150826
vn -9.80554771 -223.283478 -18.7439384
vn -48.0488472 -218.814301 10.7056952
vn -49.1178856 -205.190582 -76.0739975
vn -213.70134 0.197900236 -68.0786209
vn 190.892136 -7.27713871 -117.516998
vn 214.00296 -5.32939005 66.9128418
vn -187.122101 -1.44668365 123.637497
vn -39.2115593 -219.890228 -20.3404064
vn -33.2675095 220.132263 27.1671944
vn 57.2997856 214.966095 28.4483757
vn 70.0307846 210.766815 -31.2414703
vn -59.4990158 213.685211 -33.188858
vn 15.1061516 -223.01474 -18.4180965
vn 42.2531891 -218.774399 25.6012821
vn -53.0439072 -216.639572 23.5932541
vn -186.722794 -1.47137606 124.239456
vn 192.07338 -6.6468811 115.614182
vn 192.435715 -6.63163376 115.010971
vn 214.131943 -5.31841755 66.4998474
vn 213.804092 -0.812660873 -67.750679
vn 213.925232 -0.827163458 -67.3670502
vn 190.892273 -7.27521944 -117.516853
vn -193.587143 -1.87581456 -113.240921
vn -193.587082 -1.87410128 -113.241051
vn -213.70134 0.196906015 -68.0786362
vn -212.361115 5.75368071 71.9211426
vn -212.361145 5.75323009 71.9211731
vn 216.433578 -4.19013786 -58.66819
vn -96.5422134 -45.5764656 197.244492
vn -216.553482 -1.02532315 58.3655472
vn 91.1894226 37.879467 -201.376846
vn 50.1804276 -214.162369 -43.8110962
vn 15.9282122 223.459106 10.7381544
vn -50.9090004 213.975693 43.8825989
vn -47.6650238 189.899796 109.40345
vn 93.7572937 202.457748 22.8783112
vn -15.3314018 -223.467728 -11.4068184
vn -93.1284943 -202.732132 -23.0165653
vn 47.1439056 -190.298203 -108.935951
vn 90.5204391 37.9732819 -201.660797
vn -223.952438 10.3735008 6.37924528
vn -223.9384 10.2253218 7.07313347
vn -216.441849 -1.11783302 58.7766266
vn -144.476578 -28.2744656 169.204254
vn -144.783813 -28.2065716 168.952789
vn -96.5426865 -45.5730553 197.245071
vn 223.333069 -18.7030888 -8.69112492
vn 223.333145 -18.7022247 -8.69111252
vn 216.43364 -4.19009161 -58.6679001
vn 141.446808 33.9701195 -170.709793
vn 141.446945 33.970871 -170.709534
vn 62.8307495 -42.4230919 211.08194
vn -204.458725 -1.46227872 -92.1819153
vn -63.4027214 37.2814865 -211.880112
vn 207.11087 -5.87516165 85.8695374
vn 11.0989304 -223.288605 17.9447269
vn 24.9985847 218.227722 45.329113
vn -10.5901794 223.276657 -18.3949413
vn -76.239212 210.075989 -18.9383984
vn 14.9647913 188.043655 121.320396
vn -24.3661652 -218.273422 -45.4533691
vn -14.8607635 -188.420471 -120.747177
vn 75.6935959 -210.319351 18.4188251
vn 207.384903 -5.44739389 85.2340317
vn -10.3644581 41.9309845 -220.0849
vn -11.0617485 41.6189384 -220.110214
vn -63.819622 37.2386284 -211.762451
vn -175.264694 17.7323933 -138.819504
vn -175.01329 17.8031406 -139.127274
vn -204.458664 -1.46061087 -92.1819916
vn 10.8893919 -49.9967194 218.368378
vn 10.8894253 -49.9966316 218.368423
vn 62.8305321 -42.4219513 211.082245
vn 177.514771 -11.9902105 136.556747
vn 177.514801 -11.9905777 136.556671
vn -66.9642334 21.9141445 -212.928543
vn 205.637802 -32.183773 83.5482101
vn 67.3777618 -27.0750217 212.20314
vn -208.434128 23.2338333 -79.4884109
vn -16.6494751 -207.615204 -83.1968994
vn -20.191906 222.438065 20.4105453
vn 16.777359 207.328079 83.8843689
vn 84.7756577 193.244919 75.9768753
vn -9.14318562 215.862518 -60.1895027
vn 19.505085 -222.44577 -20.9863815
vn 9.016572 -216.051102 59.5283241
vn -84.2371368 -193.651093 -75.5403976
vn -208.698578 23.1815109 -78.8069
vn 14.6896992 -24.3874817 222.469025
vn 15.3960495 -24.4307194 222.416534
vn 67.792305 -27.0898476 212.069214
vn 177.618546 -26.7821293 134.303314
vn 177.374069 -26.7984982 134.622772
vn 205.637848 -32.1804657 83.5493851
vn -15.7767448 15.8172512 -223.167892
vn -15.7765503 15.8179293 -223.167877
vn -66.9638062 21.9164581 -212.928436
vn -179.744476 31.6589222 -130.355804
vn -179.744553 31.6582699 -130.355881
vn -215.843277 -18.4806404 58.0787735
vn 93.4811325 6.00419188 -203.78476
vn 215.996674 13.3521461 -58.9081001
vn -88.3230362 -14.5752287 205.644363
vn -54.7149315 -217.220963 -11.1500635
vn -14.8103724 218.829178 46.8768883
vn 55.4314156 217.045563 11.0262289
vn 46.9952812 212.386337 -54.6487312
vn -93.3894043 201.405472 31.8943348
vn 14.2212009 -219.006638 -46.225975
vn 92.7638931 -201.704987 -31.8269825
vn -46.4938278 -212.642502 54.0785179
vn -87.6441956 -14.556735 205.935913
vn 223.929825 11.0764437 -5.97934723
vn 223.90802 11.1115046 -6.68857241
vn 215.879929 13.3671417 -59.3310814
vn 142.469742 15.5160017 -172.524307
vn 142.781143 15.5186405 -172.266418
vn 93.4815521 6.00469971 -203.784531
vn -223.353607 -19.7383518 5.15453911
vn -223.353683 -19.7375183 5.1544981
vn -215.843277 -18.4806938 58.0788002
vn -139.513901 -10.4042864 175.301544
vn -139.513931 -10.4042034 175.301514
vn 69.8971786 -171.808182 -126.09259
vn -194.257095 -90.8114471 65.7302322
vn -211.027863 -32.3085403 68.7488556
vn -212.520325 -11.6147013 -70.7334442
vn -195.871811 -68.4222336 -85.1799927
vn -79.2622986 -52.2598915 -203.197906
vn -73.0129242 7.72115421 -211.92572
vn 67.9870682 6.36366367 -213.635818
vn 73.2901611 -53.7291336 -205.048111
vn 192.394669 -72.1611633 -89.8891907
vn 210.47937 -15.6880989 -75.8638611
vn 211.971832 -36.3819122 63.6184082
vn 194.009384 -94.5504684 61.0211143
vn 77.3998337 -110.712715 179.038986
vn 72.4644241 -55.7178612 204.810745
vn -68.5355759 -54.3601379 206.520844
vn -75.1525116 -109.243721 180.889221
vn -91.6586075 -170.109833 -113.861038
vn 85.5778885 -171.81665 -116.01062
vn 87.4538574 -197.828674 59.3180847
vn -89.782486 -196.121933 61.467762
vn 211.971832 -36.3819656 63.6183777
vn 210.479355 -15.6882172 -75.8638153
vn -212.52034 -11.6147137 -70.7334366
vn -211.027863 -32.3085632 68.7488785
vn -68.535553 -54.3601952 206.520828
vn 72.4644012 -55.7179794 204.810699
vn 67.9870911 6.36309052 -213.635834
vn -73.0129089 7.72151899 -211.925705
vn 62.4206505 -24.7500839 213.99556
vn 218.545822 16.1281586 47.755661
vn -42.1134605 54.3709526 213.478943
vn -218.052521 -6.96407843 -52.034687
vn -37.9347992 5.00942373 -220.995148
vn 213.582428 15.1783504 -66.7469864
vn -211.584778 -0.854970992 74.3919067
vn -67.9298325 39.6360855 -210.041748
vn 63.5669403 38.368206 -211.63678
vn 52.7521973 13.5294847 -217.57103
vn -57.5558586 11.2199516 -216.481964
vn -213.097534 20.1205177 -66.989624
vn -216.579956 3.52049732 -58.1698036
vn -215.166931 0.936305523 63.2876167
vn 214.979187 -4.18911743 63.7919121
vn 217.077835 11.2655697 55.2566452
vn 216.647156 13.6757002 -56.391468
vn 37.9351006 5.00934982 -220.995117
vn -219.462128 5.06130648 -45.9756012
vn -219.462234 5.06122732 45.9751244
vn -217.521851 17.1122551 51.907814
vn -38.2623825 5.0114007 220.938614
vn 38.2625237 5.0113759 220.938614
vn 42.1133385 54.3701057 213.479172
vn 220.211594 5.0379777 42.2431793
vn 220.211563 5.03793621 -42.2432861
vn 219.034225 -6.02022934 -47.8620682
vn -57.6775017 -23.593441 215.452225
vn -47.3201523 1.39250326 219.230164
vn 52.3883095 4.14130259 218.039719
vn 46.7433052 -44.7943687 -214.735931
vn -46.7429428 -44.7962151 -214.735641
vn 42.0867538 5.03729391 -220.241562
vn -42.0864754 5.03599596 -220.241623
vn -220.359009 5.03284264 -41.4677582
vn -220.359039 5.03283405 41.4675446
vn -34.4675484 4.98472881 221.562958
vn 34.4676781 4.98488283 221.562943
vn 220.970657 5.01029921 38.0771523
vn 220.970642 5.01030779 -38.0772324
vn 0.000361755578 -224.283295 4.81473689e-05
vn 68.9266968 40.0535393 -209.637375
vn -73.2063217 41.422226 -207.913544
vn -211.059265 22.9338112 -72.3258667
vn -209.426514 0.294318706 80.2711563
vn 213.260193 -2.95640349 69.3855057
vn 211.750595 17.9759655 -71.7045822
vn -62.6139755 -21.3316708 214.306931
vn 67.3704529 -22.5834904 212.730377
vn -43.8339996 -44.9476929 -215.316711
vn 43.8341331 -44.9477844 -215.316666
vn -5.40096494e-07 -224.283295 4.36662267e-05
vn 0.000361720653 -224.283295 4.81469397e-05
vn -0.000365295244 -224.283295 3.91546637e-05
vn 47.527504 3.97052479 219.153763
vn -45.2398796 1.40880549 219.668793
vn 217.812057 13.5693464 -51.7376137
vn 218.05719 11.3381376 51.2397652
vn -216.8647 1.00910866 57.1987152
vn -217.435593 3.39121628 -54.8932419
vn -52.1975174 11.3493891 -217.82933
vn 50.0086479 13.4567852 -218.222504
vn -52.4113808 -23.8861599 216.761398
vn 216.590393 -3.40580606 58.1378593
vn -214.9823 19.21451 -60.9624405
vn 57.875576 38.6317368 -213.215881
vn -62.2745972 39.7888412 -211.758652
vn -213.598099 0.0217788033 68.4021454
vn 215.314133 14.2910357 -61.1440392
vn 57.1829987 -24.9414577 215.432205
vn 219.679016 -5.34994173 -44.8944893
vn 39.4745407 54.4639511 213.958969
vn -218.315063 16.3576927 48.7233315
vn -218.813248 -6.24003315 -48.8346863
vn -39.4748611 54.4639282 213.958908
vn 219.2211 15.4266529 44.8010406
vn 220.614502 5.02379704 -40.0874748
vn 220.614517 5.02381516 40.0875359
vn 36.2979164 4.99796152 221.270187
vn -36.2979774 4.99795914 221.270157
vn -219.938049 5.04680538 43.6438942
vn -219.938004 5.04678631 -43.6440125
vn 39.9384842 5.02275372 -220.641541
vn -39.938324 5.02281952 -220.641586

# Mesh 'Cube.002' with 580 faces
g Cube.002
usemtl Material.015
f  1//1 2//1 3//1
f  1//1 3//1 4//1
f  5//2 6//2 7//2
f  5//2 7//2 8//2
f  9//3 10//3 11//3
f  9//3 11//3 12//3
f  13//4 14//4 15//4
f  13//4 15//4 16//4
f  17//5 18//5 19//5
f  17//5 19//5 20//5
f  21//6 2//6 15//6
f  21//6 15//6 14//6
f  10//7 21//7 14//7
f  10//7 14//7 11//7
f  7//8 6//8 21//8
f  7//8 21//8 10//8
f  6//9 3//9 2//9
f  6//9 2//9 21//9
f  22//10 17//10 20//10
f  22//10 20//10 23//10
f  24//11 25//11 17//11
f  24//11 17//11 22//11
f  25//12 26//12 18//12
f  25//12 18//12 17//12
f  20//13 13//13 16//13
f  20//13 16//13 23//13
f  19//14 12//14 13//14
f  19//14 13//14 20//14
f  12//15 11//15 14//15
f  12//15 14//15 13//15
f  18//16 9//16 12//16
f  18//16 12//16 19//16
f  26//17 8//17 9//17
f  26//17 9//17 18//17
f  8//18 7//18 10//18
f  8//18 10//18 9//18
f  25//19 5//19 8//19
f  25//19 8//19 26//19
f  24//20 4//20 5//20
f  24//20 5//20 25//20
f  4//21 3//21 6//21
f  4//21 6//21 5//21
f  22//22 1//22 4//22
f  22//22 4//22 24//22
f  23//23 16//23 1//23
f  23//23 1//23 22//23
f  16//24 15//24 2//24
f  16//24 2//24 1//24
f  27//25 28//25 29//25
f  27//25 29//25 30//25
f  27//26 30//26 31//26
f  27//26 31//26 32//26
f  33//27 30//27 29//27
f  33//27 29//27 34//27
f  33//28 34//28 35//28
f  33//28 35//28 36//28
f  33//29 36//29 37//29
f  33//29 37//29 38//29
f  33//30 38//30 31//30
f  33//30 31//30 30//30
f  39//31 40//31 37//31
f  39//31 37//31 36//31
f  39//32 36//32 35//32
f  39//32 35//32 41//32
f  42//33 32//33 31//33
f  42//33 31//33 38//33
f  42//34 38//34 37//34
f  42//34 37//34 40//34
f  43//35 41//35 35//35
f  43//35 35//35 34//35
f  43//36 34//36 29//36
f  43//36 29//36 28//36
f  44//37 45//37 46//37
f  44//37 46//37 47//37
f  48//38 49//38 50//38
f  48//38 50//38 47//38
f  51//39 52//39 53//39
f  51//39 53//39 54//39
f  55//40 56//40 50//40
f  55//40 50//40 49//40
f  57//41 58//41 59//41
f  57//41 59//41 60//41
f  52//42 57//42 60//42
f  52//42 60//42 53//42
f  58//43 55//43 49//43
f  58//43 49//43 59//43
f  45//44 51//44 54//44
f  45//44 54//44 46//44
f  54//45 48//45 47//45
f  54//45 47//45 46//45
f  53//46 60//46 48//46
f  53//46 48//46 54//46
f  60//47 59//47 49//47
f  60//47 49//47 48//47
f  56//48 44//48 47//48
f  56//48 47//48 50//48
f  61//49 62//49 63//49
f  61//49 63//49 64//49
f  65//50 66//50 67//50
f  65//50 67//50 68//50
f  69//51 70//51 71//51
f  69//51 71//51 72//51
f  73//52 74//52 75//52
f  73//52 75//52 76//52
f  77//53 78//53 79//53
f  77//53 79//53 80//53
f  81//54 62//54 75//54
f  81//54 75//54 74//54
f  70//55 81//55 74//55
f  70//55 74//55 71//55
f  67//56 66//56 81//56
f  67//56 81//56 70//56
f  66//57 63//57 62//57
f  66//57 62//57 81//57
f  82//58 77//58 80//58
f  82//58 80//58 83//58
f  84//59 85//59 77//59
f  84//59 77//59 82//59
f  85//60 86//60 78//60
f  85//60 78//60 77//60
f  80//61 73//61 76//61
f  80//61 76//61 83//61
f  79//62 72//62 73//62
f  79//62 73//62 80//62
f  72//63 71//63 74//63
f  72//63 74//63 73//63
f  78//64 69//64 72//64
f  78//64 72//64 79//64
f  86//65 68//65 69//65
f  86//65 69//65 78//65
f  68//66 67//66 70//66
f  68//66 70//66 69//66
f  85//67 65//67 68//67
f  85//67 68//67 86//67
f  84//68 64//68 65//68
f  84//68 65//68 85//68
f  64//69 63//69 66//69
f  64//69 66//69 65//69
f  82//70 61//70 64//70
f  82//70 64//70 84//70
f  83//71 76//71 61//71
f  83//71 61//71 82//71
f  76//72 75//72 62//72
f  76//72 62//72 61//72
f  87//73 88//73 89//73
f  87//73 89//73 90//73
f  91//74 92//74 93//74
f  91//74 93//74 94//74
f  95//75 96//75 97//75
f  95//75 97//75 98//75
f  99//76 100//76 101//76
f  99//76 101//76 102//76
f  103//77 104//77 105//77
f  103//77 105//77 106//77
f  107//78 88//78 101//78
f  107//78 101//78 100//78
f  96//79 107//79 100//79
f  96//79 100//79 97//79
f  93//80 92//80 107//80
f  93//80 107//80 96//80
f  92//81 89//81 88//81
f  92//81 88//81 107//81
f  108//82 103//82 106//82
f  108//82 106//82 109//82
f  110//83 111//83 103//83
f  110//83 103//83 108//83
f  111//84 112//84 104//84
f  111//84 104//84 103//84
f  106//85 99//85 102//85
f  106//85 102//85 109//85
f  105//86 98//86 99//86
f  105//86 99//86 106//86
f  98//87 97//87 100//87
f  98//87 100//87 99//87
f  104//88 95//88 98//88
f  104//88 98//88 105//88
f  112//89 94//89 95//89
f  112//89 95//89 104//89
f  94//90 93//90 96//90
f  94//90 96//90 95//90
f  111//91 91//91 94//91
f  111//91 94//91 112//91
f  110//92 90//92 91//92
f  110//92 91//92 111//92
f  90//93 89//93 92//93
f  90//93 92//93 91//93
f  108//94 87//94 90//94
f  108//94 90//94 110//94
f  109//95 102//95 87//95
f  109//95 87//95 108//95
f  102//96 101//96 88//96
f  102//96 88//96 87//96
f  113//97 114//97 115//97
f  113//97 115//97 116//97
f  5//98 6//98 117//98
f  5//98 117//98 118//98
f  119//99 120//99 121//99
f  119//99 121//99 122//99
f  123//100 124//100 125//100
f  123//100 125//100 126//100
f  127//101 128//101 129//101
f  127//101 129//101 130//101
f  131//102 114//102 125//102
f  131//102 125//102 124//102
f  120//103 131//103 124//103
f  120//103 124//103 121//103
f  117//104 6//104 131//104
f  117//104 131//104 120//104
f  6//105 115//105 114//105
f  6//105 114//105 131//105
f  132//106 127//106 130//106
f  132//106 130//106 133//106
f  134//107 25//107 127//107
f  134//107 127//107 132//107
f  25//108 135//108 128//108
f  25//108 128//108 127//108
f  130//109 123//109 126//109
f  130//109 126//109 133//109
f  129//110 122//110 123//110
f  129//110 123//110 130//110
f  122//111 121//111 124//111
f  122//111 124//111 123//111
f  128//112 119//112 122//112
f  128//112 122//112 129//112
f  135//113 118//113 119//113
f  135//113 119//113 128//113
f  118//114 117//114 120//114
f  118//114 120//114 119//114
f  25//115 5//115 118//115
f  25//115 118//115 135//115
f  134//116 116//116 5//116
f  134//116 5//116 25//116
f  116//117 115//117 6//117
f  116//117 6//117 5//117
f  132//118 113//118 116//118
f  132//118 116//118 134//118
f  133//119 126//119 113//119
f  133//119 113//119 132//119
f  126//120 125//120 114//120
f  126//120 114//120 113//120
f  61//49 62//49 63//49
f  61//49 63//49 64//49
f  65//50 66//50 67//50
f  65//50 67//50 68//50
f  69//51 70//51 71//51
f  69//51 71//51 72//51
f  73//52 74//52 75//52
f  73//52 75//52 76//52
f  136//121 78//121 79//121
f  136//121 79//121 80//121
f  81//54 62//54 75//54
f  81//54 75//54 74//54
f  70//55 81//55 74//55
f  70//55 74//55 71//55
f  67//56 66//56 81//56
f  67//56 81//56 70//56
f  66//57 63//57 62//57
f  66//57 62//57 81//57
f  82//122 136//122 80//122
f  82//122 80//122 83//122
f  84//123 85//123 136//123
f  84//123 136//123 82//123
f  85//124 86//124 78//124
f  85//124 78//124 136//124
f  80//61 73//61 76//61
f  80//61 76//61 83//61
f  79//62 72//62 73//62
f  79//62 73//62 80//62
f  72//63 71//63 74//63
f  72//63 74//63 73//63
f  78//64 69//64 72//64
f  78//64 72//64 79//64
f  86//65 68//65 69//65
f  86//65 69//65 78//65
f  68//66 67//66 70//66
f  68//66 70//66 69//66
f  85//67 65//67 68//67
f  85//67 68//67 86//67
f  84//68 64//68 65//68
f  84//68 65//68 85//68
f  64//69 63//69 66//69
f  64//69 66//69 65//69
f  82//70 61//70 64//70
f  82//70 64//70 84//70
f  83//71 76//71 61//71
f  83//71 61//71 82//71
f  76//72 75//72 62//72
f  76//72 62//72 61//72
f  87//73 88//73 89//73
f  87//73 89//73 90//73
f  91//74 92//74 93//74
f  91//74 93//74 94//74
f  95//75 96//75 97//75
f  95//75 97//75 98//75
f  99//76 100//76 101//76
f  99//76 101//76 102//76
f  137//125 104//125 105//125
f  137//125 105//125 106//125
f  107//78 88//78 101//78
f  107//78 101//78 100//78
f  96//79 107//79 100//79
f  96//79 100//79 97//79
f  93//80 92//80 107//80
f  93//80 107//80 96//80
f  92//81 89//81 88//81
f  92//81 88//81 107//81
f  108//126 137//126 106//126
f  108//126 106//126 109//126
f  110//127 111//127 137//127
f  110//127 137//127 108//127
f  111//128 112//128 104//128
f  111//128 104//128 137//128
f  106//85 99//85 102//85
f  106//85 102//85 109//85
f  105//86 98//86 99//86
f  105//86 99//86 106//86
f  98//87 97//87 100//87
f  98//87 100//87 99//87
f  104//88 95//88 98//88
f  104//88 98//88 105//88
f  112//89 94//89 95//89
f  112//89 95//89 104//89
f  94//90 93//90 96//90
f  94//90 96//90 95//90
f  111//91 91//91 94//91
f  111//91 94//91 112//91
f  110//92 90//92 91//92
f  110//92 91//92 111//92
f  90//93 89//93 92//93
f  90//93 92//93 91//93
f  108//94 87//94 90//94
f  108//94 90//94 110//94
f  109//95 102//95 87//95
f  109//95 87//95 108//95
f  102//96 101//96 88//96
f  102//96 88//96 87//96
f  138//129 139//129 140//129
f  138//129 140//129 141//129
f  142//130 143//130 144//130
f  142//130 144//130 145//130
f  146//131 147//131 148//131
f  146//131 148//131 149//131
f  150//132 151//132 152//132
f  150//132 152//132 153//132
f  154//133 155//133 156//133
f  154//133 156//133 157//133
f  158//134 139//134 152//134
f  158//134 152//134 151//134
f  147//135 158//135 151//135
f  147//135 151//135 148//135
f  144//136 143//136 158//136
f  144//136 158//136 147//136
f  143//137 140//137 139//137
f  143//137 139//137 158//137
f  159//138 154//138 157//138
f  159//138 157//138 160//138
f  161//139 162//139 154//139
f  161//139 154//139 159//139
f  162//140 163//140 155//140
f  162//140 155//140 154//140
f  157//141 150//141 153//141
f  157//141 153//141 160//141
f  156//142 149//142 150//142
f  156//142 150//142 157//142
f  149//143 148//143 151//143
f  149//143 151//143 150//143
f  155//144 146//144 149//144
f  155//144 149//144 156//144
f  163//145 145//145 146//145
f  163//145 146//145 155//145
f  145//146 144//146 147//146
f  145//146 147//146 146//146
f  162//147 142//147 145//147
f  162//147 145//147 163//147
f  161//148 141//148 142//148
f  161//148 142//148 162//148
f  141//149 140//149 143//149
f  141//149 143//149 142//149
f  159//150 138//150 141//150
f  159//150 141//150 161//150
f  160//151 153//151 138//151
f  160//151 138//151 159//151
f  153//152 152//152 139//152
f  153//152 139//152 138//152
f  164//153 165//153 166//153
f  164//153 166//153 167//153
f  168//154 169//154 170//154
f  168//154 170//154 171//154
f  172//155 173//155 174//155
f  172//155 174//155 175//155
f  176//156 177//156 178//156
f  176//156 178//156 179//156
f  180//157 181//157 182//157
f  180//157 182//157 183//157
f  184//158 165//158 178//158
f  184//158 178//158 177//158
f  173//159 184//159 177//159
f  173//159 177//159 174//159
f  170//160 169//160 184//160
f  170//160 184//160 173//160
f  169//161 166//161 165//161
f  169//161 165//161 184//161
f  185//162 180//162 183//162
f  185//162 183//162 186//162
f  187//163 188//163 180//163
f  187//163 180//163 185//163
f  188//164 189//164 181//164
f  188//164 181//164 180//164
f  183//165 176//165 179//165
f  183//165 179//165 186//165
f  182//166 175//166 176//166
f  182//166 176//166 183//166
f  175//167 174//167 177//167
f  175//167 177//167 176//167
f  181//168 172//168 175//168
f  181//168 175//168 182//168
f  189//169 171//169 172//169
f  189//169 172//169 181//169
f  171//170 170//170 173//170
f  171//170 173//170 172//170
f  188//171 168//171 171//171
f  188//171 171//171 189//171
f  187//172 167//172 168//172
f  187//172 168//172 188//172
f  167//173 166//173 169//173
f  167//173 169//173 168//173
f  185//174 164//174 167//174
f  185//174 167//174 187//174
f  186//175 179//175 164//175
f  186//175 164//175 185//175
f  179//176 178//176 165//176
f  179//176 165//176 164//176
f  190//177 191//177 192//177
f  190//177 192//177 193//177
f  194//178 195//178 196//178
f  194//178 196//178 197//178
f  198//179 199//179 200//179
f  198//179 200//179 201//179
f  202//180 203//180 204//180
f  202//180 204//180 205//180
f  206//181 207//181 208//181
f  206//181 208//181 209//181
f  210//182 191//182 204//182
f  210//182 204//182 203//182
f  199//183 210//183 203//183
f  199//183 203//183 200//183
f  196//184 195//184 210//184
f  196//184 210//184 199//184
f  195//185 192//185 191//185
f  195//185 191//185 210//185
f  211//186 206//186 209//186
f  211//186 209//186 212//186
f  213//187 214//187 206//187
f  213//187 206//187 211//187
f  214//188 215//188 207//188
f  214//188 207//188 206//188
f  209//189 202//189 205//189
f  209//189 205//189 212//189
f  208//190 201//190 202//190
f  208//190 202//190 209//190
f  201//191 200//191 203//191
f  201//191 203//191 202//191
f  207//192 198//192 201//192
f  207//192 201//192 208//192
f  215//193 197//193 198//193
f  215//193 198//193 207//193
f  197//194 196//194 199//194
f  197//194 199//194 198//194
f  214//195 194//195 197//195
f  214//195 197//195 215//195
f  213//196 193//196 194//196
f  213//196 194//196 214//196
f  193//197 192//197 195//197
f  193//197 195//197 194//197
f  211//198 190//198 193//198
f  211//198 193//198 213//198
f  212//199 205//199 190//199
f  212//199 190//199 211//199
f  205//200 204//200 191//200
f  205//200 191//200 190//200
f  216//201 217//201 218//201
f  216//201 218//201 219//201
f  220//202 221//202 222//202
f  220//202 222//202 223//202
f  224//203 225//203 226//203
f  224//203 226//203 227//203
f  228//204 229//204 230//204
f  228//204 230//204 231//204
f  232//205 233//205 234//205
f  232//205 234//205 235//205
f  236//206 217//206 230//206
f  236//206 230//206 229//206
f  225//207 236//207 229//207
f  225//207 229//207 226//207
f  222//208 221//208 236//208
f  222//208 236//208 225//208
f  221//209 218//209 217//209
f  221//209 217//209 236//209
f  237//210 232//210 235//210
f  237//210 235//210 238//210
f  239//211 240//211 232//211
f  239//211 232//211 237//211
f  240//212 241//212 233//212
f  240//212 233//212 232//212
f  235//213 228//213 231//213
f  235//213 231//213 238//213
f  234//214 227//214 228//214
f  234//214 228//214 235//214
f  227//215 226//215 229//215
f  227//215 229//215 228//215
f  233//216 224//216 227//216
f  233//216 227//216 234//216
f  241//217 223//217 224//217
f  241//217 224//217 233//217
f  223//218 222//218 225//218
f  223//218 225//218 224//218
f  240//219 220//219 223//219
f  240//219 223//219 241//219
f  239//220 219//220 220//220
f  239//220 220//220 240//220
f  219//221 218//221 221//221
f  219//221 221//221 220//221
f  237//222 216//222 219//222
f  237//222 219//222 239//222
f  238//223 231//223 216//223
f  238//223 216//223 237//223
f  231//224 230//224 217//224
f  231//224 217//224 216//224
f  242//225 243//225 244//225
f  242//225 244//225 245//225
f  246//226 247//226 248//226
f  246//226 248//226 249//226
f  250//227 251//227 252//227
f  250//227 252//227 253//227
f  254//228 255//228 256//228
f  254//228 256//228 257//228
f  258//229 259//229 260//229
f  258//229 260//229 261//229
f  262//230 243//230 256//230
f  262//230 256//230 255//230
f  251//231 262//231 255//231
f  251//231 255//231 252//231
f  248//232 247//232 262//232
f  248//232 262//232 251//232
f  247//233 244//233 243//233
f  247//233 243//233 262//233
f  263//234 258//234 261//234
f  263//234 261//234 264//234
f  265//235 266//235 258//235
f  265//235 258//235 263//235
f  266//236 267//236 259//236
f  266//236 259//236 258//236
f  261//237 254//237 257//237
f  261//237 257//237 264//237
f  260//238 253//238 254//238
f  260//238 254//238 261//238
f  253//239 252//239 255//239
f  253//239 255//239 254//239
f  259//240 250//240 253//240
f  259//240 253//240 260//240
f  267//241 249//241 250//241
f  267//241 250//241 259//241
f  249//242 248//242 251//242
f  249//242 251//242 250//242
f  266//243 246//243 249//243
f  266//243 249//243 267//243
f  265//244 245//244 246//244
f  265//244 246//244 266//244
f  245//245 244//245 247//245
f  245//245 247//245 246//245
f  263//246 242//246 245//246
f  263//246 245//246 265//246
f  264//247 257//247 242//247
f  264//247 242//247 263//247
f  257//248 256//248 243//248
f  257//248 243//248 242//248
f  229//249 183//249 176//249
f  177//249 229//249 176//249
f  229//249 177//249 203//249
f  255//249 229//249 203//249

# Mesh 'Cube.002' with 136 faces
g Cube.002
usemtl Material.014
f  268//250 269//250 270//250
f  268//250 270//250 271//250
f  268//251 271//251 272//251
f  268//251 272//251 273//251
f  268//252 273//252 274//252
f  268//252 274//252 275//252
f  268//253 275//253 276//253
f  268//253 276//253 269//253
f  277//254 278//254 276//254
f  277//254 276//254 275//254
f  277//255 275//255 274//255
f  277//255 274//255 279//255
f  277//256 279//256 280//256
f  277//256 280//256 281//256
f  277//257 281//257 282//257
f  277//257 282//257 278//257
f  283//258 284//258 282//258
f  283//258 282//258 281//258
f  283//259 281//259 280//259
f  283//259 280//259 285//259
f  283//260 285//260 286//260
f  283//260 286//260 287//260
f  283//261 287//261 288//261
f  283//261 288//261 284//261
f  289//262 290//262 288//262
f  289//262 288//262 287//262
f  289//263 287//263 286//263
f  289//263 286//263 291//263
f  289//264 291//264 272//264
f  289//264 272//264 271//264
f  289//265 271//265 270//265
f  289//265 270//265 290//265
f  292//266 269//266 276//266
f  292//266 276//266 278//266
f  292//267 278//267 282//267
f  292//267 282//267 284//267
f  292//268 284//268 288//268
f  292//268 288//268 290//268
f  292//269 290//269 270//269
f  292//269 270//269 269//269
f  27//270 32//270 286//270
f  27//270 286//270 285//270
f  27//271 285//271 280//271
f  27//271 280//271 28//271
f  39//272 41//272 274//272
f  39//272 274//272 273//272
f  39//273 273//273 272//273
f  39//273 272//273 40//273
f  42//274 40//274 272//274
f  42//274 272//274 291//274
f  42//275 291//275 286//275
f  42//275 286//275 32//275
f  43//276 28//276 280//276
f  43//276 280//276 279//276
f  43//277 279//277 274//277
f  43//277 274//277 41//277
f  293//278 294//278 295//278
f  293//278 295//278 296//278
f  297//279 298//279 299//279
f  297//279 299//279 300//279
f  301//280 302//280 303//280
f  301//280 303//280 304//280
f  305//281 306//281 307//281
f  305//281 307//281 308//281
f  309//282 310//282 311//282
f  309//282 311//282 312//282
f  313//283 314//283 315//283
f  313//283 315//283 316//283
f  317//284 318//284 319//284
f  317//284 319//284 320//284
f  321//285 322//285 323//285
f  321//285 323//285 324//285
f  314//286 321//286 324//286
f  314//286 324//286 315//286
f  325//287 326//287 327//287
f  325//287 327//287 328//287
f  326//288 329//288 330//288
f  326//288 330//288 327//288
f  322//289 317//289 320//289
f  322//289 320//289 323//289
f  329//290 331//290 332//290
f  329//290 332//290 330//290
f  331//291 333//291 334//291
f  331//291 334//291 332//291
f  294//292 313//292 316//292
f  294//292 316//292 295//292
f  335//293 336//293 337//293
f  335//293 337//293 338//293
f  336//294 325//294 328//294
f  336//294 328//294 337//294
f  339//295 340//295 310//295
f  339//295 310//295 309//295
f  341//296 342//296 343//296
f  341//296 343//296 344//296
f  345//297 346//297 342//297
f  345//297 342//297 341//297
f  304//298 303//298 306//298
f  304//298 306//298 305//298
f  347//299 348//299 346//299
f  347//299 346//299 345//299
f  349//300 350//300 348//300
f  349//300 348//300 347//300
f  300//301 299//301 302//301
f  300//301 302//301 301//301
f  351//302 352//302 350//302
f  351//302 350//302 349//302
f  353//303 354//303 352//303
f  353//303 352//303 351//303
f  355//304 356//304 298//304
f  355//304 298//304 297//304
f  318//305 293//305 296//305
f  318//305 296//305 319//305
f  333//306 357//306 358//306
f  333//306 358//306 334//306
f  357//307 335//307 338//307
f  357//307 338//307 358//307
f  356//308 355//308 359//308
f  356//308 359//308 360//308
f  360//309 359//309 308//309
f  360//309 308//309 307//309
f  354//310 353//310 361//310
f  354//310 361//310 362//310
f  362//311 361//311 344//311
f  362//311 344//311 343//311
f  363//312 364//312 312//312
f  363//312 312//312 311//312
f  365//313 366//313 364//313
f  365//313 364//313 363//313
f  367//314 368//314 366//314
f  367//314 366//314 365//314
f  369//315 370//315 368//315
f  369//315 368//315 367//315
f  371//316 372//316 370//316
f  371//316 370//316 369//316
f  340//317 339//317 372//317
f  340//317 372//317 371//317

# Mesh 'Cube.002' with 88 faces
g Cube.002
usemtl Material.013
f  373//318 367//318 365//318
f  373//318 365//318 363//318
f  315//319 324//319 57//319
f  315//319 57//319 52//319
f  324//320 323//320 58//320
f  324//320 58//320 57//320
f  323//321 320//321 55//321
f  323//321 55//321 58//321
f  320//322 319//322 56//322
f  320//322 56//322 55//322
f  295//323 316//323 51//323
f  295//323 51//323 45//323
f  316//324 315//324 52//324
f  316//324 52//324 51//324
f  319//325 296//325 44//325
f  319//325 44//325 56//325
f  296//326 295//326 45//326
f  296//326 45//326 44//326
f  359//327 362//327 343//327
f  359//327 343//327 308//327
f  355//328 354//328 362//328
f  355//328 362//328 359//328
f  310//329 373//329 363//329
f  310//329 363//329 311//329
f  340//330 371//330 373//330
f  340//330 373//330 310//330
f  371//331 369//331 367//331
f  371//331 367//331 373//331
f  302//332 299//332 335//332
f  302//332 335//332 357//332
f  303//333 302//333 357//333
f  303//333 357//333 333//333
f  298//334 356//334 325//334
f  298//334 325//334 336//334
f  299//335 298//335 336//335
f  299//335 336//335 335//335
f  306//336 303//336 333//336
f  306//336 333//336 331//336
f  307//337 306//337 331//337
f  307//337 331//337 329//337
f  360//338 307//338 329//338
f  360//338 329//338 326//338
f  356//339 360//339 326//339
f  356//339 326//339 325//339
f  334//340 358//340 293//340
f  334//340 293//340 318//340
f  338//341 337//341 313//341
f  338//341 313//341 294//341
f  330//342 332//342 317//342
f  330//342 317//342 322//342
f  328//343 327//343 321//343
f  328//343 321//343 314//343
f  327//344 330//344 322//344
f  327//344 322//344 321//344
f  332//345 334//345 318//345
f  332//345 318//345 317//345
f  337//346 328//346 314//346
f  337//346 314//346 313//346
f  358//347 338//347 294//347
f  358//347 294//347 293//347
f  354//348 355//348 297//348
f  354//348 297//348 352//348
f  350//349 300//349 301//349
f  350//349 301//349 348//349
f  346//350 304//350 305//350
f  346//350 305//350 342//350
f  342//351 305//351 308//351
f  342//351 308//351 343//351
f  348//352 301//352 304//352
f  348//352 304//352 346//352
f  352//353 297//353 300//353
f  352//353 300//353 350//353
f  339//354 353//354 351//354
f  339//354 351//354 372//354
f  372//355 351//355 349//355
f  372//355 349//355 370//355
f  370//356 349//356 347//356
f  370//356 347//356 368//356
f  368//357 347//357 345//357
f  368//357 345//357 366//357
f  366//358 345//358 341//358
f  366//358 341//358 364//358
f  364//359 341//359 344//359
f  364//359 344//359 312//359
f  353//360 339//360 309//360
f  353//360 309//360 361//360
f  361//361 309//361 312//361
f  361//361 312//361 344//361

