# Blender 4.0.2
# www.blender.org
mtllib deck_plank.mtl
o DeckPlank
v -0.500000 0.000000 0.500000
v 0.500000 0.000000 0.500000
v 0.500000 0.000000 -0.500000
v -0.500000 0.000000 -0.500000
v -0.500000 0.100000 0.500000
v 0.500000 0.100000 0.500000
v 0.500000 0.100000 -0.500000
v -0.500000 0.100000 -0.500000
v -0.315000 0.092000 0.500000
v -0.285000 0.092000 0.500000
v -0.285000 0.092000 -0.500000
v -0.315000 0.092000 -0.500000
v -0.315000 0.108000 0.500000
v -0.285000 0.108000 0.500000
v -0.285000 0.108000 -0.500000
v -0.315000 0.108000 -0.500000
v -0.115000 0.092000 0.500000
v -0.085000 0.092000 0.500000
v -0.085000 0.092000 -0.500000
v -0.115000 0.092000 -0.500000
v -0.115000 0.108000 0.500000
v -0.085000 0.108000 0.500000
v -0.085000 0.108000 -0.500000
v -0.115000 0.108000 -0.500000
v 0.085000 0.092000 0.500000
v 0.115000 0.092000 0.500000
v 0.115000 0.092000 -0.500000
v 0.085000 0.092000 -0.500000
v 0.085000 0.108000 0.500000
v 0.115000 0.108000 0.500000
v 0.115000 0.108000 -0.500000
v 0.085000 0.108000 -0.500000
v 0.285000 0.092000 0.500000
v 0.315000 0.092000 0.500000
v 0.315000 0.092000 -0.500000
v 0.285000 0.092000 -0.500000
v 0.285000 0.108000 0.500000
v 0.315000 0.108000 0.500000
v 0.315000 0.108000 -0.500000
v 0.285000 0.108000 -0.500000
vn -0.0000 -1.0000 -0.0000
vn -0.0000 1.0000 -0.0000
vn -0.0000 -0.0000 1.0000
vn 1.0000 -0.0000 -0.0000
vn -0.0000 -0.0000 -1.0000
vn -1.0000 -0.0000 -0.0000
s 0
usemtl DeckWoodMat
f 4//1 2//1 1//1
f 5//2 7//2 8//2
f 2//3 5//3 1//3
f 3//4 6//4 2//4
f 4//5 7//5 3//5
f 1//6 8//6 4//6
f 4//1 3//1 2//1
f 5//2 6//2 7//2
f 2//3 6//3 5//3
f 3//4 7//4 6//4
f 4//5 8//5 7//5
f 1//6 5//6 8//6
usemtl DeckGrooveMat
f 12//1 10//1 9//1
f 13//2 15//2 16//2
f 10//3 13//3 9//3
f 11//4 14//4 10//4
f 12//5 15//5 11//5
f 9//6 16//6 12//6
f 20//1 18//1 17//1
f 21//2 23//2 24//2
f 18//3 21//3 17//3
f 19//4 22//4 18//4
f 20//5 23//5 19//5
f 17//6 24//6 20//6
f 28//1 26//1 25//1
f 29//2 31//2 32//2
f 26//3 29//3 25//3
f 27//4 30//4 26//4
f 28//5 31//5 27//5
f 25//6 32//6 28//6
f 36//1 34//1 33//1
f 37//2 39//2 40//2
f 34//3 37//3 33//3
f 35//4 38//4 34//4
f 36//5 39//5 35//5
f 33//6 40//6 36//6
f 12//1 11//1 10//1
f 13//2 14//2 15//2
f 10//3 14//3 13//3
f 11//4 15//4 14//4
f 12//5 16//5 15//5
f 9//6 13//6 16//6
f 20//1 19//1 18//1
f 21//2 22//2 23//2
f 18//3 22//3 21//3
f 19//4 23//4 22//4
f 20//5 24//5 23//5
f 17//6 21//6 24//6
f 28//1 27//1 26//1
f 29//2 30//2 31//2
f 26//3 30//3 29//3
f 27//4 31//4 30//4
f 28//5 32//5 31//5
f 25//6 29//6 32//6
f 36//1 35//1 34//1
f 37//2 38//2 39//2
f 34//3 38//3 37//3
f 35//4 39//4 38//4
f 36//5 40//5 39//5
f 33//6 37//6 40//6
