# Blender 4.0.2
# www.blender.org
mtllib railing.mtl
o Railing
v -0.530000 0.000000 0.030000
v -0.530000 1.000000 0.030000
v -0.530000 0.000000 -0.030000
v -0.530000 1.000000 -0.030000
v -0.470000 0.000000 0.030000
v -0.470000 1.000000 0.030000
v -0.470000 0.000000 -0.030000
v -0.470000 1.000000 -0.030000
v 0.470000 0.000000 0.030000
v 0.470000 1.000000 0.030000
v 0.470000 0.000000 -0.030000
v 0.470000 1.000000 -0.030000
v 0.530000 0.000000 0.030000
v 0.530000 1.000000 0.030000
v 0.530000 0.000000 -0.030000
v 0.530000 1.000000 -0.030000
v -0.500000 0.950000 0.015000
v -0.333333 0.855556 0.015000
v -0.506404 0.938698 0.007500
v -0.339738 0.844254 0.007500
v -0.506404 0.938698 -0.007500
v -0.339738 0.844254 -0.007500
v -0.500000 0.950000 -0.015000
v -0.333333 0.855556 -0.015000
v -0.493596 0.961302 -0.007500
v -0.326929 0.866857 -0.007500
v -0.493596 0.961302 0.007500
v -0.326929 0.866857 0.007500
v -0.333333 0.855556 0.015000
v -0.166667 0.798889 0.015000
v -0.337515 0.843257 0.007500
v -0.170848 0.786590 0.007500
v -0.337515 0.843257 -0.007500
v -0.170848 0.786590 -0.007500
v -0.333333 0.855556 -0.015000
v -0.166667 0.798889 -0.015000
v -0.329152 0.867854 -0.007500
v -0.162485 0.811188 -0.007500
v -0.329152 0.867854 0.007500
v -0.162485 0.811188 0.007500
v -0.166667 0.798889 0.015000
v 0.000000 0.780000 0.015000
v -0.168130 0.785981 0.007500
v -0.001463 0.767092 0.007500
v -0.168130 0.785981 -0.007500
v -0.001463 0.767092 -0.007500
v -0.166667 0.798889 -0.015000
v -0.000000 0.780000 -0.015000
v -0.165204 0.811797 -0.007500
v 0.001463 0.792908 -0.007500
v -0.165204 0.811797 0.007500
v 0.001463 0.792908 0.007500
v 0.000000 0.780000 0.015000
v 0.166667 0.798889 0.015000
v 0.001463 0.767092 0.007500
v 0.168130 0.785981 0.007500
v 0.001463 0.767092 -0.007500
v 0.168130 0.785981 -0.007500
v 0.000000 0.780000 -0.015000
v 0.166667 0.798889 -0.015000
v -0.001463 0.792908 -0.007500
v 0.165204 0.811797 -0.007500
v -0.001463 0.792908 0.007500
v 0.165204 0.811797 0.007500
v 0.166667 0.798889 0.015000
v 0.333333 0.855556 0.015000
v 0.170848 0.786590 0.007500
v 0.337515 0.843257 0.007500
v 0.170848 0.786590 -0.007500
v 0.337515 0.843257 -0.007500
v 0.166667 0.798889 -0.015000
v 0.333333 0.855556 -0.015000
v 0.162485 0.811188 -0.007500
v 0.329152 0.867854 -0.007500
v 0.162485 0.811188 0.007500
v 0.329152 0.867854 0.007500
v 0.333333 0.855556 0.015000
v 0.500000 0.950000 0.015000
v 0.339738 0.844254 0.007500
v 0.506404 0.938698 0.007500
v 0.339738 0.844254 -0.007500
v 0.506404 0.938698 -0.007500
v 0.333333 0.855556 -0.015000
v 0.500000 0.950000 -0.015000
v 0.326929 0.866857 -0.007500
v 0.493596 0.961302 -0.007500
v 0.326929 0.866857 0.007500
v 0.493596 0.961302 0.007500
v -0.300000 0.841200 0.010000
v -0.300000 0.170000 0.010000
v -0.308660 0.841200 0.005000
v -0.308660 0.170000 0.005000
v -0.308660 0.841200 -0.005000
v -0.308660 0.170000 -0.005000
v -0.300000 0.841200 -0.010000
v -0.300000 0.170000 -0.010000
v -0.291340 0.841200 -0.005000
v -0.291340 0.170000 -0.005000
v -0.291340 0.841200 0.005000
v -0.291340 0.170000 0.005000
v -0.100000 0.786800 0.010000
v -0.100000 0.170000 0.010000
v -0.108660 0.786800 0.005000
v -0.108660 0.170000 0.005000
v -0.108660 0.786800 -0.005000
v -0.108660 0.170000 -0.005000
v -0.100000 0.786800 -0.010000
v -0.100000 0.170000 -0.010000
v -0.091340 0.786800 -0.005000
v -0.091340 0.170000 -0.005000
v -0.091340 0.786800 0.005000
v -0.091340 0.170000 0.005000
v 0.100000 0.786800 0.010000
v 0.100000 0.170000 0.010000
v 0.091340 0.786800 0.005000
v 0.091340 0.170000 0.005000
v 0.091340 0.786800 -0.005000
v 0.091340 0.170000 -0.005000
v 0.100000 0.786800 -0.010000
v 0.100000 0.170000 -0.010000
v 0.108660 0.786800 -0.005000
v 0.108660 0.170000 -0.005000
v 0.108660 0.786800 0.005000
v 0.108660 0.170000 0.005000
v 0.300000 0.841200 0.010000
v 0.300000 0.170000 0.010000
v 0.291340 0.841200 0.005000
v 0.291340 0.170000 0.005000
v 0.291340 0.841200 -0.005000
v 0.291340 0.170000 -0.005000
v 0.300000 0.841200 -0.010000
v 0.300000 0.170000 -0.010000
v 0.308660 0.841200 -0.005000
v 0.308660 0.170000 -0.005000
v 0.308660 0.841200 0.005000
v 0.308660 0.170000 0.005000
vn -0.0000 1.0000 -0.0000
vn -0.0000 -1.0000 -0.0000
vn 1.0000 -0.0000 -0.0000
vn -1.0000 -0.0000 -0.0000
vn -0.0000 -0.0000 -1.0000
vn -0.0000 -0.0000 1.0000
vn -0.2465 -0.4350 0.8660
vn -0.4930 -0.8700 -0.0000
vn -0.2465 -0.4350 -0.8660
vn 0.2465 0.4350 -0.8660
vn 0.4930 0.8700 -0.0000
vn 0.2465 0.4350 0.8660
vn 0.8700 -0.4930 -0.0000
vn -0.8700 0.4930 -0.0000
vn -0.1610 -0.4734 0.8660
vn -0.3219 -0.9468 -0.0000
vn -0.1610 -0.4734 -0.8660
vn 0.1610 0.4734 -0.8660
vn 0.3219 0.9468 -0.0000
vn 0.1610 0.4734 0.8660
vn 0.9468 -0.3219 -0.0000
vn -0.9468 0.3219 -0.0000
vn -0.0563 -0.4968 0.8660
vn -0.1126 -0.9936 -0.0000
vn -0.0563 -0.4968 -0.8660
vn 0.0563 0.4968 -0.8660
vn 0.1126 0.9936 -0.0000
vn 0.0563 0.4968 0.8660
vn 0.9936 -0.1126 -0.0000
vn -0.9936 0.1126 -0.0000
vn 0.0563 -0.4968 0.8660
vn 0.1126 -0.9936 -0.0000
vn 0.0563 -0.4968 -0.8660
vn -0.0563 0.4968 -0.8660
vn -0.1126 0.9936 -0.0000
vn -0.0563 0.4968 0.8660
vn 0.9936 0.1126 -0.0000
vn -0.9936 -0.1126 -0.0000
vn 0.1610 -0.4734 0.8660
vn 0.3219 -0.9468 -0.0000
vn 0.1610 -0.4734 -0.8660
vn -0.1610 0.4734 -0.8660
vn -0.3219 0.9468 -0.0000
vn -0.1610 0.4734 0.8660
vn 0.9468 0.3219 -0.0000
vn -0.9468 -0.3219 -0.0000
vn 0.2465 -0.4350 0.8660
vn 0.4930 -0.8700 -0.0000
vn 0.2465 -0.4350 -0.8660
vn -0.2465 0.4350 -0.8660
vn -0.4930 0.8700 -0.0000
vn -0.2465 0.4350 0.8660
vn 0.8700 0.4930 -0.0000
vn -0.8700 -0.4930 -0.0000
vn -0.5000 -0.0000 0.8660
vn -0.5000 -0.0000 -0.8660
vn 0.5000 -0.0000 -0.8660
vn 0.5000 -0.0000 0.8660
s 0
usemtl RailingWoodMat.001
f 5//1 3//1 1//1
f 4//2 6//2 2//2
f 3//3 2//3 1//3
f 6//4 7//4 5//4
f 2//5 5//5 1//5
f 7//6 4//6 3//6
f 13//1 11//1 9//1
f 12//2 14//2 10//2
f 11//3 10//3 9//3
f 14//4 15//4 13//4
f 10//5 13//5 9//5
f 15//6 12//6 11//6
f 5//1 7//1 3//1
f 4//2 8//2 6//2
f 3//3 4//3 2//3
f 6//4 8//4 7//4
f 2//5 6//5 5//5
f 7//6 8//6 4//6
f 13//1 15//1 11//1
f 12//2 16//2 14//2
f 11//3 12//3 10//3
f 14//4 16//4 15//4
f 10//5 14//5 13//5
f 15//6 16//6 12//6
usemtl RailingCableMat
f 19//7 18//7 17//7
f 21//8 20//8 19//8
f 23//9 22//9 21//9
f 25//10 24//10 23//10
f 27//11 26//11 25//11
f 17//12 28//12 27//12
f 19//13 23//13 27//13
f 26//14 22//14 18//14
f 29//15 32//15 30//15
f 33//16 32//16 31//16
f 35//17 34//17 33//17
f 37//18 36//18 35//18
f 39//19 38//19 37//19
f 39//20 30//20 40//20
f 31//21 35//21 39//21
f 38//22 34//22 30//22
f 43//23 42//23 41//23
f 45//24 44//24 43//24
f 47//25 46//25 45//25
f 49//26 48//26 47//26
f 51//27 50//27 49//27
f 41//28 52//28 51//28
f 43//29 47//29 51//29
f 50//30 46//30 42//30
f 55//31 54//31 53//31
f 57//32 56//32 55//32
f 59//33 58//33 57//33
f 61//34 60//34 59//34
f 63//35 62//35 61//35
f 53//36 64//36 63//36
f 55//37 59//37 63//37
f 62//38 58//38 54//38
f 67//39 66//39 65//39
f 69//40 68//40 67//40
f 71//41 70//41 69//41
f 71//42 74//42 72//42
f 75//43 74//43 73//43
f 65//44 76//44 75//44
f 67//45 71//45 75//45
f 74//46 70//46 66//46
f 79//47 78//47 77//47
f 81//48 80//48 79//48
f 83//49 82//49 81//49
f 85//50 84//50 83//50
f 87//51 86//51 85//51
f 77//52 88//52 87//52
f 79//53 83//53 87//53
f 86//54 82//54 78//54
f 91//55 90//55 89//55
f 93//4 92//4 91//4
f 95//56 94//56 93//56
f 97//57 96//57 95//57
f 99//3 98//3 97//3
f 89//58 100//58 99//58
f 91//2 95//2 99//2
f 98//1 94//1 90//1
f 103//55 102//55 101//55
f 105//4 104//4 103//4
f 107//56 106//56 105//56
f 109//57 108//57 107//57
f 111//3 110//3 109//3
f 101//58 112//58 111//58
f 103//2 107//2 111//2
f 110//1 106//1 102//1
f 115//55 114//55 113//55
f 117//4 116//4 115//4
f 119//56 118//56 117//56
f 121//57 120//57 119//57
f 123//3 122//3 121//3
f 113//58 124//58 123//58
f 115//2 119//2 123//2
f 122//1 118//1 114//1
f 127//55 126//55 125//55
f 129//4 128//4 127//4
f 131//56 130//56 129//56
f 133//57 132//57 131//57
f 135//3 134//3 133//3
f 125//58 136//58 135//58
f 127//2 131//2 135//2
f 134//1 130//1 126//1
f 19//7 20//7 18//7
f 21//8 22//8 20//8
f 23//9 24//9 22//9
f 25//10 26//10 24//10
f 27//11 28//11 26//11
f 17//12 18//12 28//12
f 27//13 17//13 19//13
f 19//13 21//13 23//13
f 23//13 25//13 27//13
f 18//14 28//14 26//14
f 26//14 24//14 22//14
f 22//14 20//14 18//14
f 29//15 31//15 32//15
f 33//16 34//16 32//16
f 35//17 36//17 34//17
f 37//18 38//18 36//18
f 39//19 40//19 38//19
f 39//20 29//20 30//20
f 39//21 29//21 31//21
f 31//21 33//21 35//21
f 35//21 37//21 39//21
f 30//22 40//22 38//22
f 38//22 36//22 34//22
f 34//22 32//22 30//22
f 43//23 44//23 42//23
f 45//24 46//24 44//24
f 47//25 48//25 46//25
f 49//26 50//26 48//26
f 51//27 52//27 50//27
f 41//28 42//28 52//28
f 51//29 41//29 43//29
f 43//29 45//29 47//29
f 47//29 49//29 51//29
f 42//30 52//30 50//30
f 50//30 48//30 46//30
f 46//30 44//30 42//30
f 55//31 56//31 54//31
f 57//32 58//32 56//32
f 59//33 60//33 58//33
f 61//34 62//34 60//34
f 63//35 64//35 62//35
f 53//36 54//36 64//36
f 63//37 53//37 55//37
f 55//37 57//37 59//37
f 59//37 61//37 63//37
f 54//38 64//38 62//38
f 62//38 60//38 58//38
f 58//38 56//38 54//38
f 67//39 68//39 66//39
f 69//40 70//40 68//40
f 71//41 72//41 70//41
f 71//42 73//42 74//42
f 75//43 76//43 74//43
f 65//44 66//44 76//44
f 75//45 65//45 67//45
f 67//45 69//45 71//45
f 71//45 73//45 75//45
f 66//46 76//46 74//46
f 74//46 72//46 70//46
f 70//46 68//46 66//46
f 79//47 80//47 78//47
f 81//48 82//48 80//48
f 83//49 84//49 82//49
f 85//50 86//50 84//50
f 87//51 88//51 86//51
f 77//52 78//52 88//52
f 87//53 77//53 79//53
f 79//53 81//53 83//53
f 83//53 85//53 87//53
f 78//54 88//54 86//54
f 86//54 84//54 82//54
f 82//54 80//54 78//54
f 91//55 92//55 90//55
f 93//4 94//4 92//4
f 95//56 96//56 94//56
f 97//57 98//57 96//57
f 99//3 100//3 98//3
f 89//58 90//58 100//58
f 99//2 89//2 91//2
f 91//2 93//2 95//2
f 95//2 97//2 99//2
f 90//1 100//1 98//1
f 98//1 96//1 94//1
f 94//1 92//1 90//1
f 103//55 104//55 102//55
f 105//4 106//4 104//4
f 107//56 108//56 106//56
f 109//57 110//57 108//57
f 111//3 112//3 110//3
f 101//58 102//58 112//58
f 111//2 101//2 103//2
f 103//2 105//2 107//2
f 107//2 109//2 111//2
f 102//1 112//1 110//1
f 110//1 108//1 106//1
f 106//1 104//1 102//1
f 115//55 116//55 114//55
f 117//4 118//4 116//4
f 119//56 120//56 118//56
f 121//57 122//57 120//57
f 123//3 124//3 122//3
f 113//58 114//58 124//58
f 123//2 113//2 115//2
f 115//2 117//2 119//2
f 119//2 121//2 123//2
f 114//1 124//1 122//1
f 122//1 120//1 118//1
f 118//1 116//1 114//1
f 127//55 128//55 126//55
f 129//4 130//4 128//4
f 131//56 132//56 130//56
f 133//57 134//57 132//57
f 135//3 136//3 134//3
f 125//58 126//58 136//58
f 135//2 125//2 127//2
f 127//2 129//2 131//2
f 131//2 133//2 135//2
f 126//1 136//1 134//1
f 134//1 132//1 130//1
f 130//1 128//1 126//1
