# Blender 4.0.2
# www.blender.org
mtllib plain_house.mtl
o PlainHouse
v -0.275000 0.000000 0.225000
v 0.095000 0.560000 0.095000
v -0.305000 0.280000 0.255000
v -0.275000 0.280000 0.225000
v 0.095000 0.560000 0.025000
v 0.305000 0.280000 0.255000
v -0.275000 0.000000 -0.225000
v 0.165000 0.560000 0.095000
v 0.305000 0.280000 -0.255000
v -0.275000 0.280000 -0.225000
v -0.305000 0.280000 -0.255000
v 0.165000 0.560000 0.025000
v 0.275000 0.000000 0.225000
v -0.305000 0.460000 0.000000
v 0.275000 0.280000 0.225000
v 0.305000 0.460000 0.000000
v 0.275000 0.000000 -0.225000
v 0.275000 0.280000 -0.225000
v 0.269118 0.280000 -0.225000
v -0.269118 0.280000 0.225000
v 0.095000 0.392941 0.095000
v 0.165000 0.392941 0.095000
v 0.095000 0.442353 0.025000
v 0.165000 0.442353 0.025000
vn -1.0000 -0.0000 -0.0000
vn -0.0000 -0.0000 -1.0000
vn 1.0000 -0.0000 -0.0000
vn -0.0000 -0.0000 1.0000
vn -0.0000 -1.0000 -0.0000
vn -0.0000 1.0000 -0.0000
vn -0.0000 0.8170 0.5767
vn -0.0000 0.8170 -0.5767
vt 0.625000 0.000000
vt 0.375000 0.250000
vt 0.375000 0.000000
vt 0.625000 0.497326
vt 0.375000 0.500000
vt 0.625000 0.250000
vt 0.625000 0.500000
vt 0.375000 0.750000
vt 0.625000 0.997326
vt 0.375000 1.000000
vt 0.625000 0.750000
vt 0.125000 0.750000
vt 0.125000 0.500000
vt 0.000000 0.000000
vt 0.507353 0.250000
vt 0.457941 0.000000
vt 0.507353 0.500000
vt 0.457941 0.750000
vt 0.457941 1.000000
vt 0.875000 0.500000
vt 0.625000 1.000000
vt 0.875000 0.750000
s 0
usemtl PlainHouseWallsMat
f 4/1/1 7/2/1 1/3/1
f 19/4/2 17/5/2 10/6/2
f 18/7/3 13/8/3 17/5/3
f 20/9/4 1/10/4 15/11/4
f 17/5/5 1/12/5 7/13/5
f 4/1/1 10/6/1 7/2/1
f 19/4/2 18/7/2 17/5/2
f 17/5/2 7/2/2 10/6/2
f 18/7/3 15/11/3 13/8/3
f 20/9/4 4/21/4 1/10/4
f 1/10/4 13/8/4 15/11/4
f 17/5/5 13/8/5 1/12/5
usemtl PlainHouseRoofMat
f 18/14/5 19/14/5 11/14/5
f 20/14/5 6/14/5 4/14/5
f 15/14/6 19/14/6 20/14/6
f 10/14/6 20/14/6 19/14/6
f 16/14/7 22/14/7 6/14/7
f 14/14/7 21/14/7 23/14/7
f 14/14/8 9/14/8 11/14/8
f 3/14/1 14/14/1 11/14/1
f 6/14/3 9/14/3 16/14/3
f 6/14/5 15/14/5 18/14/5
f 9/14/5 6/14/5 18/14/5
f 4/14/5 3/14/5 11/14/5
f 10/14/5 4/14/5 11/14/5
f 11/14/5 9/14/5 18/14/5
f 19/14/5 10/14/5 11/14/5
f 20/14/5 15/14/5 6/14/5
f 6/14/5 3/14/5 4/14/5
f 15/14/6 18/14/6 19/14/6
f 10/14/6 4/14/6 20/14/6
f 16/14/7 24/14/7 22/14/7
f 23/14/7 24/14/7 16/14/7
f 14/14/7 3/14/7 6/14/7
f 6/14/7 22/14/7 21/14/7
f 23/14/7 16/14/7 14/14/7
f 14/14/7 6/14/7 21/14/7
f 14/14/8 16/14/8 9/14/8
usemtl PlainHouseChimneyMat
f 2/1/1 23/15/1 21/16/1
f 5/6/2 24/17/2 23/15/2
f 24/17/3 8/11/3 22/18/3
f 8/11/4 21/19/4 22/18/4
f 5/20/6 8/11/6 12/7/6
f 2/1/1 5/6/1 23/15/1
f 5/6/2 12/7/2 24/17/2
f 24/17/3 12/7/3 8/11/3
f 8/11/4 2/21/4 21/19/4
f 5/20/6 2/22/6 8/11/6
