# Blender 4.0.2
# www.blender.org
mtllib desert_adobe.mtl
o DesertAdobe
v 2.100000 0.000000 0.250000
v 2.280000 0.000000 0.260000
v 2.280000 0.160000 0.260000
v 2.440000 0.000000 -0.020000
v 2.100000 0.220000 0.250000
v 2.280000 0.000000 0.245000
v 2.100000 0.000000 -0.250000
v 2.420000 0.000000 0.260000
v 2.440000 0.000000 -0.280000
v 2.100000 0.220000 -0.250000
v 2.420000 0.160000 0.260000
v 2.440000 0.160000 -0.280000
v 2.420000 0.000000 0.245000
v 2.740000 0.000000 -0.020000
v 2.700000 0.000000 0.250000
v 2.700000 0.220000 0.250000
v 2.740000 0.160000 -0.020000
v 2.700000 0.000000 -0.250000
v 2.740000 0.000000 -0.280000
v 2.740000 0.160000 -0.280000
v 2.700000 0.220000 -0.250000
v 2.440000 0.160000 -0.250000
v 2.440000 0.000000 -0.250000
v 2.700000 0.160000 -0.250000
v 2.700000 0.160000 -0.020000
v 2.700000 0.000000 -0.020000
v 2.280000 0.160000 0.250000
v 2.420000 0.160000 0.250000
v 2.280000 0.000000 0.250000
v 2.420000 0.000000 0.250000
vn -1.0000 -0.0000 -0.0000
vn -0.0000 -0.0000 -1.0000
vn 1.0000 -0.0000 -0.0000
vn -0.0000 -0.0000 1.0000
vn -0.0000 -1.0000 -0.0000
vn -0.0000 1.0000 -0.0000
vt 0.625000 0.000000
vt 0.375000 0.250000
vt 0.375000 0.000000
vt 0.625000 0.250000
vt 0.556818 0.500000
vt 0.556818 0.391667
vt 0.556818 0.615000
vt 0.625000 0.750000
vt 0.375000 0.615000
vt 0.625000 1.000000
vt 0.556818 0.866667
vt 0.266667 0.615000
vt 0.258333 0.750000
vt 0.258333 0.747500
vt 0.200000 0.750000
vt 0.200000 0.747500
vt 0.375000 0.500000
vt 0.875000 0.500000
vt 0.625000 0.500000
vt 0.375000 0.221154
vt 0.625000 0.221154
vt 0.375000 0.750000
vt 0.625000 0.783333
vt 0.375000 0.783333
vt 0.341667 0.528846
vt 0.125000 0.500000
vt 0.875000 0.528846
vt 0.658333 0.528846
vt 0.375000 0.166667
vt 0.625000 0.583333
vt 0.375000 1.000000
vt 0.125000 0.750000
vt 0.375000 0.583333
vt 0.875000 0.750000
vt 0.875000 0.583333
vt 0.375000 0.391667
vt 0.375000 0.866667
vt 0.375000 0.925000
vt 0.556818 0.925000
vt 0.266667 0.500000
vt 0.341667 0.750000
vt 0.125000 0.528846
vt 0.658333 0.750000
vt 0.625000 0.166667
vt 0.125000 0.583333
s 0
usemtl DesertAdobeMainMat
f 5/1/1 7/2/1 1/3/1
f 10/4/2 24/5/2 22/6/2
f 25/7/3 16/8/3 26/9/3
f 4/12/5 30/13/5 13/14/5
f 10/18/6 16/8/6 21/19/6
f 5/1/1 10/4/1 7/2/1
f 22/6/2 23/36/2 7/2/2
f 10/4/2 21/19/2 24/5/2
f 22/6/2 7/2/2 10/4/2
f 25/7/3 24/5/3 21/19/3
f 16/8/3 15/22/3 26/9/3
f 25/7/3 21/19/3 16/8/3
f 6/16/5 29/15/5 1/32/5
f 1/32/5 7/26/5 23/40/5
f 4/12/5 26/9/5 15/22/5
f 1/32/5 23/40/5 4/12/5
f 6/16/5 1/32/5 4/12/5
f 4/12/5 15/22/5 30/13/5
f 13/14/5 6/16/5 4/12/5
f 10/18/6 5/34/6 16/8/6
usemtl DesertAdobeAnnexMat
f 4/12/5 18/17/5 26/9/5
f 12/4/1 23/20/1 22/21/1
f 12/4/2 19/17/2 9/2/2
f 20/19/3 14/22/3 19/17/3
f 14/22/4 25/23/4 26/24/4
f 19/17/5 18/25/5 9/26/5
f 20/19/6 22/27/6 24/28/6
f 4/12/5 23/40/5 18/17/5
f 12/4/1 9/2/1 23/20/1
f 12/4/2 20/19/2 19/17/2
f 20/19/3 17/8/3 14/22/3
f 14/22/4 17/8/4 25/23/4
f 19/17/5 14/22/5 26/41/5
f 18/25/5 23/42/5 9/26/5
f 19/17/5 26/41/5 18/25/5
f 24/28/6 25/43/6 17/8/6
f 20/19/6 12/18/6 22/27/6
f 24/28/6 17/8/6 20/19/6
usemtl DesertAdobeDoorMat
f 16/8/4 5/10/4 28/11/4
f 13/14/5 29/15/5 6/16/5
f 3/1/1 29/29/1 2/3/1
f 8/22/3 28/30/3 11/8/3
f 11/8/4 2/31/4 8/22/4
f 2/32/5 30/33/5 8/22/5
f 3/34/6 28/30/6 27/35/6
f 30/37/4 15/22/4 16/8/4
f 5/10/4 1/31/4 29/38/4
f 5/10/4 29/38/4 27/39/4
f 28/11/4 30/37/4 16/8/4
f 5/10/4 27/39/4 28/11/4
f 13/14/5 30/13/5 29/15/5
f 3/1/1 27/44/1 29/29/1
f 8/22/3 30/33/3 28/30/3
f 11/8/4 3/10/4 2/31/4
f 2/32/5 29/45/5 30/33/5
f 3/34/6 11/8/6 28/30/6
