# Blender 4.0.2
# www.blender.org
mtllib wooden_crate.mtl
o WoodenCrate
v 0.541000 0.000000 0.540000
v 0.541000 0.000000 0.334000
v 0.541000 1.000000 0.334000
v 0.541000 1.000000 0.540000
v 0.541000 0.000000 0.314000
v 0.541000 0.000000 0.118000
v 0.541000 1.000000 0.118000
v 0.541000 1.000000 0.314000
v 0.541000 0.000000 0.324000
v 0.528000 0.000000 0.324000
v 0.528000 1.000000 0.324000
v 0.541000 1.000000 0.324000
v 0.541000 0.000000 0.098000
v 0.541000 0.000000 -0.098000
v 0.541000 1.000000 -0.098000
v 0.541000 1.000000 0.098000
v 0.541000 0.000000 0.108000
v 0.528000 0.000000 0.108000
v 0.528000 1.000000 0.108000
v 0.541000 1.000000 0.108000
v 0.541000 0.000000 -0.118000
v 0.541000 0.000000 -0.314000
v 0.541000 1.000000 -0.314000
v 0.541000 1.000000 -0.118000
v 0.541000 0.000000 -0.108000
v 0.528000 0.000000 -0.108000
v 0.528000 1.000000 -0.108000
v 0.541000 1.000000 -0.108000
v 0.541000 0.000000 -0.334000
v 0.541000 0.000000 -0.540000
v 0.541000 1.000000 -0.540000
v 0.541000 1.000000 -0.334000
v 0.541000 0.000000 -0.324000
v 0.528000 0.000000 -0.324000
v 0.528000 1.000000 -0.324000
v 0.541000 1.000000 -0.324000
v -0.541000 0.000000 0.334000
v -0.541000 0.000000 0.540000
v -0.541000 1.000000 0.540000
v -0.541000 1.000000 0.334000
v -0.541000 0.000000 0.118000
v -0.541000 0.000000 0.314000
v -0.541000 1.000000 0.314000
v -0.541000 1.000000 0.118000
v -0.528000 0.000000 0.324000
v -0.541000 0.000000 0.324000
v -0.541000 1.000000 0.324000
v -0.528000 1.000000 0.324000
v -0.541000 0.000000 -0.098000
v -0.541000 0.000000 0.098000
v -0.541000 1.000000 0.098000
v -0.541000 1.000000 -0.098000
v -0.528000 0.000000 0.108000
v -0.541000 0.000000 0.108000
v -0.541000 1.000000 0.108000
v -0.528000 1.000000 0.108000
v -0.541000 0.000000 -0.314000
v -0.541000 0.000000 -0.118000
v -0.541000 1.000000 -0.118000
v -0.541000 1.000000 -0.314000
v -0.528000 0.000000 -0.108000
v -0.541000 0.000000 -0.108000
v -0.541000 1.000000 -0.108000
v -0.528000 1.000000 -0.108000
v -0.541000 0.000000 -0.540000
v -0.541000 0.000000 -0.334000
v -0.541000 1.000000 -0.334000
v -0.541000 1.000000 -0.540000
v -0.528000 0.000000 -0.324000
v -0.541000 0.000000 -0.324000
v -0.541000 1.000000 -0.324000
v -0.528000 1.000000 -0.324000
v -0.540000 0.000000 -0.541000
v -0.334000 0.000000 -0.541000
v -0.334000 1.000000 -0.541000
v -0.540000 1.000000 -0.541000
v -0.314000 0.000000 -0.541000
v -0.118000 0.000000 -0.541000
v -0.118000 1.000000 -0.541000
v -0.314000 1.000000 -0.541000
v -0.324000 0.000000 -0.541000
v -0.324000 0.000000 -0.528000
v -0.324000 1.000000 -0.528000
v -0.324000 1.000000 -0.541000
v -0.098000 0.000000 -0.541000
v 0.098000 0.000000 -0.541000
v 0.098000 1.000000 -0.541000
v -0.098000 1.000000 -0.541000
v -0.108000 0.000000 -0.541000
v -0.108000 0.000000 -0.528000
v -0.108000 1.000000 -0.528000
v -0.108000 1.000000 -0.541000
v 0.118000 0.000000 -0.541000
v 0.314000 0.000000 -0.541000
v 0.314000 1.000000 -0.541000
v 0.118000 1.000000 -0.541000
v 0.108000 0.000000 -0.541000
v 0.108000 0.000000 -0.528000
v 0.108000 1.000000 -0.528000
v 0.108000 1.000000 -0.541000
v 0.334000 0.000000 -0.541000
v 0.540000 0.000000 -0.541000
v 0.540000 1.000000 -0.541000
v 0.334000 1.000000 -0.541000
v 0.324000 0.000000 -0.541000
v 0.324000 0.000000 -0.528000
v 0.324000 1.000000 -0.528000
v 0.324000 1.000000 -0.541000
v -0.334000 0.000000 0.541000
v -0.540000 0.000000 0.541000
v -0.540000 1.000000 0.541000
v -0.334000 1.000000 0.541000
v -0.118000 0.000000 0.541000
v -0.314000 0.000000 0.541000
v -0.314000 1.000000 0.541000
v -0.118000 1.000000 0.541000
v -0.324000 0.000000 0.528000
v -0.324000 0.000000 0.541000
v -0.324000 1.000000 0.541000
v -0.324000 1.000000 0.528000
v 0.098000 0.000000 0.541000
v -0.098000 0.000000 0.541000
v -0.098000 1.000000 0.541000
v 0.098000 1.000000 0.541000
v -0.108000 0.000000 0.528000
v -0.108000 0.000000 0.541000
v -0.108000 1.000000 0.541000
v -0.108000 1.000000 0.528000
v 0.314000 0.000000 0.541000
v 0.118000 0.000000 0.541000
v 0.118000 1.000000 0.541000
v 0.314000 1.000000 0.541000
v 0.108000 0.000000 0.528000
v 0.108000 0.000000 0.541000
v 0.108000 1.000000 0.541000
v 0.108000 1.000000 0.528000
v 0.540000 0.000000 0.541000
v 0.334000 0.000000 0.541000
v 0.334000 1.000000 0.541000
v 0.540000 1.000000 0.541000
v 0.324000 0.000000 0.528000
v 0.324000 0.000000 0.541000
v 0.324000 1.000000 0.541000
v 0.324000 1.000000 0.528000
v -0.540000 1.000000 0.540000
v 0.540000 1.000000 0.540000
v 0.540000 1.000000 -0.540000
v -0.540000 1.000000 -0.540000
v -0.540000 0.000000 -0.540000
v 0.540000 0.000000 -0.540000
v 0.540000 0.000000 0.540000
v -0.540000 0.000000 0.540000
v -0.544500 0.000000 0.544500
v -0.544500 1.000000 0.544500
v -0.544500 0.000000 0.499500
v -0.544500 1.000000 0.499500
v -0.499500 0.000000 0.544500
v -0.499500 1.000000 0.544500
v -0.499500 0.000000 0.499500
v -0.499500 1.000000 0.499500
v -0.544500 0.000000 -0.499500
v -0.544500 1.000000 -0.499500
v -0.544500 0.000000 -0.544500
v -0.544500 1.000000 -0.544500
v -0.499500 0.000000 -0.499500
v -0.499500 1.000000 -0.499500
v -0.499500 0.000000 -0.544500
v -0.499500 1.000000 -0.544500
v 0.499500 0.000000 0.544500
v 0.499500 1.000000 0.544500
v 0.499500 0.000000 0.499500
v 0.499500 1.000000 0.499500
v 0.544500 0.000000 0.544500
v 0.544500 1.000000 0.544500
v 0.544500 0.000000 0.499500
v 0.544500 1.000000 0.499500
v 0.499500 0.000000 -0.499500
v 0.499500 1.000000 -0.499500
v 0.499500 0.000000 -0.544500
v 0.499500 1.000000 -0.544500
v 0.544500 0.000000 -0.499500
v 0.544500 1.000000 -0.499500
v 0.544500 0.000000 -0.544500
v 0.544500 1.000000 -0.544500
v 0.497803 1.005000 -0.533159
v 0.533159 0.975000 -0.497803
v 0.497803 0.975000 -0.533159
v -0.533159 0.975000 0.497803
v -0.533159 1.005000 0.497803
v -0.497803 1.005000 0.533159
v 0.533159 1.005000 -0.497803
v -0.497803 0.975000 0.533159
v 0.533159 0.975000 0.497803
v -0.497803 0.975000 -0.533159
v 0.533159 1.005000 0.497803
v -0.497803 1.005000 -0.533159
v 0.497803 1.005000 0.533159
v 0.497803 0.975000 0.533159
v -0.533159 0.975000 -0.497803
v -0.533159 1.005000 -0.497803
vn 1.0000 -0.0000 -0.0000
vn -0.0000 -0.0000 1.0000
vn -0.0000 -0.0000 -1.0000
vn -1.0000 -0.0000 -0.0000
vn -0.0000 1.0000 -0.0000
vn -0.0000 -1.0000 -0.0000
vn -0.7071 -0.0000 -0.7071
vn 0.7071 -0.0000 -0.7071
vn 0.7071 -0.0000 0.7071
vn -0.7071 -0.0000 0.7071
s 0
usemtl CrateWoodMat.001
f 2//1 4//1 1//1
f 6//1 8//1 5//1
f 12//2 10//2 9//2
f 14//1 16//1 13//1
f 20//2 18//2 17//2
f 22//1 24//1 21//1
f 26//3 28//3 25//3
f 30//1 32//1 29//1
f 34//3 36//3 33//3
f 38//4 40//4 37//4
f 42//4 44//4 41//4
f 48//2 46//2 45//2
f 50//4 52//4 49//4
f 56//2 54//2 53//2
f 58//4 60//4 57//4
f 62//3 64//3 61//3
f 66//4 68//4 65//4
f 70//3 72//3 69//3
f 76//3 74//3 73//3
f 80//3 78//3 77//3
f 82//4 84//4 81//4
f 88//3 86//3 85//3
f 90//4 92//4 89//4
f 96//3 94//3 93//3
f 100//1 98//1 97//1
f 104//3 102//3 101//3
f 108//1 106//1 105//1
f 112//2 110//2 109//2
f 116//2 114//2 113//2
f 118//4 120//4 117//4
f 124//2 122//2 121//2
f 126//4 128//4 125//4
f 132//2 130//2 129//2
f 136//1 134//1 133//1
f 140//2 138//2 137//2
f 144//1 142//1 141//1
f 146//5 148//5 145//5
f 150//6 152//6 149//6
f 2//1 3//1 4//1
f 6//1 7//1 8//1
f 12//2 11//2 10//2
f 14//1 15//1 16//1
f 20//2 19//2 18//2
f 22//1 23//1 24//1
f 26//3 27//3 28//3
f 30//1 31//1 32//1
f 34//3 35//3 36//3
f 38//4 39//4 40//4
f 42//4 43//4 44//4
f 48//2 47//2 46//2
f 50//4 51//4 52//4
f 56//2 55//2 54//2
f 58//4 59//4 60//4
f 62//3 63//3 64//3
f 66//4 67//4 68//4
f 70//3 71//3 72//3
f 76//3 75//3 74//3
f 80//3 79//3 78//3
f 82//4 83//4 84//4
f 88//3 87//3 86//3
f 90//4 91//4 92//4
f 96//3 95//3 94//3
f 100//1 99//1 98//1
f 104//3 103//3 102//3
f 108//1 107//1 106//1
f 112//2 111//2 110//2
f 116//2 115//2 114//2
f 118//4 119//4 120//4
f 124//2 123//2 122//2
f 126//4 127//4 128//4
f 132//2 131//2 130//2
f 136//1 135//1 134//1
f 140//2 139//2 138//2
f 144//1 143//1 142//1
f 146//5 147//5 148//5
f 150//6 151//6 152//6
usemtl CrateTrimMat.001
f 155//6 157//6 153//6
f 158//5 156//5 154//5
f 154//4 155//4 153//4
f 158//4 159//4 157//4
f 157//2 154//2 153//2
f 159//2 156//2 155//2
f 163//6 165//6 161//6
f 166//5 164//5 162//5
f 162//4 163//4 161//4
f 166//4 167//4 165//4
f 162//3 165//3 161//3
f 164//3 167//3 163//3
f 171//6 173//6 169//6
f 174//5 172//5 170//5
f 171//1 170//1 169//1
f 175//1 174//1 173//1
f 173//2 170//2 169//2
f 175//2 172//2 171//2
f 179//6 181//6 177//6
f 182//5 180//5 178//5
f 179//1 178//1 177//1
f 183//1 182//1 181//1
f 178//3 181//3 177//3
f 180//3 183//3 179//3
f 190//5 185//5 189//5
f 192//5 187//5 188//5
f 189//7 187//7 188//7
f 185//8 186//8 187//8
f 191//9 192//9 186//9
f 190//10 188//10 192//10
f 200//5 195//5 196//5
f 199//5 193//5 194//5
f 196//8 193//8 194//8
f 195//9 198//9 193//9
f 197//10 199//10 198//10
f 200//7 194//7 199//7
f 155//6 159//6 157//6
f 158//5 160//5 156//5
f 154//4 156//4 155//4
f 158//4 160//4 159//4
f 157//2 158//2 154//2
f 159//2 160//2 156//2
f 163//6 167//6 165//6
f 166//5 168//5 164//5
f 162//4 164//4 163//4
f 166//4 168//4 167//4
f 162//3 166//3 165//3
f 164//3 168//3 167//3
f 171//6 175//6 173//6
f 174//5 176//5 172//5
f 171//1 172//1 170//1
f 175//1 176//1 174//1
f 173//2 174//2 170//2
f 175//2 176//2 172//2
f 179//6 183//6 181//6
f 182//5 184//5 180//5
f 179//1 180//1 178//1
f 183//1 184//1 182//1
f 178//3 182//3 181//3
f 180//3 184//3 183//3
f 190//5 191//5 185//5
f 192//5 186//5 187//5
f 189//7 185//7 187//7
f 185//8 191//8 186//8
f 191//9 190//9 192//9
f 190//10 189//10 188//10
f 200//5 197//5 195//5
f 199//5 198//5 193//5
f 196//8 195//8 193//8
f 195//9 197//9 198//9
f 197//10 200//10 199//10
f 200//7 196//7 194//7
