# Blender 4.0.2
# www.blender.org
mtllib forest_cabin.mtl
o ForestCabin
v 1.280000 0.520000 0.080000
v 0.864000 0.260000 0.288000
v 0.900000 0.260000 0.252000
v 1.280000 0.520000 0.020000
v 1.536000 0.260000 0.288000
v 1.340000 0.520000 0.080000
v 1.536000 0.260000 -0.288000
v 0.900000 0.260000 -0.252000
v 0.864000 0.260000 -0.288000
v 1.340000 0.520000 0.020000
v 0.864000 0.430000 0.000000
v 1.500000 0.260000 0.252000
v 1.536000 0.430000 0.000000
v 1.500000 0.260000 -0.252000
v 1.494000 0.260000 -0.252000
v 0.906000 0.260000 0.252000
v 1.368000 0.373333 0.096000
v 1.296000 0.373333 0.096000
v 1.296000 0.415833 0.024000
v 1.368000 0.415833 0.024000
v 0.880000 0.032500 0.207500
v 1.520000 0.032500 0.207500
v 0.880000 0.013397 0.213707
v 1.520000 0.013397 0.213707
v 0.880000 0.001591 0.229957
v 1.520000 0.001591 0.229957
v 0.880000 0.001591 0.250043
v 1.520000 0.001591 0.250043
v 0.880000 0.013397 0.266293
v 1.520000 0.013397 0.266293
v 0.880000 0.032500 0.272500
v 1.520000 0.032500 0.272500
v 0.880000 0.051603 0.266293
v 1.520000 0.051603 0.266293
v 0.880000 0.063409 0.250043
v 1.520000 0.063409 0.250043
v 0.880000 0.063409 0.229957
v 1.520000 0.063409 0.229957
v 0.880000 0.051603 0.213707
v 1.520000 0.051603 0.213707
v 0.880000 0.032500 -0.272500
v 1.520000 0.032500 -0.272500
v 0.880000 0.013397 -0.266293
v 1.520000 0.013397 -0.266293
v 0.880000 0.001591 -0.250043
v 1.520000 0.001591 -0.250043
v 0.880000 0.001591 -0.229957
v 1.520000 0.001591 -0.229957
v 0.880000 0.013397 -0.213707
v 1.520000 0.013397 -0.213707
v 0.880000 0.032500 -0.207500
v 1.520000 0.032500 -0.207500
v 0.880000 0.051603 -0.213707
v 1.520000 0.051603 -0.213707
v 0.880000 0.063409 -0.229957
v 1.520000 0.063409 -0.229957
v 0.880000 0.063409 -0.250043
v 1.520000 0.063409 -0.250043
v 0.880000 0.051603 -0.266293
v 1.520000 0.051603 -0.266293
v 0.939103 0.058793 -0.280000
v 0.939103 0.058793 0.280000
v 0.950909 0.042543 -0.280000
v 0.950909 0.042543 0.280000
v 0.950909 0.022457 -0.280000
v 0.950909 0.022457 0.280000
v 0.939103 0.006207 -0.280000
v 0.939103 0.006207 0.280000
v 0.920000 0.000000 -0.280000
v 0.920000 -0.000000 0.280000
v 0.900897 0.006207 -0.280000
v 0.900897 0.006207 0.280000
v 0.889091 0.022457 -0.280000
v 0.889091 0.022457 0.280000
v 0.889091 0.042543 -0.280000
v 0.889091 0.042543 0.280000
v 0.900897 0.058793 -0.280000
v 0.900897 0.058793 0.280000
v 1.480000 0.065000 -0.280000
v 1.499103 0.058793 -0.280000
v 1.499103 0.058793 0.280000
v 1.510909 0.042543 -0.280000
v 1.510909 0.042543 0.280000
v 1.510909 0.022457 -0.280000
v 1.510909 0.022457 0.280000
v 1.499103 0.006207 -0.280000
v 1.499103 0.006207 0.280000
v 1.480000 0.000000 -0.280000
v 1.480000 -0.000000 0.280000
v 1.460897 0.006207 -0.280000
v 1.460897 0.006207 0.280000
v 1.449091 0.022457 -0.280000
v 1.449091 0.022457 0.280000
v 1.449091 0.042543 -0.280000
v 1.449091 0.042543 0.280000
v 1.460897 0.058793 -0.280000
v 1.460897 0.058793 0.280000
v 0.880000 0.097500 0.207500
v 1.520000 0.097500 0.207500
v 0.880000 0.078397 0.213707
v 1.520000 0.078397 0.213707
v 0.880000 0.066591 0.229957
v 1.520000 0.066591 0.229957
v 0.880000 0.066591 0.250043
v 1.520000 0.066591 0.250043
v 0.880000 0.078397 0.266293
v 1.520000 0.078397 0.266293
v 0.880000 0.097500 0.272500
v 1.520000 0.097500 0.272500
v 0.880000 0.116603 0.266293
v 1.520000 0.116603 0.266293
v 0.880000 0.128409 0.250043
v 1.520000 0.128409 0.250043
v 0.880000 0.128409 0.229957
v 1.520000 0.128409 0.229957
v 0.880000 0.116603 0.213707
v 1.520000 0.116603 0.213707
v 0.880000 0.097500 -0.272500
v 1.520000 0.097500 -0.272500
v 0.880000 0.078397 -0.266293
v 1.520000 0.078397 -0.266293
v 0.880000 0.066591 -0.250043
v 1.520000 0.066591 -0.250043
v 0.880000 0.066591 -0.229957
v 1.520000 0.066591 -0.229957
v 0.880000 0.078397 -0.213707
v 1.520000 0.078397 -0.213707
v 0.880000 0.097500 -0.207500
v 1.520000 0.097500 -0.207500
v 0.880000 0.116603 -0.213707
v 1.520000 0.116603 -0.213707
v 0.880000 0.128409 -0.229957
v 1.520000 0.128409 -0.229957
v 0.880000 0.128409 -0.250043
v 1.520000 0.128409 -0.250043
v 0.880000 0.116603 -0.266293
v 1.520000 0.116603 -0.266293
v 0.939103 0.123793 -0.280000
v 0.939103 0.123793 0.280000
v 0.950909 0.107543 -0.280000
v 0.950909 0.107543 0.280000
v 0.950909 0.087457 -0.280000
v 0.950909 0.087457 0.280000
v 0.939103 0.071207 -0.280000
v 0.939103 0.071207 0.280000
v 0.920000 0.065000 -0.280000
v 0.920000 0.065000 0.280000
v 0.900897 0.071207 -0.280000
v 0.900897 0.071207 0.280000
v 0.889091 0.087457 -0.280000
v 0.889091 0.087457 0.280000
v 0.889091 0.107543 -0.280000
v 0.889091 0.107543 0.280000
v 0.900897 0.123793 -0.280000
v 0.900897 0.123793 0.280000
v 1.499103 0.123793 -0.280000
v 1.499103 0.123793 0.280000
v 1.510909 0.107543 -0.280000
v 1.510909 0.107543 0.280000
v 1.510909 0.087457 -0.280000
v 1.510909 0.087457 0.280000
v 1.499103 0.071207 -0.280000
v 1.499103 0.071207 0.280000
v 1.480000 0.065000 0.280000
v 1.460897 0.071207 -0.280000
v 1.460897 0.071207 0.280000
v 1.449091 0.087457 -0.280000
v 1.449091 0.087457 0.280000
v 1.449091 0.107543 -0.280000
v 1.449091 0.107543 0.280000
v 1.460897 0.123793 -0.280000
v 1.460897 0.123793 0.280000
v 0.880000 0.162500 0.207500
v 1.520000 0.162500 0.207500
v 0.880000 0.143397 0.213707
v 1.520000 0.143397 0.213707
v 0.880000 0.131591 0.229957
v 1.520000 0.131591 0.229957
v 0.880000 0.131591 0.250043
v 1.520000 0.131591 0.250043
v 0.880000 0.143397 0.266293
v 1.520000 0.143397 0.266293
v 0.880000 0.162500 0.272500
v 1.520000 0.162500 0.272500
v 0.880000 0.181603 0.266293
v 1.520000 0.181603 0.266293
v 0.880000 0.193409 0.250043
v 1.520000 0.193409 0.250043
v 0.880000 0.193409 0.229957
v 1.520000 0.193409 0.229957
v 0.880000 0.181603 0.213707
v 1.520000 0.181603 0.213707
v 0.880000 0.162500 -0.272500
v 1.520000 0.162500 -0.272500
v 0.880000 0.143397 -0.266293
v 1.520000 0.143397 -0.266293
v 0.880000 0.131591 -0.250043
v 1.520000 0.131591 -0.250043
v 0.880000 0.131591 -0.229957
v 1.520000 0.131591 -0.229957
v 0.880000 0.143397 -0.213707
v 1.520000 0.143397 -0.213707
v 0.880000 0.162500 -0.207500
v 1.520000 0.162500 -0.207500
v 0.880000 0.181603 -0.213707
v 1.520000 0.181603 -0.213707
v 0.880000 0.193409 -0.229957
v 1.520000 0.193409 -0.229957
v 0.880000 0.193409 -0.250043
v 1.520000 0.193409 -0.250043
v 0.880000 0.181603 -0.266293
v 1.520000 0.181603 -0.266293
v 0.920000 0.195000 -0.280000
v 0.939103 0.188793 -0.280000
v 0.939103 0.188793 0.280000
v 0.950909 0.172543 -0.280000
v 0.950909 0.172543 0.280000
v 0.950909 0.152457 -0.280000
v 0.950909 0.152457 0.280000
v 0.939103 0.136207 -0.280000
v 0.939103 0.136207 0.280000
v 0.920000 0.130000 -0.280000
v 0.920000 0.130000 0.280000
v 0.900897 0.136207 -0.280000
v 0.900897 0.136207 0.280000
v 0.889091 0.152457 -0.280000
v 0.889091 0.152457 0.280000
v 0.889091 0.172543 -0.280000
v 0.889091 0.172543 0.280000
v 0.900897 0.188793 -0.280000
v 0.900897 0.188793 0.280000
v 1.480000 0.195000 0.280000
v 1.499103 0.188793 -0.280000
v 1.499103 0.188793 0.280000
v 1.510909 0.172543 -0.280000
v 1.510909 0.172543 0.280000
v 1.510909 0.152457 -0.280000
v 1.510909 0.152457 0.280000
v 1.499103 0.136207 -0.280000
v 1.499103 0.136207 0.280000
v 1.480000 0.130000 -0.280000
v 1.480000 0.130000 0.280000
v 1.460897 0.136207 -0.280000
v 1.460897 0.136207 0.280000
v 1.449091 0.152457 -0.280000
v 1.449091 0.152457 0.280000
v 1.449091 0.172543 -0.280000
v 1.449091 0.172543 0.280000
v 1.460897 0.188793 -0.280000
v 1.460897 0.188793 0.280000
v 0.880000 0.227500 0.207500
v 1.520000 0.227500 0.207500
v 0.880000 0.208397 0.213707
v 1.520000 0.208397 0.213707
v 0.880000 0.196591 0.229957
v 1.520000 0.196591 0.229957
v 0.880000 0.196591 0.250043
v 1.520000 0.196591 0.250043
v 0.880000 0.208397 0.266293
v 1.520000 0.208397 0.266293
v 0.880000 0.227500 0.272500
v 1.520000 0.227500 0.272500
v 0.880000 0.246603 0.266293
v 1.520000 0.246603 0.266293
v 0.880000 0.258409 0.250043
v 1.520000 0.258409 0.250043
v 0.880000 0.258409 0.229957
v 1.520000 0.258409 0.229957
v 0.880000 0.246603 0.213707
v 1.520000 0.246603 0.213707
v 0.880000 0.227500 -0.272500
v 1.520000 0.227500 -0.272500
v 0.880000 0.208397 -0.266293
v 1.520000 0.208397 -0.266293
v 0.880000 0.196591 -0.250043
v 1.520000 0.196591 -0.250043
v 0.880000 0.196591 -0.229957
v 1.520000 0.196591 -0.229957
v 0.880000 0.208397 -0.213707
v 1.520000 0.208397 -0.213707
v 0.880000 0.227500 -0.207500
v 1.520000 0.227500 -0.207500
v 0.880000 0.246603 -0.213707
v 1.520000 0.246603 -0.213707
v 0.880000 0.258409 -0.229957
v 1.520000 0.258409 -0.229957
v 0.880000 0.258409 -0.250043
v 1.520000 0.258409 -0.250043
v 0.880000 0.246603 -0.266293
v 1.520000 0.246603 -0.266293
v 0.920000 0.260000 -0.280000
v 0.920000 0.260000 0.280000
v 0.939103 0.253793 -0.280000
v 0.939103 0.253793 0.280000
v 0.950909 0.237543 -0.280000
v 0.950909 0.237543 0.280000
v 0.950909 0.217457 -0.280000
v 0.950909 0.217457 0.280000
v 0.939103 0.201207 -0.280000
v 0.939103 0.201207 0.280000
v 0.920000 0.195000 0.280000
v 0.900897 0.201207 -0.280000
v 0.900897 0.201207 0.280000
v 0.889091 0.217457 -0.280000
v 0.889091 0.217457 0.280000
v 0.889091 0.237543 -0.280000
v 0.889091 0.237543 0.280000
v 0.900897 0.253793 -0.280000
v 0.900897 0.253793 0.280000
v 1.480000 0.260000 -0.280000
v 1.480000 0.260000 0.280000
v 1.499103 0.253793 -0.280000
v 1.499103 0.253793 0.280000
v 1.510909 0.237543 -0.280000
v 1.510909 0.237543 0.280000
v 1.510909 0.217457 -0.280000
v 1.510909 0.217457 0.280000
v 1.499103 0.201207 -0.280000
v 1.499103 0.201207 0.280000
v 1.480000 0.195000 -0.280000
v 1.460897 0.201207 -0.280000
v 1.460897 0.201207 0.280000
v 1.449091 0.217457 -0.280000
v 1.449091 0.217457 0.280000
v 1.449091 0.237543 -0.280000
v 1.449091 0.237543 0.280000
v 1.460897 0.253793 -0.280000
v 1.460897 0.253793 0.280000
vn -0.0000 -1.0000 -0.0000
vn -0.0000 0.8612 0.5083
vn -0.0000 0.8612 -0.5083
vn -1.0000 -0.0000 -0.0000
vn 1.0000 -0.0000 -0.0000
vn -0.9910 -0.1155 -0.0682
vn -0.0000 -0.0384 -0.9993
vn 0.9731 0.1986 0.1172
vn -0.0000 0.1084 0.9941
vn -0.0000 1.0000 -0.0000
vn -0.0000 -0.3090 -0.9511
vn -0.0000 -0.8090 -0.5878
vn -0.0000 -0.8090 0.5878
vn -0.0000 -0.3090 0.9511
vn -0.0000 0.3090 0.9511
vn -0.0000 0.8090 0.5878
vn -0.0000 0.8090 -0.5878
vn -0.0000 0.3090 -0.9511
vn 0.3090 0.9511 -0.0000
vn 0.8090 0.5878 -0.0000
vn 0.8090 -0.5878 -0.0000
vn 0.3090 -0.9511 -0.0000
vn -0.3090 -0.9511 -0.0000
vn -0.8090 -0.5878 -0.0000
vn -0.0000 -0.0000 1.0000
vn -0.8090 0.5878 -0.0000
vn -0.3090 0.9511 -0.0000
vn -0.0000 -0.0000 -1.0000
vn -0.9884 -0.1518 -0.0000
vn 0.9657 0.2596 -0.0000
vt 0.000000 0.000000
vt 0.625000 0.000000
vt 0.511775 0.250000
vt 0.465580 0.000000
vt 0.625000 0.500000
vt 0.511775 0.500000
vt 0.625000 0.750000
vt 0.465580 0.750000
vt 0.465580 1.000000
vt 0.875000 0.500000
vt 1.000000 0.500000
vt 0.900000 1.000000
vt 0.900000 0.500000
vt 0.800000 0.500000
vt 0.800000 1.000000
vt 0.700000 0.500000
vt 0.600000 1.000000
vt 0.600000 0.500000
vt 0.500000 0.500000
vt 0.500000 1.000000
vt 0.400000 0.500000
vt 0.300000 1.000000
vt 0.300000 0.500000
vt 0.200000 0.500000
vt 0.021746 0.324164
vt 0.391068 0.055836
vt 0.478254 0.324164
vt 0.200000 1.000000
vt 0.100000 0.500000
vt 0.100000 1.000000
vt -0.000000 0.500000
vt 0.978254 0.175836
vt 0.521746 0.175836
vt 0.608932 0.444164
vt 1.000000 1.000000
vt 0.700000 1.000000
vt 0.400000 1.000000
vt 0.625000 0.250000
vt 0.625000 1.000000
vt 0.875000 0.750000
vt 0.391068 0.444164
vt 0.250000 0.490000
vt 0.108932 0.444164
vt 0.021746 0.175836
vt 0.108932 0.055836
vt 0.250000 0.010000
vt 0.478254 0.175836
vt -0.000000 1.000000
vt 0.750000 0.490000
vt 0.891068 0.444164
vt 0.978254 0.324164
vt 0.891068 0.055836
vt 0.750000 0.010000
vt 0.608932 0.055836
vt 0.521746 0.324164
s 0
usemtl ForestCabinWallsMat
f 21/11/11 24/12/11 23/13/11
f 24/12/12 25/14/12 23/13/12
f 26/15/1 27/16/1 25/14/1
f 27/16/13 30/17/13 29/18/13
f 30/17/14 31/19/14 29/18/14
f 32/20/15 33/21/15 31/19/15
f 33/21/16 36/22/16 35/23/16
f 36/22/10 37/24/10 35/23/10
f 38/25/5 30/26/5 26/27/5
f 38/28/17 39/29/17 37/24/17
f 40/30/18 21/31/18 39/29/18
f 27/32/4 35/33/4 39/34/4
f 42/35/11 43/13/11 41/11/11
f 44/12/12 45/14/12 43/13/12
f 46/15/1 47/16/1 45/14/1
f 48/36/13 49/18/13 47/16/13
f 50/17/14 51/19/14 49/18/14
f 52/20/15 53/21/15 51/19/15
f 54/37/16 55/23/16 53/21/16
f 56/22/10 57/24/10 55/23/10
f 58/25/5 50/26/5 46/27/5
f 58/28/17 59/29/17 57/24/17
f 60/30/18 41/31/18 59/29/18
f 47/32/4 55/33/4 59/34/4
f 147/35/19 61/13/19 146/11/19
f 62/12/20 63/14/20 61/13/20
f 63/14/5 66/36/5 65/16/5
f 66/36/21 67/18/21 65/16/21
f 68/17/22 69/19/22 67/18/22
f 70/20/23 71/21/23 69/19/23
f 72/37/24 73/23/24 71/21/24
f 73/23/4 76/28/4 75/24/4
f 76/25/25 68/26/25 64/27/25
f 76/28/26 77/29/26 75/24/26
f 78/30/27 146/31/27 77/29/27
f 65/32/28 73/33/28 77/34/28
f 164/35/19 80/13/19 79/11/19
f 81/12/20 82/14/20 80/13/20
f 82/14/5 85/36/5 84/16/5
f 85/36/21 86/18/21 84/16/21
f 87/17/22 88/19/22 86/18/22
f 89/20/23 90/21/23 88/19/23
f 91/37/24 92/23/24 90/21/24
f 92/23/4 95/28/4 94/24/4
f 95/25/25 87/26/25 83/27/25
f 95/28/26 96/29/26 94/24/26
f 97/30/27 79/31/27 96/29/27
f 84/32/28 92/33/28 96/34/28
f 99/35/11 100/13/11 98/11/11
f 101/12/12 102/14/12 100/13/12
f 103/15/1 104/16/1 102/14/1
f 105/36/13 106/18/13 104/16/13
f 107/17/14 108/19/14 106/18/14
f 109/20/15 110/21/15 108/19/15
f 111/37/16 112/23/16 110/21/16
f 113/22/10 114/24/10 112/23/10
f 115/25/5 107/26/5 103/27/5
f 115/28/17 116/29/17 114/24/17
f 117/30/18 98/31/18 116/29/18
f 104/32/4 112/33/4 116/34/4
f 119/35/11 120/13/11 118/11/11
f 121/12/12 122/14/12 120/13/12
f 123/15/1 124/16/1 122/14/1
f 125/36/13 126/18/13 124/16/13
f 127/17/14 128/19/14 126/18/14
f 129/20/15 130/21/15 128/19/15
f 131/37/16 132/23/16 130/21/16
f 133/22/10 134/24/10 132/23/10
f 135/25/5 127/26/5 123/27/5
f 135/28/17 136/29/17 134/24/17
f 137/30/18 118/31/18 136/29/18
f 124/32/4 132/33/4 136/34/4
f 223/35/19 138/13/19 222/11/19
f 139/12/20 140/14/20 138/13/20
f 141/15/5 142/16/5 140/14/5
f 143/36/21 144/18/21 142/16/21
f 145/17/22 146/19/22 144/18/22
f 147/20/23 148/21/23 146/19/23
f 149/37/24 150/23/24 148/21/24
f 151/22/4 152/24/4 150/23/4
f 153/25/25 145/26/25 141/27/25
f 153/28/26 154/29/26 152/24/26
f 155/30/27 222/31/27 154/29/27
f 142/32/28 150/33/28 154/34/28
f 242/35/19 156/13/19 241/11/19
f 157/12/20 158/14/20 156/13/20
f 159/15/5 160/16/5 158/14/5
f 161/36/21 162/18/21 160/16/21
f 163/17/22 79/19/22 162/18/22
f 164/20/23 165/21/23 79/19/23
f 166/37/24 167/23/24 165/21/24
f 168/22/4 169/24/4 167/23/4
f 170/25/25 163/26/25 159/27/25
f 170/28/26 171/29/26 169/24/26
f 172/30/27 241/31/27 171/29/27
f 160/32/28 167/33/28 171/34/28
f 174/35/11 175/13/11 173/11/11
f 176/12/12 177/14/12 175/13/12
f 178/15/1 179/16/1 177/14/1
f 180/36/13 181/18/13 179/16/13
f 182/17/14 183/19/14 181/18/14
f 184/20/15 185/21/15 183/19/15
f 185/21/16 188/22/16 187/23/16
f 188/22/10 189/24/10 187/23/10
f 190/25/5 182/26/5 178/27/5
f 190/28/17 191/29/17 189/24/17
f 192/30/18 173/31/18 191/29/18
f 179/32/4 187/33/4 191/34/4
f 194/35/11 195/13/11 193/11/11
f 196/12/12 197/14/12 195/13/12
f 198/15/1 199/16/1 197/14/1
f 200/36/13 201/18/13 199/16/13
f 202/17/14 203/19/14 201/18/14
f 204/20/15 205/21/15 203/19/15
f 206/37/16 207/23/16 205/21/16
f 208/22/10 209/24/10 207/23/10
f 210/25/5 202/26/5 198/27/5
f 210/28/17 211/29/17 209/24/17
f 212/30/18 193/31/18 211/29/18
f 199/32/4 207/33/4 211/34/4
f 301/35/19 214/13/19 213/11/19
f 215/12/20 216/14/20 214/13/20
f 217/15/5 218/16/5 216/14/5
f 219/36/21 220/18/21 218/16/21
f 221/17/22 222/19/22 220/18/22
f 223/20/23 224/21/23 222/19/23
f 225/37/24 226/23/24 224/21/24
f 227/22/4 228/24/4 226/23/4
f 229/25/25 221/26/25 217/27/25
f 229/28/26 230/29/26 228/24/26
f 231/30/27 213/31/27 230/29/27
f 218/32/28 226/33/28 230/34/28
f 232/35/19 233/13/19 320/11/19
f 234/12/20 235/14/20 233/13/20
f 236/15/5 237/16/5 235/14/5
f 238/36/21 239/18/21 237/16/21
f 240/17/22 241/19/22 239/18/22
f 242/20/23 243/21/23 241/19/23
f 244/37/24 245/23/24 243/21/24
f 246/22/4 247/24/4 245/23/4
f 248/25/25 240/26/25 236/27/25
f 248/28/26 249/29/26 247/24/26
f 250/30/27 320/31/27 249/29/27
f 237/32/28 245/33/28 249/34/28
f 252/35/11 253/13/11 251/11/11
f 254/12/12 255/14/12 253/13/12
f 256/15/1 257/16/1 255/14/1
f 258/36/13 259/18/13 257/16/13
f 260/17/14 261/19/14 259/18/14
f 262/20/15 263/21/15 261/19/15
f 264/37/16 265/23/16 263/21/16
f 266/22/10 267/24/10 265/23/10
f 268/25/5 260/26/5 256/27/5
f 268/28/17 269/29/17 267/24/17
f 270/30/18 251/31/18 269/29/18
f 257/32/4 265/33/4 269/34/4
f 272/35/11 273/13/11 271/11/11
f 274/12/12 275/14/12 273/13/12
f 276/15/1 277/16/1 275/14/1
f 278/36/13 279/18/13 277/16/13
f 280/17/14 281/19/14 279/18/14
f 282/20/15 283/21/15 281/19/15
f 284/37/16 285/23/16 283/21/16
f 286/22/10 287/24/10 285/23/10
f 288/25/5 280/26/5 276/27/5
f 288/28/17 289/29/17 287/24/17
f 290/30/18 271/31/18 289/29/18
f 277/32/4 285/33/4 289/34/4
f 292/35/19 293/13/19 291/11/19
f 294/12/20 295/14/20 293/13/20
f 296/15/5 297/16/5 295/14/5
f 298/36/21 299/18/21 297/16/21
f 300/17/22 213/19/22 299/18/22
f 301/20/23 302/21/23 213/19/23
f 303/37/24 304/23/24 302/21/24
f 305/22/4 306/24/4 304/23/4
f 307/25/25 300/26/25 296/27/25
f 307/28/26 308/29/26 306/24/26
f 309/30/27 291/31/27 308/29/27
f 297/32/28 304/33/28 308/34/28
f 311/35/19 312/13/19 310/11/19
f 313/12/20 314/14/20 312/13/20
f 315/15/5 316/16/5 314/14/5
f 317/36/21 318/18/21 316/16/21
f 319/17/22 320/19/22 318/18/22
f 232/20/23 321/21/23 320/19/23
f 322/37/24 323/23/24 321/21/24
f 324/22/4 325/24/4 323/23/4
f 326/25/25 319/26/25 315/27/25
f 326/28/26 327/29/26 325/24/26
f 328/30/27 310/31/27 327/29/27
f 316/32/28 323/33/28 327/34/28
f 21/11/11 22/35/11 24/12/11
f 24/12/12 26/15/12 25/14/12
f 26/15/1 28/36/1 27/16/1
f 27/16/13 28/36/13 30/17/13
f 30/17/14 32/20/14 31/19/14
f 32/20/15 34/37/15 33/21/15
f 33/21/16 34/37/16 36/22/16
f 36/22/10 38/28/10 37/24/10
f 26/27/5 24/41/5 22/42/5
f 22/42/5 40/43/5 38/25/5
f 38/25/5 36/44/5 34/45/5
f 34/45/5 32/46/5 30/26/5
f 30/26/5 28/47/5 26/27/5
f 26/27/5 22/42/5 38/25/5
f 38/25/5 34/45/5 30/26/5
f 38/28/17 40/30/17 39/29/17
f 40/30/18 22/48/18 21/31/18
f 39/34/4 21/49/4 23/50/4
f 23/50/4 25/51/4 27/32/4
f 27/32/4 29/52/4 31/53/4
f 31/53/4 33/54/4 35/33/4
f 35/33/4 37/55/4 39/34/4
f 39/34/4 23/50/4 27/32/4
f 27/32/4 31/53/4 35/33/4
f 42/35/11 44/12/11 43/13/11
f 44/12/12 46/15/12 45/14/12
f 46/15/1 48/36/1 47/16/1
f 48/36/13 50/17/13 49/18/13
f 50/17/14 52/20/14 51/19/14
f 52/20/15 54/37/15 53/21/15
f 54/37/16 56/22/16 55/23/16
f 56/22/10 58/28/10 57/24/10
f 46/27/5 44/41/5 42/42/5
f 42/42/5 60/43/5 58/25/5
f 58/25/5 56/44/5 54/45/5
f 54/45/5 52/46/5 50/26/5
f 50/26/5 48/47/5 46/27/5
f 46/27/5 42/42/5 58/25/5
f 58/25/5 54/45/5 50/26/5
f 58/28/17 60/30/17 59/29/17
f 60/30/18 42/48/18 41/31/18
f 59/34/4 41/49/4 43/50/4
f 43/50/4 45/51/4 47/32/4
f 47/32/4 49/52/4 51/53/4
f 51/53/4 53/54/4 55/33/4
f 55/33/4 57/55/4 59/34/4
f 59/34/4 43/50/4 47/32/4
f 47/32/4 51/53/4 55/33/4
f 147/35/19 62/12/19 61/13/19
f 62/12/20 64/15/20 63/14/20
f 63/14/5 64/15/5 66/36/5
f 66/36/21 68/17/21 67/18/21
f 68/17/22 70/20/22 69/19/22
f 70/20/23 72/37/23 71/21/23
f 72/37/24 74/22/24 73/23/24
f 73/23/4 74/22/4 76/28/4
f 64/27/25 62/41/25 147/42/25
f 147/42/25 78/43/25 76/25/25
f 76/25/25 74/44/25 72/45/25
f 72/45/25 70/46/25 68/26/25
f 68/26/25 66/47/25 64/27/25
f 64/27/25 147/42/25 76/25/25
f 76/25/25 72/45/25 68/26/25
f 76/28/26 78/30/26 77/29/26
f 78/30/27 147/48/27 146/31/27
f 77/34/28 146/49/28 61/50/28
f 61/50/28 63/51/28 65/32/28
f 65/32/28 67/52/28 69/53/28
f 69/53/28 71/54/28 73/33/28
f 73/33/28 75/55/28 77/34/28
f 77/34/28 61/50/28 65/32/28
f 65/32/28 69/53/28 73/33/28
f 164/35/19 81/12/19 80/13/19
f 81/12/20 83/15/20 82/14/20
f 82/14/5 83/15/5 85/36/5
f 85/36/21 87/17/21 86/18/21
f 87/17/22 89/20/22 88/19/22
f 89/20/23 91/37/23 90/21/23
f 91/37/24 93/22/24 92/23/24
f 92/23/4 93/22/4 95/28/4
f 83/27/25 81/41/25 164/42/25
f 164/42/25 97/43/25 95/25/25
f 95/25/25 93/44/25 91/45/25
f 91/45/25 89/46/25 87/26/25
f 87/26/25 85/47/25 83/27/25
f 83/27/25 164/42/25 95/25/25
f 95/25/25 91/45/25 87/26/25
f 95/28/26 97/30/26 96/29/26
f 97/30/27 164/48/27 79/31/27
f 96/34/28 79/49/28 80/50/28
f 80/50/28 82/51/28 84/32/28
f 84/32/28 86/52/28 88/53/28
f 88/53/28 90/54/28 92/33/28
f 92/33/28 94/55/28 96/34/28
f 96/34/28 80/50/28 84/32/28
f 84/32/28 88/53/28 92/33/28
f 99/35/11 101/12/11 100/13/11
f 101/12/12 103/15/12 102/14/12
f 103/15/1 105/36/1 104/16/1
f 105/36/13 107/17/13 106/18/13
f 107/17/14 109/20/14 108/19/14
f 109/20/15 111/37/15 110/21/15
f 111/37/16 113/22/16 112/23/16
f 113/22/10 115/28/10 114/24/10
f 103/27/5 101/41/5 99/42/5
f 99/42/5 117/43/5 115/25/5
f 115/25/5 113/44/5 111/45/5
f 111/45/5 109/46/5 107/26/5
f 107/26/5 105/47/5 103/27/5
f 103/27/5 99/42/5 115/25/5
f 115/25/5 111/45/5 107/26/5
f 115/28/17 117/30/17 116/29/17
f 117/30/18 99/48/18 98/31/18
f 116/34/4 98/49/4 100/50/4
f 100/50/4 102/51/4 104/32/4
f 104/32/4 106/52/4 108/53/4
f 108/53/4 110/54/4 112/33/4
f 112/33/4 114/55/4 116/34/4
f 116/34/4 100/50/4 104/32/4
f 104/32/4 108/53/4 112/33/4
f 119/35/11 121/12/11 120/13/11
f 121/12/12 123/15/12 122/14/12
f 123/15/1 125/36/1 124/16/1
f 125/36/13 127/17/13 126/18/13
f 127/17/14 129/20/14 128/19/14
f 129/20/15 131/37/15 130/21/15
f 131/37/16 133/22/16 132/23/16
f 133/22/10 135/28/10 134/24/10
f 123/27/5 121/41/5 119/42/5
f 119/42/5 137/43/5 135/25/5
f 135/25/5 133/44/5 131/45/5
f 131/45/5 129/46/5 127/26/5
f 127/26/5 125/47/5 123/27/5
f 123/27/5 119/42/5 135/25/5
f 135/25/5 131/45/5 127/26/5
f 135/28/17 137/30/17 136/29/17
f 137/30/18 119/48/18 118/31/18
f 136/34/4 118/49/4 120/50/4
f 120/50/4 122/51/4 124/32/4
f 124/32/4 126/52/4 128/53/4
f 128/53/4 130/54/4 132/33/4
f 132/33/4 134/55/4 136/34/4
f 136/34/4 120/50/4 124/32/4
f 124/32/4 128/53/4 132/33/4
f 223/35/19 139/12/19 138/13/19
f 139/12/20 141/15/20 140/14/20
f 141/15/5 143/36/5 142/16/5
f 143/36/21 145/17/21 144/18/21
f 145/17/22 147/20/22 146/19/22
f 147/20/23 149/37/23 148/21/23
f 149/37/24 151/22/24 150/23/24
f 151/22/4 153/28/4 152/24/4
f 141/27/25 139/41/25 223/42/25
f 223/42/25 155/43/25 153/25/25
f 153/25/25 151/44/25 149/45/25
f 149/45/25 147/46/25 145/26/25
f 145/26/25 143/47/25 141/27/25
f 141/27/25 223/42/25 153/25/25
f 153/25/25 149/45/25 145/26/25
f 153/28/26 155/30/26 154/29/26
f 155/30/27 223/48/27 222/31/27
f 154/34/28 222/49/28 138/50/28
f 138/50/28 140/51/28 142/32/28
f 142/32/28 144/52/28 146/53/28
f 146/53/28 148/54/28 150/33/28
f 150/33/28 152/55/28 154/34/28
f 154/34/28 138/50/28 142/32/28
f 142/32/28 146/53/28 150/33/28
f 242/35/19 157/12/19 156/13/19
f 157/12/20 159/15/20 158/14/20
f 159/15/5 161/36/5 160/16/5
f 161/36/21 163/17/21 162/18/21
f 163/17/22 164/20/22 79/19/22
f 164/20/23 166/37/23 165/21/23
f 166/37/24 168/22/24 167/23/24
f 168/22/4 170/28/4 169/24/4
f 159/27/25 157/41/25 242/42/25
f 242/42/25 172/43/25 170/25/25
f 170/25/25 168/44/25 166/45/25
f 166/45/25 164/46/25 163/26/25
f 163/26/25 161/47/25 159/27/25
f 159/27/25 242/42/25 170/25/25
f 170/25/25 166/45/25 163/26/25
f 170/28/26 172/30/26 171/29/26
f 172/30/27 242/48/27 241/31/27
f 171/34/28 241/49/28 156/50/28
f 156/50/28 158/51/28 160/32/28
f 160/32/28 162/52/28 79/53/28
f 79/53/28 165/54/28 167/33/28
f 167/33/28 169/55/28 171/34/28
f 171/34/28 156/50/28 160/32/28
f 160/32/28 79/53/28 167/33/28
f 174/35/11 176/12/11 175/13/11
f 176/12/12 178/15/12 177/14/12
f 178/15/1 180/36/1 179/16/1
f 180/36/13 182/17/13 181/18/13
f 182/17/14 184/20/14 183/19/14
f 184/20/15 186/37/15 185/21/15
f 185/21/16 186/37/16 188/22/16
f 188/22/10 190/28/10 189/24/10
f 178/27/5 176/41/5 174/42/5
f 174/42/5 192/43/5 190/25/5
f 190/25/5 188/44/5 186/45/5
f 186/45/5 184/46/5 182/26/5
f 182/26/5 180/47/5 178/27/5
f 178/27/5 174/42/5 190/25/5
f 190/25/5 186/45/5 182/26/5
f 190/28/17 192/30/17 191/29/17
f 192/30/18 174/48/18 173/31/18
f 191/34/4 173/49/4 175/50/4
f 175/50/4 177/51/4 179/32/4
f 179/32/4 181/52/4 183/53/4
f 183/53/4 185/54/4 187/33/4
f 187/33/4 189/55/4 191/34/4
f 191/34/4 175/50/4 179/32/4
f 179/32/4 183/53/4 187/33/4
f 194/35/11 196/12/11 195/13/11
f 196/12/12 198/15/12 197/14/12
f 198/15/1 200/36/1 199/16/1
f 200/36/13 202/17/13 201/18/13
f 202/17/14 204/20/14 203/19/14
f 204/20/15 206/37/15 205/21/15
f 206/37/16 208/22/16 207/23/16
f 208/22/10 210/28/10 209/24/10
f 198/27/5 196/41/5 194/42/5
f 194/42/5 212/43/5 210/25/5
f 210/25/5 208/44/5 206/45/5
f 206/45/5 204/46/5 202/26/5
f 202/26/5 200/47/5 198/27/5
f 198/27/5 194/42/5 210/25/5
f 210/25/5 206/45/5 202/26/5
f 210/28/17 212/30/17 211/29/17
f 212/30/18 194/48/18 193/31/18
f 211/34/4 193/49/4 195/50/4
f 195/50/4 197/51/4 199/32/4
f 199/32/4 201/52/4 203/53/4
f 203/53/4 205/54/4 207/33/4
f 207/33/4 209/55/4 211/34/4
f 211/34/4 195/50/4 199/32/4
f 199/32/4 203/53/4 207/33/4
f 301/35/19 215/12/19 214/13/19
f 215/12/20 217/15/20 216/14/20
f 217/15/5 219/36/5 218/16/5
f 219/36/21 221/17/21 220/18/21
f 221/17/22 223/20/22 222/19/22
f 223/20/23 225/37/23 224/21/23
f 225/37/24 227/22/24 226/23/24
f 227/22/4 229/28/4 228/24/4
f 217/27/25 215/41/25 301/42/25
f 301/42/25 231/43/25 229/25/25
f 229/25/25 227/44/25 225/45/25
f 225/45/25 223/46/25 221/26/25
f 221/26/25 219/47/25 217/27/25
f 217/27/25 301/42/25 229/25/25
f 229/25/25 225/45/25 221/26/25
f 229/28/26 231/30/26 230/29/26
f 231/30/27 301/48/27 213/31/27
f 230/34/28 213/49/28 214/50/28
f 214/50/28 216/51/28 218/32/28
f 218/32/28 220/52/28 222/53/28
f 222/53/28 224/54/28 226/33/28
f 226/33/28 228/55/28 230/34/28
f 230/34/28 214/50/28 218/32/28
f 218/32/28 222/53/28 226/33/28
f 232/35/19 234/12/19 233/13/19
f 234/12/20 236/15/20 235/14/20
f 236/15/5 238/36/5 237/16/5
f 238/36/21 240/17/21 239/18/21
f 240/17/22 242/20/22 241/19/22
f 242/20/23 244/37/23 243/21/23
f 244/37/24 246/22/24 245/23/24
f 246/22/4 248/28/4 247/24/4
f 236/27/25 234/41/25 232/42/25
f 232/42/25 250/43/25 248/25/25
f 248/25/25 246/44/25 244/45/25
f 244/45/25 242/46/25 240/26/25
f 240/26/25 238/47/25 236/27/25
f 236/27/25 232/42/25 248/25/25
f 248/25/25 244/45/25 240/26/25
f 248/28/26 250/30/26 249/29/26
f 250/30/27 232/48/27 320/31/27
f 249/34/28 320/49/28 233/50/28
f 233/50/28 235/51/28 237/32/28
f 237/32/28 239/52/28 241/53/28
f 241/53/28 243/54/28 245/33/28
f 245/33/28 247/55/28 249/34/28
f 249/34/28 233/50/28 237/32/28
f 237/32/28 241/53/28 245/33/28
f 252/35/11 254/12/11 253/13/11
f 254/12/12 256/15/12 255/14/12
f 256/15/1 258/36/1 257/16/1
f 258/36/13 260/17/13 259/18/13
f 260/17/14 262/20/14 261/19/14
f 262/20/15 264/37/15 263/21/15
f 264/37/16 266/22/16 265/23/16
f 266/22/10 268/28/10 267/24/10
f 256/27/5 254/41/5 252/42/5
f 252/42/5 270/43/5 268/25/5
f 268/25/5 266/44/5 264/45/5
f 264/45/5 262/46/5 260/26/5
f 260/26/5 258/47/5 256/27/5
f 256/27/5 252/42/5 268/25/5
f 268/25/5 264/45/5 260/26/5
f 268/28/17 270/30/17 269/29/17
f 270/30/18 252/48/18 251/31/18
f 269/34/4 251/49/4 253/50/4
f 253/50/4 255/51/4 257/32/4
f 257/32/4 259/52/4 261/53/4
f 261/53/4 263/54/4 265/33/4
f 265/33/4 267/55/4 269/34/4
f 269/34/4 253/50/4 257/32/4
f 257/32/4 261/53/4 265/33/4
f 272/35/11 274/12/11 273/13/11
f 274/12/12 276/15/12 275/14/12
f 276/15/1 278/36/1 277/16/1
f 278/36/13 280/17/13 279/18/13
f 280/17/14 282/20/14 281/19/14
f 282/20/15 284/37/15 283/21/15
f 284/37/16 286/22/16 285/23/16
f 286/22/10 288/28/10 287/24/10
f 276/27/5 274/41/5 272/42/5
f 272/42/5 290/43/5 288/25/5
f 288/25/5 286/44/5 284/45/5
f 284/45/5 282/46/5 280/26/5
f 280/26/5 278/47/5 276/27/5
f 276/27/5 272/42/5 288/25/5
f 288/25/5 284/45/5 280/26/5
f 288/28/17 290/30/17 289/29/17
f 290/30/18 272/48/18 271/31/18
f 289/34/4 271/49/4 273/50/4
f 273/50/4 275/51/4 277/32/4
f 277/32/4 279/52/4 281/53/4
f 281/53/4 283/54/4 285/33/4
f 285/33/4 287/55/4 289/34/4
f 289/34/4 273/50/4 277/32/4
f 277/32/4 281/53/4 285/33/4
f 292/35/19 294/12/19 293/13/19
f 294/12/20 296/15/20 295/14/20
f 296/15/5 298/36/5 297/16/5
f 298/36/21 300/17/21 299/18/21
f 300/17/22 301/20/22 213/19/22
f 301/20/23 303/37/23 302/21/23
f 303/37/24 305/22/24 304/23/24
f 305/22/4 307/28/4 306/24/4
f 296/27/25 294/41/25 292/42/25
f 292/42/25 309/43/25 307/25/25
f 307/25/25 305/44/25 303/45/25
f 303/45/25 301/46/25 300/26/25
f 300/26/25 298/47/25 296/27/25
f 296/27/25 292/42/25 307/25/25
f 307/25/25 303/45/25 300/26/25
f 307/28/26 309/30/26 308/29/26
f 309/30/27 292/48/27 291/31/27
f 308/34/28 291/49/28 293/50/28
f 293/50/28 295/51/28 297/32/28
f 297/32/28 299/52/28 213/53/28
f 213/53/28 302/54/28 304/33/28
f 304/33/28 306/55/28 308/34/28
f 308/34/28 293/50/28 297/32/28
f 297/32/28 213/53/28 304/33/28
f 311/35/19 313/12/19 312/13/19
f 313/12/20 315/15/20 314/14/20
f 315/15/5 317/36/5 316/16/5
f 317/36/21 319/17/21 318/18/21
f 319/17/22 232/20/22 320/19/22
f 232/20/23 322/37/23 321/21/23
f 322/37/24 324/22/24 323/23/24
f 324/22/4 326/28/4 325/24/4
f 315/27/25 313/41/25 311/42/25
f 311/42/25 328/43/25 326/25/25
f 326/25/25 324/44/25 322/45/25
f 322/45/25 232/46/25 319/26/25
f 319/26/25 317/47/25 315/27/25
f 315/27/25 311/42/25 326/25/25
f 326/25/25 322/45/25 319/26/25
f 326/28/26 328/30/26 327/29/26
f 328/30/27 311/48/27 310/31/27
f 327/34/28 310/49/28 312/50/28
f 312/50/28 314/51/28 316/32/28
f 316/32/28 318/52/28 320/53/28
f 320/53/28 321/54/28 323/33/28
f 323/33/28 325/55/28 327/34/28
f 327/34/28 312/50/28 316/32/28
f 316/32/28 320/53/28 323/33/28
usemtl ForestCabinRoofMat
f 14/1/1 15/1/1 9/1/1
f 16/1/1 5/1/1 3/1/1
f 8/1/1 16/1/1 3/1/1
f 13/1/2 17/1/2 5/1/2
f 11/1/2 18/1/2 19/1/2
f 11/1/3 7/1/3 9/1/3
f 2/1/4 11/1/4 9/1/4
f 5/1/5 7/1/5 13/1/5
f 5/1/1 12/1/1 14/1/1
f 7/1/1 5/1/1 14/1/1
f 3/1/1 2/1/1 9/1/1
f 8/1/1 3/1/1 9/1/1
f 9/1/1 7/1/1 14/1/1
f 15/1/1 8/1/1 9/1/1
f 16/1/1 12/1/1 5/1/1
f 5/1/1 2/1/1 3/1/1
f 8/1/1 15/1/1 16/1/1
f 13/1/2 20/1/2 17/1/2
f 19/1/2 20/1/2 13/1/2
f 11/1/2 2/1/2 5/1/2
f 5/1/2 17/1/2 18/1/2
f 19/1/2 13/1/2 11/1/2
f 11/1/2 5/1/2 18/1/2
f 11/1/3 13/1/3 7/1/3
usemtl ForestCabinChimneyMat
f 12/1/1 15/1/1 14/1/1
f 1/2/6 19/3/6 18/4/6
f 19/3/7 10/5/7 20/6/7
f 20/6/8 6/7/8 17/8/8
f 6/7/9 18/9/9 17/8/9
f 4/10/10 6/7/10 10/5/10
f 12/1/1 16/1/1 15/1/1
f 1/2/29 4/38/29 19/3/29
f 19/3/7 4/38/7 10/5/7
f 20/6/30 10/5/30 6/7/30
f 6/7/9 1/39/9 18/9/9
f 4/10/10 1/40/10 6/7/10
