# Blender 4.0.2
# www.blender.org
mtllib plain_tree.mtl
o PlainTree
v 0.000000 0.000000 -0.060000
v 0.000000 0.500000 -0.060000
v 0.035267 0.000000 -0.048541
v 0.035267 0.500000 -0.048541
v 0.057063 0.000000 -0.018541
v 0.057063 0.500000 -0.018541
v 0.057063 0.000000 0.018541
v 0.057063 0.500000 0.018541
v 0.035267 0.000000 0.048541
v 0.035267 0.500000 0.048541
v 0.000000 0.000000 0.060000
v 0.000000 0.500000 0.060000
v -0.035267 0.000000 0.048541
v -0.035267 0.500000 0.048541
v -0.057063 0.000000 0.018541
v -0.057063 0.500000 0.018541
v -0.057063 0.000000 -0.018541
v -0.057063 0.500000 -0.018541
v -0.035267 0.000000 -0.048541
v -0.035267 0.500000 -0.048541
v 0.000000 0.360000 0.000000
v 0.231554 0.536890 0.168232
v -0.088444 0.536890 0.272208
v -0.286216 0.536891 0.000000
v -0.088444 0.536890 -0.272208
v 0.231554 0.536890 -0.168232
v 0.088444 0.823110 0.272208
v -0.231554 0.823110 0.168232
v -0.231554 0.823110 -0.168232
v 0.088444 0.823110 -0.272208
v 0.286216 0.823109 0.000000
v 0.000000 1.000000 0.000000
v -0.051986 0.407791 0.159998
v 0.136103 0.407791 0.098884
v 0.084118 0.511764 0.258884
v 0.272207 0.511765 0.000000
v 0.136103 0.407791 -0.098884
v -0.168234 0.407791 0.000000
v -0.220221 0.511764 0.159999
v -0.051986 0.407791 -0.159998
v -0.220221 0.511764 -0.159999
v 0.084118 0.511764 -0.258884
v 0.304339 0.680000 0.098884
v 0.304339 0.680000 -0.098884
v 0.000000 0.680000 0.320000
v 0.188091 0.680000 0.258885
v -0.304339 0.680000 0.098884
v -0.188091 0.680000 0.258885
v -0.188091 0.680000 -0.258885
v -0.304339 0.680000 -0.098884
v 0.188091 0.680000 -0.258885
v 0.000000 0.680000 -0.320000
v 0.220221 0.848236 0.159999
v -0.084118 0.848236 0.258884
v -0.272207 0.848235 0.000000
v -0.084118 0.848236 -0.258884
v 0.220221 0.848236 -0.159999
v 0.051986 0.952209 0.159998
v 0.168234 0.952209 0.000000
v -0.136103 0.952209 0.098884
v -0.136103 0.952209 -0.098884
v 0.051986 0.952209 -0.159998
v 0.160000 0.540000 -0.100000
v 0.348138 0.683723 0.036689
v 0.088139 0.683723 0.121169
v -0.072551 0.683724 -0.100000
v 0.088139 0.683723 -0.321169
v 0.348138 0.683723 -0.236689
v 0.231861 0.916277 0.121169
v -0.028138 0.916277 0.036689
v -0.028138 0.916277 -0.236689
v 0.231861 0.916277 -0.321169
v 0.392551 0.916276 -0.100000
v 0.160000 1.060000 -0.100000
v 0.117762 0.578830 0.029999
v 0.270584 0.578830 -0.019657
v 0.228346 0.663308 0.110343
v 0.381168 0.663309 -0.100000
v 0.270584 0.578830 -0.180343
v 0.023310 0.578831 -0.100000
v -0.018929 0.663309 0.029999
v 0.117762 0.578830 -0.229999
v -0.018929 0.663309 -0.229999
v 0.228346 0.663308 -0.310343
v 0.407275 0.800000 -0.019657
v 0.407275 0.800000 -0.180343
v 0.160000 0.800000 0.160000
v 0.312824 0.800000 0.110344
v -0.087275 0.800000 -0.019657
v 0.007176 0.800000 0.110344
v 0.007176 0.800000 -0.310344
v -0.087275 0.800000 -0.180343
v 0.312824 0.800000 -0.310344
v 0.160000 0.800000 -0.360000
v 0.338929 0.936691 0.029999
v 0.091654 0.936692 0.110343
v -0.061168 0.936691 -0.100000
v 0.091654 0.936692 -0.310343
v 0.338929 0.936691 -0.229999
v 0.202238 1.021170 0.029999
v 0.296690 1.021169 -0.100000
v 0.049416 1.021170 -0.019657
v 0.049416 1.021170 -0.180343
v 0.202238 1.021170 -0.229999
v -0.140000 0.560000 -0.130000
v 0.019194 0.681612 -0.014340
v -0.200805 0.681612 0.057143
v -0.336774 0.681613 -0.130000
v -0.200805 0.681612 -0.317143
v 0.019194 0.681612 -0.245660
v -0.079195 0.878388 0.057143
v -0.299194 0.878388 -0.014340
v -0.299194 0.878388 -0.245660
v -0.079195 0.878388 -0.317143
v 0.056774 0.878387 -0.130000
v -0.140000 1.000000 -0.130000
v -0.175740 0.592856 -0.020001
v -0.046429 0.592856 -0.062017
v -0.082169 0.664338 0.047983
v 0.047143 0.664338 -0.130000
v -0.046429 0.592856 -0.197982
v -0.255661 0.592857 -0.130000
v -0.291402 0.664338 -0.020001
v -0.175740 0.592856 -0.239999
v -0.291402 0.664338 -0.239999
v -0.082169 0.664338 -0.307983
v 0.069233 0.780000 -0.062017
v 0.069233 0.780000 -0.197983
v -0.140000 0.780000 0.090000
v -0.010687 0.780000 0.047984
v -0.349233 0.780000 -0.062017
v -0.269313 0.780000 0.047984
v -0.269313 0.780000 -0.307984
v -0.349233 0.780000 -0.197983
v -0.010687 0.780000 -0.307984
v -0.140000 0.780000 -0.350000
v 0.011402 0.895662 -0.020001
v -0.197831 0.895662 0.047983
v -0.327143 0.895662 -0.130000
v -0.197831 0.895662 -0.307983
v 0.011402 0.895662 -0.239999
v -0.104260 0.967144 -0.020001
v -0.024339 0.967143 -0.130000
v -0.233571 0.967144 -0.062017
v -0.233571 0.967144 -0.197982
v -0.104260 0.967144 -0.239999
vn 0.3090 -0.0000 -0.9511
vn 0.8090 -0.0000 -0.5878
vn 1.0000 -0.0000 -0.0000
vn 0.8090 -0.0000 0.5878
vn 0.3090 -0.0000 0.9511
vn -0.3090 -0.0000 0.9511
vn -0.8090 -0.0000 0.5878
vn -1.0000 -0.0000 -0.0000
vn -0.0000 1.0000 -0.0000
vn -0.8090 -0.0000 -0.5878
vn -0.3090 -0.0000 -0.9511
vn -0.0000 -1.0000 -0.0000
vn 0.1024 -0.9435 0.3151
vn 0.7002 -0.6617 0.2680
vn -0.2680 -0.9435 0.1947
vn -0.2680 -0.9435 -0.1947
vn 0.1024 -0.9435 -0.3151
vn 0.9050 -0.3304 0.2680
vn 0.0247 -0.3304 0.9435
vn -0.8897 -0.3304 0.3151
vn -0.5746 -0.3304 -0.7488
vn 0.5346 -0.3304 -0.7779
vn 0.8026 -0.1256 0.5831
vn -0.3066 -0.1256 0.9435
vn -0.9921 -0.1256 -0.0000
vn -0.3066 -0.1256 -0.9435
vn 0.8026 -0.1256 -0.5831
vn 0.4089 0.6617 0.6284
vn -0.4713 0.6617 0.5831
vn -0.7002 0.6617 -0.2680
vn 0.0385 0.6617 -0.7488
vn 0.7240 0.6617 -0.1947
vn 0.2680 0.9435 -0.1947
vn 0.4911 0.7947 -0.3568
vn 0.4089 0.6617 -0.6284
vn -0.1024 0.9435 -0.3151
vn -0.1876 0.7947 -0.5773
vn -0.4713 0.6617 -0.5831
vn -0.3313 0.9435 -0.0000
vn -0.6071 0.7947 -0.0000
vn -0.7002 0.6617 0.2680
vn -0.1024 0.9435 0.3151
vn -0.1876 0.7947 0.5773
vn 0.0385 0.6617 0.7488
vn 0.2680 0.9435 0.1947
vn 0.4911 0.7947 0.3568
vn 0.7240 0.6617 0.1947
vn 0.8897 0.3304 -0.3151
vn 0.7947 0.1876 -0.5773
vn 0.5746 0.3304 -0.7488
vn -0.0247 0.3304 -0.9435
vn -0.3035 0.1876 -0.9342
vn -0.5346 0.3304 -0.7779
vn -0.9050 0.3304 -0.2680
vn -0.9822 0.1876 -0.0000
vn -0.9050 0.3304 0.2680
vn -0.5346 0.3304 0.7779
vn -0.3035 0.1876 0.9342
vn -0.0247 0.3304 0.9435
vn 0.5746 0.3304 0.7488
vn 0.7947 0.1876 0.5773
vn 0.8897 0.3304 0.3151
vn 0.3066 0.1256 -0.9435
vn 0.3035 -0.1876 -0.9342
vn 0.0247 -0.3304 -0.9435
vn -0.8026 0.1256 -0.5831
vn -0.7947 -0.1876 -0.5773
vn -0.8897 -0.3304 -0.3151
vn -0.8026 0.1256 0.5831
vn -0.7947 -0.1876 0.5773
vn -0.5746 -0.3304 0.7488
vn 0.3066 0.1256 0.9435
vn 0.3035 -0.1876 0.9342
vn 0.5346 -0.3304 0.7779
vn 0.9921 0.1256 -0.0000
vn 0.9822 -0.1876 -0.0000
vn 0.9050 -0.3304 -0.2680
vn 0.4713 -0.6617 -0.5831
vn 0.1876 -0.7947 -0.5773
vn -0.0385 -0.6617 -0.7488
vn -0.4089 -0.6617 -0.6284
vn -0.4911 -0.7947 -0.3568
vn -0.7240 -0.6617 -0.1947
vn -0.7240 -0.6617 0.1947
vn -0.4911 -0.7947 0.3568
vn -0.4089 -0.6617 0.6284
vn 0.7002 -0.6617 -0.2680
vn 0.6071 -0.7947 -0.0000
vn 0.3313 -0.9435 -0.0000
vn -0.0385 -0.6617 0.7488
vn 0.1876 -0.7947 0.5773
vn 0.4713 -0.6617 0.5831
vt 1.000000 1.000000
vt 0.900000 0.500000
vt 1.000000 0.500000
vt 0.900000 1.000000
vt 0.800000 0.500000
vt 0.800000 1.000000
vt 0.700000 0.500000
vt 0.700000 1.000000
vt 0.600000 0.500000
vt 0.600000 1.000000
vt 0.500000 0.500000
vt 0.500000 1.000000
vt 0.400000 0.500000
vt 0.400000 1.000000
vt 0.300000 0.500000
vt 0.300000 1.000000
vt 0.200000 0.500000
vt 0.021746 0.324164
vt 0.391068 0.055836
vt 0.478254 0.324164
vt 0.200000 1.000000
vt 0.100000 0.500000
vt 0.100000 1.000000
vt -0.000000 0.500000
vt 0.978254 0.175836
vt 0.521746 0.175836
vt 0.608932 0.444164
vt 0.181819 0.000000
vt 0.227273 0.078731
vt 0.136365 0.078731
vt 0.272728 0.157461
vt 0.318182 0.078731
vt 0.363637 0.157461
vt 0.909091 0.000000
vt 0.954545 0.078731
vt 0.863636 0.078731
vt 0.727273 0.000000
vt 0.772727 0.078731
vt 0.681818 0.078731
vt 0.545455 0.000000
vt 0.590909 0.078731
vt 0.500000 0.078731
vt 0.318182 0.236191
vt 0.090910 0.157461
vt 0.181819 0.157461
vt 0.136365 0.236191
vt 0.818182 0.157461
vt 0.909091 0.157461
vt 0.863636 0.236191
vt 0.636364 0.157461
vt 0.727273 0.157461
vt 0.681818 0.236191
vt 0.454546 0.157461
vt 0.545455 0.157461
vt 0.500000 0.236191
vt 0.227273 0.236191
vt 0.045455 0.236191
vt 0.772727 0.236191
vt 0.590909 0.236191
vt 0.409092 0.236191
vt 0.181819 0.314921
vt 0.272728 0.314921
vt 0.227273 0.393651
vt 0.000000 0.314921
vt 0.090910 0.314921
vt 0.045455 0.393651
vt 0.727273 0.314921
vt 0.818182 0.314921
vt 0.772727 0.393651
vt 0.545455 0.314921
vt 0.636364 0.314921
vt 0.590909 0.393651
vt 0.363637 0.314921
vt 0.454546 0.314921
vt 0.409092 0.393651
vt 0.500000 0.393651
vt 0.454546 0.472382
vt 0.681818 0.393651
vt 0.636364 0.472382
vt 0.863636 0.393651
vt 0.818182 0.472382
vt 0.909091 0.314921
vt 0.136365 0.393651
vt 0.090910 0.472382
vt 0.318182 0.393651
vt 0.272728 0.472382
vt 0.954545 0.236191
vt 1.000000 0.157461
vt 0.409092 0.078731
vt 0.363637 0.000000
vt 0.391068 0.444164
vt 0.250000 0.490000
vt 0.108932 0.444164
vt 0.021746 0.175836
vt 0.108932 0.055836
vt 0.250000 0.010000
vt 0.478254 0.175836
vt -0.000000 1.000000
vt 0.750000 0.490000
vt 0.891068 0.444164
vt 0.978254 0.324164
vt 0.891068 0.055836
vt 0.750000 0.010000
vt 0.608932 0.055836
vt 0.521746 0.324164
s 0
usemtl PlainTrunk
f 2/1/1 3/2/1 1/3/1
f 4/4/2 5/5/2 3/2/2
f 6/6/3 7/7/3 5/5/3
f 8/8/4 9/9/4 7/7/4
f 10/10/5 11/11/5 9/9/5
f 12/12/6 13/13/6 11/11/6
f 14/14/7 15/15/7 13/13/7
f 16/16/8 17/17/8 15/15/8
f 18/18/9 10/19/9 6/20/9
f 18/21/10 19/22/10 17/17/10
f 20/23/11 1/24/11 19/22/11
f 7/25/12 15/26/12 19/27/12
f 2/1/1 4/4/1 3/2/1
f 4/4/2 6/6/2 5/5/2
f 6/6/3 8/8/3 7/7/3
f 8/8/4 10/10/4 9/9/4
f 10/10/5 12/12/5 11/11/5
f 12/12/6 14/14/6 13/13/6
f 14/14/7 16/16/7 15/15/7
f 16/16/8 18/21/8 17/17/8
f 6/20/9 4/91/9 2/92/9
f 2/92/9 20/93/9 18/18/9
f 18/18/9 16/94/9 14/95/9
f 14/95/9 12/96/9 10/19/9
f 10/19/9 8/97/9 6/20/9
f 6/20/9 2/92/9 18/18/9
f 18/18/9 14/95/9 10/19/9
f 18/21/10 20/23/10 19/22/10
f 20/23/11 2/98/11 1/24/11
f 19/27/12 1/99/12 3/100/12
f 3/100/12 5/101/12 7/25/12
f 7/25/12 9/102/12 11/103/12
f 11/103/12 13/104/12 15/26/12
f 15/26/12 17/105/12 19/27/12
f 19/27/12 3/100/12 7/25/12
f 7/25/12 11/103/12 15/26/12
usemtl PlainFoliage
f 21/28/13 34/29/13 33/30/13
f 22/31/14 34/32/14 36/33/14
f 21/34/15 33/35/15 38/36/15
f 21/37/16 38/38/16 40/39/16
f 21/40/17 40/41/17 37/42/17
f 22/31/18 36/33/18 43/43/18
f 23/44/19 35/45/19 45/46/19
f 24/47/20 39/48/20 47/49/20
f 25/50/21 41/51/21 49/52/21
f 26/53/22 42/54/22 51/55/22
f 22/31/23 43/43/23 46/56/23
f 23/44/24 45/46/24 48/57/24
f 24/47/25 47/49/25 50/58/25
f 25/50/26 49/52/26 52/59/26
f 26/53/27 51/55/27 44/60/27
f 27/61/28 53/62/28 58/63/28
f 28/64/29 54/65/29 60/66/29
f 29/67/30 55/68/30 61/69/30
f 30/70/31 56/71/31 62/72/31
f 31/73/32 57/74/32 59/75/32
f 59/75/33 62/76/33 32/77/33
f 59/75/34 57/74/34 62/76/34
f 57/74/35 30/70/35 62/76/35
f 62/72/36 61/78/36 32/79/36
f 62/72/37 56/71/37 61/78/37
f 56/71/38 29/67/38 61/78/38
f 61/69/39 60/80/39 32/81/39
f 61/69/40 55/68/40 60/80/40
f 55/68/41 28/82/41 60/80/41
f 60/66/42 58/83/42 32/84/42
f 60/66/43 54/65/43 58/83/43
f 54/65/44 27/61/44 58/83/44
f 58/63/45 59/85/45 32/86/45
f 58/63/46 53/62/46 59/85/46
f 53/62/47 31/73/47 59/85/47
f 44/60/48 57/74/48 31/73/48
f 44/60/49 51/55/49 57/74/49
f 51/55/50 30/70/50 57/74/50
f 52/59/51 56/71/51 30/70/51
f 52/59/52 49/52/52 56/71/52
f 49/52/53 29/67/53 56/71/53
f 50/58/54 55/68/54 29/67/54
f 50/58/55 47/49/55 55/68/55
f 47/49/56 28/82/56 55/68/56
f 48/57/57 54/65/57 28/64/57
f 48/57/58 45/46/58 54/65/58
f 45/46/59 27/61/59 54/65/59
f 46/56/60 53/62/60 27/61/60
f 46/56/61 43/43/61 53/62/61
f 43/43/62 31/73/62 53/62/62
f 51/55/63 52/59/63 30/70/63
f 51/55/64 42/54/64 52/59/64
f 42/54/65 25/50/65 52/59/65
f 49/52/66 50/58/66 29/67/66
f 49/52/67 41/51/67 50/58/67
f 41/51/68 24/47/68 50/58/68
f 47/49/69 48/87/69 28/82/69
f 47/49/70 39/48/70 48/87/70
f 39/48/71 23/88/71 48/87/71
f 45/46/72 46/56/72 27/61/72
f 45/46/73 35/45/73 46/56/73
f 35/45/74 22/31/74 46/56/74
f 43/43/75 44/60/75 31/73/75
f 43/43/76 36/33/76 44/60/76
f 36/33/77 26/53/77 44/60/77
f 37/42/78 42/54/78 26/53/78
f 37/42/79 40/41/79 42/54/79
f 40/41/80 25/50/80 42/54/80
f 40/39/81 41/51/81 25/50/81
f 40/39/82 38/38/82 41/51/82
f 38/38/83 24/47/83 41/51/83
f 38/36/84 39/48/84 24/47/84
f 38/36/85 33/35/85 39/48/85
f 33/35/86 23/88/86 39/48/86
f 36/33/87 37/89/87 26/53/87
f 36/33/88 34/32/88 37/89/88
f 34/32/89 21/90/89 37/89/89
f 33/30/90 35/45/90 23/44/90
f 33/30/91 34/29/91 35/45/91
f 34/29/92 22/31/92 35/45/92
f 63/28/13 76/29/13 75/30/13
f 64/31/14 76/32/14 78/33/14
f 63/34/15 75/35/15 80/36/15
f 63/37/16 80/38/16 82/39/16
f 63/40/17 82/41/17 79/42/17
f 64/31/18 78/33/18 85/43/18
f 65/44/19 77/45/19 87/46/19
f 66/47/20 81/48/20 89/49/20
f 67/50/21 83/51/21 91/52/21
f 68/53/22 84/54/22 93/55/22
f 64/31/23 85/43/23 88/56/23
f 65/44/24 87/46/24 90/57/24
f 66/47/25 89/49/25 92/58/25
f 67/50/26 91/52/26 94/59/26
f 68/53/27 93/55/27 86/60/27
f 69/61/28 95/62/28 100/63/28
f 70/64/29 96/65/29 102/66/29
f 71/67/30 97/68/30 103/69/30
f 72/70/31 98/71/31 104/72/31
f 73/73/32 99/74/32 101/75/32
f 101/75/33 104/76/33 74/77/33
f 101/75/34 99/74/34 104/76/34
f 99/74/35 72/70/35 104/76/35
f 104/72/36 103/78/36 74/79/36
f 104/72/37 98/71/37 103/78/37
f 98/71/38 71/67/38 103/78/38
f 103/69/39 102/80/39 74/81/39
f 103/69/40 97/68/40 102/80/40
f 97/68/41 70/82/41 102/80/41
f 102/66/42 100/83/42 74/84/42
f 102/66/43 96/65/43 100/83/43
f 96/65/44 69/61/44 100/83/44
f 100/63/45 101/85/45 74/86/45
f 100/63/46 95/62/46 101/85/46
f 95/62/47 73/73/47 101/85/47
f 86/60/48 99/74/48 73/73/48
f 86/60/49 93/55/49 99/74/49
f 93/55/50 72/70/50 99/74/50
f 94/59/51 98/71/51 72/70/51
f 94/59/52 91/52/52 98/71/52
f 91/52/53 71/67/53 98/71/53
f 92/58/54 97/68/54 71/67/54
f 92/58/55 89/49/55 97/68/55
f 89/49/56 70/82/56 97/68/56
f 90/57/57 96/65/57 70/64/57
f 90/57/58 87/46/58 96/65/58
f 87/46/59 69/61/59 96/65/59
f 88/56/60 95/62/60 69/61/60
f 88/56/61 85/43/61 95/62/61
f 85/43/62 73/73/62 95/62/62
f 93/55/63 94/59/63 72/70/63
f 93/55/64 84/54/64 94/59/64
f 84/54/65 67/50/65 94/59/65
f 91/52/66 92/58/66 71/67/66
f 91/52/67 83/51/67 92/58/67
f 83/51/68 66/47/68 92/58/68
f 89/49/69 90/87/69 70/82/69
f 89/49/70 81/48/70 90/87/70
f 81/48/71 65/88/71 90/87/71
f 87/46/72 88/56/72 69/61/72
f 87/46/73 77/45/73 88/56/73
f 77/45/74 64/31/74 88/56/74
f 85/43/75 86/60/75 73/73/75
f 85/43/76 78/33/76 86/60/76
f 78/33/77 68/53/77 86/60/77
f 79/42/78 84/54/78 68/53/78
f 79/42/79 82/41/79 84/54/79
f 82/41/80 67/50/80 84/54/80
f 82/39/81 83/51/81 67/50/81
f 82/39/82 80/38/82 83/51/82
f 80/38/83 66/47/83 83/51/83
f 80/36/84 81/48/84 66/47/84
f 80/36/85 75/35/85 81/48/85
f 75/35/86 65/88/86 81/48/86
f 78/33/87 79/89/87 68/53/87
f 78/33/88 76/32/88 79/89/88
f 76/32/89 63/90/89 79/89/89
f 75/30/90 77/45/90 65/44/90
f 75/30/91 76/29/91 77/45/91
f 76/29/92 64/31/92 77/45/92
f 105/28/13 118/29/13 117/30/13
f 106/31/14 118/32/14 120/33/14
f 105/34/15 117/35/15 122/36/15
f 105/37/16 122/38/16 124/39/16
f 105/40/17 124/41/17 121/42/17
f 106/31/18 120/33/18 127/43/18
f 107/44/19 119/45/19 129/46/19
f 108/47/20 123/48/20 131/49/20
f 109/50/21 125/51/21 133/52/21
f 110/53/22 126/54/22 135/55/22
f 106/31/23 127/43/23 130/56/23
f 107/44/24 129/46/24 132/57/24
f 108/47/25 131/49/25 134/58/25
f 109/50/26 133/52/26 136/59/26
f 110/53/27 135/55/27 128/60/27
f 111/61/28 137/62/28 142/63/28
f 112/64/29 138/65/29 144/66/29
f 113/67/30 139/68/30 145/69/30
f 114/70/31 140/71/31 146/72/31
f 115/73/32 141/74/32 143/75/32
f 143/75/33 146/76/33 116/77/33
f 143/75/34 141/74/34 146/76/34
f 141/74/35 114/70/35 146/76/35
f 146/72/36 145/78/36 116/79/36
f 146/72/37 140/71/37 145/78/37
f 140/71/38 113/67/38 145/78/38
f 145/69/39 144/80/39 116/81/39
f 145/69/40 139/68/40 144/80/40
f 139/68/41 112/82/41 144/80/41
f 144/66/42 142/83/42 116/84/42
f 144/66/43 138/65/43 142/83/43
f 138/65/44 111/61/44 142/83/44
f 142/63/45 143/85/45 116/86/45
f 142/63/46 137/62/46 143/85/46
f 137/62/47 115/73/47 143/85/47
f 128/60/48 141/74/48 115/73/48
f 128/60/49 135/55/49 141/74/49
f 135/55/50 114/70/50 141/74/50
f 136/59/51 140/71/51 114/70/51
f 136/59/52 133/52/52 140/71/52
f 133/52/53 113/67/53 140/71/53
f 134/58/54 139/68/54 113/67/54
f 134/58/55 131/49/55 139/68/55
f 131/49/56 112/82/56 139/68/56
f 132/57/57 138/65/57 112/64/57
f 132/57/58 129/46/58 138/65/58
f 129/46/59 111/61/59 138/65/59
f 130/56/60 137/62/60 111/61/60
f 130/56/61 127/43/61 137/62/61
f 127/43/62 115/73/62 137/62/62
f 135/55/63 136/59/63 114/70/63
f 135/55/64 126/54/64 136/59/64
f 126/54/65 109/50/65 136/59/65
f 133/52/66 134/58/66 113/67/66
f 133/52/67 125/51/67 134/58/67
f 125/51/68 108/47/68 134/58/68
f 131/49/69 132/87/69 112/82/69
f 131/49/70 123/48/70 132/87/70
f 123/48/71 107/88/71 132/87/71
f 129/46/72 130/56/72 111/61/72
f 129/46/73 119/45/73 130/56/73
f 119/45/74 106/31/74 130/56/74
f 127/43/75 128/60/75 115/73/75
f 127/43/76 120/33/76 128/60/76
f 120/33/77 110/53/77 128/60/77
f 121/42/78 126/54/78 110/53/78
f 121/42/79 124/41/79 126/54/79
f 124/41/80 109/50/80 126/54/80
f 124/39/81 125/51/81 109/50/81
f 124/39/82 122/38/82 125/51/82
f 122/38/83 108/47/83 125/51/83
f 122/36/84 123/48/84 108/47/84
f 122/36/85 117/35/85 123/48/85
f 117/35/86 107/88/86 123/48/86
f 120/33/87 121/89/87 110/53/87
f 120/33/88 118/32/88 121/89/88
f 118/32/89 105/90/89 121/89/89
f 117/30/90 119/45/90 107/44/90
f 117/30/91 118/29/91 119/45/91
f 118/29/92 106/31/92 119/45/92
