# Blender 4.0.2
# www.blender.org
mtllib mountain_rocks.mtl
o MountainRocks
v 4.104579 0.000000 -0.225184
v 3.876495 0.000000 0.014626
v 3.723980 0.000000 -0.239124
v 3.955041 0.000000 -0.447794
v 3.448482 0.000000 -0.256032
v 3.766609 0.000000 -0.357608
v 3.291617 0.000000 -0.041133
v 3.746171 0.000000 -0.151419
v 3.964425 0.000000 -0.080723
v 3.413030 0.000000 0.239743
v 3.961411 0.185893 -0.271020
v 3.704213 0.000000 0.250279
v 3.805578 0.273714 0.025303
v 3.913536 0.192168 -0.364347
v 3.823343 0.182934 -0.331031
v 3.727858 0.298431 -0.113008
v 3.809191 0.196121 -0.200394
v 3.549479 0.299288 -0.110033
v 3.921876 0.198986 -0.182125
v 3.455581 0.278688 -0.011985
v 3.544613 0.279254 0.128691
v 3.715665 0.287448 0.132675
v 3.784073 0.000000 -0.139142
v 3.768322 0.025086 -0.155290
v 3.759938 0.042844 -0.162118
v 3.750493 0.000000 -0.195013
vn 0.8492 0.2213 -0.4794
vn -0.0135 0.3894 -0.9210
vn -0.6773 0.4943 -0.5448
vn -0.8215 0.4462 0.3551
vn -0.0334 0.3829 0.9232
vn 0.7901 0.2049 0.5777
vn -0.0000 -1.0000 -0.0000
vn -0.0568 0.9975 0.0418
vn 0.7419 0.4485 -0.4984
vn -0.4137 0.2860 -0.8643
vn -0.9462 0.3079 -0.0998
vn -0.3030 0.3100 0.9011
vn 0.8718 0.3572 0.3351
vn 0.0792 0.9965 0.0264
vn 0.8394 0.2023 -0.5045
vn 0.8708 0.1817 -0.4568
vn 0.8330 0.2354 -0.5007
vn 0.8076 0.2672 -0.5257
vn 0.0555 0.4226 -0.9046
vn -0.7116 0.4730 -0.5195
vn -0.7221 0.5212 0.4549
vn -0.0397 0.3797 0.9242
vn 0.7658 0.1743 0.6190
vn -0.0484 0.9985 0.0266
vn 0.2137 0.9754 0.0542
vn 0.0082 0.9770 0.2132
vn 0.8403 0.3582 -0.4070
vn -0.3579 0.2420 -0.9018
vn -0.9544 0.2831 -0.0946
vn -0.9529 0.2735 -0.1308
vn -0.2842 0.3864 0.8775
vn -0.1555 0.4219 0.8932
vn -0.1604 0.2873 0.9443
vn 0.5812 0.5867 0.5639
vn -0.1430 0.9830 -0.1147
vn -0.0014 0.9892 -0.1463
s 0
usemtl MountainRockMainMat
f 3//2 18//2 16//2
f 5//3 20//3 18//3
f 10//4 20//4 7//4
f 12//5 21//5 10//5
f 2//6 22//6 12//6
f 8//7 10//7 5//7
f 22//8 16//8 20//8
f 3//19 5//19 18//19
f 5//20 7//20 20//20
f 10//21 21//21 20//21
f 12//22 22//22 21//22
f 2//23 13//23 22//23
f 8//7 23//7 2//7
f 2//7 12//7 10//7
f 10//7 7//7 5//7
f 5//7 3//7 26//7
f 8//7 2//7 10//7
f 5//7 26//7 8//7
f 20//24 21//24 22//24
f 22//25 13//25 16//25
f 16//26 18//26 20//26
usemtl MountainRockSecMat
f 13//1 23//1 25//1
f 4//9 11//9 1//9
f 6//10 14//10 4//10
f 25//11 15//11 6//11
f 9//12 17//12 24//12
f 9//13 11//13 19//13
f 26//7 4//7 9//7
f 17//14 11//14 14//14
f 25//15 26//15 3//15
f 3//16 16//16 13//16
f 13//17 2//17 23//17
f 23//15 24//15 25//15
f 25//18 3//18 13//18
f 4//27 14//27 11//27
f 6//28 15//28 14//28
f 6//29 26//29 25//29
f 25//30 17//30 15//30
f 24//31 23//31 9//31
f 9//32 19//32 17//32
f 17//33 25//33 24//33
f 9//34 1//34 11//34
f 9//7 23//7 26//7
f 26//7 6//7 4//7
f 4//7 1//7 9//7
f 14//35 15//35 17//35
f 17//36 19//36 11//36
