# Blender 4.0.2
# www.blender.org
mtllib archer_turret.mtl
o ArcherTurret
v 0.000000 0.000000 -0.200000
v 0.000000 0.220000 -0.200000
v 0.141421 0.000000 -0.141421
v 0.141421 0.220000 -0.141421
v 0.200000 0.000000 0.000000
v 0.200000 0.220000 0.000000
v 0.141421 0.000000 0.141421
v 0.141421 0.220000 0.141421
v 0.000000 0.000000 0.200000
v 0.000000 0.220000 0.200000
v -0.141421 0.000000 0.141421
v -0.141421 0.220000 0.141421
v -0.200000 0.000000 0.000000
v -0.200000 0.220000 0.000000
v -0.141421 0.000000 -0.141421
v -0.141421 0.220000 -0.141421
v 0.185000 0.140000 -0.090000
v 0.215000 0.140000 -0.090000
v 0.185000 0.105558 -0.083149
v 0.215000 0.105558 -0.083149
v 0.185000 0.076360 -0.063640
v 0.215000 0.076360 -0.063640
v 0.185000 0.056851 -0.034442
v 0.215000 0.056851 -0.034442
v 0.185000 0.050000 0.000000
v 0.215000 0.050000 0.000000
v 0.185000 0.056851 0.034442
v 0.215000 0.056851 0.034442
v 0.185000 0.076360 0.063640
v 0.215000 0.076360 0.063640
v 0.185000 0.105558 0.083149
v 0.215000 0.105558 0.083149
v 0.185000 0.140000 0.090000
v 0.215000 0.140000 0.090000
v 0.185000 0.174442 0.083149
v 0.215000 0.174442 0.083149
v 0.185000 0.203640 0.063640
v 0.215000 0.203640 0.063640
v 0.185000 0.223149 0.034442
v 0.215000 0.223149 0.034442
v 0.185000 0.230000 0.000000
v 0.215000 0.230000 0.000000
v 0.185000 0.223149 -0.034442
v 0.215000 0.223149 -0.034442
v 0.185000 0.203640 -0.063640
v 0.215000 0.203640 -0.063640
v 0.185000 0.174442 -0.083149
v 0.215000 0.174442 -0.083149
v 0.050000 0.080000 -0.060000
v 0.050000 0.100000 -0.160000
v 0.050000 0.200000 -0.160000
v 0.050000 0.180000 -0.060000
v -0.420000 0.200000 -0.300000
v -0.420000 0.220000 -0.340000
v -0.420000 0.260000 -0.340000
v -0.420000 0.240000 -0.300000
v 0.050000 0.080000 0.060000
v 0.050000 0.100000 0.160000
v 0.050000 0.200000 0.160000
v 0.050000 0.180000 0.060000
v -0.420000 0.200000 0.300000
v -0.420000 0.220000 0.340000
v -0.420000 0.260000 0.340000
v -0.420000 0.240000 0.300000
vn 0.3827 -0.0000 -0.9239
vn 0.9239 -0.0000 -0.3827
vn 0.9239 -0.0000 0.3827
vn 0.3827 -0.0000 0.9239
vn -0.3827 -0.0000 0.9239
vn -0.9239 -0.0000 0.3827
vn -0.0000 1.0000 -0.0000
vn -0.9239 -0.0000 -0.3827
vn -0.3827 -0.0000 -0.9239
vn -0.0000 -1.0000 -0.0000
vn -0.0000 -0.1951 -0.9808
vn -0.0000 -0.5556 -0.8315
vn -0.0000 -0.8315 -0.5556
vn -0.0000 -0.9808 -0.1951
vn -0.0000 -0.9808 0.1951
vn -0.0000 -0.8315 0.5556
vn -0.0000 -0.5556 0.8315
vn -0.0000 -0.1951 0.9808
vn -0.0000 0.1951 0.9808
vn -0.0000 0.5556 0.8315
vn -0.0000 0.8315 0.5556
vn -0.0000 0.9808 0.1951
vn -0.0000 0.9808 -0.1951
vn -0.0000 0.8315 -0.5556
vn 1.0000 -0.0000 -0.0000
vn -0.0000 0.5556 -0.8315
vn -0.0000 0.1951 -0.9808
vn -1.0000 -0.0000 -0.0000
vn -0.1485 -0.9697 -0.1939
vn 0.3576 -0.0000 -0.9339
vn 0.0250 0.9803 0.1961
vn -0.4548 -0.0000 0.8906
vn -0.1485 -0.9697 0.1939
vn 0.3576 -0.0000 0.9339
vn -0.0570 0.8930 -0.4465
vn -0.4548 -0.0000 -0.8906
vn -0.0570 -0.8930 -0.4465
vn -0.0570 0.8930 0.4465
vn -0.0570 -0.8930 0.4465
vn 0.0250 0.9803 -0.1961
vt 1.000000 1.000000
vt 0.875000 0.500000
vt 1.000000 0.500000
vt 0.875000 1.000000
vt 0.750000 0.500000
vt 0.750000 1.000000
vt 0.625000 0.500000
vt 0.625000 1.000000
vt 0.500000 0.500000
vt 0.500000 1.000000
vt 0.375000 0.500000
vt 0.375000 1.000000
vt 0.250000 0.500000
vt 0.010000 0.250000
vt 0.250000 0.010000
vt 0.490000 0.250000
vt 0.250000 1.000000
vt 0.125000 0.500000
vt 0.125000 1.000000
vt 0.000000 0.500000
vt 0.919706 0.080294
vt 0.580294 0.080294
vt 0.580294 0.419706
vt 0.937500 0.500000
vt 0.937500 1.000000
vt 0.812500 0.500000
vt 0.812500 1.000000
vt 0.687500 0.500000
vt 0.687500 1.000000
vt 0.562500 0.500000
vt 0.562500 1.000000
vt 0.437500 0.500000
vt 0.437500 1.000000
vt 0.312500 0.500000
vt 0.312500 1.000000
vt 0.187500 0.500000
vt 0.187500 1.000000
vt 0.080294 0.080294
vt 0.419706 0.080294
vt 0.419706 0.419706
vt 0.062500 0.500000
vt 0.062500 1.000000
vt 0.841844 0.028269
vt 0.528269 0.158156
vt 0.658156 0.471731
vt 0.000000 0.000000
vt 0.250000 0.490000
vt 0.080294 0.419706
vt 0.080294 0.080294
vt 0.419706 0.080294
vt 0.000000 1.000000
vt 0.750000 0.490000
vt 0.919706 0.419706
vt 0.990000 0.250000
vt 0.750000 0.010000
vt 0.510000 0.250000
vt 0.341844 0.471731
vt 0.158156 0.471731
vt 0.080294 0.419706
vt 0.028269 0.341844
vt 0.028269 0.158156
vt 0.158156 0.028269
vt 0.341844 0.028269
vt 0.471731 0.158156
vt 0.471731 0.341844
vt 0.841844 0.471731
vt 0.971731 0.341844
vt 0.971731 0.158156
vt 0.919706 0.080294
vt 0.658156 0.028269
vt 0.580294 0.080294
vt 0.528269 0.341844
s 0
usemtl ArcherBody
f 2/1/1 3/2/1 1/3/1
f 4/4/2 5/5/2 3/2/2
f 6/6/3 7/7/3 5/5/3
f 8/8/4 9/9/4 7/7/4
f 10/10/5 11/11/5 9/9/5
f 12/12/6 13/13/6 11/11/6
f 14/14/7 10/15/7 6/16/7
f 14/17/8 15/18/8 13/13/8
f 16/19/9 1/20/9 15/18/9
f 7/21/10 11/22/10 15/23/10
f 53/46/29 50/46/29 49/46/29
f 54/46/30 51/46/30 50/46/30
f 51/46/31 56/46/31 52/46/31
f 52/46/32 53/46/32 49/46/32
f 50/46/25 52/46/25 49/46/25
f 56/46/28 54/46/28 53/46/28
f 58/46/33 61/46/33 57/46/33
f 59/46/34 62/46/34 58/46/34
f 59/46/35 64/46/35 63/46/35
f 60/46/36 61/46/36 64/46/36
f 60/46/25 58/46/25 57/46/25
f 64/46/28 62/46/28 63/46/28
f 2/1/1 4/4/1 3/2/1
f 4/4/2 6/6/2 5/5/2
f 6/6/3 8/8/3 7/7/3
f 8/8/4 10/10/4 9/9/4
f 10/10/5 12/12/5 11/11/5
f 12/12/6 14/17/6 13/13/6
f 6/16/7 4/40/7 2/47/7
f 2/47/7 16/48/7 14/14/7
f 14/14/7 12/49/7 10/15/7
f 10/15/7 8/50/7 6/16/7
f 6/16/7 2/47/7 14/14/7
f 14/17/8 16/19/8 15/18/8
f 16/19/9 2/51/9 1/20/9
f 15/23/10 1/52/10 3/53/10
f 3/53/10 5/54/10 7/21/10
f 7/21/10 9/55/10 11/22/10
f 11/22/10 13/56/10 15/23/10
f 15/23/10 3/53/10 7/21/10
f 53/46/37 54/46/37 50/46/37
f 54/46/30 55/46/30 51/46/30
f 51/46/38 55/46/38 56/46/38
f 52/46/32 56/46/32 53/46/32
f 50/46/25 51/46/25 52/46/25
f 56/46/28 55/46/28 54/46/28
f 58/46/39 62/46/39 61/46/39
f 59/46/34 63/46/34 62/46/34
f 59/46/40 60/46/40 64/46/40
f 60/46/36 57/46/36 61/46/36
f 60/46/25 59/46/25 58/46/25
f 64/46/28 61/46/28 62/46/28
usemtl ArcherGlow
f 18/1/11 19/24/11 17/3/11
f 20/25/12 21/2/12 19/24/12
f 22/4/13 23/26/13 21/2/13
f 24/27/14 25/5/14 23/26/14
f 26/6/15 27/28/15 25/5/15
f 28/29/16 29/7/16 27/28/16
f 30/8/17 31/30/17 29/7/17
f 32/31/18 33/9/18 31/30/18
f 34/10/19 35/32/19 33/9/19
f 36/33/20 37/11/20 35/32/20
f 38/12/21 39/34/21 37/11/21
f 40/35/22 41/13/22 39/34/22
f 42/17/23 43/36/23 41/13/23
f 44/37/24 45/18/24 43/36/24
f 38/38/25 30/39/25 22/40/25
f 46/19/26 47/41/26 45/18/26
f 48/42/27 17/20/27 47/41/27
f 31/43/28 39/44/28 47/45/28
f 18/1/11 20/25/11 19/24/11
f 20/25/12 22/4/12 21/2/12
f 22/4/13 24/27/13 23/26/13
f 24/27/14 26/6/14 25/5/14
f 26/6/15 28/29/15 27/28/15
f 28/29/16 30/8/16 29/7/16
f 30/8/17 32/31/17 31/30/17
f 32/31/18 34/10/18 33/9/18
f 34/10/19 36/33/19 35/32/19
f 36/33/20 38/12/20 37/11/20
f 38/12/21 40/35/21 39/34/21
f 40/35/22 42/17/22 41/13/22
f 42/17/23 44/37/23 43/36/23
f 44/37/24 46/19/24 45/18/24
f 22/40/25 20/57/25 18/47/25
f 18/47/25 48/58/25 46/59/25
f 46/59/25 44/60/25 42/14/25
f 42/14/25 40/61/25 38/38/25
f 38/38/25 36/62/25 34/15/25
f 34/15/25 32/63/25 30/39/25
f 30/39/25 28/64/25 26/16/25
f 26/16/25 24/65/25 22/40/25
f 22/40/25 18/47/25 46/59/25
f 46/59/25 42/14/25 38/38/25
f 38/38/25 34/15/25 30/39/25
f 30/39/25 26/16/25 22/40/25
f 22/40/25 46/59/25 38/38/25
f 46/19/26 48/42/26 47/41/26
f 48/42/27 18/51/27 17/20/27
f 47/45/28 17/52/28 19/66/28
f 19/66/28 21/53/28 23/67/28
f 23/67/28 25/54/28 27/68/28
f 27/68/28 29/69/28 31/43/28
f 31/43/28 33/55/28 35/70/28
f 35/70/28 37/71/28 39/44/28
f 39/44/28 41/56/28 43/72/28
f 43/72/28 45/23/28 47/45/28
f 47/45/28 19/66/28 23/67/28
f 23/67/28 27/68/28 31/43/28
f 31/43/28 35/70/28 39/44/28
f 39/44/28 43/72/28 47/45/28
f 47/45/28 23/67/28 31/43/28
