# Blender 4.0.2
# www.blender.org
mtllib cannon_turret.mtl
o CannonTurret
v -0.150000 0.000000 0.150000
v -0.150000 0.260000 0.150000
v -0.150000 0.000000 -0.150000
v -0.150000 0.260000 -0.150000
v 0.150000 0.000000 0.150000
v 0.150000 0.260000 0.150000
v 0.150000 0.000000 -0.150000
v 0.150000 0.260000 -0.150000
v 0.135000 0.240000 -0.050000
v 0.185000 0.240000 -0.050000
v 0.135000 0.220866 -0.046194
v 0.185000 0.220866 -0.046194
v 0.135000 0.204645 -0.035355
v 0.185000 0.204645 -0.035355
v 0.135000 0.193806 -0.019134
v 0.185000 0.193806 -0.019134
v 0.135000 0.190000 0.000000
v 0.185000 0.190000 0.000000
v 0.135000 0.193806 0.019134
v 0.185000 0.193806 0.019134
v 0.135000 0.204645 0.035355
v 0.185000 0.204645 0.035355
v 0.135000 0.220866 0.046194
v 0.185000 0.220866 0.046194
v 0.135000 0.240000 0.050000
v 0.185000 0.240000 0.050000
v 0.135000 0.259134 0.046194
v 0.185000 0.259134 0.046194
v 0.135000 0.275355 0.035355
v 0.185000 0.275355 0.035355
v 0.135000 0.286194 0.019134
v 0.185000 0.286194 0.019134
v 0.135000 0.290000 0.000000
v 0.185000 0.290000 0.000000
v 0.135000 0.286194 -0.019134
v 0.185000 0.286194 -0.019134
v 0.135000 0.275355 -0.035355
v 0.185000 0.275355 -0.035355
v 0.135000 0.259134 -0.046194
v 0.185000 0.259134 -0.046194
v 0.120000 0.150000 -0.120000
v 0.520000 0.150000 -0.120000
v 0.120000 0.104078 -0.110866
v 0.520000 0.104078 -0.110866
v 0.120000 0.065147 -0.084853
v 0.520000 0.065147 -0.084853
v 0.120000 0.039134 -0.045922
v 0.520000 0.039134 -0.045922
v 0.120000 0.030000 0.000000
v 0.520000 0.030000 0.000000
v 0.120000 0.039134 0.045922
v 0.520000 0.039134 0.045922
v 0.120000 0.065147 0.084853
v 0.520000 0.065147 0.084853
v 0.120000 0.104078 0.110866
v 0.520000 0.104078 0.110866
v 0.120000 0.150000 0.120000
v 0.520000 0.150000 0.120000
v 0.120000 0.195922 0.110866
v 0.520000 0.195922 0.110866
v 0.120000 0.234853 0.084853
v 0.520000 0.234853 0.084853
v 0.120000 0.260866 0.045922
v 0.520000 0.260866 0.045922
v 0.120000 0.270000 0.000000
v 0.520000 0.270000 0.000000
v 0.120000 0.260866 -0.045922
v 0.520000 0.260866 -0.045922
v 0.120000 0.234853 -0.084853
v 0.520000 0.234853 -0.084853
v 0.120000 0.195922 -0.110866
v 0.520000 0.195922 -0.110866
v 0.190000 0.150000 -0.135000
v 0.210000 0.150000 -0.135000
v 0.190000 0.098338 -0.124724
v 0.210000 0.098338 -0.124724
v 0.190000 0.054541 -0.095459
v 0.210000 0.054541 -0.095459
v 0.190000 0.025276 -0.051662
v 0.210000 0.025276 -0.051662
v 0.190000 0.015000 0.000000
v 0.210000 0.015000 0.000000
v 0.190000 0.025276 0.051662
v 0.210000 0.025276 0.051662
v 0.190000 0.054541 0.095459
v 0.210000 0.054541 0.095459
v 0.190000 0.098338 0.124724
v 0.210000 0.098338 0.124724
v 0.190000 0.150000 0.135000
v 0.210000 0.150000 0.135000
v 0.190000 0.201662 0.124724
v 0.210000 0.201662 0.124724
v 0.190000 0.245459 0.095459
v 0.210000 0.245459 0.095459
v 0.190000 0.274724 0.051662
v 0.210000 0.274724 0.051662
v 0.190000 0.285000 0.000000
v 0.210000 0.285000 0.000000
v 0.190000 0.274724 -0.051662
v 0.210000 0.274724 -0.051662
v 0.190000 0.245459 -0.095459
v 0.210000 0.245459 -0.095459
v 0.190000 0.201662 -0.124724
v 0.210000 0.201662 -0.124724
v 0.310000 0.150000 -0.135000
v 0.330000 0.150000 -0.135000
v 0.310000 0.098338 -0.124724
v 0.330000 0.098338 -0.124724
v 0.310000 0.054541 -0.095459
v 0.330000 0.054541 -0.095459
v 0.310000 0.025276 -0.051662
v 0.330000 0.025276 -0.051662
v 0.310000 0.015000 0.000000
v 0.330000 0.015000 0.000000
v 0.310000 0.025276 0.051662
v 0.330000 0.025276 0.051662
v 0.310000 0.054541 0.095459
v 0.330000 0.054541 0.095459
v 0.310000 0.098338 0.124724
v 0.330000 0.098338 0.124724
v 0.310000 0.150000 0.135000
v 0.330000 0.150000 0.135000
v 0.310000 0.201662 0.124724
v 0.330000 0.201662 0.124724
v 0.310000 0.245459 0.095459
v 0.330000 0.245459 0.095459
v 0.310000 0.274724 0.051662
v 0.330000 0.274724 0.051662
v 0.310000 0.285000 0.000000
v 0.330000 0.285000 0.000000
v 0.310000 0.274724 -0.051662
v 0.330000 0.274724 -0.051662
v 0.310000 0.245459 -0.095459
v 0.330000 0.245459 -0.095459
v 0.310000 0.201662 -0.124724
v 0.330000 0.201662 -0.124724
v 0.460000 0.150000 -0.125000
v 0.520000 0.150000 -0.125000
v 0.460000 0.102165 -0.115485
v 0.520000 0.102165 -0.115485
v 0.460000 0.061612 -0.088388
v 0.520000 0.061612 -0.088388
v 0.460000 0.034515 -0.047835
v 0.520000 0.034515 -0.047835
v 0.460000 0.025000 0.000000
v 0.520000 0.025000 0.000000
v 0.460000 0.034515 0.047835
v 0.520000 0.034515 0.047835
v 0.460000 0.061612 0.088388
v 0.520000 0.061612 0.088388
v 0.460000 0.102165 0.115485
v 0.520000 0.102165 0.115485
v 0.460000 0.150000 0.125000
v 0.520000 0.150000 0.125000
v 0.460000 0.197835 0.115485
v 0.520000 0.197835 0.115485
v 0.460000 0.238388 0.088388
v 0.520000 0.238388 0.088388
v 0.460000 0.265485 0.047835
v 0.520000 0.265485 0.047835
v 0.460000 0.275000 0.000000
v 0.520000 0.275000 0.000000
v 0.460000 0.265485 -0.047835
v 0.520000 0.265485 -0.047835
v 0.460000 0.238388 -0.088388
v 0.520000 0.238388 -0.088388
v 0.460000 0.197835 -0.115485
v 0.520000 0.197835 -0.115485
vn -1.0000 -0.0000 -0.0000
vn -0.0000 -0.0000 -1.0000
vn 1.0000 -0.0000 -0.0000
vn -0.0000 -0.0000 1.0000
vn -0.0000 -1.0000 -0.0000
vn -0.0000 1.0000 -0.0000
vn -0.0000 -0.1951 -0.9808
vn -0.0000 -0.5556 -0.8315
vn -0.0000 -0.8315 -0.5556
vn -0.0000 -0.9808 -0.1951
vn -0.0000 -0.9808 0.1951
vn -0.0000 -0.8315 0.5556
vn -0.0000 -0.5556 0.8315
vn -0.0000 -0.1951 0.9808
vn -0.0000 0.1951 0.9808
vn -0.0000 0.5556 0.8315
vn -0.0000 0.8315 0.5556
vn -0.0000 0.9808 0.1951
vn -0.0000 0.9808 -0.1951
vn -0.0000 0.8315 -0.5556
vn -0.0000 0.5556 -0.8315
vn -0.0000 0.1951 -0.9808
vt 0.625000 0.000000
vt 0.375000 0.250000
vt 0.375000 0.000000
vt 0.625000 0.250000
vt 0.375000 0.500000
vt 0.625000 0.500000
vt 0.375000 0.750000
vt 0.625000 0.750000
vt 0.375000 1.000000
vt 0.125000 0.750000
vt 0.125000 0.500000
vt 0.875000 0.500000
vt 1.000000 1.000000
vt 0.937500 0.500000
vt 1.000000 0.500000
vt 0.937500 1.000000
vt 0.875000 1.000000
vt 0.812500 0.500000
vt 0.812500 1.000000
vt 0.750000 0.500000
vt 0.750000 1.000000
vt 0.687500 0.500000
vt 0.687500 1.000000
vt 0.625000 1.000000
vt 0.562500 0.500000
vt 0.562500 1.000000
vt 0.500000 0.500000
vt 0.500000 1.000000
vt 0.437500 0.500000
vt 0.437500 1.000000
vt 0.312500 0.500000
vt 0.312500 1.000000
vt 0.250000 0.500000
vt 0.250000 1.000000
vt 0.187500 0.500000
vt 0.187500 1.000000
vt 0.080294 0.080294
vt 0.419706 0.080294
vt 0.419706 0.419706
vt 0.125000 1.000000
vt 0.062500 0.500000
vt 0.062500 1.000000
vt 0.000000 0.500000
vt 0.841844 0.028269
vt 0.528269 0.158156
vt 0.658156 0.471731
vt 0.080294 0.080294
vt 0.419706 0.080294
vt 0.841844 0.028269
vt 0.875000 0.750000
vt 0.341844 0.471731
vt 0.250000 0.490000
vt 0.158156 0.471731
vt 0.080294 0.419706
vt 0.028269 0.341844
vt 0.010000 0.250000
vt 0.028269 0.158156
vt 0.158156 0.028269
vt 0.250000 0.010000
vt 0.341844 0.028269
vt 0.471731 0.158156
vt 0.490000 0.250000
vt 0.471731 0.341844
vt 0.000000 1.000000
vt 0.750000 0.490000
vt 0.841844 0.471731
vt 0.919706 0.419706
vt 0.971731 0.341844
vt 0.990000 0.250000
vt 0.971731 0.158156
vt 0.919706 0.080294
vt 0.750000 0.010000
vt 0.658156 0.028269
vt 0.580294 0.080294
vt 0.510000 0.250000
vt 0.528269 0.341844
vt 0.580294 0.419706
vt 0.080294 0.419706
vt 0.028269 0.341844
vt 0.028269 0.158156
vt 0.158156 0.028269
vt 0.341844 0.028269
vt 0.919706 0.080294
vt 0.658156 0.028269
vt 0.580294 0.080294
s 0
usemtl CannonBody
f 2/1/1 3/2/1 1/3/1
f 4/4/2 7/5/2 3/2/2
f 8/6/3 5/7/3 7/5/3
f 6/8/4 1/9/4 5/7/4
f 7/5/5 1/10/5 3/11/5
f 4/12/6 6/8/6 8/6/6
f 42/13/7 43/14/7 41/15/7
f 44/16/8 45/12/8 43/14/8
f 46/17/9 47/18/9 45/12/9
f 48/19/10 49/20/10 47/18/10
f 50/21/11 51/22/11 49/20/11
f 51/22/12 54/24/12 53/6/12
f 54/24/13 55/25/13 53/6/13
f 56/26/14 57/27/14 55/25/14
f 58/28/15 59/29/15 57/27/15
f 60/30/16 61/5/16 59/29/16
f 62/9/17 63/31/17 61/5/17
f 64/32/18 65/33/18 63/31/18
f 66/34/19 67/35/19 65/33/19
f 68/36/20 69/11/20 67/35/20
f 62/47/3 54/48/3 46/39/3
f 70/40/21 71/41/21 69/11/21
f 72/42/22 41/43/22 71/41/22
f 55/49/1 63/45/1 71/46/1
f 2/1/1 4/4/1 3/2/1
f 4/4/2 8/6/2 7/5/2
f 8/6/3 6/8/3 5/7/3
f 6/8/4 2/24/4 1/9/4
f 7/5/5 5/7/5 1/10/5
f 4/12/6 2/50/6 6/8/6
f 42/13/7 44/16/7 43/14/7
f 44/16/8 46/17/8 45/12/8
f 46/17/9 48/19/9 47/18/9
f 48/19/10 50/21/10 49/20/10
f 50/21/11 52/23/11 51/22/11
f 51/22/12 52/23/12 54/24/12
f 54/24/13 56/26/13 55/25/13
f 56/26/14 58/28/14 57/27/14
f 58/28/15 60/30/15 59/29/15
f 60/30/16 62/9/16 61/5/16
f 62/9/17 64/32/17 63/31/17
f 64/32/18 66/34/18 65/33/18
f 66/34/19 68/36/19 67/35/19
f 68/36/20 70/40/20 69/11/20
f 46/39/3 44/51/3 42/52/3
f 42/52/3 72/53/3 70/78/3
f 70/78/3 68/79/3 66/56/3
f 66/56/3 64/80/3 62/47/3
f 62/47/3 60/81/3 58/59/3
f 58/59/3 56/82/3 54/48/3
f 54/48/3 52/61/3 50/62/3
f 50/62/3 48/63/3 46/39/3
f 46/39/3 42/52/3 70/78/3
f 70/78/3 66/56/3 62/47/3
f 62/47/3 58/59/3 54/48/3
f 54/48/3 50/62/3 46/39/3
f 46/39/3 70/78/3 62/47/3
f 70/40/21 72/42/21 71/41/21
f 72/42/22 42/64/22 41/43/22
f 71/46/1 41/65/1 43/66/1
f 43/66/1 45/67/1 47/68/1
f 47/68/1 49/69/1 51/70/1
f 51/70/1 53/83/1 55/49/1
f 55/49/1 57/72/1 59/84/1
f 59/84/1 61/85/1 63/45/1
f 63/45/1 65/75/1 67/76/1
f 67/76/1 69/77/1 71/46/1
f 71/46/1 43/66/1 47/68/1
f 47/68/1 51/70/1 55/49/1
f 55/49/1 59/84/1 63/45/1
f 63/45/1 67/76/1 71/46/1
f 71/46/1 47/68/1 55/49/1
usemtl CannonRed
f 10/13/7 11/14/7 9/15/7
f 12/16/8 13/12/8 11/14/8
f 14/17/9 15/18/9 13/12/9
f 16/19/10 17/20/10 15/18/10
f 18/21/11 19/22/11 17/20/11
f 20/23/12 21/6/12 19/22/12
f 22/24/13 23/25/13 21/6/13
f 24/26/14 25/27/14 23/25/14
f 26/28/15 27/29/15 25/27/15
f 28/30/16 29/5/16 27/29/16
f 30/9/17 31/31/17 29/5/17
f 32/32/18 33/33/18 31/31/18
f 34/34/19 35/35/19 33/33/19
f 36/36/20 37/11/20 35/35/20
f 30/37/3 22/38/3 14/39/3
f 38/40/21 39/41/21 37/11/21
f 40/42/22 9/43/22 39/41/22
f 23/44/1 31/45/1 39/46/1
f 137/15/7 140/16/7 139/14/7
f 140/16/8 141/12/8 139/14/8
f 142/17/9 143/18/9 141/12/9
f 144/19/10 145/20/10 143/18/10
f 146/21/11 147/22/11 145/20/11
f 148/23/12 149/6/12 147/22/12
f 150/24/13 151/25/13 149/6/13
f 152/26/14 153/27/14 151/25/14
f 154/28/15 155/29/15 153/27/15
f 156/30/16 157/5/16 155/29/16
f 158/9/17 159/31/17 157/5/17
f 160/32/18 161/33/18 159/31/18
f 162/34/19 163/35/19 161/33/19
f 164/36/20 165/11/20 163/35/20
f 158/47/3 150/48/3 142/39/3
f 165/11/21 168/42/21 167/41/21
f 168/42/22 137/43/22 167/41/22
f 151/49/1 159/45/1 167/46/1
f 10/13/7 12/16/7 11/14/7
f 12/16/8 14/17/8 13/12/8
f 14/17/9 16/19/9 15/18/9
f 16/19/10 18/21/10 17/20/10
f 18/21/11 20/23/11 19/22/11
f 20/23/12 22/24/12 21/6/12
f 22/24/13 24/26/13 23/25/13
f 24/26/14 26/28/14 25/27/14
f 26/28/15 28/30/15 27/29/15
f 28/30/16 30/9/16 29/5/16
f 30/9/17 32/32/17 31/31/17
f 32/32/18 34/34/18 33/33/18
f 34/34/19 36/36/19 35/35/19
f 36/36/20 38/40/20 37/11/20
f 14/39/3 12/51/3 10/52/3
f 10/52/3 40/53/3 38/54/3
f 38/54/3 36/55/3 34/56/3
f 34/56/3 32/57/3 30/37/3
f 30/37/3 28/58/3 26/59/3
f 26/59/3 24/60/3 22/38/3
f 22/38/3 20/61/3 18/62/3
f 18/62/3 16/63/3 14/39/3
f 14/39/3 10/52/3 38/54/3
f 38/54/3 34/56/3 30/37/3
f 30/37/3 26/59/3 22/38/3
f 22/38/3 18/62/3 14/39/3
f 14/39/3 38/54/3 30/37/3
f 38/40/21 40/42/21 39/41/21
f 40/42/22 10/64/22 9/43/22
f 39/46/1 9/65/1 11/66/1
f 11/66/1 13/67/1 15/68/1
f 15/68/1 17/69/1 19/70/1
f 19/70/1 21/71/1 23/44/1
f 23/44/1 25/72/1 27/73/1
f 27/73/1 29/74/1 31/45/1
f 31/45/1 33/75/1 35/76/1
f 35/76/1 37/77/1 39/46/1
f 39/46/1 11/66/1 15/68/1
f 15/68/1 19/70/1 23/44/1
f 23/44/1 27/73/1 31/45/1
f 31/45/1 35/76/1 39/46/1
f 39/46/1 15/68/1 23/44/1
f 137/15/7 138/13/7 140/16/7
f 140/16/8 142/17/8 141/12/8
f 142/17/9 144/19/9 143/18/9
f 144/19/10 146/21/10 145/20/10
f 146/21/11 148/23/11 147/22/11
f 148/23/12 150/24/12 149/6/12
f 150/24/13 152/26/13 151/25/13
f 152/26/14 154/28/14 153/27/14
f 154/28/15 156/30/15 155/29/15
f 156/30/16 158/9/16 157/5/16
f 158/9/17 160/32/17 159/31/17
f 160/32/18 162/34/18 161/33/18
f 162/34/19 164/36/19 163/35/19
f 164/36/20 166/40/20 165/11/20
f 142/39/3 140/51/3 138/52/3
f 138/52/3 168/53/3 166/78/3
f 166/78/3 164/79/3 162/56/3
f 162/56/3 160/80/3 158/47/3
f 158/47/3 156/81/3 154/59/3
f 154/59/3 152/82/3 150/48/3
f 150/48/3 148/61/3 146/62/3
f 146/62/3 144/63/3 142/39/3
f 142/39/3 138/52/3 166/78/3
f 166/78/3 162/56/3 158/47/3
f 158/47/3 154/59/3 150/48/3
f 150/48/3 146/62/3 142/39/3
f 142/39/3 166/78/3 158/47/3
f 165/11/21 166/40/21 168/42/21
f 168/42/22 138/64/22 137/43/22
f 167/46/1 137/65/1 139/66/1
f 139/66/1 141/67/1 143/68/1
f 143/68/1 145/69/1 147/70/1
f 147/70/1 149/83/1 151/49/1
f 151/49/1 153/72/1 155/84/1
f 155/84/1 157/85/1 159/45/1
f 159/45/1 161/75/1 163/76/1
f 163/76/1 165/77/1 167/46/1
f 167/46/1 139/66/1 143/68/1
f 143/68/1 147/70/1 151/49/1
f 151/49/1 155/84/1 159/45/1
f 159/45/1 163/76/1 167/46/1
f 167/46/1 143/68/1 151/49/1
usemtl CannonVent
f 74/13/7 75/14/7 73/15/7
f 76/16/8 77/12/8 75/14/8
f 78/17/9 79/18/9 77/12/9
f 80/19/10 81/20/10 79/18/10
f 82/21/11 83/22/11 81/20/11
f 84/23/12 85/6/12 83/22/12
f 86/24/13 87/25/13 85/6/13
f 88/26/14 89/27/14 87/25/14
f 90/28/15 91/29/15 89/27/15
f 92/30/16 93/5/16 91/29/16
f 94/9/17 95/31/17 93/5/17
f 96/32/18 97/33/18 95/31/18
f 98/34/19 99/35/19 97/33/19
f 100/36/20 101/11/20 99/35/20
f 94/47/3 86/48/3 78/39/3
f 102/40/21 103/41/21 101/11/21
f 104/42/22 73/43/22 103/41/22
f 87/49/1 95/45/1 103/46/1
f 106/13/7 107/14/7 105/15/7
f 108/16/8 109/12/8 107/14/8
f 110/17/9 111/18/9 109/12/9
f 112/19/10 113/20/10 111/18/10
f 114/21/11 115/22/11 113/20/11
f 116/23/12 117/6/12 115/22/12
f 118/24/13 119/25/13 117/6/13
f 120/26/14 121/27/14 119/25/14
f 122/28/15 123/29/15 121/27/15
f 124/30/16 125/5/16 123/29/16
f 126/9/17 127/31/17 125/5/17
f 128/32/18 129/33/18 127/31/18
f 130/34/19 131/35/19 129/33/19
f 132/36/20 133/11/20 131/35/20
f 126/47/3 118/48/3 110/39/3
f 134/40/21 135/41/21 133/11/21
f 136/42/22 105/43/22 135/41/22
f 119/49/1 127/45/1 135/46/1
f 74/13/7 76/16/7 75/14/7
f 76/16/8 78/17/8 77/12/8
f 78/17/9 80/19/9 79/18/9
f 80/19/10 82/21/10 81/20/10
f 82/21/11 84/23/11 83/22/11
f 84/23/12 86/24/12 85/6/12
f 86/24/13 88/26/13 87/25/13
f 88/26/14 90/28/14 89/27/14
f 90/28/15 92/30/15 91/29/15
f 92/30/16 94/9/16 93/5/16
f 94/9/17 96/32/17 95/31/17
f 96/32/18 98/34/18 97/33/18
f 98/34/19 100/36/19 99/35/19
f 100/36/20 102/40/20 101/11/20
f 78/39/3 76/51/3 74/52/3
f 74/52/3 104/53/3 102/78/3
f 102/78/3 100/79/3 98/56/3
f 98/56/3 96/80/3 94/47/3
f 94/47/3 92/81/3 90/59/3
f 90/59/3 88/82/3 86/48/3
f 86/48/3 84/61/3 82/62/3
f 82/62/3 80/63/3 78/39/3
f 78/39/3 74/52/3 102/78/3
f 102/78/3 98/56/3 94/47/3
f 94/47/3 90/59/3 86/48/3
f 86/48/3 82/62/3 78/39/3
f 78/39/3 102/78/3 94/47/3
f 102/40/21 104/42/21 103/41/21
f 104/42/22 74/64/22 73/43/22
f 103/46/1 73/65/1 75/66/1
f 75/66/1 77/67/1 79/68/1
f 79/68/1 81/69/1 83/70/1
f 83/70/1 85/83/1 87/49/1
f 87/49/1 89/72/1 91/84/1
f 91/84/1 93/85/1 95/45/1
f 95/45/1 97/75/1 99/76/1
f 99/76/1 101/77/1 103/46/1
f 103/46/1 75/66/1 79/68/1
f 79/68/1 83/70/1 87/49/1
f 87/49/1 91/84/1 95/45/1
f 95/45/1 99/76/1 103/46/1
f 103/46/1 79/68/1 87/49/1
f 106/13/7 108/16/7 107/14/7
f 108/16/8 110/17/8 109/12/8
f 110/17/9 112/19/9 111/18/9
f 112/19/10 114/21/10 113/20/10
f 114/21/11 116/23/11 115/22/11
f 116/23/12 118/24/12 117/6/12
f 118/24/13 120/26/13 119/25/13
f 120/26/14 122/28/14 121/27/14
f 122/28/15 124/30/15 123/29/15
f 124/30/16 126/9/16 125/5/16
f 126/9/17 128/32/17 127/31/17
f 128/32/18 130/34/18 129/33/18
f 130/34/19 132/36/19 131/35/19
f 132/36/20 134/40/20 133/11/20
f 110/39/3 108/51/3 106/52/3
f 106/52/3 136/53/3 134/78/3
f 134/78/3 132/79/3 130/56/3
f 130/56/3 128/80/3 126/47/3
f 126/47/3 124/81/3 122/59/3
f 122/59/3 120/82/3 118/48/3
f 118/48/3 116/61/3 114/62/3
f 114/62/3 112/63/3 110/39/3
f 110/39/3 106/52/3 134/78/3
f 134/78/3 130/56/3 126/47/3
f 126/47/3 122/59/3 118/48/3
f 118/48/3 114/62/3 110/39/3
f 110/39/3 134/78/3 126/47/3
f 134/40/21 136/42/21 135/41/21
f 136/42/22 106/64/22 105/43/22
f 135/46/1 105/65/1 107/66/1
f 107/66/1 109/67/1 111/68/1
f 111/68/1 113/69/1 115/70/1
f 115/70/1 117/83/1 119/49/1
f 119/49/1 121/72/1 123/84/1
f 123/84/1 125/85/1 127/45/1
f 127/45/1 129/75/1 131/76/1
f 131/76/1 133/77/1 135/46/1
f 135/46/1 107/66/1 111/68/1
f 111/68/1 115/70/1 119/49/1
f 119/49/1 123/84/1 127/45/1
f 127/45/1 131/76/1 135/46/1
f 135/46/1 111/68/1 119/49/1
