# Blender 4.0.2
# www.blender.org
mtllib enhance_tower.mtl
o EnhanceTower
v 0.000000 0.000000 -0.300000
v 0.000000 0.550000 -0.160000
v 0.212132 0.000000 -0.212132
v 0.113137 0.550000 -0.113137
v 0.300000 0.000000 0.000000
v 0.160000 0.550000 0.000000
v 0.212132 -0.000000 0.212132
v 0.113137 0.550000 0.113137
v 0.000000 -0.000000 0.300000
v 0.000000 0.550000 0.160000
v -0.212132 -0.000000 0.212132
v -0.113137 0.550000 0.113137
v -0.300000 0.000000 0.000000
v -0.160000 0.550000 0.000000
v -0.212132 0.000000 -0.212132
v -0.113137 0.550000 -0.113137
v 0.123615 0.403046 -0.153509
v 0.014365 0.706515 -0.016139
v 0.145420 0.406395 -0.141748
v 0.018726 0.707185 -0.013787
v 0.148288 0.398428 -0.118226
v 0.019299 0.705592 -0.009082
v 0.129351 0.387111 -0.106465
v 0.015512 0.703328 -0.006730
v 0.107546 0.383761 -0.118226
v 0.011151 0.702658 -0.009082
v 0.104678 0.391728 -0.141748
v 0.010577 0.704252 -0.013787
v -0.123615 0.403046 -0.153509
v -0.014365 0.706515 -0.016139
v -0.104678 0.391728 -0.141748
v -0.010577 0.704252 -0.013787
v -0.107546 0.383761 -0.118226
v -0.011151 0.702658 -0.009082
v -0.129351 0.387111 -0.106465
v -0.015512 0.703328 -0.006730
v -0.148288 0.398428 -0.118226
v -0.019299 0.705592 -0.009082
v -0.145420 0.406395 -0.141748
v -0.018726 0.707185 -0.013787
v -0.129351 0.387111 0.106465
v -0.015512 0.703328 0.006730
v -0.107546 0.383761 0.118226
v -0.011151 0.702658 0.009082
v -0.104678 0.391728 0.141748
v -0.010577 0.704252 0.013787
v -0.123615 0.403046 0.153509
v -0.014365 0.706515 0.016139
v -0.145420 0.406395 0.141748
v -0.018726 0.707185 0.013787
v -0.148288 0.398428 0.118226
v -0.019299 0.705592 0.009082
v 0.129351 0.387111 0.106465
v 0.015512 0.703328 0.006730
v 0.148288 0.398428 0.118226
v 0.019299 0.705592 0.009082
v 0.145420 0.406395 0.141748
v 0.018726 0.707185 0.013787
v 0.123615 0.403046 0.153509
v 0.014365 0.706515 0.016139
v 0.104678 0.391728 0.141748
v 0.010577 0.704252 0.013787
v 0.107546 0.383761 0.118226
v 0.011151 0.702658 0.009082
v 0.000000 0.888268 -0.092388
v 0.000000 0.757612 -0.038268
v 0.019134 0.942388 -0.033141
v 0.035355 0.920711 -0.061237
v 0.046194 0.888268 -0.080010
v 0.050000 0.850000 -0.086603
v 0.046194 0.811732 -0.080010
v 0.035355 0.779289 -0.061237
v 0.019134 0.757612 -0.033141
v 0.000000 0.950000 0.000000
v 0.033141 0.942388 -0.019134
v 0.061237 0.920711 -0.035355
v 0.080010 0.888268 -0.046194
v 0.086603 0.850000 -0.050000
v 0.080010 0.811732 -0.046194
v 0.061237 0.779289 -0.035355
v 0.033141 0.757612 -0.019134
v 0.038268 0.942388 0.000000
v 0.070711 0.920711 0.000000
v 0.092388 0.888268 0.000000
v 0.100000 0.850000 0.000000
v 0.092388 0.811732 0.000000
v 0.070711 0.779289 0.000000
v 0.038268 0.757612 0.000000
v 0.033141 0.942388 0.019134
v 0.061237 0.920711 0.035355
v 0.080010 0.888268 0.046194
v 0.086603 0.850000 0.050000
v 0.080010 0.811732 0.046194
v 0.061237 0.779289 0.035355
v 0.033141 0.757612 0.019134
v 0.019134 0.942388 0.033141
v 0.035355 0.920711 0.061237
v 0.046194 0.888268 0.080010
v 0.050000 0.850000 0.086603
v 0.046194 0.811732 0.080010
v 0.035355 0.779289 0.061237
v 0.019134 0.757612 0.033141
v 0.000000 0.942388 0.038268
v 0.000000 0.920711 0.070711
v 0.000000 0.888268 0.092388
v 0.000000 0.850000 0.100000
v 0.000000 0.811732 0.092388
v 0.000000 0.779289 0.070711
v 0.000000 0.757612 0.038268
v -0.019134 0.942388 0.033141
v -0.035355 0.920711 0.061237
v -0.046194 0.888268 0.080010
v -0.050000 0.850000 0.086603
v -0.046194 0.811732 0.080010
v -0.035355 0.779289 0.061237
v -0.019134 0.757612 0.033141
v 0.000000 0.750000 0.000000
v -0.033141 0.942388 0.019134
v -0.061237 0.920711 0.035355
v -0.080010 0.888268 0.046194
v -0.086603 0.850000 0.050000
v -0.080010 0.811732 0.046194
v -0.061237 0.779289 0.035355
v -0.033141 0.757612 0.019134
v -0.038268 0.942388 0.000000
v -0.070711 0.920711 0.000000
v -0.092388 0.888268 0.000000
v -0.100000 0.850000 0.000000
v -0.092388 0.811732 0.000000
v -0.070711 0.779289 0.000000
v -0.038268 0.757612 0.000000
v -0.033141 0.942388 -0.019134
v -0.061237 0.920711 -0.035355
v -0.080010 0.888268 -0.046194
v -0.086603 0.850000 -0.050000
v -0.080010 0.811732 -0.046194
v -0.061237 0.779289 -0.035355
v -0.033141 0.757612 -0.019134
v -0.019134 0.942388 -0.033141
v -0.035355 0.920711 -0.061237
v -0.046194 0.888268 -0.080010
v -0.050000 0.850000 -0.086603
v -0.046194 0.811732 -0.080010
v -0.035355 0.779289 -0.061237
v -0.019134 0.757612 -0.033141
v 0.000000 0.942388 -0.038268
v 0.000000 0.920711 -0.070711
v 0.000000 0.850000 -0.100000
v 0.000000 0.811732 -0.092388
v 0.000000 0.779289 -0.070711
v 0.219325 0.561014 -0.257502
v 0.042993 0.870176 -0.033783
v 0.238575 0.565719 -0.247947
v 0.046493 0.871031 -0.032046
v 0.243975 0.556251 -0.228837
v 0.047475 0.869310 -0.028572
v 0.230125 0.542078 -0.219282
v 0.044957 0.866733 -0.026834
v 0.210875 0.537373 -0.228837
v 0.041457 0.865877 -0.028572
v 0.205475 0.546840 -0.247947
v 0.040475 0.867599 -0.032046
v -0.219325 0.561014 -0.257502
v -0.042993 0.870176 -0.033783
v -0.205475 0.546840 -0.247947
v -0.040475 0.867599 -0.032046
v -0.210875 0.537373 -0.228837
v -0.041457 0.865877 -0.028572
v -0.230125 0.542078 -0.219282
v -0.044957 0.866733 -0.026834
v -0.243975 0.556251 -0.228837
v -0.047475 0.869310 -0.028572
v -0.238575 0.565719 -0.247947
v -0.046493 0.871031 -0.032046
v -0.230125 0.542078 0.219282
v -0.044957 0.866733 0.026834
v -0.210875 0.537373 0.228837
v -0.041457 0.865877 0.028572
v -0.205475 0.546840 0.247947
v -0.040475 0.867599 0.032046
v -0.219325 0.561014 0.257502
v -0.042993 0.870176 0.033783
v -0.238575 0.565719 0.247947
v -0.046493 0.871031 0.032046
v -0.243975 0.556251 0.228837
v -0.047475 0.869310 0.028572
v 0.230125 0.542078 0.219282
v 0.044957 0.866733 0.026834
v 0.243975 0.556251 0.228837
v 0.047475 0.869310 0.028572
v 0.238575 0.565719 0.247947
v 0.046493 0.871031 0.032046
v 0.219325 0.561014 0.257502
v 0.042993 0.870176 0.033783
v 0.205475 0.546840 0.247947
v 0.040475 0.867599 0.032046
v 0.210875 0.537373 0.228837
v 0.041457 0.865877 0.028572
vn 0.3725 0.2289 -0.8993
vn 0.8993 0.2289 -0.3725
vn 0.8993 0.2289 0.3725
vn 0.3725 0.2289 0.8993
vn -0.3725 0.2289 0.8993
vn -0.8993 0.2289 0.3725
vn -0.0000 1.0000 -0.0000
vn -0.8993 0.2289 -0.3725
vn -0.3725 0.2289 -0.8993
vn -0.0000 -1.0000 -0.0000
vn 0.3549 0.4886 -0.7971
vn 0.9240 0.3821 0.0167
vn 0.5533 -0.0628 0.8306
vn -0.3864 -0.4011 0.8306
vn -0.3188 0.8853 0.3387
vn -0.9555 -0.2946 0.0167
vn -0.5849 0.1503 -0.7971
vn 0.3187 -0.8853 -0.3387
vn 0.5849 0.1503 -0.7971
vn 0.9555 -0.2946 0.0167
vn 0.3864 -0.4011 0.8306
vn -0.5533 -0.0628 0.8306
vn 0.3188 0.8853 0.3387
vn -0.9240 0.3821 0.0167
vn -0.3549 0.4886 -0.7971
vn -0.3187 -0.8853 -0.3387
vn 0.3864 -0.4011 -0.8306
vn 0.9555 -0.2946 -0.0167
vn 0.5849 0.1503 0.7971
vn -0.3549 0.4886 0.7971
vn 0.3186 0.8853 -0.3387
vn -0.9240 0.3821 -0.0167
vn -0.5533 -0.0628 -0.8306
vn -0.3187 -0.8853 0.3387
vn 0.5533 -0.0628 -0.8306
vn 0.9240 0.3821 -0.0167
vn 0.3549 0.4886 0.7971
vn -0.5849 0.1503 0.7971
vn -0.3186 0.8853 -0.3387
vn -0.9555 -0.2945 -0.0167
vn -0.3864 -0.4011 -0.8306
vn 0.3187 -0.8853 0.3387
vn 0.3548 0.4886 -0.7971
vn 0.9240 0.3820 0.0168
vn 0.9239 0.3822 0.0165
vn 0.5534 -0.0628 0.8306
vn -0.3863 -0.4011 0.8306
vn -0.3186 0.8854 0.3386
vn -0.3186 0.8853 0.3388
vn -0.3187 0.8852 0.3388
vn -0.9555 -0.2946 0.0168
vn -0.5848 0.1503 -0.7972
vn 0.3187 -0.8853 -0.3388
vn 0.5848 0.1503 -0.7972
vn 0.9555 -0.2946 0.0168
vn 0.3863 -0.4011 0.8306
vn -0.5534 -0.0628 0.8306
vn 0.3186 0.8853 0.3388
vn 0.3186 0.8854 0.3386
vn 0.3187 0.8852 0.3388
vn -0.9239 0.3822 0.0164
vn -0.3548 0.4886 -0.7971
vn -0.3187 -0.8853 -0.3388
vn 0.3863 -0.4011 -0.8306
vn 0.9555 -0.2946 -0.0168
vn 0.5848 0.1503 0.7972
vn -0.3548 0.4886 0.7971
vn 0.3187 0.8852 -0.3388
vn 0.3187 0.8853 -0.3387
vn 0.3190 0.8852 -0.3386
vn 0.3186 0.8853 -0.3386
vn -0.9240 0.3820 -0.0168
vn -0.9239 0.3822 -0.0165
vn -0.5534 -0.0628 -0.8306
vn 0.5534 -0.0628 -0.8306
vn 0.9239 0.3822 -0.0164
vn 0.9239 0.3822 -0.0165
vn 0.3548 0.4886 0.7971
vn -0.5848 0.1503 0.7972
vn -0.3190 0.8852 -0.3386
vn -0.3185 0.8853 -0.3388
vn -0.3187 0.8852 -0.3388
vn -0.3186 0.8853 -0.3386
vn -0.9555 -0.2946 -0.0168
vn -0.3863 -0.4011 -0.8306
vn 0.1472 -0.8224 -0.5495
vn 0.2542 -0.1887 -0.9486
vn 0.2175 0.5423 -0.8116
vn 0.0522 0.9794 -0.1948
vn 0.0522 -0.9794 -0.1948
vn 0.2175 -0.5423 -0.8116
vn 0.2542 0.1887 -0.9486
vn 0.1472 0.8224 -0.5495
vn 0.1426 0.9794 -0.1426
vn 0.1426 -0.9794 -0.1426
vn 0.5941 -0.5423 -0.5941
vn 0.6944 0.1887 -0.6944
vn 0.4023 0.8224 -0.4023
vn 0.4023 -0.8224 -0.4023
vn 0.6944 -0.1887 -0.6944
vn 0.5941 0.5423 -0.5941
vn 0.8116 -0.5423 -0.2175
vn 0.9486 0.1887 -0.2542
vn 0.5495 0.8224 -0.1472
vn 0.5495 -0.8224 -0.1472
vn 0.9486 -0.1887 -0.2542
vn 0.8116 0.5423 -0.2175
vn 0.1948 0.9794 -0.0522
vn 0.1948 -0.9794 -0.0522
vn 0.5495 -0.8224 0.1472
vn 0.9486 -0.1887 0.2542
vn 0.8116 0.5423 0.2175
vn 0.1948 0.9794 0.0522
vn 0.1948 -0.9794 0.0522
vn 0.8116 -0.5423 0.2175
vn 0.9486 0.1887 0.2542
vn 0.5495 0.8224 0.1472
vn 0.6944 -0.1887 0.6944
vn 0.5941 0.5423 0.5941
vn 0.1426 0.9794 0.1426
vn 0.1426 -0.9794 0.1426
vn 0.5941 -0.5423 0.5941
vn 0.6944 0.1887 0.6944
vn 0.4023 0.8224 0.4023
vn 0.4023 -0.8224 0.4023
vn 0.0522 -0.9794 0.1948
vn 0.2175 -0.5423 0.8116
vn 0.2542 0.1887 0.9486
vn 0.1472 0.8224 0.5495
vn 0.1472 -0.8224 0.5495
vn 0.2542 -0.1887 0.9486
vn 0.2175 0.5423 0.8116
vn 0.0522 0.9794 0.1948
vn -0.2542 0.1887 0.9486
vn -0.1472 0.8224 0.5495
vn -0.1472 -0.8224 0.5495
vn -0.2542 -0.1887 0.9486
vn -0.2175 0.5423 0.8116
vn -0.0522 0.9794 0.1948
vn -0.0522 -0.9794 0.1948
vn -0.2175 -0.5423 0.8116
vn -0.4023 -0.8224 0.4023
vn -0.6944 -0.1887 0.6944
vn -0.5941 0.5423 0.5941
vn -0.1426 0.9794 0.1426
vn -0.1426 -0.9794 0.1426
vn -0.5941 -0.5423 0.5941
vn -0.6944 0.1887 0.6944
vn -0.4023 0.8224 0.4023
vn -0.8116 0.5423 0.2175
vn -0.1948 0.9794 0.0522
vn -0.1948 -0.9794 0.0522
vn -0.8116 -0.5423 0.2175
vn -0.9486 0.1887 0.2542
vn -0.5495 0.8224 0.1472
vn -0.5495 -0.8224 0.1472
vn -0.9486 -0.1887 0.2542
vn -0.1948 -0.9794 -0.0522
vn -0.8116 -0.5423 -0.2175
vn -0.9486 0.1887 -0.2542
vn -0.5495 0.8224 -0.1472
vn -0.5495 -0.8224 -0.1472
vn -0.9486 -0.1887 -0.2542
vn -0.8116 0.5423 -0.2175
vn -0.1948 0.9794 -0.0522
vn -0.4023 0.8224 -0.4023
vn -0.4023 -0.8224 -0.4023
vn -0.6944 -0.1887 -0.6944
vn -0.5941 0.5423 -0.5941
vn -0.1426 0.9794 -0.1426
vn -0.1426 -0.9794 -0.1426
vn -0.5941 -0.5423 -0.5941
vn -0.6944 0.1887 -0.6944
vn -0.1472 -0.8224 -0.5495
vn -0.2542 -0.1887 -0.9486
vn -0.2175 0.5423 -0.8116
vn -0.0522 0.9794 -0.1948
vn -0.0522 -0.9794 -0.1948
vn -0.2175 -0.5423 -0.8116
vn -0.2542 0.1887 -0.9486
vn -0.1472 0.8224 -0.5495
vn 0.2056 0.6480 -0.7334
vn 0.8521 0.5231 0.0184
vn 0.6305 -0.0969 0.7701
vn -0.2376 -0.5920 0.7701
vn -0.4304 0.7545 0.4954
vn -0.8840 -0.4671 0.0184
vn -0.6624 0.1529 -0.7334
vn 0.4304 -0.7545 -0.4954
vn 0.6624 0.1529 -0.7334
vn 0.8840 -0.4671 0.0184
vn 0.2376 -0.5920 0.7701
vn -0.6305 -0.0969 0.7701
vn 0.4304 0.7545 0.4954
vn -0.8521 0.5231 0.0184
vn -0.2056 0.6480 -0.7334
vn -0.4304 -0.7545 -0.4954
vn 0.2376 -0.5920 -0.7701
vn 0.8840 -0.4671 -0.0184
vn 0.6624 0.1529 0.7334
vn -0.2056 0.6480 0.7334
vn 0.4304 0.7545 -0.4954
vn -0.8521 0.5231 -0.0184
vn -0.6305 -0.0969 -0.7701
vn -0.4304 -0.7545 0.4954
vn 0.6305 -0.0969 -0.7701
vn 0.8521 0.5231 -0.0184
vn 0.2056 0.6480 0.7334
vn -0.6624 0.1529 0.7334
vn -0.4304 0.7545 -0.4954
vn -0.8840 -0.4671 -0.0184
vn -0.2376 -0.5920 -0.7701
vn 0.4304 -0.7545 0.4954
vn 0.2375 -0.5920 0.7701
vn 0.4303 0.7546 -0.4954
vn -0.4303 0.7546 -0.4954
vn -0.2375 -0.5920 -0.7701
vt 1.000000 1.000000
vt 0.875000 0.500000
vt 1.000000 0.500000
vt 0.875000 1.000000
vt 0.750000 0.500000
vt 0.750000 1.000000
vt 0.625000 0.500000
vt 0.625000 1.000000
vt 0.500000 0.500000
vt 0.500000 1.000000
vt 0.375000 0.500000
vt 0.375000 1.000000
vt 0.250000 0.500000
vt 0.010000 0.250000
vt 0.250000 0.010000
vt 0.490000 0.250000
vt 0.250000 1.000000
vt 0.125000 0.500000
vt 0.125000 1.000000
vt 0.000000 0.500000
vt 0.919706 0.080294
vt 0.580294 0.080294
vt 0.580294 0.419706
vt 0.419706 0.419706
vt 0.250000 0.490000
vt 0.080294 0.419706
vt 0.080294 0.080294
vt 0.419706 0.080294
vt 0.000000 1.000000
vt 0.750000 0.490000
vt 0.919706 0.419706
vt 0.990000 0.250000
vt 0.750000 0.010000
vt 0.510000 0.250000
vt 0.833333 0.500000
vt 0.666667 1.000000
vt 0.666667 0.500000
vt 0.333333 0.500000
vt 0.042154 0.130000
vt 0.457846 0.130000
vt 0.333333 1.000000
vt 0.166667 0.500000
vt 0.166667 1.000000
vt 0.957846 0.370000
vt 0.542154 0.370000
vt 0.833333 1.000000
vt 0.457846 0.370000
vt 0.042154 0.370000
vt 0.957846 0.130000
vt 0.542154 0.130000
vt 0.750000 0.250000
vt 0.666667 0.125000
vt 0.750000 0.125000
vt 0.666667 0.375000
vt 0.750000 0.375000
vt 0.750000 0.750000
vt 0.666667 0.625000
vt 0.750000 0.625000
vt 0.750000 0.875000
vt 0.708333 1.000000
vt 0.666667 0.875000
vt 0.708333 0.000000
vt 0.666667 0.250000
vt 0.666667 0.750000
vt 0.583333 0.875000
vt 0.625000 0.000000
vt 0.583333 0.125000
vt 0.583333 0.375000
vt 0.583333 0.250000
vt 0.583333 0.625000
vt 0.583333 0.500000
vt 0.583333 0.750000
vt 0.500000 0.250000
vt 0.500000 0.750000
vt 0.500000 0.125000
vt 0.500000 0.375000
vt 0.500000 0.625000
vt 0.541667 1.000000
vt 0.500000 0.875000
vt 0.541667 0.000000
vt 0.416667 0.125000
vt 0.416667 0.375000
vt 0.416667 0.750000
vt 0.416667 0.625000
vt 0.458333 1.000000
vt 0.416667 0.875000
vt 0.458333 0.000000
vt 0.416667 0.250000
vt 0.416667 0.500000
vt 0.333333 0.375000
vt 0.333333 0.625000
vt 0.333333 0.875000
vt 0.375000 0.000000
vt 0.333333 0.125000
vt 0.333333 0.250000
vt 0.333333 0.750000
vt 0.291667 0.000000
vt 0.250000 0.125000
vt 0.250000 0.375000
vt 0.250000 0.250000
vt 0.250000 0.750000
vt 0.250000 0.625000
vt 0.291667 1.000000
vt 0.250000 0.875000
vt 0.166667 0.750000
vt 0.166667 0.125000
vt 0.166667 0.375000
vt 0.166667 0.625000
vt 0.208333 1.000000
vt 0.166667 0.875000
vt 0.208333 0.000000
vt 0.166667 0.250000
vt 0.083333 0.125000
vt 0.083333 0.375000
vt 0.083333 0.750000
vt 0.083333 0.625000
vt 0.083333 0.875000
vt 0.125000 0.000000
vt 0.083333 0.250000
vt 0.083333 0.500000
vt 0.000000 0.750000
vt 0.000000 0.625000
vt 0.041667 1.000000
vt 0.000000 0.875000
vt 0.041667 0.000000
vt 0.000000 0.125000
vt 0.000000 0.250000
vt 0.000000 0.375000
vt 0.958333 0.000000
vt 1.000000 0.125000
vt 0.916667 0.125000
vt 1.000000 0.375000
vt 0.916667 0.250000
vt 1.000000 0.250000
vt 1.000000 0.625000
vt 0.916667 0.500000
vt 1.000000 0.875000
vt 0.916667 0.750000
vt 1.000000 0.750000
vt 0.916667 0.375000
vt 0.916667 0.625000
vt 0.958333 1.000000
vt 0.916667 0.875000
vt 0.833333 0.750000
vt 0.833333 0.125000
vt 0.833333 0.375000
vt 0.833333 0.625000
vt 0.833333 0.875000
vt 0.875000 0.000000
vt 0.833333 0.250000
vt 0.791667 1.000000
vt 0.791667 0.000000
vt 0.833333 1.000000
vt 0.833333 0.500000
vt 0.666667 0.500000
vt 0.666667 1.000000
vt 0.500000 0.500000
vt 0.333333 1.000000
vt 0.333333 0.500000
vt 0.042154 0.130000
vt 0.457846 0.130000
vt 0.166667 0.500000
vt 0.166667 1.000000
vt -0.000000 0.500000
vt 0.957846 0.370000
vt 0.750000 0.010000
vt 0.542154 0.370000
vt 0.500000 1.000000
vt 0.457846 0.370000
vt 0.042154 0.370000
vt 0.250000 0.010000
vt -0.000000 1.000000
vt 0.957846 0.130000
vt 0.542154 0.130000
s 0
usemtl EnhancePedestalMat.002
f 2/1/1 3/2/1 1/3/1
f 4/4/2 5/5/2 3/2/2
f 6/6/3 7/7/3 5/5/3
f 8/8/4 9/9/4 7/7/4
f 10/10/5 11/11/5 9/9/5
f 12/12/6 13/13/6 11/11/6
f 14/14/7 10/15/7 6/16/7
f 14/17/8 15/18/8 13/13/8
f 16/19/9 1/20/9 15/18/9
f 7/21/10 11/22/10 15/23/10
f 2/1/1 4/4/1 3/2/1
f 4/4/2 6/6/2 5/5/2
f 6/6/3 8/8/3 7/7/3
f 8/8/4 10/10/4 9/9/4
f 10/10/5 12/12/5 11/11/5
f 12/12/6 14/17/6 13/13/6
f 6/16/7 4/24/7 2/25/7
f 2/25/7 16/26/7 14/14/7
f 14/14/7 12/27/7 10/15/7
f 10/15/7 8/28/7 6/16/7
f 6/16/7 2/25/7 14/14/7
f 14/17/8 16/19/8 15/18/8
f 16/19/9 2/29/9 1/20/9
f 15/23/10 1/30/10 3/31/10
f 3/31/10 5/32/10 7/21/10
f 7/21/10 9/33/10 11/22/10
f 11/22/10 13/34/10 15/23/10
f 15/23/10 3/31/10 7/21/10
usemtl EnhanceAntennaMat.002
f 18/1/11 19/35/11 17/3/11
f 19/35/12 22/36/12 21/37/12
f 22/36/13 23/9/13 21/37/13
f 24/10/14 25/38/14 23/9/14
f 18/25/15 26/39/15 22/40/15
f 26/41/16 27/42/16 25/38/16
f 28/43/17 17/20/17 27/42/17
f 19/44/18 23/33/18 27/45/18
f 29/3/19 32/46/19 31/35/19
f 32/46/20 33/37/20 31/35/20
f 34/36/21 35/9/21 33/37/21
f 35/9/22 38/41/22 37/38/22
f 30/25/23 38/39/23 34/40/23
f 38/41/24 39/42/24 37/38/24
f 40/43/25 29/20/25 39/42/25
f 31/44/26 35/33/26 39/45/26
f 42/1/27 43/35/27 41/3/27
f 44/46/28 45/37/28 43/35/28
f 46/36/29 47/9/29 45/37/29
f 48/10/30 49/38/30 47/9/30
f 42/25/31 50/39/31 46/40/31
f 49/38/32 52/43/32 51/42/32
f 52/43/33 41/20/33 51/42/33
f 43/44/34 47/33/34 51/45/34
f 53/3/35 56/46/35 55/35/35
f 56/46/36 57/37/36 55/35/36
f 58/36/37 59/9/37 57/37/37
f 59/9/38 62/41/38 61/38/38
f 54/25/39 62/39/39 58/40/39
f 62/41/40 63/42/40 61/38/40
f 64/43/41 53/20/41 63/42/41
f 55/44/42 59/33/42 63/45/42
f 18/1/43 20/46/43 19/35/43
f 19/35/44 20/46/45 22/36/45
f 22/36/46 24/10/46 23/9/46
f 24/10/47 26/41/47 25/38/47
f 22/40/48 20/47/48 18/25/48
f 18/25/49 28/48/49 26/39/49
f 26/39/50 24/15/50 22/40/50
f 26/41/51 28/43/51 27/42/51
f 28/43/52 18/29/52 17/20/52
f 27/45/53 17/30/53 19/44/53
f 19/44/18 21/49/18 23/33/18
f 23/33/18 25/50/18 27/45/18
f 29/3/54 30/1/54 32/46/54
f 32/46/55 34/36/55 33/37/55
f 34/36/56 36/10/56 35/9/56
f 35/9/57 36/10/57 38/41/57
f 34/40/58 32/47/58 30/25/58
f 30/25/59 40/48/59 38/39/59
f 38/39/60 36/15/60 34/40/60
f 38/41/61 40/43/61 39/42/61
f 40/43/62 30/29/62 29/20/62
f 39/45/63 29/30/63 31/44/63
f 31/44/26 33/49/26 35/33/26
f 35/33/26 37/50/26 39/45/26
f 42/1/64 44/46/64 43/35/64
f 44/46/65 46/36/65 45/37/65
f 46/36/66 48/10/66 47/9/66
f 48/10/67 50/41/67 49/38/67
f 46/40/68 44/47/68 42/25/68
f 42/25/69 52/48/70 50/39/69
f 50/39/71 48/15/71 46/40/71
f 49/38/72 50/41/73 52/43/73
f 52/43/74 42/29/74 41/20/74
f 51/45/34 41/30/34 43/44/34
f 43/44/34 45/49/34 47/33/34
f 47/33/34 49/50/34 51/45/34
f 53/3/75 54/1/75 56/46/75
f 56/46/76 58/36/77 57/37/76
f 58/36/78 60/10/78 59/9/78
f 59/9/79 60/10/79 62/41/79
f 58/40/80 56/47/80 54/25/81
f 54/25/82 64/48/82 62/39/82
f 62/39/83 60/15/83 58/40/83
f 62/41/84 64/43/84 63/42/84
f 64/43/85 54/29/85 53/20/85
f 63/45/42 53/30/42 55/44/42
f 55/44/42 57/49/42 59/33/42
f 59/33/42 61/50/42 63/45/42
usemtl EnhanceOrbMat.002
f 150/51/86 73/52/86 66/53/86
f 148/5/87 71/54/87 149/55/87
f 147/56/88 69/57/88 65/58/88
f 146/59/89 74/60/89 67/61/89
f 117/62/90 66/53/90 73/52/90
f 149/55/91 72/63/91 150/51/91
f 148/5/92 69/57/92 70/37/92
f 146/59/93 68/64/93 147/56/93
f 67/61/94 74/8/94 75/65/94
f 117/66/95 73/52/95 81/67/95
f 72/63/96 79/68/96 80/69/96
f 70/37/97 77/70/97 78/71/97
f 68/64/98 75/65/98 76/72/98
f 72/63/99 81/67/99 73/52/99
f 70/37/100 79/68/100 71/54/100
f 68/64/101 77/70/101 69/57/101
f 79/68/102 87/73/102 80/69/102
f 77/70/103 85/9/103 78/71/103
f 75/65/104 83/74/104 76/72/104
f 81/67/105 87/73/105 88/75/105
f 78/71/106 86/76/106 79/68/106
f 76/72/107 84/77/107 77/70/107
f 75/65/108 74/78/108 82/79/108
f 117/80/109 81/67/109 88/75/109
f 87/73/110 95/81/110 88/75/110
f 85/9/111 93/82/111 86/76/111
f 84/77/112 90/83/112 91/84/112
f 82/79/113 74/85/113 89/86/113
f 117/87/114 88/75/114 95/81/114
f 86/76/115 94/88/115 87/73/115
f 84/77/116 92/89/116 85/9/116
f 82/79/117 90/83/117 83/74/117
f 92/89/118 100/90/118 93/82/118
f 90/83/119 98/91/119 91/84/119
f 89/86/120 74/12/120 96/92/120
f 117/93/121 95/81/121 102/94/121
f 93/82/122 101/95/122 94/88/122
f 92/89/123 98/91/123 99/38/123
f 89/86/124 97/96/124 90/83/124
f 95/81/125 101/95/125 102/94/125
f 117/97/126 102/94/126 109/98/126
f 101/95/127 107/99/127 108/100/127
f 98/91/128 106/13/128 99/38/128
f 96/92/129 104/101/129 97/96/129
f 101/95/130 109/98/130 102/94/130
f 99/38/131 107/99/131 100/90/131
f 97/96/132 105/102/132 98/91/132
f 96/92/133 74/103/133 103/104/133
f 105/102/134 113/42/134 106/13/134
f 103/104/135 111/105/135 104/101/135
f 108/100/136 116/106/136 109/98/136
f 107/99/137 113/42/137 114/107/137
f 104/101/138 112/108/138 105/102/138
f 103/104/139 74/109/139 110/110/139
f 117/111/140 109/98/140 116/106/140
f 107/99/141 115/112/141 108/100/141
f 115/112/142 124/113/142 116/106/142
f 113/42/143 122/114/143 114/107/143
f 112/108/144 119/115/144 120/116/144
f 110/110/145 74/19/145 118/117/145
f 117/118/146 116/106/146 124/113/146
f 114/107/147 123/119/147 115/112/147
f 112/108/148 121/120/148 113/42/148
f 110/110/149 119/115/149 111/105/149
f 120/116/150 126/121/150 127/122/150
f 118/117/151 74/123/151 125/124/151
f 117/125/152 124/113/152 131/126/152
f 122/114/153 130/127/153 123/119/153
f 120/116/154 128/20/154 121/120/154
f 118/117/155 126/121/155 119/115/155
f 123/119/156 131/126/156 124/113/156
f 122/114/157 128/20/157 129/128/157
f 117/129/158 131/130/158 138/131/158
f 129/132/159 137/133/159 130/134/159
f 127/135/160 135/136/160 128/3/160
f 125/137/161 133/138/161 126/139/161
f 131/130/162 137/133/162 138/131/162
f 129/132/163 135/136/163 136/140/163
f 126/139/164 134/141/164 127/135/164
f 125/137/165 74/142/165 132/143/165
f 132/143/166 140/144/166 133/138/166
f 137/133/167 145/145/167 138/131/167
f 135/136/168 143/146/168 136/140/168
f 134/141/169 140/144/169 141/147/169
f 132/143/170 74/4/170 139/148/170
f 117/149/171 138/131/171 145/145/171
f 136/140/172 144/150/172 137/133/172
f 134/141/173 142/35/173 135/136/173
f 145/145/174 150/51/174 66/53/174
f 143/146/175 148/5/175 149/55/175
f 140/144/176 65/58/176 141/147/176
f 139/148/177 74/151/177 146/59/177
f 117/152/178 145/145/178 66/53/178
f 143/146/179 150/51/179 144/150/179
f 142/35/180 65/58/180 148/5/180
f 139/148/181 147/56/181 140/144/181
f 150/51/86 72/63/86 73/52/86
f 148/5/87 70/37/87 71/54/87
f 147/56/88 68/64/88 69/57/88
f 149/55/91 71/54/91 72/63/91
f 148/5/92 65/58/92 69/57/92
f 146/59/93 67/61/93 68/64/93
f 72/63/96 71/54/96 79/68/96
f 70/37/97 69/57/97 77/70/97
f 68/64/98 67/61/98 75/65/98
f 72/63/99 80/69/99 81/67/99
f 70/37/100 78/71/100 79/68/100
f 68/64/101 76/72/101 77/70/101
f 79/68/102 86/76/102 87/73/102
f 77/70/103 84/77/103 85/9/103
f 75/65/104 82/79/104 83/74/104
f 81/67/105 80/69/105 87/73/105
f 78/71/106 85/9/106 86/76/106
f 76/72/107 83/74/107 84/77/107
f 87/73/110 94/88/110 95/81/110
f 85/9/111 92/89/111 93/82/111
f 84/77/112 83/74/112 90/83/112
f 86/76/115 93/82/115 94/88/115
f 84/77/116 91/84/116 92/89/116
f 82/79/117 89/86/117 90/83/117
f 92/89/118 99/38/118 100/90/118
f 90/83/119 97/96/119 98/91/119
f 93/82/122 100/90/122 101/95/122
f 92/89/123 91/84/123 98/91/123
f 89/86/124 96/92/124 97/96/124
f 95/81/125 94/88/125 101/95/125
f 101/95/127 100/90/127 107/99/127
f 98/91/128 105/102/128 106/13/128
f 96/92/129 103/104/129 104/101/129
f 101/95/130 108/100/130 109/98/130
f 99/38/131 106/13/131 107/99/131
f 97/96/132 104/101/132 105/102/132
f 105/102/134 112/108/134 113/42/134
f 103/104/135 110/110/135 111/105/135
f 108/100/136 115/112/136 116/106/136
f 107/99/137 106/13/137 113/42/137
f 104/101/138 111/105/138 112/108/138
f 107/99/141 114/107/141 115/112/141
f 115/112/142 123/119/142 124/113/142
f 113/42/143 121/120/143 122/114/143
f 112/108/144 111/105/144 119/115/144
f 114/107/147 122/114/147 123/119/147
f 112/108/148 120/116/148 121/120/148
f 110/110/149 118/117/149 119/115/149
f 120/116/150 119/115/150 126/121/150
f 122/114/153 129/128/153 130/127/153
f 120/116/154 127/122/154 128/20/154
f 118/117/155 125/124/155 126/121/155
f 123/119/156 130/127/156 131/126/156
f 122/114/157 121/120/157 128/20/157
f 129/132/159 136/140/159 137/133/159
f 127/135/160 134/141/160 135/136/160
f 125/137/161 132/143/161 133/138/161
f 131/130/162 130/134/162 137/133/162
f 129/132/163 128/3/163 135/136/163
f 126/139/164 133/138/164 134/141/164
f 132/143/166 139/148/166 140/144/166
f 137/133/167 144/150/167 145/145/167
f 135/136/168 142/35/168 143/146/168
f 134/141/169 133/138/169 140/144/169
f 136/140/172 143/146/172 144/150/172
f 134/141/173 141/147/173 142/35/173
f 145/145/174 144/150/174 150/51/174
f 143/146/175 142/35/175 148/5/175
f 140/144/176 147/56/176 65/58/176
f 143/146/179 149/55/179 150/51/179
f 142/35/180 141/147/180 65/58/180
f 139/148/181 146/59/181 147/56/181
usemtl EnhanceAntennaMatV2
f 151/3/182 154/153/182 153/154/182
f 154/153/183 155/155/183 153/154/183
f 156/156/184 157/157/184 155/155/184
f 157/157/185 160/158/185 159/159/185
f 152/25/186 160/160/186 156/161/186
f 160/158/187 161/162/187 159/159/187
f 162/163/188 151/164/188 161/162/188
f 153/165/189 157/166/189 161/167/189
f 164/1/190 165/154/190 163/3/190
f 165/154/191 168/156/191 167/155/191
f 168/156/192 169/157/192 167/155/192
f 170/168/193 171/159/193 169/157/193
f 164/25/194 172/160/194 168/161/194
f 171/159/195 174/163/195 173/162/195
f 174/163/196 163/164/196 173/162/196
f 165/165/197 169/166/197 173/167/197
f 175/3/198 178/153/198 177/154/198
f 178/153/199 179/155/199 177/154/199
f 180/156/200 181/157/200 179/155/200
f 181/157/201 184/158/201 183/159/201
f 176/25/202 184/160/202 180/161/202
f 184/158/203 185/162/203 183/159/203
f 186/163/204 175/164/204 185/162/204
f 177/165/205 181/166/205 185/167/205
f 188/1/206 189/154/206 187/3/206
f 189/154/207 192/156/207 191/155/207
f 192/156/208 193/157/208 191/155/208
f 194/168/209 195/159/209 193/157/209
f 188/25/210 196/160/210 192/161/210
f 195/159/211 198/163/211 197/162/211
f 198/163/212 187/164/212 197/162/212
f 189/165/213 193/166/213 197/167/213
f 151/3/182 152/1/182 154/153/182
f 154/153/183 156/156/183 155/155/183
f 156/156/184 158/168/184 157/157/184
f 157/157/185 158/168/185 160/158/185
f 156/161/186 154/169/186 152/25/186
f 152/25/186 162/170/186 160/160/186
f 160/160/186 158/171/186 156/161/186
f 160/158/187 162/163/187 161/162/187
f 162/163/188 152/172/188 151/164/188
f 161/167/189 151/30/189 153/165/189
f 153/165/189 155/173/189 157/166/189
f 157/166/189 159/174/189 161/167/189
f 164/1/190 166/153/190 165/154/190
f 165/154/191 166/153/191 168/156/191
f 168/156/214 170/168/214 169/157/214
f 170/168/193 172/158/193 171/159/193
f 168/161/194 166/169/194 164/25/194
f 164/25/194 174/170/194 172/160/194
f 172/160/194 170/171/194 168/161/194
f 171/159/195 172/158/195 174/163/195
f 174/163/196 164/172/196 163/164/196
f 173/167/197 163/30/197 165/165/197
f 165/165/197 167/173/197 169/166/197
f 169/166/197 171/174/197 173/167/197
f 175/3/198 176/1/198 178/153/198
f 178/153/199 180/156/199 179/155/199
f 180/156/200 182/168/200 181/157/200
f 181/157/201 182/168/201 184/158/201
f 180/161/202 178/169/202 176/25/202
f 176/25/215 186/170/215 184/160/215
f 184/160/202 182/171/202 180/161/202
f 184/158/203 186/163/203 185/162/203
f 186/163/204 176/172/204 175/164/204
f 185/167/205 175/30/205 177/165/205
f 177/165/205 179/173/205 181/166/205
f 181/166/205 183/174/205 185/167/205
f 188/1/206 190/153/206 189/154/206
f 189/154/207 190/153/207 192/156/207
f 192/156/208 194/168/208 193/157/208
f 194/168/209 196/158/209 195/159/209
f 192/161/216 190/169/216 188/25/216
f 188/25/210 198/170/210 196/160/210
f 196/160/210 194/171/210 192/161/210
f 195/159/211 196/158/211 198/163/211
f 198/163/217 188/172/217 187/164/217
f 197/167/213 187/30/213 189/165/213
f 189/165/213 191/173/213 193/166/213
f 193/166/213 195/174/213 197/167/213
