# Blender 4.0.2
# www.blender.org
mtllib ice_tower.mtl
o IceTower
v 0.000000 0.000000 -0.450000
v 0.000000 0.150000 -0.450000
v 0.318198 0.000000 -0.318198
v 0.318198 0.150000 -0.318198
v 0.450000 0.000000 0.000000
v 0.450000 0.150000 0.000000
v 0.318198 0.000000 0.318198
v 0.318198 0.150000 0.318198
v 0.000000 0.000000 0.450000
v 0.000000 0.150000 0.450000
v -0.318198 0.000000 0.318198
v -0.318198 0.150000 0.318198
v -0.450000 0.000000 0.000000
v -0.450000 0.150000 0.000000
v -0.318198 0.000000 -0.318198
v -0.318198 0.150000 -0.318198
v 0.000000 0.150000 -0.336062
v 0.000000 0.900000 -0.049740
v 0.229924 0.150000 -0.183358
v 0.042236 0.900000 -0.033682
v 0.338535 0.150000 0.077269
v 0.062217 0.900000 0.014201
v 0.158445 0.150000 0.329015
v 0.022162 0.900000 0.046020
v -0.134940 0.150000 0.280206
v -0.021626 0.900000 0.044908
v -0.280377 0.150000 0.063994
v -0.058608 0.900000 0.013377
v -0.207543 0.150000 -0.165510
v -0.041824 0.900000 -0.033354
v 0.229971 0.204567 -0.218102
v 0.263706 0.428940 -0.037703
v 0.301934 0.171464 -0.167405
v 0.268204 0.426871 -0.034535
v 0.267894 0.140527 -0.085376
v 0.266077 0.424937 -0.029408
v 0.174894 0.154510 -0.085376
v 0.260264 0.425811 -0.029408
v 0.151456 0.194089 -0.167405
v 0.258799 0.428285 -0.034535
v -0.148854 0.242123 -0.302616
v -0.034034 0.506287 -0.270080
v -0.075800 0.219331 -0.247951
v -0.029468 0.504863 -0.266663
v -0.097151 0.243112 -0.159503
v -0.030803 0.506349 -0.261135
v -0.183402 0.280601 -0.159503
v -0.036193 0.508692 -0.261135
v -0.215356 0.279990 -0.247951
v -0.038191 0.508654 -0.266663
v -0.220489 0.301496 0.071364
v -0.263114 0.584998 0.028532
v -0.148526 0.334598 0.122061
v -0.258616 0.587067 0.031701
v -0.182566 0.365535 0.204090
v -0.260744 0.589000 0.036827
v -0.275566 0.351553 0.204090
v -0.266556 0.588126 0.036827
v -0.299004 0.311974 0.122061
v -0.268021 0.585653 0.031701
v 0.139371 0.423940 0.144394
v 0.033442 0.667651 0.260191
v 0.212426 0.446731 0.199058
v 0.038007 0.669075 0.263608
v 0.191074 0.422951 0.287507
v 0.036673 0.667589 0.269136
v 0.104823 0.385461 0.287507
v 0.031282 0.665246 0.269136
v 0.072869 0.386073 0.199058
v 0.029285 0.665284 0.263608
vn 0.3827 -0.0000 -0.9239
vn 0.9239 -0.0000 -0.3827
vn 0.9239 -0.0000 0.3827
vn 0.3827 -0.0000 0.9239
vn -0.3827 -0.0000 0.9239
vn -0.9239 -0.0000 0.3827
vn -0.0000 1.0000 -0.0000
vn -0.9239 -0.0000 -0.3827
vn -0.3827 -0.0000 -0.9239
vn -0.0000 -1.0000 -0.0000
vn 0.5272 0.3031 -0.7938
vn 0.8822 0.2941 -0.3677
vn 0.7680 0.3291 0.5494
vn -0.1553 0.3239 0.9333
vn -0.7984 0.2723 0.5370
vn -0.9222 0.2529 -0.2927
vn -0.6090 0.2829 -0.7410
vn 0.6438 0.4183 -0.6407
vn 0.9301 -0.0652 0.3614
vn -0.0290 -0.1932 0.9807
vn 0.1364 0.9069 0.3986
vn -0.9082 0.2112 0.3614
vn -0.4923 0.5892 -0.6407
vn -0.1364 -0.9069 -0.3986
vn 0.5635 -0.1447 -0.8134
vn 0.9538 -0.1373 0.2672
vn 0.1414 0.3253 0.9350
vn 0.3942 0.9069 -0.1487
vn -0.7511 0.6038 0.2672
vn -0.4902 0.3133 -0.8134
vn -0.3942 -0.9069 0.1487
vn 0.5860 -0.0342 -0.8096
vn 0.8724 0.4493 0.1926
vn -0.0868 0.5773 0.8119
vn -0.1364 0.9069 -0.3986
vn -0.9659 0.1729 0.1926
vn -0.5501 -0.2050 -0.8096
vn 0.1364 -0.9069 0.3986
vn 0.3965 0.5289 -0.7504
vn 0.7869 0.5214 0.3301
vn -0.0256 0.0588 0.9979
vn -0.3942 0.9069 0.1487
vn -0.9180 -0.2196 0.3301
vn -0.6572 0.0709 -0.7504
vn 0.3942 -0.9069 -0.1487
vn 0.3426 0.2656 -0.9012
vn 0.8820 0.2942 -0.3681
vn 0.5758 0.3781 0.7249
vn -0.0242 0.3026 0.9528
vn -0.6149 0.3192 0.7212
vn -0.9092 0.2584 -0.3265
vn -0.3543 0.2377 -0.9044
vn 0.1363 0.9069 0.3986
vn -0.1363 0.9069 -0.3986
vt 1.000000 1.000000
vt 0.875000 0.500000
vt 1.000000 0.500000
vt 0.875000 1.000000
vt 0.750000 0.500000
vt 0.750000 1.000000
vt 0.625000 0.500000
vt 0.625000 1.000000
vt 0.500000 0.500000
vt 0.500000 1.000000
vt 0.375000 0.500000
vt 0.375000 1.000000
vt 0.250000 0.500000
vt 0.010000 0.250000
vt 0.250000 0.010000
vt 0.490000 0.250000
vt 0.250000 1.000000
vt 0.125000 0.500000
vt 0.125000 1.000000
vt 0.000000 0.500000
vt 0.919706 0.080294
vt 0.580294 0.080294
vt 0.580294 0.419706
vt 0.857143 0.500000
vt 0.714286 1.000000
vt 0.714286 0.500000
vt 0.571429 0.500000
vt 0.571429 1.000000
vt 0.428571 0.500000
vt 0.285714 1.000000
vt 0.285714 0.500000
vt 0.250000 0.490000
vt 0.016017 0.196595
vt 0.354132 0.033767
vt 0.142857 0.500000
vt 0.000000 1.000000
vt 0.000000 0.500000
vt 0.937640 0.399638
vt 0.854132 0.033767
vt 0.516017 0.196595
vt 0.800000 1.000000
vt 0.800000 0.500000
vt 0.600000 0.500000
vt 0.600000 1.000000
vt 0.400000 0.500000
vt 0.108932 0.055836
vt 0.391068 0.055836
vt 0.200000 1.000000
vt 0.200000 0.500000
vt 0.978254 0.324164
vt 0.608932 0.055836
vt 0.521746 0.324164
vt 0.400000 1.000000
vt 0.419706 0.419706
vt 0.080294 0.419706
vt 0.080294 0.080294
vt 0.419706 0.080294
vt 0.000000 1.000000
vt 0.750000 0.490000
vt 0.919706 0.419706
vt 0.990000 0.250000
vt 0.750000 0.010000
vt 0.510000 0.250000
vt 0.857143 1.000000
vt 0.428571 1.000000
vt 0.483983 0.196595
vt 0.437640 0.399638
vt 0.062360 0.399638
vt 0.145868 0.033767
vt 0.142857 1.000000
vt 0.562360 0.399638
vt 0.983983 0.196595
vt 0.645868 0.033767
vt 0.478254 0.324164
vt 0.021746 0.324164
vt 0.891068 0.055836
s 0
usemtl IcePedestalMat
f 2/1/1 3/2/1 1/3/1
f 4/4/2 5/5/2 3/2/2
f 6/6/3 7/7/3 5/5/3
f 8/8/4 9/9/4 7/7/4
f 10/10/5 11/11/5 9/9/5
f 12/12/6 13/13/6 11/11/6
f 14/14/7 10/15/7 6/16/7
f 14/17/8 15/18/8 13/13/8
f 16/19/9 1/20/9 15/18/9
f 7/21/10 11/22/10 15/23/10
f 2/1/1 4/4/1 3/2/1
f 4/4/2 6/6/2 5/5/2
f 6/6/3 8/8/3 7/7/3
f 8/8/4 10/10/4 9/9/4
f 10/10/5 12/12/5 11/11/5
f 12/12/6 14/17/6 13/13/6
f 6/16/7 4/54/7 2/32/7
f 2/32/7 16/55/7 14/14/7
f 14/14/7 12/56/7 10/15/7
f 10/15/7 8/57/7 6/16/7
f 6/16/7 2/32/7 14/14/7
f 14/17/8 16/19/8 15/18/8
f 16/19/9 2/58/9 1/20/9
f 15/23/10 1/59/10 3/60/10
f 3/60/10 5/61/10 7/21/10
f 7/21/10 9/62/10 11/22/10
f 11/22/10 13/63/10 15/23/10
f 15/23/10 3/60/10 7/21/10
usemtl IceMainMat
f 18/1/11 19/24/11 17/3/11
f 19/24/12 22/25/12 21/26/12
f 22/25/13 23/27/13 21/26/13
f 24/28/14 25/29/14 23/27/14
f 25/29/15 28/30/15 27/31/15
f 18/32/7 28/33/7 24/34/7
f 28/30/16 29/35/16 27/31/16
f 29/35/17 18/36/17 17/37/17
f 19/38/10 23/39/10 27/40/10
f 18/1/46 20/64/46 19/24/46
f 19/24/47 20/64/47 22/25/47
f 22/25/48 24/28/48 23/27/48
f 24/28/49 26/65/49 25/29/49
f 25/29/50 26/65/50 28/30/50
f 22/66/7 20/67/7 18/32/7
f 18/32/7 30/68/7 28/33/7
f 28/33/7 26/69/7 24/34/7
f 24/34/7 22/66/7 18/32/7
f 28/30/51 30/70/51 29/35/51
f 29/35/52 30/70/52 18/36/52
f 29/71/10 17/59/10 19/38/10
f 19/38/10 21/72/10 23/39/10
f 23/39/10 25/73/10 27/40/10
f 27/40/10 29/71/10 19/38/10
usemtl IceShardMat
f 31/3/18 34/41/18 33/42/18
f 34/41/19 35/43/19 33/42/19
f 36/44/20 37/45/20 35/43/20
f 32/32/21 38/46/21 36/47/21
f 37/45/22 40/48/22 39/49/22
f 39/49/23 32/36/23 31/37/23
f 33/50/24 37/51/24 39/52/24
f 42/1/25 43/42/25 41/3/25
f 43/42/26 46/44/26 45/43/26
f 46/44/27 47/45/27 45/43/27
f 42/32/28 48/46/28 46/47/28
f 47/45/29 50/48/29 49/49/29
f 50/48/30 41/37/30 49/49/30
f 43/50/31 47/51/31 49/52/31
f 52/1/32 53/42/32 51/3/32
f 54/41/33 55/43/33 53/42/33
f 56/44/34 57/45/34 55/43/34
f 52/32/35 58/46/35 56/47/35
f 58/53/36 59/49/36 57/45/36
f 60/48/37 51/37/37 59/49/37
f 53/50/38 57/51/38 59/52/38
f 61/3/39 64/41/39 63/42/39
f 64/41/40 65/43/40 63/42/40
f 66/44/41 67/45/41 65/43/41
f 62/32/42 68/46/42 66/47/42
f 68/53/43 69/49/43 67/45/43
f 70/48/44 61/37/44 69/49/44
f 63/50/45 67/51/45 69/52/45
f 31/3/18 32/1/18 34/41/18
f 34/41/19 36/44/19 35/43/19
f 36/44/20 38/53/20 37/45/20
f 36/47/21 34/74/21 32/32/21
f 32/32/53 40/75/53 38/46/53
f 37/45/22 38/53/22 40/48/22
f 39/49/23 40/48/23 32/36/23
f 39/52/24 31/59/24 33/50/24
f 33/50/24 35/76/24 37/51/24
f 42/1/25 44/41/25 43/42/25
f 43/42/26 44/41/26 46/44/26
f 46/44/27 48/53/27 47/45/27
f 46/47/28 44/74/28 42/32/28
f 42/32/28 50/75/28 48/46/28
f 47/45/29 48/53/29 50/48/29
f 50/48/30 42/36/30 41/37/30
f 49/52/31 41/59/31 43/50/31
f 43/50/31 45/76/31 47/51/31
f 52/1/32 54/41/32 53/42/32
f 54/41/33 56/44/33 55/43/33
f 56/44/34 58/53/34 57/45/34
f 56/47/54 54/74/54 52/32/54
f 52/32/35 60/75/35 58/46/35
f 58/53/36 60/48/36 59/49/36
f 60/48/37 52/36/37 51/37/37
f 59/52/38 51/59/38 53/50/38
f 53/50/38 55/76/38 57/51/38
f 61/3/39 62/1/39 64/41/39
f 64/41/40 66/44/40 65/43/40
f 66/44/41 68/53/41 67/45/41
f 66/47/42 64/74/42 62/32/42
f 62/32/42 70/75/42 68/46/42
f 68/53/43 70/48/43 69/49/43
f 70/48/44 62/36/44 61/37/44
f 69/52/45 61/59/45 63/50/45
f 63/50/45 65/76/45 67/51/45
