# Blender 4.0.2
# www.blender.org
mtllib laser_base.mtl
o LaserBase
v 0.000000 0.000000 -0.500000
v 0.000000 0.450000 -0.500000
v 0.191342 0.000000 -0.461940
v 0.191342 0.450000 -0.461940
v 0.353553 0.000000 -0.353553
v 0.353553 0.450000 -0.353553
v 0.461940 0.000000 -0.191342
v 0.461940 0.450000 -0.191342
v 0.500000 0.000000 0.000000
v 0.500000 0.450000 0.000000
v 0.461940 0.000000 0.191342
v 0.461940 0.450000 0.191342
v 0.353553 0.000000 0.353553
v 0.353553 0.450000 0.353553
v 0.191342 0.000000 0.461940
v 0.191342 0.450000 0.461940
v 0.000000 0.000000 0.500000
v 0.000000 0.450000 0.500000
v -0.191342 0.000000 0.461940
v -0.191342 0.450000 0.461940
v -0.353553 0.000000 0.353553
v -0.353553 0.450000 0.353553
v -0.461940 0.000000 0.191342
v -0.461940 0.450000 0.191342
v -0.500000 0.000000 0.000000
v -0.500000 0.450000 0.000000
v -0.461940 0.000000 -0.191342
v -0.461940 0.450000 -0.191342
v -0.353553 0.000000 -0.353553
v -0.353553 0.450000 -0.353553
v -0.191342 0.000000 -0.461940
v -0.191342 0.450000 -0.461940
v 0.000000 0.090000 -0.505000
v 0.000000 0.110000 -0.505000
v 0.193255 0.090000 -0.466559
v 0.193255 0.110000 -0.466559
v 0.357089 0.090000 -0.357089
v 0.357089 0.110000 -0.357089
v 0.466559 0.090000 -0.193255
v 0.466559 0.110000 -0.193255
v 0.505000 0.090000 0.000000
v 0.505000 0.110000 0.000000
v 0.466559 0.090000 0.193255
v 0.466559 0.110000 0.193255
v 0.357089 0.090000 0.357089
v 0.357089 0.110000 0.357089
v 0.193255 0.090000 0.466559
v 0.193255 0.110000 0.466559
v 0.000000 0.090000 0.505000
v 0.000000 0.110000 0.505000
v -0.193255 0.090000 0.466559
v -0.193255 0.110000 0.466559
v -0.357089 0.090000 0.357089
v -0.357089 0.110000 0.357089
v -0.466559 0.090000 0.193255
v -0.466559 0.110000 0.193255
v -0.505000 0.090000 0.000000
v -0.505000 0.110000 0.000000
v -0.466559 0.090000 -0.193255
v -0.466559 0.110000 -0.193255
v -0.357089 0.090000 -0.357089
v -0.357089 0.110000 -0.357089
v -0.193255 0.090000 -0.466559
v -0.193255 0.110000 -0.466559
v 0.000000 0.240000 -0.505000
v 0.000000 0.260000 -0.505000
v 0.193255 0.240000 -0.466559
v 0.193255 0.260000 -0.466559
v 0.357089 0.240000 -0.357089
v 0.357089 0.260000 -0.357089
v 0.466559 0.240000 -0.193255
v 0.466559 0.260000 -0.193255
v 0.505000 0.240000 0.000000
v 0.505000 0.260000 0.000000
v 0.466559 0.240000 0.193255
v 0.466559 0.260000 0.193255
v 0.357089 0.240000 0.357089
v 0.357089 0.260000 0.357089
v 0.193255 0.240000 0.466559
v 0.193255 0.260000 0.466559
v 0.000000 0.240000 0.505000
v 0.000000 0.260000 0.505000
v -0.193255 0.240000 0.466559
v -0.193255 0.260000 0.466559
v -0.357089 0.240000 0.357089
v -0.357089 0.260000 0.357089
v -0.466559 0.240000 0.193255
v -0.466559 0.260000 0.193255
v -0.505000 0.240000 0.000000
v -0.505000 0.260000 0.000000
v -0.466559 0.240000 -0.193255
v -0.466559 0.260000 -0.193255
v -0.357089 0.240000 -0.357089
v -0.357089 0.260000 -0.357089
v -0.193255 0.240000 -0.466559
v -0.193255 0.260000 -0.466559
vn 0.1951 -0.0000 -0.9808
vn 0.5556 -0.0000 -0.8315
vn 0.8315 -0.0000 -0.5556
vn 0.9808 -0.0000 -0.1951
vn 0.9808 -0.0000 0.1951
vn 0.8315 -0.0000 0.5556
vn 0.5556 -0.0000 0.8315
vn 0.1951 -0.0000 0.9808
vn -0.1951 -0.0000 0.9808
vn -0.5556 -0.0000 0.8315
vn -0.8315 -0.0000 0.5556
vn -0.9808 -0.0000 0.1951
vn -0.9808 -0.0000 -0.1951
vn -0.8315 -0.0000 -0.5556
vn -0.0000 1.0000 -0.0000
vn -0.5556 -0.0000 -0.8315
vn -0.1951 -0.0000 -0.9808
vn -0.0000 -1.0000 -0.0000
vt 1.000000 1.000000
vt 0.937500 0.500000
vt 1.000000 0.500000
vt 0.937500 1.000000
vt 0.875000 0.500000
vt 0.875000 1.000000
vt 0.812500 0.500000
vt 0.812500 1.000000
vt 0.750000 0.500000
vt 0.750000 1.000000
vt 0.687500 0.500000
vt 0.687500 1.000000
vt 0.625000 0.500000
vt 0.625000 1.000000
vt 0.562500 0.500000
vt 0.562500 1.000000
vt 0.500000 0.500000
vt 0.500000 1.000000
vt 0.437500 0.500000
vt 0.437500 1.000000
vt 0.375000 0.500000
vt 0.375000 1.000000
vt 0.312500 0.500000
vt 0.312500 1.000000
vt 0.250000 0.500000
vt 0.250000 1.000000
vt 0.187500 0.500000
vt 0.187500 1.000000
vt 0.125000 0.500000
vt 0.080294 0.080294
vt 0.419706 0.080294
vt 0.419706 0.419706
vt 0.125000 1.000000
vt 0.062500 0.500000
vt 0.062500 1.000000
vt 0.000000 0.500000
vt 0.841844 0.028269
vt 0.528269 0.158156
vt 0.658156 0.471731
vt 0.080294 0.080294
vt 0.419706 0.080294
vt 0.341844 0.471731
vt 0.250000 0.490000
vt 0.158156 0.471731
vt 0.080294 0.419706
vt 0.028269 0.341844
vt 0.010000 0.250000
vt 0.028269 0.158156
vt 0.158156 0.028269
vt 0.250000 0.010000
vt 0.341844 0.028269
vt 0.471731 0.158156
vt 0.490000 0.250000
vt 0.471731 0.341844
vt 0.000000 1.000000
vt 0.750000 0.490000
vt 0.841844 0.471731
vt 0.919706 0.419706
vt 0.971731 0.341844
vt 0.990000 0.250000
vt 0.971731 0.158156
vt 0.919706 0.080294
vt 0.750000 0.010000
vt 0.658156 0.028269
vt 0.580294 0.080294
vt 0.510000 0.250000
vt 0.528269 0.341844
vt 0.580294 0.419706
vt 0.080294 0.419706
vt 0.919706 0.080294
vt 0.580294 0.080294
s 0
usemtl LaserBody
f 2/1/1 3/2/1 1/3/1
f 4/4/2 5/5/2 3/2/2
f 6/6/3 7/7/3 5/5/3
f 8/8/4 9/9/4 7/7/4
f 10/10/5 11/11/5 9/9/5
f 12/12/6 13/13/6 11/11/6
f 14/14/7 15/15/7 13/13/7
f 16/16/8 17/17/8 15/15/8
f 18/18/9 19/19/9 17/17/9
f 20/20/10 21/21/10 19/19/10
f 22/22/11 23/23/11 21/21/11
f 24/24/12 25/25/12 23/23/12
f 26/26/13 27/27/13 25/25/13
f 28/28/14 29/29/14 27/27/14
f 22/30/15 14/31/15 6/32/15
f 30/33/16 31/34/16 29/29/16
f 32/35/17 1/36/17 31/34/17
f 15/37/18 23/38/18 31/39/18
f 2/1/1 4/4/1 3/2/1
f 4/4/2 6/6/2 5/5/2
f 6/6/3 8/8/3 7/7/3
f 8/8/4 10/10/4 9/9/4
f 10/10/5 12/12/5 11/11/5
f 12/12/6 14/14/6 13/13/6
f 14/14/7 16/16/7 15/15/7
f 16/16/8 18/18/8 17/17/8
f 18/18/9 20/20/9 19/19/9
f 20/20/10 22/22/10 21/21/10
f 22/22/11 24/24/11 23/23/11
f 24/24/12 26/26/12 25/25/12
f 26/26/13 28/28/13 27/27/13
f 28/28/14 30/33/14 29/29/14
f 6/32/15 4/42/15 2/43/15
f 2/43/15 32/44/15 30/45/15
f 30/45/15 28/46/15 26/47/15
f 26/47/15 24/48/15 22/30/15
f 22/30/15 20/49/15 18/50/15
f 18/50/15 16/51/15 14/31/15
f 14/31/15 12/52/15 10/53/15
f 10/53/15 8/54/15 6/32/15
f 6/32/15 2/43/15 30/45/15
f 30/45/15 26/47/15 22/30/15
f 22/30/15 18/50/15 14/31/15
f 14/31/15 10/53/15 6/32/15
f 6/32/15 30/45/15 22/30/15
f 30/33/16 32/35/16 31/34/16
f 32/35/17 2/55/17 1/36/17
f 31/39/18 1/56/18 3/57/18
f 3/57/18 5/58/18 7/59/18
f 7/59/18 9/60/18 11/61/18
f 11/61/18 13/62/18 15/37/18
f 15/37/18 17/63/18 19/64/18
f 19/64/18 21/65/18 23/38/18
f 23/38/18 25/66/18 27/67/18
f 27/67/18 29/68/18 31/39/18
f 31/39/18 3/57/18 7/59/18
f 7/59/18 11/61/18 15/37/18
f 15/37/18 19/64/18 23/38/18
f 23/38/18 27/67/18 31/39/18
f 31/39/18 7/59/18 15/37/18
usemtl LaserDark
f 34/1/1 35/2/1 33/3/1
f 36/4/2 37/5/2 35/2/2
f 38/6/3 39/7/3 37/5/3
f 40/8/4 41/9/4 39/7/4
f 42/10/5 43/11/5 41/9/5
f 44/12/6 45/13/6 43/11/6
f 46/14/7 47/15/7 45/13/7
f 48/16/8 49/17/8 47/15/8
f 50/18/9 51/19/9 49/17/9
f 52/20/10 53/21/10 51/19/10
f 54/22/11 55/23/11 53/21/11
f 56/24/12 57/25/12 55/23/12
f 58/26/13 59/27/13 57/25/13
f 60/28/14 61/29/14 59/27/14
f 54/40/15 46/41/15 38/32/15
f 62/33/16 63/34/16 61/29/16
f 64/35/17 33/36/17 63/34/17
f 47/37/18 55/38/18 63/39/18
f 66/1/1 67/2/1 65/3/1
f 68/4/2 69/5/2 67/2/2
f 70/6/3 71/7/3 69/5/3
f 72/8/4 73/9/4 71/7/4
f 74/10/5 75/11/5 73/9/5
f 76/12/6 77/13/6 75/11/6
f 78/14/7 79/15/7 77/13/7
f 80/16/8 81/17/8 79/15/8
f 82/18/9 83/19/9 81/17/9
f 84/20/10 85/21/10 83/19/10
f 86/22/11 87/23/11 85/21/11
f 88/24/12 89/25/12 87/23/12
f 90/26/13 91/27/13 89/25/13
f 92/28/14 93/29/14 91/27/14
f 86/40/15 78/41/15 70/32/15
f 94/33/16 95/34/16 93/29/16
f 96/35/17 65/36/17 95/34/17
f 79/37/18 87/38/18 95/39/18
f 34/1/1 36/4/1 35/2/1
f 36/4/2 38/6/2 37/5/2
f 38/6/3 40/8/3 39/7/3
f 40/8/4 42/10/4 41/9/4
f 42/10/5 44/12/5 43/11/5
f 44/12/6 46/14/6 45/13/6
f 46/14/7 48/16/7 47/15/7
f 48/16/8 50/18/8 49/17/8
f 50/18/9 52/20/9 51/19/9
f 52/20/10 54/22/10 53/21/10
f 54/22/11 56/24/11 55/23/11
f 56/24/12 58/26/12 57/25/12
f 58/26/13 60/28/13 59/27/13
f 60/28/14 62/33/14 61/29/14
f 38/32/15 36/42/15 34/43/15
f 34/43/15 64/44/15 62/69/15
f 62/69/15 60/46/15 58/47/15
f 58/47/15 56/48/15 54/40/15
f 54/40/15 52/49/15 50/50/15
f 50/50/15 48/51/15 46/41/15
f 46/41/15 44/52/15 42/53/15
f 42/53/15 40/54/15 38/32/15
f 38/32/15 34/43/15 62/69/15
f 62/69/15 58/47/15 54/40/15
f 54/40/15 50/50/15 46/41/15
f 46/41/15 42/53/15 38/32/15
f 38/32/15 62/69/15 54/40/15
f 62/33/16 64/35/16 63/34/16
f 64/35/17 34/55/17 33/36/17
f 63/39/18 33/56/18 35/57/18
f 35/57/18 37/58/18 39/59/18
f 39/59/18 41/60/18 43/61/18
f 43/61/18 45/70/18 47/37/18
f 47/37/18 49/63/18 51/64/18
f 51/64/18 53/71/18 55/38/18
f 55/38/18 57/66/18 59/67/18
f 59/67/18 61/68/18 63/39/18
f 63/39/18 35/57/18 39/59/18
f 39/59/18 43/61/18 47/37/18
f 47/37/18 51/64/18 55/38/18
f 55/38/18 59/67/18 63/39/18
f 63/39/18 39/59/18 47/37/18
f 66/1/1 68/4/1 67/2/1
f 68/4/2 70/6/2 69/5/2
f 70/6/3 72/8/3 71/7/3
f 72/8/4 74/10/4 73/9/4
f 74/10/5 76/12/5 75/11/5
f 76/12/6 78/14/6 77/13/6
f 78/14/7 80/16/7 79/15/7
f 80/16/8 82/18/8 81/17/8
f 82/18/9 84/20/9 83/19/9
f 84/20/10 86/22/10 85/21/10
f 86/22/11 88/24/11 87/23/11
f 88/24/12 90/26/12 89/25/12
f 90/26/13 92/28/13 91/27/13
f 92/28/14 94/33/14 93/29/14
f 70/32/15 68/42/15 66/43/15
f 66/43/15 96/44/15 94/69/15
f 94/69/15 92/46/15 90/47/15
f 90/47/15 88/48/15 86/40/15
f 86/40/15 84/49/15 82/50/15
f 82/50/15 80/51/15 78/41/15
f 78/41/15 76/52/15 74/53/15
f 74/53/15 72/54/15 70/32/15
f 70/32/15 66/43/15 94/69/15
f 94/69/15 90/47/15 86/40/15
f 86/40/15 82/50/15 78/41/15
f 78/41/15 74/53/15 70/32/15
f 70/32/15 94/69/15 86/40/15
f 94/33/16 96/35/16 95/34/16
f 96/35/17 66/55/17 65/36/17
f 95/39/18 65/56/18 67/57/18
f 67/57/18 69/58/18 71/59/18
f 71/59/18 73/60/18 75/61/18
f 75/61/18 77/70/18 79/37/18
f 79/37/18 81/63/18 83/64/18
f 83/64/18 85/71/18 87/38/18
f 87/38/18 89/66/18 91/67/18
f 91/67/18 93/68/18 95/39/18
f 95/39/18 67/57/18 71/59/18
f 71/59/18 75/61/18 79/37/18
f 79/37/18 83/64/18 87/38/18
f 87/38/18 91/67/18 95/39/18
f 95/39/18 71/59/18 79/37/18
