# Blender 4.0.2
# www.blender.org
mtllib laser_turret.mtl
o LaserTurret
v 0.000000 0.000000 -0.220000
v 0.000000 0.240000 -0.220000
v 0.084190 0.000000 -0.203253
v 0.084190 0.240000 -0.203253
v 0.155563 0.000000 -0.155563
v 0.155563 0.240000 -0.155563
v 0.203253 0.000000 -0.084190
v 0.203253 0.240000 -0.084190
v 0.220000 0.000000 0.000000
v 0.220000 0.240000 0.000000
v 0.203253 0.000000 0.084190
v 0.203253 0.240000 0.084190
v 0.155563 0.000000 0.155563
v 0.155563 0.240000 0.155563
v 0.084190 0.000000 0.203253
v 0.084190 0.240000 0.203253
v 0.000000 0.000000 0.220000
v 0.000000 0.240000 0.220000
v -0.084190 0.000000 0.203253
v -0.084190 0.240000 0.203253
v -0.155563 0.000000 0.155563
v -0.155563 0.240000 0.155563
v -0.203253 0.000000 0.084190
v -0.203253 0.240000 0.084190
v -0.220000 0.000000 0.000000
v -0.220000 0.240000 0.000000
v -0.203253 0.000000 -0.084190
v -0.203253 0.240000 -0.084190
v -0.155563 0.000000 -0.155563
v -0.155563 0.240000 -0.155563
v -0.084190 0.000000 -0.203253
v -0.084190 0.240000 -0.203253
v 0.040000 0.130000 -0.150000
v 0.360000 0.130000 -0.150000
v 0.040000 0.072597 -0.138582
v 0.360000 0.072597 -0.138582
v 0.040000 0.023934 -0.106066
v 0.360000 0.023934 -0.106066
v 0.040000 -0.008582 -0.057403
v 0.360000 -0.008582 -0.057403
v 0.040000 -0.020000 0.000000
v 0.360000 -0.020000 0.000000
v 0.040000 -0.008582 0.057403
v 0.360000 -0.008582 0.057403
v 0.040000 0.023934 0.106066
v 0.360000 0.023934 0.106066
v 0.040000 0.072597 0.138582
v 0.360000 0.072597 0.138582
v 0.040000 0.130000 0.150000
v 0.360000 0.130000 0.150000
v 0.040000 0.187403 0.138582
v 0.360000 0.187403 0.138582
v 0.040000 0.236066 0.106066
v 0.360000 0.236066 0.106066
v 0.040000 0.268582 0.057403
v 0.360000 0.268582 0.057403
v 0.040000 0.280000 0.000000
v 0.360000 0.280000 0.000000
v 0.040000 0.268582 -0.057403
v 0.360000 0.268582 -0.057403
v 0.040000 0.236066 -0.106066
v 0.360000 0.236066 -0.106066
v 0.040000 0.187403 -0.138582
v 0.360000 0.187403 -0.138582
v 0.087500 0.130000 -0.155000
v 0.112500 0.130000 -0.155000
v 0.087500 0.070684 -0.143201
v 0.112500 0.070684 -0.143201
v 0.087500 0.020398 -0.109602
v 0.112500 0.020398 -0.109602
v 0.087500 -0.013201 -0.059316
v 0.112500 -0.013201 -0.059316
v 0.087500 -0.025000 0.000000
v 0.112500 -0.025000 0.000000
v 0.087500 -0.013201 0.059316
v 0.112500 -0.013201 0.059316
v 0.087500 0.020398 0.109602
v 0.112500 0.020398 0.109602
v 0.087500 0.070684 0.143201
v 0.112500 0.070684 0.143201
v 0.087500 0.130000 0.155000
v 0.112500 0.130000 0.155000
v 0.087500 0.189316 0.143201
v 0.112500 0.189316 0.143201
v 0.087500 0.239602 0.109602
v 0.112500 0.239602 0.109602
v 0.087500 0.273201 0.059316
v 0.112500 0.273201 0.059316
v 0.087500 0.285000 0.000000
v 0.112500 0.285000 0.000000
v 0.087500 0.273201 -0.059316
v 0.112500 0.273201 -0.059316
v 0.087500 0.239602 -0.109602
v 0.112500 0.239602 -0.109602
v 0.087500 0.189316 -0.143201
v 0.112500 0.189316 -0.143201
v 0.187500 0.130000 -0.155000
v 0.212500 0.130000 -0.155000
v 0.187500 0.070684 -0.143201
v 0.212500 0.070684 -0.143201
v 0.187500 0.020398 -0.109602
v 0.212500 0.020398 -0.109602
v 0.187500 -0.013201 -0.059316
v 0.212500 -0.013201 -0.059316
v 0.187500 -0.025000 0.000000
v 0.212500 -0.025000 0.000000
v 0.187500 -0.013201 0.059316
v 0.212500 -0.013201 0.059316
v 0.187500 0.020398 0.109602
v 0.212500 0.020398 0.109602
v 0.187500 0.070684 0.143201
v 0.212500 0.070684 0.143201
v 0.187500 0.130000 0.155000
v 0.212500 0.130000 0.155000
v 0.187500 0.189316 0.143201
v 0.212500 0.189316 0.143201
v 0.187500 0.239602 0.109602
v 0.212500 0.239602 0.109602
v 0.187500 0.273201 0.059316
v 0.212500 0.273201 0.059316
v 0.187500 0.285000 0.000000
v 0.212500 0.285000 0.000000
v 0.187500 0.273201 -0.059316
v 0.212500 0.273201 -0.059316
v 0.187500 0.239602 -0.109602
v 0.212500 0.239602 -0.109602
v 0.187500 0.189316 -0.143201
v 0.212500 0.189316 -0.143201
v 0.287500 0.130000 -0.155000
v 0.312500 0.130000 -0.155000
v 0.287500 0.070684 -0.143201
v 0.312500 0.070684 -0.143201
v 0.287500 0.020398 -0.109602
v 0.312500 0.020398 -0.109602
v 0.287500 -0.013201 -0.059316
v 0.312500 -0.013201 -0.059316
v 0.287500 -0.025000 0.000000
v 0.312500 -0.025000 0.000000
v 0.287500 -0.013201 0.059316
v 0.312500 -0.013201 0.059316
v 0.287500 0.020398 0.109602
v 0.312500 0.020398 0.109602
v 0.287500 0.070684 0.143201
v 0.312500 0.070684 0.143201
v 0.287500 0.130000 0.155000
v 0.312500 0.130000 0.155000
v 0.287500 0.189316 0.143201
v 0.312500 0.189316 0.143201
v 0.287500 0.239602 0.109602
v 0.312500 0.239602 0.109602
v 0.287500 0.273201 0.059316
v 0.312500 0.273201 0.059316
v 0.287500 0.285000 0.000000
v 0.312500 0.285000 0.000000
v 0.287500 0.273201 -0.059316
v 0.312500 0.273201 -0.059316
v 0.287500 0.239602 -0.109602
v 0.312500 0.239602 -0.109602
v 0.287500 0.189316 -0.143201
v 0.312500 0.189316 -0.143201
vn 0.1951 -0.0000 -0.9808
vn 0.5556 -0.0000 -0.8315
vn 0.8315 -0.0000 -0.5556
vn 0.9808 -0.0000 -0.1951
vn 0.9808 -0.0000 0.1951
vn 0.8315 -0.0000 0.5556
vn 0.5556 -0.0000 0.8315
vn 0.1951 -0.0000 0.9808
vn -0.1951 -0.0000 0.9808
vn -0.5556 -0.0000 0.8315
vn -0.8315 -0.0000 0.5556
vn -0.9808 -0.0000 0.1951
vn -0.9808 -0.0000 -0.1951
vn -0.8315 -0.0000 -0.5556
vn -0.0000 1.0000 -0.0000
vn -0.5556 -0.0000 -0.8315
vn -0.1951 -0.0000 -0.9808
vn -0.0000 -1.0000 -0.0000
vn -0.0000 -0.1951 -0.9808
vn -0.0000 -0.5556 -0.8315
vn -0.0000 -0.8315 -0.5556
vn -0.0000 -0.9808 -0.1951
vn -0.0000 -0.9808 0.1951
vn -0.0000 -0.8315 0.5556
vn -0.0000 -0.5556 0.8315
vn -0.0000 -0.1951 0.9808
vn -0.0000 0.1951 0.9808
vn -0.0000 0.5556 0.8315
vn -0.0000 0.8315 0.5556
vn -0.0000 0.9808 0.1951
vn -0.0000 0.9808 -0.1951
vn -0.0000 0.8315 -0.5556
vn 1.0000 -0.0000 -0.0000
vn -0.0000 0.5556 -0.8315
vn -0.0000 0.1951 -0.9808
vn -1.0000 -0.0000 -0.0000
vt 1.000000 1.000000
vt 0.937500 0.500000
vt 1.000000 0.500000
vt 0.937500 1.000000
vt 0.875000 0.500000
vt 0.875000 1.000000
vt 0.812500 0.500000
vt 0.812500 1.000000
vt 0.750000 0.500000
vt 0.750000 1.000000
vt 0.687500 0.500000
vt 0.687500 1.000000
vt 0.625000 0.500000
vt 0.625000 1.000000
vt 0.562500 0.500000
vt 0.562500 1.000000
vt 0.500000 0.500000
vt 0.500000 1.000000
vt 0.437500 0.500000
vt 0.437500 1.000000
vt 0.375000 0.500000
vt 0.375000 1.000000
vt 0.312500 0.500000
vt 0.312500 1.000000
vt 0.250000 0.500000
vt 0.250000 1.000000
vt 0.187500 0.500000
vt 0.187500 1.000000
vt 0.125000 0.500000
vt 0.080294 0.080294
vt 0.419706 0.080294
vt 0.419706 0.419706
vt 0.125000 1.000000
vt 0.062500 0.500000
vt 0.062500 1.000000
vt 0.000000 0.500000
vt 0.841844 0.028269
vt 0.528269 0.158156
vt 0.658156 0.471731
vt 0.080294 0.080294
vt 0.419706 0.080294
vt 0.841844 0.028269
vt 0.658156 0.471731
vt 0.841844 0.028269
vt 0.341844 0.471731
vt 0.250000 0.490000
vt 0.158156 0.471731
vt 0.080294 0.419706
vt 0.028269 0.341844
vt 0.010000 0.250000
vt 0.028269 0.158156
vt 0.158156 0.028269
vt 0.250000 0.010000
vt 0.341844 0.028269
vt 0.471731 0.158156
vt 0.490000 0.250000
vt 0.471731 0.341844
vt 0.000000 1.000000
vt 0.750000 0.490000
vt 0.841844 0.471731
vt 0.919706 0.419706
vt 0.971731 0.341844
vt 0.990000 0.250000
vt 0.971731 0.158156
vt 0.919706 0.080294
vt 0.750000 0.010000
vt 0.658156 0.028269
vt 0.580294 0.080294
vt 0.510000 0.250000
vt 0.528269 0.341844
vt 0.580294 0.419706
vt 0.341844 0.471731
vt 0.158156 0.471731
vt 0.080294 0.419706
vt 0.028269 0.341844
vt 0.010000 0.250000
vt 0.028269 0.158156
vt 0.158156 0.028269
vt 0.250000 0.010000
vt 0.341844 0.028269
vt 0.471731 0.158156
vt 0.471731 0.341844
vt 0.841844 0.471731
vt 0.919706 0.080294
vt 0.750000 0.010000
vt 0.658156 0.028269
vt 0.580294 0.080294
vt 0.028269 0.341844
vt 0.028269 0.158156
vt 0.158156 0.028269
vt 0.341844 0.028269
vt 0.658156 0.028269
s 0
usemtl LaserBody
f 2/1/1 3/2/1 1/3/1
f 4/4/2 5/5/2 3/2/2
f 6/6/3 7/7/3 5/5/3
f 8/8/4 9/9/4 7/7/4
f 10/10/5 11/11/5 9/9/5
f 12/12/6 13/13/6 11/11/6
f 14/14/7 15/15/7 13/13/7
f 16/16/8 17/17/8 15/15/8
f 18/18/9 19/19/9 17/17/9
f 20/20/10 21/21/10 19/19/10
f 22/22/11 23/23/11 21/21/11
f 24/24/12 25/25/12 23/23/12
f 26/26/13 27/27/13 25/25/13
f 28/28/14 29/29/14 27/27/14
f 22/30/15 14/31/15 6/32/15
f 30/33/16 31/34/16 29/29/16
f 32/35/17 1/36/17 31/34/17
f 15/37/18 23/38/18 31/39/18
f 34/1/19 35/2/19 33/3/19
f 36/4/20 37/5/20 35/2/20
f 38/6/21 39/7/21 37/5/21
f 40/8/22 41/9/22 39/7/22
f 42/10/23 43/11/23 41/9/23
f 44/12/24 45/13/24 43/11/24
f 45/13/25 48/16/25 47/15/25
f 47/15/26 50/18/26 49/17/26
f 49/17/27 52/20/27 51/19/27
f 52/20/28 53/21/28 51/19/28
f 53/21/29 56/24/29 55/23/29
f 56/24/30 57/25/30 55/23/30
f 58/26/31 59/27/31 57/25/31
f 60/28/32 61/29/32 59/27/32
f 54/40/33 46/41/33 38/32/33
f 62/33/34 63/34/34 61/29/34
f 64/35/35 33/36/35 63/34/35
f 47/42/36 55/38/36 63/43/36
f 2/1/1 4/4/1 3/2/1
f 4/4/2 6/6/2 5/5/2
f 6/6/3 8/8/3 7/7/3
f 8/8/4 10/10/4 9/9/4
f 10/10/5 12/12/5 11/11/5
f 12/12/6 14/14/6 13/13/6
f 14/14/7 16/16/7 15/15/7
f 16/16/8 18/18/8 17/17/8
f 18/18/9 20/20/9 19/19/9
f 20/20/10 22/22/10 21/21/10
f 22/22/11 24/24/11 23/23/11
f 24/24/12 26/26/12 25/25/12
f 26/26/13 28/28/13 27/27/13
f 28/28/14 30/33/14 29/29/14
f 6/32/15 4/45/15 2/46/15
f 2/46/15 32/47/15 30/48/15
f 30/48/15 28/49/15 26/50/15
f 26/50/15 24/51/15 22/30/15
f 22/30/15 20/52/15 18/53/15
f 18/53/15 16/54/15 14/31/15
f 14/31/15 12/55/15 10/56/15
f 10/56/15 8/57/15 6/32/15
f 6/32/15 2/46/15 30/48/15
f 30/48/15 26/50/15 22/30/15
f 22/30/15 18/53/15 14/31/15
f 14/31/15 10/56/15 6/32/15
f 6/32/15 30/48/15 22/30/15
f 30/33/16 32/35/16 31/34/16
f 32/35/17 2/58/17 1/36/17
f 31/39/18 1/59/18 3/60/18
f 3/60/18 5/61/18 7/62/18
f 7/62/18 9/63/18 11/64/18
f 11/64/18 13/65/18 15/37/18
f 15/37/18 17/66/18 19/67/18
f 19/67/18 21/68/18 23/38/18
f 23/38/18 25/69/18 27/70/18
f 27/70/18 29/71/18 31/39/18
f 31/39/18 3/60/18 7/62/18
f 7/62/18 11/64/18 15/37/18
f 15/37/18 19/67/18 23/38/18
f 23/38/18 27/70/18 31/39/18
f 31/39/18 7/62/18 15/37/18
f 34/1/19 36/4/19 35/2/19
f 36/4/20 38/6/20 37/5/20
f 38/6/21 40/8/21 39/7/21
f 40/8/22 42/10/22 41/9/22
f 42/10/23 44/12/23 43/11/23
f 44/12/24 46/14/24 45/13/24
f 45/13/25 46/14/25 48/16/25
f 47/15/26 48/16/26 50/18/26
f 49/17/27 50/18/27 52/20/27
f 52/20/28 54/22/28 53/21/28
f 53/21/29 54/22/29 56/24/29
f 56/24/30 58/26/30 57/25/30
f 58/26/31 60/28/31 59/27/31
f 60/28/32 62/33/32 61/29/32
f 38/32/33 36/72/33 34/46/33
f 34/46/33 64/73/33 62/74/33
f 62/74/33 60/75/33 58/76/33
f 58/76/33 56/77/33 54/40/33
f 54/40/33 52/78/33 50/79/33
f 50/79/33 48/80/33 46/41/33
f 46/41/33 44/81/33 42/56/33
f 42/56/33 40/82/33 38/32/33
f 38/32/33 34/46/33 62/74/33
f 62/74/33 58/76/33 54/40/33
f 54/40/33 50/79/33 46/41/33
f 46/41/33 42/56/33 38/32/33
f 38/32/33 62/74/33 54/40/33
f 62/33/34 64/35/34 63/34/34
f 64/35/35 34/58/35 33/36/35
f 63/43/36 33/59/36 35/83/36
f 35/83/36 37/61/36 39/62/36
f 39/62/36 41/63/36 43/64/36
f 43/64/36 45/84/36 47/42/36
f 47/42/36 49/85/36 51/86/36
f 51/86/36 53/87/36 55/38/36
f 55/38/36 57/69/36 59/70/36
f 59/70/36 61/71/36 63/43/36
f 63/43/36 35/83/36 39/62/36
f 39/62/36 43/64/36 47/42/36
f 47/42/36 51/86/36 55/38/36
f 55/38/36 59/70/36 63/43/36
f 63/43/36 39/62/36 47/42/36
usemtl LaserDark
f 66/1/19 67/2/19 65/3/19
f 68/4/20 69/5/20 67/2/20
f 69/5/21 72/8/21 71/7/21
f 72/8/22 73/9/22 71/7/22
f 74/10/23 75/11/23 73/9/23
f 76/12/24 77/13/24 75/11/24
f 78/14/25 79/15/25 77/13/25
f 80/16/26 81/17/26 79/15/26
f 82/18/27 83/19/27 81/17/27
f 84/20/28 85/21/28 83/19/28
f 86/22/29 87/23/29 85/21/29
f 88/24/30 89/25/30 87/23/30
f 90/26/31 91/27/31 89/25/31
f 92/28/32 93/29/32 91/27/32
f 86/40/33 78/41/33 70/32/33
f 94/33/34 95/34/34 93/29/34
f 96/35/35 65/36/35 95/34/35
f 79/44/36 87/38/36 95/43/36
f 98/1/19 99/2/19 97/3/19
f 100/4/20 101/5/20 99/2/20
f 102/6/21 103/7/21 101/5/21
f 104/8/22 105/9/22 103/7/22
f 106/10/23 107/11/23 105/9/23
f 108/12/24 109/13/24 107/11/24
f 110/14/25 111/15/25 109/13/25
f 112/16/26 113/17/26 111/15/26
f 114/18/27 115/19/27 113/17/27
f 116/20/28 117/21/28 115/19/28
f 118/22/29 119/23/29 117/21/29
f 120/24/30 121/25/30 119/23/30
f 122/26/31 123/27/31 121/25/31
f 124/28/32 125/29/32 123/27/32
f 118/40/33 110/41/33 102/32/33
f 126/33/34 127/34/34 125/29/34
f 128/35/35 97/36/35 127/34/35
f 111/44/36 119/38/36 127/43/36
f 130/1/19 131/2/19 129/3/19
f 132/4/20 133/5/20 131/2/20
f 134/6/21 135/7/21 133/5/21
f 136/8/22 137/9/22 135/7/22
f 138/10/23 139/11/23 137/9/23
f 140/12/24 141/13/24 139/11/24
f 141/13/25 144/16/25 143/15/25
f 144/16/26 145/17/26 143/15/26
f 146/18/27 147/19/27 145/17/27
f 148/20/28 149/21/28 147/19/28
f 150/22/29 151/23/29 149/21/29
f 152/24/30 153/25/30 151/23/30
f 154/26/31 155/27/31 153/25/31
f 156/28/32 157/29/32 155/27/32
f 150/40/33 142/41/33 134/32/33
f 158/33/34 159/34/34 157/29/34
f 160/35/35 129/36/35 159/34/35
f 143/44/36 151/38/36 159/43/36
f 66/1/19 68/4/19 67/2/19
f 68/4/20 70/6/20 69/5/20
f 69/5/21 70/6/21 72/8/21
f 72/8/22 74/10/22 73/9/22
f 74/10/23 76/12/23 75/11/23
f 76/12/24 78/14/24 77/13/24
f 78/14/25 80/16/25 79/15/25
f 80/16/26 82/18/26 81/17/26
f 82/18/27 84/20/27 83/19/27
f 84/20/28 86/22/28 85/21/28
f 86/22/29 88/24/29 87/23/29
f 88/24/30 90/26/30 89/25/30
f 90/26/31 92/28/31 91/27/31
f 92/28/32 94/33/32 93/29/32
f 70/32/33 68/72/33 66/46/33
f 66/46/33 96/73/33 94/74/33
f 94/74/33 92/88/33 90/76/33
f 90/76/33 88/89/33 86/40/33
f 86/40/33 84/90/33 82/79/33
f 82/79/33 80/91/33 78/41/33
f 78/41/33 76/81/33 74/56/33
f 74/56/33 72/82/33 70/32/33
f 70/32/33 66/46/33 94/74/33
f 94/74/33 90/76/33 86/40/33
f 86/40/33 82/79/33 78/41/33
f 78/41/33 74/56/33 70/32/33
f 70/32/33 94/74/33 86/40/33
f 94/33/34 96/35/34 95/34/34
f 96/35/35 66/58/35 65/36/35
f 95/43/36 65/59/36 67/83/36
f 67/83/36 69/61/36 71/62/36
f 71/62/36 73/63/36 75/64/36
f 75/64/36 77/84/36 79/44/36
f 79/44/36 81/85/36 83/92/36
f 83/92/36 85/87/36 87/38/36
f 87/38/36 89/69/36 91/70/36
f 91/70/36 93/71/36 95/43/36
f 95/43/36 67/83/36 71/62/36
f 71/62/36 75/64/36 79/44/36
f 79/44/36 83/92/36 87/38/36
f 87/38/36 91/70/36 95/43/36
f 95/43/36 71/62/36 79/44/36
f 98/1/19 100/4/19 99/2/19
f 100/4/20 102/6/20 101/5/20
f 102/6/21 104/8/21 103/7/21
f 104/8/22 106/10/22 105/9/22
f 106/10/23 108/12/23 107/11/23
f 108/12/24 110/14/24 109/13/24
f 110/14/25 112/16/25 111/15/25
f 112/16/26 114/18/26 113/17/26
f 114/18/27 116/20/27 115/19/27
f 116/20/28 118/22/28 117/21/28
f 118/22/29 120/24/29 119/23/29
f 120/24/30 122/26/30 121/25/30
f 122/26/31 124/28/31 123/27/31
f 124/28/32 126/33/32 125/29/32
f 102/32/33 100/72/33 98/46/33
f 98/46/33 128/73/33 126/74/33
f 126/74/33 124/88/33 122/76/33
f 122/76/33 120/89/33 118/40/33
f 118/40/33 116/90/33 114/79/33
f 114/79/33 112/91/33 110/41/33
f 110/41/33 108/81/33 106/56/33
f 106/56/33 104/82/33 102/32/33
f 102/32/33 98/46/33 126/74/33
f 126/74/33 122/76/33 118/40/33
f 118/40/33 114/79/33 110/41/33
f 110/41/33 106/56/33 102/32/33
f 102/32/33 126/74/33 118/40/33
f 126/33/34 128/35/34 127/34/34
f 128/35/35 98/58/35 97/36/35
f 127/43/36 97/59/36 99/83/36
f 99/83/36 101/61/36 103/62/36
f 103/62/36 105/63/36 107/64/36
f 107/64/36 109/84/36 111/44/36
f 111/44/36 113/85/36 115/92/36
f 115/92/36 117/87/36 119/38/36
f 119/38/36 121/69/36 123/70/36
f 123/70/36 125/71/36 127/43/36
f 127/43/36 99/83/36 103/62/36
f 103/62/36 107/64/36 111/44/36
f 111/44/36 115/92/36 119/38/36
f 119/38/36 123/70/36 127/43/36
f 127/43/36 103/62/36 111/44/36
f 130/1/19 132/4/19 131/2/19
f 132/4/20 134/6/20 133/5/20
f 134/6/21 136/8/21 135/7/21
f 136/8/22 138/10/22 137/9/22
f 138/10/23 140/12/23 139/11/23
f 140/12/24 142/14/24 141/13/24
f 141/13/25 142/14/25 144/16/25
f 144/16/26 146/18/26 145/17/26
f 146/18/27 148/20/27 147/19/27
f 148/20/28 150/22/28 149/21/28
f 150/22/29 152/24/29 151/23/29
f 152/24/30 154/26/30 153/25/30
f 154/26/31 156/28/31 155/27/31
f 156/28/32 158/33/32 157/29/32
f 134/32/33 132/72/33 130/46/33
f 130/46/33 160/73/33 158/74/33
f 158/74/33 156/88/33 154/76/33
f 154/76/33 152/89/33 150/40/33
f 150/40/33 148/90/33 146/79/33
f 146/79/33 144/91/33 142/41/33
f 142/41/33 140/81/33 138/56/33
f 138/56/33 136/82/33 134/32/33
f 134/32/33 130/46/33 158/74/33
f 158/74/33 154/76/33 150/40/33
f 150/40/33 146/79/33 142/41/33
f 142/41/33 138/56/33 134/32/33
f 134/32/33 158/74/33 150/40/33
f 158/33/34 160/35/34 159/34/34
f 160/35/35 130/58/35 129/36/35
f 159/43/36 129/59/36 131/83/36
f 131/83/36 133/61/36 135/62/36
f 135/62/36 137/63/36 139/64/36
f 139/64/36 141/84/36 143/44/36
f 143/44/36 145/85/36 147/92/36
f 147/92/36 149/87/36 151/38/36
f 151/38/36 153/69/36 155/70/36
f 155/70/36 157/71/36 159/43/36
f 159/43/36 131/83/36 135/62/36
f 135/62/36 139/64/36 143/44/36
f 143/44/36 147/92/36 151/38/36
f 151/38/36 155/70/36 159/43/36
f 159/43/36 135/62/36 143/44/36
