# Blender 4.0.2
# www.blender.org
mtllib missile_base.mtl
o MissileBase
v 0.000000 0.000000 -0.500000
v 0.000000 0.400000 -0.500000
v 0.191342 0.000000 -0.461940
v 0.191342 0.400000 -0.461940
v 0.353553 0.000000 -0.353553
v 0.353553 0.400000 -0.353553
v 0.461940 0.000000 -0.191342
v 0.461940 0.400000 -0.191342
v 0.500000 0.000000 0.000000
v 0.500000 0.400000 0.000000
v 0.461940 0.000000 0.191342
v 0.461940 0.400000 0.191342
v 0.353553 0.000000 0.353553
v 0.353553 0.400000 0.353553
v 0.191342 0.000000 0.461940
v 0.191342 0.400000 0.461940
v 0.000000 0.000000 0.500000
v 0.000000 0.400000 0.500000
v -0.191342 0.000000 0.461940
v -0.191342 0.400000 0.461940
v -0.353553 0.000000 0.353553
v -0.353553 0.400000 0.353553
v -0.461940 0.000000 0.191342
v -0.461940 0.400000 0.191342
v -0.500000 0.000000 0.000000
v -0.500000 0.400000 0.000000
v -0.461940 0.000000 -0.191342
v -0.461940 0.400000 -0.191342
v -0.353553 0.000000 -0.353553
v -0.353553 0.400000 -0.353553
v -0.191342 0.000000 -0.461940
v -0.191342 0.400000 -0.461940
v 0.000000 0.370000 -0.520000
v 0.000000 0.400000 -0.520000
v 0.198995 0.370000 -0.480417
v 0.198995 0.400000 -0.480417
v 0.367696 0.370000 -0.367696
v 0.367696 0.400000 -0.367696
v 0.480417 0.370000 -0.198995
v 0.480417 0.400000 -0.198995
v 0.520000 0.370000 0.000000
v 0.520000 0.400000 0.000000
v 0.480417 0.370000 0.198995
v 0.480417 0.400000 0.198995
v 0.367696 0.370000 0.367696
v 0.367696 0.400000 0.367696
v 0.198995 0.370000 0.480417
v 0.198995 0.400000 0.480417
v 0.000000 0.370000 0.520000
v 0.000000 0.400000 0.520000
v -0.198995 0.370000 0.480417
v -0.198995 0.400000 0.480417
v -0.367696 0.370000 0.367696
v -0.367696 0.400000 0.367696
v -0.480417 0.370000 0.198995
v -0.480417 0.400000 0.198995
v -0.520000 0.370000 0.000000
v -0.520000 0.400000 0.000000
v -0.480417 0.370000 -0.198995
v -0.480417 0.400000 -0.198995
v -0.367696 0.370000 -0.367696
v -0.367696 0.400000 -0.367696
v -0.198995 0.370000 -0.480417
v -0.198995 0.400000 -0.480417
vn 0.1951 -0.0000 -0.9808
vn 0.5556 -0.0000 -0.8315
vn 0.8315 -0.0000 -0.5556
vn 0.9808 -0.0000 -0.1951
vn 0.9808 -0.0000 0.1951
vn 0.8315 -0.0000 0.5556
vn 0.5556 -0.0000 0.8315
vn 0.1951 -0.0000 0.9808
vn -0.1951 -0.0000 0.9808
vn -0.5556 -0.0000 0.8315
vn -0.8315 -0.0000 0.5556
vn -0.9808 -0.0000 0.1951
vn -0.9808 -0.0000 -0.1951
vn -0.8315 -0.0000 -0.5556
vn -0.0000 1.0000 -0.0000
vn -0.5556 -0.0000 -0.8315
vn -0.1951 -0.0000 -0.9808
vn -0.0000 -1.0000 -0.0000
vt 1.000000 1.000000
vt 0.937500 0.500000
vt 1.000000 0.500000
vt 0.937500 1.000000
vt 0.875000 0.500000
vt 0.875000 1.000000
vt 0.812500 0.500000
vt 0.812500 1.000000
vt 0.750000 0.500000
vt 0.750000 1.000000
vt 0.687500 0.500000
vt 0.687500 1.000000
vt 0.625000 0.500000
vt 0.625000 1.000000
vt 0.562500 0.500000
vt 0.562500 1.000000
vt 0.500000 0.500000
vt 0.500000 1.000000
vt 0.437500 0.500000
vt 0.437500 1.000000
vt 0.375000 0.500000
vt 0.375000 1.000000
vt 0.312500 0.500000
vt 0.312500 1.000000
vt 0.250000 0.500000
vt 0.250000 1.000000
vt 0.187500 0.500000
vt 0.187500 1.000000
vt 0.125000 0.500000
vt 0.080294 0.080294
vt 0.419706 0.080294
vt 0.419706 0.419706
vt 0.125000 1.000000
vt 0.062500 0.500000
vt 0.062500 1.000000
vt 0.000000 0.500000
vt 0.841844 0.028269
vt 0.528269 0.158156
vt 0.658156 0.471731
vt 0.841844 0.028269
vt 0.341844 0.471731
vt 0.250000 0.490000
vt 0.158156 0.471731
vt 0.080294 0.419706
vt 0.028269 0.341844
vt 0.010000 0.250000
vt 0.028269 0.158156
vt 0.158156 0.028269
vt 0.250000 0.010000
vt 0.341844 0.028269
vt 0.471731 0.158156
vt 0.490000 0.250000
vt 0.471731 0.341844
vt 0.000000 1.000000
vt 0.750000 0.490000
vt 0.841844 0.471731
vt 0.919706 0.419706
vt 0.971731 0.341844
vt 0.990000 0.250000
vt 0.971731 0.158156
vt 0.919706 0.080294
vt 0.750000 0.010000
vt 0.658156 0.028269
vt 0.580294 0.080294
vt 0.510000 0.250000
vt 0.528269 0.341844
vt 0.580294 0.419706
vt 0.028269 0.341844
vt 0.028269 0.158156
vt 0.158156 0.028269
vt 0.341844 0.028269
vt 0.658156 0.028269
s 0
usemtl MissileBody
f 2/1/1 3/2/1 1/3/1
f 4/4/2 5/5/2 3/2/2
f 6/6/3 7/7/3 5/5/3
f 8/8/4 9/9/4 7/7/4
f 10/10/5 11/11/5 9/9/5
f 12/12/6 13/13/6 11/11/6
f 14/14/7 15/15/7 13/13/7
f 16/16/8 17/17/8 15/15/8
f 18/18/9 19/19/9 17/17/9
f 20/20/10 21/21/10 19/19/10
f 22/22/11 23/23/11 21/21/11
f 24/24/12 25/25/12 23/23/12
f 26/26/13 27/27/13 25/25/13
f 28/28/14 29/29/14 27/27/14
f 22/30/15 14/31/15 6/32/15
f 30/33/16 31/34/16 29/29/16
f 32/35/17 1/36/17 31/34/17
f 15/37/18 23/38/18 31/39/18
f 2/1/1 4/4/1 3/2/1
f 4/4/2 6/6/2 5/5/2
f 6/6/3 8/8/3 7/7/3
f 8/8/4 10/10/4 9/9/4
f 10/10/5 12/12/5 11/11/5
f 12/12/6 14/14/6 13/13/6
f 14/14/7 16/16/7 15/15/7
f 16/16/8 18/18/8 17/17/8
f 18/18/9 20/20/9 19/19/9
f 20/20/10 22/22/10 21/21/10
f 22/22/11 24/24/11 23/23/11
f 24/24/12 26/26/12 25/25/12
f 26/26/13 28/28/13 27/27/13
f 28/28/14 30/33/14 29/29/14
f 6/32/15 4/41/15 2/42/15
f 2/42/15 32/43/15 30/44/15
f 30/44/15 28/45/15 26/46/15
f 26/46/15 24/47/15 22/30/15
f 22/30/15 20/48/15 18/49/15
f 18/49/15 16/50/15 14/31/15
f 14/31/15 12/51/15 10/52/15
f 10/52/15 8/53/15 6/32/15
f 6/32/15 2/42/15 30/44/15
f 30/44/15 26/46/15 22/30/15
f 22/30/15 18/49/15 14/31/15
f 14/31/15 10/52/15 6/32/15
f 6/32/15 30/44/15 22/30/15
f 30/33/16 32/35/16 31/34/16
f 32/35/17 2/54/17 1/36/17
f 31/39/18 1/55/18 3/56/18
f 3/56/18 5/57/18 7/58/18
f 7/58/18 9/59/18 11/60/18
f 11/60/18 13/61/18 15/37/18
f 15/37/18 17/62/18 19/63/18
f 19/63/18 21/64/18 23/38/18
f 23/38/18 25/65/18 27/66/18
f 27/66/18 29/67/18 31/39/18
f 31/39/18 3/56/18 7/58/18
f 7/58/18 11/60/18 15/37/18
f 15/37/18 19/63/18 23/38/18
f 23/38/18 27/66/18 31/39/18
f 31/39/18 7/58/18 15/37/18
usemtl MissileOrange
f 34/1/1 35/2/1 33/3/1
f 36/4/2 37/5/2 35/2/2
f 38/6/3 39/7/3 37/5/3
f 40/8/4 41/9/4 39/7/4
f 42/10/5 43/11/5 41/9/5
f 44/12/6 45/13/6 43/11/6
f 46/14/7 47/15/7 45/13/7
f 48/16/8 49/17/8 47/15/8
f 50/18/9 51/19/9 49/17/9
f 52/20/10 53/21/10 51/19/10
f 54/22/11 55/23/11 53/21/11
f 56/24/12 57/25/12 55/23/12
f 58/26/13 59/27/13 57/25/13
f 60/28/14 61/29/14 59/27/14
f 54/30/15 46/31/15 38/32/15
f 62/33/16 63/34/16 61/29/16
f 64/35/17 33/36/17 63/34/17
f 47/40/18 55/38/18 63/39/18
f 34/1/1 36/4/1 35/2/1
f 36/4/2 38/6/2 37/5/2
f 38/6/3 40/8/3 39/7/3
f 40/8/4 42/10/4 41/9/4
f 42/10/5 44/12/5 43/11/5
f 44/12/6 46/14/6 45/13/6
f 46/14/7 48/16/7 47/15/7
f 48/16/8 50/18/8 49/17/8
f 50/18/9 52/20/9 51/19/9
f 52/20/10 54/22/10 53/21/10
f 54/22/11 56/24/11 55/23/11
f 56/24/12 58/26/12 57/25/12
f 58/26/13 60/28/13 59/27/13
f 60/28/14 62/33/14 61/29/14
f 38/32/15 36/41/15 34/42/15
f 34/42/15 64/43/15 62/44/15
f 62/44/15 60/68/15 58/46/15
f 58/46/15 56/69/15 54/30/15
f 54/30/15 52/70/15 50/49/15
f 50/49/15 48/71/15 46/31/15
f 46/31/15 44/51/15 42/52/15
f 42/52/15 40/53/15 38/32/15
f 38/32/15 34/42/15 62/44/15
f 62/44/15 58/46/15 54/30/15
f 54/30/15 50/49/15 46/31/15
f 46/31/15 42/52/15 38/32/15
f 38/32/15 62/44/15 54/30/15
f 62/33/16 64/35/16 63/34/16
f 64/35/17 34/54/17 33/36/17
f 63/39/18 33/55/18 35/56/18
f 35/56/18 37/57/18 39/58/18
f 39/58/18 41/59/18 43/60/18
f 43/60/18 45/61/18 47/40/18
f 47/40/18 49/62/18 51/72/18
f 51/72/18 53/64/18 55/38/18
f 55/38/18 57/65/18 59/66/18
f 59/66/18 61/67/18 63/39/18
f 63/39/18 35/56/18 39/58/18
f 39/58/18 43/60/18 47/40/18
f 47/40/18 51/72/18 55/38/18
f 55/38/18 59/66/18 63/39/18
f 63/39/18 39/58/18 47/40/18
