# Blender 4.0.2
# www.blender.org
mtllib missile_turret.mtl
o MissileTurret
v -0.050000 0.095000 0.110000
v 0.400000 0.095000 0.110000
v -0.050000 0.060558 0.116851
v 0.400000 0.060558 0.116851
v -0.050000 0.031360 0.136360
v 0.400000 0.031360 0.136360
v -0.050000 0.011851 0.165558
v 0.400000 0.011851 0.165558
v -0.050000 0.005000 0.200000
v 0.400000 0.005000 0.200000
v -0.050000 0.011851 0.234442
v 0.400000 0.011851 0.234442
v -0.050000 0.031360 0.263640
v 0.400000 0.031360 0.263640
v -0.050000 0.060558 0.283149
v 0.400000 0.060558 0.283149
v -0.050000 0.095000 0.290000
v 0.400000 0.095000 0.290000
v -0.050000 0.129441 0.283149
v 0.400000 0.129441 0.283149
v -0.050000 0.158640 0.263640
v 0.400000 0.158640 0.263640
v -0.050000 0.178149 0.234442
v 0.400000 0.178149 0.234442
v -0.050000 0.185000 0.200000
v 0.400000 0.185000 0.200000
v -0.050000 0.178149 0.165558
v 0.400000 0.178149 0.165558
v -0.050000 0.158640 0.136360
v 0.400000 0.158640 0.136360
v -0.050000 0.129441 0.116851
v 0.400000 0.129441 0.116851
v 0.395000 0.095000 0.105000
v 0.395000 0.047500 0.117728
v 0.395000 0.012728 0.152500
v 0.395000 -0.000000 0.200000
v 0.395000 0.012728 0.247500
v 0.395000 0.047500 0.282272
v 0.395000 0.095000 0.295000
v 0.395000 0.142500 0.282272
v 0.395000 0.177272 0.247500
v 0.395000 0.190000 0.200000
v 0.395000 0.177272 0.152500
v 0.395000 0.142500 0.117728
v 0.535000 0.095000 0.200000
v -0.050000 0.095000 -0.090000
v 0.400000 0.095000 -0.090000
v -0.050000 0.060558 -0.083149
v 0.400000 0.060558 -0.083149
v -0.050000 0.031360 -0.063640
v 0.400000 0.031360 -0.063640
v -0.050000 0.011851 -0.034442
v 0.400000 0.011851 -0.034442
v -0.050000 0.005000 0.000000
v 0.400000 0.005000 0.000000
v -0.050000 0.011851 0.034442
v 0.400000 0.011851 0.034442
v -0.050000 0.031360 0.063640
v 0.400000 0.031360 0.063640
v -0.050000 0.060558 0.083149
v 0.400000 0.060558 0.083149
v -0.050000 0.095000 0.090000
v 0.400000 0.095000 0.090000
v -0.050000 0.129441 0.083149
v 0.400000 0.129441 0.083149
v -0.050000 0.158640 0.063640
v 0.400000 0.158640 0.063640
v -0.050000 0.178149 0.034442
v 0.400000 0.178149 0.034442
v -0.050000 0.185000 0.000000
v 0.400000 0.185000 0.000000
v -0.050000 0.178149 -0.034442
v 0.400000 0.178149 -0.034442
v -0.050000 0.158640 -0.063640
v 0.400000 0.158640 -0.063640
v -0.050000 0.129441 -0.083149
v 0.400000 0.129441 -0.083149
v 0.395000 0.095000 -0.095000
v 0.395000 0.047500 -0.082272
v 0.395000 0.012728 -0.047500
v 0.395000 -0.000000 0.000000
v 0.395000 0.012728 0.047500
v 0.395000 0.047500 0.082272
v 0.395000 0.095000 0.095000
v 0.395000 0.142500 0.082272
v 0.395000 0.177272 0.047500
v 0.395000 0.190000 0.000000
v 0.395000 0.177272 -0.047500
v 0.395000 0.142500 -0.082272
v 0.535000 0.095000 0.000000
v -0.050000 0.095000 -0.290000
v 0.400000 0.095000 -0.290000
v -0.050000 0.060558 -0.283149
v 0.400000 0.060558 -0.283149
v -0.050000 0.031360 -0.263640
v 0.400000 0.031360 -0.263640
v -0.050000 0.011851 -0.234442
v 0.400000 0.011851 -0.234442
v -0.050000 0.005000 -0.200000
v 0.400000 0.005000 -0.200000
v -0.050000 0.011851 -0.165559
v 0.400000 0.011851 -0.165559
v -0.050000 0.031360 -0.136360
v 0.400000 0.031360 -0.136360
v -0.050000 0.060558 -0.116851
v 0.400000 0.060558 -0.116851
v -0.050000 0.095000 -0.110000
v 0.400000 0.095000 -0.110000
v -0.050000 0.129441 -0.116851
v 0.400000 0.129441 -0.116851
v -0.050000 0.158640 -0.136360
v 0.400000 0.158640 -0.136360
v -0.050000 0.178149 -0.165559
v 0.400000 0.178149 -0.165559
v -0.050000 0.185000 -0.200000
v 0.400000 0.185000 -0.200000
v -0.050000 0.178149 -0.234442
v 0.400000 0.178149 -0.234442
v -0.050000 0.158640 -0.263640
v 0.400000 0.158640 -0.263640
v -0.050000 0.129441 -0.283149
v 0.400000 0.129441 -0.283149
v 0.395000 0.095000 -0.295000
v 0.395000 0.047500 -0.282272
v 0.395000 0.012728 -0.247500
v 0.395000 -0.000000 -0.200000
v 0.395000 0.012728 -0.152500
v 0.395000 0.047500 -0.117728
v 0.395000 0.095000 -0.105000
v 0.395000 0.142500 -0.117728
v 0.395000 0.177272 -0.152500
v 0.395000 0.190000 -0.200000
v 0.395000 0.177272 -0.247500
v 0.395000 0.142500 -0.282272
v 0.535000 0.095000 -0.200000
v -0.050000 0.185000 -0.035000
v -0.050000 0.285000 -0.035000
v -0.029428 0.185000 -0.028316
v -0.029428 0.285000 -0.028316
v -0.016713 0.185000 -0.010816
v -0.016713 0.285000 -0.010816
v -0.016713 0.185000 0.010816
v -0.016713 0.285000 0.010816
v -0.029428 0.185000 0.028316
v -0.029428 0.285000 0.028316
v -0.050000 0.185000 0.035000
v -0.050000 0.285000 0.035000
v -0.070572 0.185000 0.028316
v -0.070572 0.285000 0.028316
v -0.083287 0.185000 0.010816
v -0.083287 0.285000 0.010816
v -0.083287 0.185000 -0.010816
v -0.083287 0.285000 -0.010816
v -0.070572 0.185000 -0.028316
v -0.070572 0.285000 -0.028316
v -0.120000 0.285000 0.070000
v -0.120000 0.405000 0.070000
v -0.120000 0.285000 -0.070000
v -0.120000 0.405000 -0.070000
v 0.020000 0.285000 0.070000
v 0.020000 0.405000 0.070000
v 0.020000 0.285000 -0.070000
v 0.020000 0.405000 -0.070000
v 0.010000 0.345000 -0.035000
v 0.030000 0.345000 -0.035000
v 0.010000 0.327500 -0.030311
v 0.030000 0.327500 -0.030311
v 0.010000 0.314689 -0.017500
v 0.030000 0.314689 -0.017500
v 0.010000 0.310000 0.000000
v 0.030000 0.310000 0.000000
v 0.010000 0.314689 0.017500
v 0.030000 0.314689 0.017500
v 0.010000 0.327500 0.030311
v 0.030000 0.327500 0.030311
v 0.010000 0.345000 0.035000
v 0.030000 0.345000 0.035000
v 0.010000 0.362500 0.030311
v 0.030000 0.362500 0.030311
v 0.010000 0.375311 0.017500
v 0.030000 0.375311 0.017500
v 0.010000 0.380000 0.000000
v 0.030000 0.380000 0.000000
v 0.010000 0.375311 -0.017500
v 0.030000 0.375311 -0.017500
v 0.010000 0.362500 -0.030311
v 0.030000 0.362500 -0.030311
vn -0.0000 -0.1951 -0.9808
vn -0.0000 -0.5556 -0.8315
vn -0.0000 -0.8315 -0.5556
vn -0.0000 -0.9808 -0.1951
vn -0.0000 -0.9808 0.1951
vn -0.0000 -0.8315 0.5556
vn -0.0000 -0.5556 0.8315
vn -0.0000 -0.1951 0.9808
vn -0.0000 0.1951 0.9808
vn -0.0000 0.5556 0.8315
vn -0.0000 0.8315 0.5556
vn -0.0000 0.9808 0.1951
vn -0.0000 0.9808 -0.1951
vn -0.0000 0.8315 -0.5556
vn 1.0000 -0.0000 -0.0000
vn -0.0000 0.5556 -0.8315
vn -0.0000 0.1951 -0.9808
vn -1.0000 -0.0000 -0.0000
vn 0.5482 -0.2165 -0.8079
vn 0.5482 -0.5914 -0.5914
vn 0.5482 -0.8079 -0.2165
vn 0.5482 -0.8079 0.2165
vn 0.5482 -0.5914 0.5914
vn 0.5482 -0.2165 0.8079
vn 0.5482 0.2165 0.8079
vn 0.5482 0.5914 0.5914
vn 0.5482 0.8079 0.2165
vn 0.5482 0.8079 -0.2165
vn 0.5482 0.5914 -0.5914
vn 0.5482 0.2165 -0.8079
vn 0.3090 -0.0000 -0.9511
vn 0.8090 -0.0000 -0.5878
vn 0.8090 -0.0000 0.5878
vn 0.3090 -0.0000 0.9511
vn -0.3090 -0.0000 0.9511
vn -0.8090 -0.0000 0.5878
vn -0.0000 1.0000 -0.0000
vn -0.8090 -0.0000 -0.5878
vn -0.3090 -0.0000 -0.9511
vn -0.0000 -1.0000 -0.0000
vn -0.0000 -0.0000 -1.0000
vn -0.0000 -0.0000 1.0000
vn -0.0000 -0.2588 -0.9659
vn -0.0000 -0.7071 -0.7071
vn -0.0000 -0.9659 -0.2588
vn -0.0000 -0.9659 0.2588
vn -0.0000 -0.7071 0.7071
vn -0.0000 -0.2588 0.9659
vn -0.0000 0.2588 0.9659
vn -0.0000 0.7071 0.7071
vn -0.0000 0.9659 0.2588
vn -0.0000 0.9659 -0.2588
vn -0.0000 0.7071 -0.7071
vn -0.0000 0.2588 -0.9659
vt 1.000000 1.000000
vt 0.937500 0.500000
vt 1.000000 0.500000
vt 0.937500 1.000000
vt 0.875000 0.500000
vt 0.875000 1.000000
vt 0.812500 0.500000
vt 0.812500 1.000000
vt 0.750000 0.500000
vt 0.687500 1.000000
vt 0.687500 0.500000
vt 0.625000 0.500000
vt 0.625000 1.000000
vt 0.562500 0.500000
vt 0.562500 1.000000
vt 0.500000 0.500000
vt 0.500000 1.000000
vt 0.437500 0.500000
vt 0.437500 1.000000
vt 0.375000 0.500000
vt 0.375000 1.000000
vt 0.312500 0.500000
vt 0.312500 1.000000
vt 0.250000 0.500000
vt 0.250000 1.000000
vt 0.187500 0.500000
vt 0.187500 1.000000
vt 0.125000 0.500000
vt 0.080294 0.080294
vt 0.419706 0.080294
vt 0.419706 0.419706
vt 0.125000 1.000000
vt 0.062500 0.500000
vt 0.062500 1.000000
vt 0.000000 0.500000
vt 0.841844 0.028269
vt 0.528269 0.158156
vt 0.658156 0.471731
vt 0.250000 0.490000
vt 0.250000 0.250000
vt 0.370000 0.457846
vt 0.457846 0.370000
vt 0.490000 0.250000
vt 0.457846 0.130000
vt 0.370000 0.042154
vt 0.250000 0.010000
vt 0.130000 0.042154
vt 0.042154 0.130000
vt 0.010000 0.250000
vt 0.042154 0.370000
vt 0.990000 0.250000
vt 0.630000 0.042154
vt 0.630000 0.457846
vt 0.130000 0.457846
vt 0.750000 1.000000
vt 0.900000 0.500000
vt 0.900000 1.000000
vt 0.800000 0.500000
vt 0.800000 1.000000
vt 0.700000 0.500000
vt 0.700000 1.000000
vt 0.600000 0.500000
vt 0.600000 1.000000
vt 0.500000 0.500000
vt 0.500000 1.000000
vt 0.400000 0.500000
vt 0.400000 1.000000
vt 0.300000 0.500000
vt 0.300000 1.000000
vt 0.200000 0.500000
vt 0.021746 0.324164
vt 0.391068 0.055836
vt 0.478254 0.324164
vt 0.200000 1.000000
vt 0.100000 0.500000
vt 0.100000 1.000000
vt -0.000000 0.500000
vt 0.978254 0.175836
vt 0.521746 0.175836
vt 0.608932 0.444164
vt 0.625000 0.000000
vt 0.375000 0.250000
vt 0.375000 0.000000
vt 0.625000 0.250000
vt 0.375000 0.750000
vt 0.125000 0.750000
vt 0.625000 0.750000
vt 0.916667 0.500000
vt 0.916667 1.000000
vt 0.833333 0.500000
vt 0.833333 1.000000
vt 0.750000 0.500000
vt 0.750000 1.000000
vt 0.666667 0.500000
vt 0.666667 1.000000
vt 0.583333 0.500000
vt 0.583333 1.000000
vt 0.500000 0.500000
vt 0.500000 1.000000
vt 0.416667 0.500000
vt 0.416667 1.000000
vt 0.333333 0.500000
vt 0.333333 1.000000
vt 0.250000 0.500000
vt 0.250000 1.000000
vt 0.166667 0.500000
vt 0.250000 0.010000
vt 0.166667 1.000000
vt 0.083333 0.500000
vt 0.083333 1.000000
vt 0.000000 0.500000
vt 0.341844 0.471731
vt 0.158156 0.471731
vt 0.080294 0.419706
vt 0.028269 0.341844
vt 0.028269 0.158156
vt 0.158156 0.028269
vt 0.341844 0.028269
vt 0.471731 0.158156
vt 0.471731 0.341844
vt 0.000000 1.000000
vt 0.750000 0.490000
vt 0.841844 0.471731
vt 0.919706 0.419706
vt 0.971731 0.341844
vt 0.971731 0.158156
vt 0.919706 0.080294
vt 0.750000 0.010000
vt 0.658156 0.028269
vt 0.580294 0.080294
vt 0.510000 0.250000
vt 0.528269 0.341844
vt 0.580294 0.419706
vt 0.870000 0.457846
vt 0.957846 0.370000
vt 0.957846 0.130000
vt 0.870000 0.042154
vt 0.542154 0.130000
vt 0.542154 0.370000
vt 0.391068 0.444164
vt 0.250000 0.490000
vt 0.108932 0.444164
vt 0.021746 0.175836
vt 0.108932 0.055836
vt 0.478254 0.175836
vt -0.000000 1.000000
vt 0.750000 0.490000
vt 0.891068 0.444164
vt 0.978254 0.324164
vt 0.891068 0.055836
vt 0.750000 0.010000
vt 0.608932 0.055836
vt 0.521746 0.324164
vt 0.875000 0.750000
vt 0.130000 0.457846
vt 0.010000 0.250000
vt 0.042154 0.130000
vt 0.130000 0.042154
vt 0.457846 0.130000
vt 0.490000 0.250000
vt 0.000000 1.000000
vt 0.957846 0.130000
vt 0.542154 0.130000
s 0
usemtl MissileBody
f 2/1/1 3/2/1 1/3/1
f 4/4/2 5/5/2 3/2/2
f 6/6/3 7/7/3 5/5/3
f 8/8/4 9/9/4 7/7/4
f 9/9/5 12/10/5 11/11/5
f 12/10/6 13/12/6 11/11/6
f 14/13/7 15/14/7 13/12/7
f 16/15/8 17/16/8 15/14/8
f 18/17/9 19/18/9 17/16/9
f 20/19/10 21/20/10 19/18/10
f 22/21/11 23/22/11 21/20/11
f 24/23/12 25/24/12 23/22/12
f 26/25/13 27/26/13 25/24/13
f 28/27/14 29/28/14 27/26/14
f 22/29/15 14/30/15 6/31/15
f 30/32/16 31/33/16 29/28/16
f 32/34/17 1/35/17 31/33/17
f 15/36/18 23/37/18 31/38/18
f 47/1/1 48/2/1 46/3/1
f 48/2/2 51/6/2 50/5/2
f 51/6/3 52/7/3 50/5/3
f 53/8/4 54/9/4 52/7/4
f 55/55/5 56/11/5 54/9/5
f 57/10/6 58/12/6 56/11/6
f 59/13/7 60/14/7 58/12/7
f 61/15/8 62/16/8 60/14/8
f 62/16/9 65/19/9 64/18/9
f 64/18/10 67/21/10 66/20/10
f 67/21/11 68/22/11 66/20/11
f 69/23/12 70/24/12 68/22/12
f 71/25/13 72/26/13 70/24/13
f 73/27/14 74/28/14 72/26/14
f 67/29/15 59/30/15 51/31/15
f 74/28/16 77/34/16 76/33/16
f 77/34/17 46/35/17 76/33/17
f 60/36/18 68/37/18 76/38/18
f 92/1/1 93/2/1 91/3/1
f 94/4/2 95/5/2 93/2/2
f 96/6/3 97/7/3 95/5/3
f 98/8/4 99/9/4 97/7/4
f 100/55/5 101/11/5 99/9/5
f 101/11/6 104/13/6 103/12/6
f 104/13/7 105/14/7 103/12/7
f 106/15/8 107/16/8 105/14/8
f 107/16/9 110/19/9 109/18/9
f 110/19/10 111/20/10 109/18/10
f 112/21/11 113/22/11 111/20/11
f 114/23/12 115/24/12 113/22/12
f 116/25/13 117/26/13 115/24/13
f 118/27/14 119/28/14 117/26/14
f 112/29/15 104/30/15 96/31/15
f 120/32/16 121/33/16 119/28/16
f 122/34/17 91/35/17 121/33/17
f 105/36/18 113/37/18 121/38/18
f 137/1/31 138/56/31 136/3/31
f 139/57/32 140/58/32 138/56/32
f 141/59/15 142/60/15 140/58/15
f 143/61/33 144/62/33 142/60/33
f 145/63/34 146/64/34 144/62/34
f 147/65/35 148/66/35 146/64/35
f 149/67/36 150/68/36 148/66/36
f 151/69/18 152/70/18 150/68/18
f 153/71/37 145/72/37 141/73/37
f 153/74/38 154/75/38 152/70/38
f 155/76/39 136/77/39 154/75/39
f 142/78/40 150/79/40 154/80/40
f 157/81/18 158/82/18 156/83/18
f 159/84/41 162/20/41 158/82/41
f 163/12/15 160/85/15 162/20/15
f 160/85/42 157/13/42 156/21/42
f 162/20/40 156/86/40 158/28/40
f 159/5/37 161/87/37 163/12/37
f 2/1/1 4/4/1 3/2/1
f 4/4/2 6/6/2 5/5/2
f 6/6/3 8/8/3 7/7/3
f 8/8/4 10/55/4 9/9/4
f 9/9/5 10/55/5 12/10/5
f 12/10/6 14/13/6 13/12/6
f 14/13/7 16/15/7 15/14/7
f 16/15/8 18/17/8 17/16/8
f 18/17/9 20/19/9 19/18/9
f 20/19/10 22/21/10 21/20/10
f 22/21/11 24/23/11 23/22/11
f 24/23/12 26/25/12 25/24/12
f 26/25/13 28/27/13 27/26/13
f 28/27/14 30/32/14 29/28/14
f 6/31/15 4/112/15 2/39/15
f 2/39/15 32/113/15 30/114/15
f 30/114/15 28/115/15 26/49/15
f 26/49/15 24/116/15 22/29/15
f 22/29/15 20/117/15 18/46/15
f 18/46/15 16/118/15 14/30/15
f 14/30/15 12/119/15 10/43/15
f 10/43/15 8/120/15 6/31/15
f 6/31/15 2/39/15 30/114/15
f 30/114/15 26/49/15 22/29/15
f 22/29/15 18/46/15 14/30/15
f 14/30/15 10/43/15 6/31/15
f 6/31/15 30/114/15 22/29/15
f 30/32/16 32/34/16 31/33/16
f 32/34/17 2/121/17 1/35/17
f 31/38/18 1/122/18 3/123/18
f 3/123/18 5/124/18 7/125/18
f 7/125/18 9/51/18 11/126/18
f 11/126/18 13/127/18 15/36/18
f 15/36/18 17/128/18 19/129/18
f 19/129/18 21/130/18 23/37/18
f 23/37/18 25/131/18 27/132/18
f 27/132/18 29/133/18 31/38/18
f 31/38/18 3/123/18 7/125/18
f 7/125/18 11/126/18 15/36/18
f 15/36/18 19/129/18 23/37/18
f 23/37/18 27/132/18 31/38/18
f 31/38/18 7/125/18 15/36/18
f 47/1/1 49/4/1 48/2/1
f 48/2/2 49/4/2 51/6/2
f 51/6/3 53/8/3 52/7/3
f 53/8/4 55/55/4 54/9/4
f 55/55/5 57/10/5 56/11/5
f 57/10/6 59/13/6 58/12/6
f 59/13/7 61/15/7 60/14/7
f 61/15/8 63/17/8 62/16/8
f 62/16/9 63/17/9 65/19/9
f 64/18/10 65/19/10 67/21/10
f 67/21/11 69/23/11 68/22/11
f 69/23/12 71/25/12 70/24/12
f 71/25/13 73/27/13 72/26/13
f 73/27/14 75/32/14 74/28/14
f 51/31/15 49/112/15 47/39/15
f 47/39/15 77/113/15 75/114/15
f 75/114/15 73/115/15 71/49/15
f 71/49/15 69/116/15 67/29/15
f 67/29/15 65/117/15 63/46/15
f 63/46/15 61/118/15 59/30/15
f 59/30/15 57/119/15 55/43/15
f 55/43/15 53/120/15 51/31/15
f 51/31/15 47/39/15 75/114/15
f 75/114/15 71/49/15 67/29/15
f 67/29/15 63/46/15 59/30/15
f 59/30/15 55/43/15 51/31/15
f 51/31/15 75/114/15 67/29/15
f 74/28/16 75/32/16 77/34/16
f 77/34/17 47/121/17 46/35/17
f 76/38/18 46/122/18 48/123/18
f 48/123/18 50/124/18 52/125/18
f 52/125/18 54/51/18 56/126/18
f 56/126/18 58/127/18 60/36/18
f 60/36/18 62/128/18 64/129/18
f 64/129/18 66/130/18 68/37/18
f 68/37/18 70/131/18 72/132/18
f 72/132/18 74/133/18 76/38/18
f 76/38/18 48/123/18 52/125/18
f 52/125/18 56/126/18 60/36/18
f 60/36/18 64/129/18 68/37/18
f 68/37/18 72/132/18 76/38/18
f 76/38/18 52/125/18 60/36/18
f 92/1/1 94/4/1 93/2/1
f 94/4/2 96/6/2 95/5/2
f 96/6/3 98/8/3 97/7/3
f 98/8/4 100/55/4 99/9/4
f 100/55/5 102/10/5 101/11/5
f 101/11/6 102/10/6 104/13/6
f 104/13/7 106/15/7 105/14/7
f 106/15/8 108/17/8 107/16/8
f 107/16/9 108/17/9 110/19/9
f 110/19/10 112/21/10 111/20/10
f 112/21/11 114/23/11 113/22/11
f 114/23/12 116/25/12 115/24/12
f 116/25/13 118/27/13 117/26/13
f 118/27/14 120/32/14 119/28/14
f 96/31/15 94/112/15 92/39/15
f 92/39/15 122/113/15 120/114/15
f 120/114/15 118/115/15 116/49/15
f 116/49/15 114/116/15 112/29/15
f 112/29/15 110/117/15 108/46/15
f 108/46/15 106/118/15 104/30/15
f 104/30/15 102/119/15 100/43/15
f 100/43/15 98/120/15 96/31/15
f 96/31/15 92/39/15 120/114/15
f 120/114/15 116/49/15 112/29/15
f 112/29/15 108/46/15 104/30/15
f 104/30/15 100/43/15 96/31/15
f 96/31/15 120/114/15 112/29/15
f 120/32/16 122/34/16 121/33/16
f 122/34/17 92/121/17 91/35/17
f 121/38/18 91/122/18 93/123/18
f 93/123/18 95/124/18 97/125/18
f 97/125/18 99/51/18 101/126/18
f 101/126/18 103/127/18 105/36/18
f 105/36/18 107/128/18 109/129/18
f 109/129/18 111/130/18 113/37/18
f 113/37/18 115/131/18 117/132/18
f 117/132/18 119/133/18 121/38/18
f 121/38/18 93/123/18 97/125/18
f 97/125/18 101/126/18 105/36/18
f 105/36/18 109/129/18 113/37/18
f 113/37/18 117/132/18 121/38/18
f 121/38/18 97/125/18 105/36/18
f 137/1/31 139/57/31 138/56/31
f 139/57/32 141/59/32 140/58/32
f 141/59/15 143/61/15 142/60/15
f 143/61/33 145/63/33 144/62/33
f 145/63/34 147/65/34 146/64/34
f 147/65/35 149/67/35 148/66/35
f 149/67/36 151/69/36 150/68/36
f 151/69/18 153/74/18 152/70/18
f 141/73/37 139/140/37 137/141/37
f 137/141/37 155/142/37 153/71/37
f 153/71/37 151/143/37 149/144/37
f 149/144/37 147/107/37 145/72/37
f 145/72/37 143/145/37 141/73/37
f 141/73/37 137/141/37 153/71/37
f 153/71/37 149/144/37 145/72/37
f 153/74/38 155/76/38 154/75/38
f 155/76/39 137/146/39 136/77/39
f 154/80/40 136/147/40 138/148/40
f 138/148/40 140/149/40 142/78/40
f 142/78/40 144/150/40 146/151/40
f 146/151/40 148/152/40 150/79/40
f 150/79/40 152/153/40 154/80/40
f 154/80/40 138/148/40 142/78/40
f 142/78/40 146/151/40 150/79/40
f 157/81/18 159/84/18 158/82/18
f 159/84/41 163/12/41 162/20/41
f 163/12/15 161/87/15 160/85/15
f 160/85/42 161/87/42 157/13/42
f 162/20/40 160/85/40 156/86/40
f 159/5/37 157/154/37 161/87/37
usemtl MissileRed
f 33/39/19 45/40/19 34/41/19
f 34/41/20 45/40/20 35/42/20
f 35/42/21 45/40/21 36/43/21
f 36/43/22 45/40/22 37/44/22
f 37/44/23 45/40/23 38/45/23
f 38/45/24 45/40/24 39/46/24
f 39/46/25 45/40/25 40/47/25
f 40/47/26 45/40/26 41/48/26
f 41/48/27 45/40/27 42/49/27
f 42/49/28 45/40/28 43/50/28
f 36/51/18 40/52/18 44/53/18
f 43/50/29 45/40/29 44/54/29
f 44/54/30 45/40/30 33/39/30
f 78/39/19 90/40/19 79/41/19
f 79/41/20 90/40/20 80/42/20
f 80/42/21 90/40/21 81/43/21
f 81/43/22 90/40/22 82/44/22
f 82/44/23 90/40/23 83/45/23
f 83/45/24 90/40/24 84/46/24
f 84/46/25 90/40/25 85/47/25
f 85/47/26 90/40/26 86/48/26
f 86/48/27 90/40/27 87/49/27
f 87/49/28 90/40/28 88/50/28
f 81/51/18 85/52/18 89/53/18
f 88/50/29 90/40/29 89/54/29
f 89/54/30 90/40/30 78/39/30
f 123/39/19 135/40/19 124/41/19
f 124/41/20 135/40/20 125/42/20
f 125/42/21 135/40/21 126/43/21
f 126/43/22 135/40/22 127/44/22
f 127/44/23 135/40/23 128/45/23
f 128/45/24 135/40/24 129/46/24
f 129/46/25 135/40/25 130/47/25
f 130/47/26 135/40/26 131/48/26
f 131/48/27 135/40/27 132/49/27
f 132/49/28 135/40/28 133/50/28
f 126/51/18 130/52/18 134/53/18
f 133/50/29 135/40/29 134/54/29
f 134/54/30 135/40/30 123/39/30
f 44/53/18 33/122/18 34/134/18
f 34/134/18 35/135/18 36/51/18
f 36/51/18 37/136/18 38/137/18
f 38/137/18 39/128/18 40/52/18
f 40/52/18 41/138/18 42/131/18
f 42/131/18 43/139/18 44/53/18
f 44/53/18 34/134/18 36/51/18
f 36/51/18 38/137/18 40/52/18
f 40/52/18 42/131/18 44/53/18
f 89/53/18 78/122/18 79/134/18
f 79/134/18 80/135/18 81/51/18
f 81/51/18 82/136/18 83/137/18
f 83/137/18 84/128/18 85/52/18
f 85/52/18 86/138/18 87/131/18
f 87/131/18 88/139/18 89/53/18
f 89/53/18 79/134/18 81/51/18
f 81/51/18 83/137/18 85/52/18
f 85/52/18 87/131/18 89/53/18
f 134/53/18 123/122/18 124/134/18
f 124/134/18 125/135/18 126/51/18
f 126/51/18 127/136/18 128/137/18
f 128/137/18 129/128/18 130/52/18
f 130/52/18 131/138/18 132/131/18
f 132/131/18 133/139/18 134/53/18
f 134/53/18 124/134/18 126/51/18
f 126/51/18 128/137/18 130/52/18
f 130/52/18 132/131/18 134/53/18
usemtl MissileLens
f 165/1/43 166/88/43 164/3/43
f 167/89/44 168/90/44 166/88/44
f 169/91/45 170/92/45 168/90/45
f 171/93/46 172/94/46 170/92/46
f 173/95/47 174/96/47 172/94/47
f 175/97/48 176/98/48 174/96/48
f 177/99/49 178/100/49 176/98/49
f 179/101/50 180/102/50 178/100/50
f 181/103/51 182/104/51 180/102/51
f 183/105/52 184/106/52 182/104/52
f 185/50/15 177/107/15 169/42/15
f 185/108/53 186/109/53 184/106/53
f 187/110/54 164/111/54 186/109/54
f 170/51/18 178/52/18 186/53/18
f 165/1/43 167/89/43 166/88/43
f 167/89/44 169/91/44 168/90/44
f 169/91/45 171/93/45 170/92/45
f 171/93/46 173/95/46 172/94/46
f 173/95/47 175/97/47 174/96/47
f 175/97/48 177/99/48 176/98/48
f 177/99/49 179/101/49 178/100/49
f 179/101/50 181/103/50 180/102/50
f 181/103/51 183/105/51 182/104/51
f 183/105/52 185/108/52 184/106/52
f 169/42/15 167/41/15 165/141/15
f 165/141/15 187/155/15 185/50/15
f 185/50/15 183/156/15 181/157/15
f 181/157/15 179/158/15 177/107/15
f 177/107/15 175/45/15 173/159/15
f 173/159/15 171/160/15 169/42/15
f 169/42/15 165/141/15 185/50/15
f 185/50/15 181/157/15 177/107/15
f 177/107/15 173/159/15 169/42/15
f 185/108/53 187/110/53 186/109/53
f 187/110/54 165/161/54 164/111/54
f 186/53/18 164/147/18 166/134/18
f 166/134/18 168/135/18 170/51/18
f 170/51/18 172/162/18 174/137/18
f 174/137/18 176/151/18 178/52/18
f 178/52/18 180/163/18 182/131/18
f 182/131/18 184/139/18 186/53/18
f 186/53/18 166/134/18 170/51/18
f 170/51/18 174/137/18 178/52/18
f 178/52/18 182/131/18 186/53/18
