# Blender 4.0.2
# www.blender.org
mtllib mortar_base.mtl
o MortarBase
v -0.445000 0.000000 0.445000
v -0.445000 0.030000 0.475000
v -0.475000 0.030000 0.445000
v -0.445000 0.008787 0.466213
v -0.462321 0.012680 0.462321
v -0.466213 0.030000 0.466213
v -0.466213 0.008787 0.445000
v -0.445000 0.190000 0.475000
v -0.445000 0.220000 0.445000
v -0.475000 0.190000 0.445000
v -0.445000 0.211213 0.466213
v -0.462321 0.207320 0.462321
v -0.466213 0.211213 0.445000
v -0.466213 0.190000 0.466213
v -0.445000 0.000000 -0.445000
v -0.475000 0.030000 -0.445000
v -0.445000 0.030000 -0.475000
v -0.466213 0.008787 -0.445000
v -0.462321 0.012680 -0.462321
v -0.466213 0.030000 -0.466213
v -0.445000 0.008787 -0.466213
v -0.445000 0.220000 -0.445000
v -0.445000 0.190000 -0.475000
v -0.475000 0.190000 -0.445000
v -0.445000 0.211213 -0.466213
v -0.462321 0.207320 -0.462321
v -0.466213 0.190000 -0.466213
v -0.466213 0.211213 -0.445000
v 0.445000 0.000000 0.445000
v 0.475000 0.030000 0.445000
v 0.445000 0.030000 0.475000
v 0.466213 0.008787 0.445000
v 0.462321 0.012680 0.462321
v 0.466213 0.030000 0.466213
v 0.445000 0.008787 0.466213
v 0.445000 0.220000 0.445000
v 0.445000 0.190000 0.475000
v 0.475000 0.190000 0.445000
v 0.445000 0.211213 0.466213
v 0.462321 0.207320 0.462321
v 0.466213 0.190000 0.466213
v 0.466213 0.211213 0.445000
v 0.445000 0.000000 -0.445000
v 0.445000 0.030000 -0.475000
v 0.475000 0.030000 -0.445000
v 0.445000 0.008787 -0.466213
v 0.462321 0.012680 -0.462321
v 0.466213 0.030000 -0.466213
v 0.466213 0.008787 -0.445000
v 0.445000 0.220000 -0.445000
v 0.475000 0.190000 -0.445000
v 0.445000 0.190000 -0.475000
v 0.466213 0.211213 -0.445000
v 0.462321 0.207320 -0.462321
v 0.466213 0.190000 -0.466213
v 0.445000 0.211213 -0.466213
v -0.290000 0.120000 -0.470000
v -0.290000 0.180000 -0.470000
v -0.290000 0.120000 -0.490000
v -0.290000 0.180000 -0.490000
v -0.210000 0.120000 -0.470000
v -0.210000 0.180000 -0.470000
v -0.210000 0.120000 -0.490000
v -0.210000 0.180000 -0.490000
v -0.040000 0.120000 -0.470000
v -0.040000 0.180000 -0.470000
v -0.040000 0.120000 -0.490000
v -0.040000 0.180000 -0.490000
v 0.040000 0.120000 -0.470000
v 0.040000 0.180000 -0.470000
v 0.040000 0.120000 -0.490000
v 0.040000 0.180000 -0.490000
v 0.210000 0.120000 -0.470000
v 0.210000 0.180000 -0.470000
v 0.210000 0.120000 -0.490000
v 0.210000 0.180000 -0.490000
v 0.290000 0.120000 -0.470000
v 0.290000 0.180000 -0.470000
v 0.290000 0.120000 -0.490000
v 0.290000 0.180000 -0.490000
vn -0.0000 -0.0000 1.0000
vn 1.0000 -0.0000 -0.0000
vn -0.0000 1.0000 -0.0000
vn -1.0000 -0.0000 -0.0000
vn -0.0000 -0.0000 -1.0000
vn -0.3672 -0.8865 0.2817
vn -0.2817 -0.3672 0.8865
vn -0.8865 -0.2817 0.3672
vn -0.3672 0.2817 0.8865
vn -0.2817 0.8865 0.3672
vn -0.8865 0.3672 0.2817
vn -0.2817 -0.8865 -0.3672
vn -0.8865 -0.3672 -0.2817
vn -0.3672 -0.2817 -0.8865
vn -0.3672 0.8865 -0.2817
vn -0.2817 0.3672 -0.8865
vn -0.8865 0.2817 -0.3672
vn 0.2817 -0.8865 0.3672
vn 0.8865 -0.3672 0.2817
vn 0.3672 -0.2817 0.8865
vn 0.3672 0.8865 0.2817
vn 0.2817 0.3672 0.8865
vn 0.8865 0.2817 0.3672
vn 0.3672 -0.8865 -0.2817
vn 0.2817 -0.3672 -0.8865
vn 0.8865 -0.2817 -0.3672
vn 0.2817 0.8865 -0.3672
vn 0.8865 0.3672 -0.2817
vn 0.3672 0.2817 -0.8865
vn -0.3827 -0.9239 -0.0000
vn -0.9239 -0.3827 -0.0000
vn -0.3827 -0.0000 0.9239
vn -0.9239 -0.0000 0.3827
vn -0.3827 0.9239 -0.0000
vn -0.9239 0.3827 -0.0000
vn -0.3827 -0.0000 -0.9239
vn -0.9239 -0.0000 -0.3827
vn -0.0000 -0.9239 -0.3827
vn -0.0000 -0.3827 -0.9239
vn -0.0000 0.9239 -0.3827
vn -0.0000 0.3827 -0.9239
vn 0.9239 -0.0000 -0.3827
vn 0.3827 -0.0000 -0.9239
vn 0.3827 -0.9239 -0.0000
vn 0.9239 -0.3827 -0.0000
vn 0.3827 0.9239 -0.0000
vn 0.9239 0.3827 -0.0000
vn 0.3827 -0.0000 0.9239
vn 0.9239 -0.0000 0.3827
vn -0.0000 -0.9239 0.3827
vn -0.0000 -0.3827 0.9239
vn -0.0000 0.9239 0.3827
vn -0.0000 0.3827 0.9239
vn -0.0000 -1.0000 -0.0000
vn -0.2817 -0.8865 0.3672
vn -0.3672 -0.2817 0.8865
vn -0.8865 -0.3672 0.2817
vn -0.2817 0.3672 0.8865
vn -0.3672 0.8865 0.2817
vn -0.8865 0.2817 0.3672
vn -0.3672 -0.8865 -0.2817
vn -0.8865 -0.2817 -0.3672
vn -0.2817 -0.3672 -0.8865
vn -0.2817 0.8865 -0.3672
vn -0.3672 0.2817 -0.8865
vn -0.8865 0.3672 -0.2817
vn 0.3672 -0.8865 0.2817
vn 0.8865 -0.2817 0.3672
vn 0.2817 -0.3672 0.8865
vn 0.2817 0.8865 0.3672
vn 0.3672 0.2817 0.8865
vn 0.8865 0.3672 0.2817
vn 0.2817 -0.8865 -0.3672
vn 0.3672 -0.2817 -0.8865
vn 0.8865 -0.3672 -0.2817
vn 0.3672 0.8865 -0.2817
vn 0.8865 0.2817 -0.3672
vn 0.2817 0.3672 -0.8865
vt 0.590909 0.757895
vt 0.409091 0.992105
vt 0.409091 0.757895
vt 0.590909 0.507895
vt 0.409091 0.742105
vt 0.409091 0.507895
vt 0.867105 0.507895
vt 0.632895 0.742105
vt 0.632895 0.507895
vt 0.590909 0.007895
vt 0.409091 0.242105
vt 0.409091 0.007895
vt 0.590909 0.257895
vt 0.409091 0.492105
vt 0.409091 0.257895
vt 0.132895 0.742105
vt 0.128337 0.750000
vt 0.125000 0.742105
vt 0.389409 1.000000
vt 0.375000 0.992105
vt 0.375000 0.003337
vt 0.409091 0.000000
vt 0.590909 0.992105
vt 0.625000 0.996663
vt 0.590909 1.000000
vt 0.867105 0.742105
vt 0.875000 0.746663
vt 0.867105 0.750000
vt 0.610591 0.000000
vt 0.625000 0.007895
vt 0.132895 0.507895
vt 0.125000 0.503337
vt 0.132895 0.500000
vt 0.389409 0.250000
vt 0.375000 0.242105
vt 0.375000 0.253337
vt 0.409091 0.250000
vt 0.871663 0.500000
vt 0.875000 0.507895
vt 0.610591 0.250000
vt 0.625000 0.257895
vt 0.590909 0.242105
vt 0.625000 0.246663
vt 0.590909 0.250000
vt 0.367105 0.742105
vt 0.379803 0.750000
vt 0.367105 0.750000
vt 0.375000 0.742105
vt 0.409091 0.750000
vt 0.621309 0.748888
vt 0.625000 0.742105
vt 0.625000 0.757895
vt 0.590909 0.742105
vt 0.590909 0.750000
vt 0.367105 0.507895
vt 0.378691 0.501112
vt 0.375000 0.507895
vt 0.375000 0.492105
vt 0.409091 0.500000
vt 0.620197 0.500000
vt 0.632895 0.500000
vt 0.625000 0.507895
vt 0.590909 0.492105
vt 0.590909 0.500000
vt 0.125000 0.507895
vt 0.375000 0.007895
vt 0.409091 1.000000
vt 0.590909 0.000000
vt 0.875000 0.742105
vt 0.625000 0.242105
vt 0.367105 0.500000
vt 0.375000 0.257895
vt 0.867105 0.500000
vt 0.625000 0.492105
vt 0.132895 0.750000
vt 0.375000 0.757895
vt 0.632895 0.750000
vt 0.625000 0.992105
vt 0.625000 0.000000
vt 0.375000 0.250000
vt 0.375000 0.000000
vt 0.625000 0.250000
vt 0.375000 0.500000
vt 0.625000 0.500000
vt 0.375000 0.750000
vt 0.625000 0.750000
vt 0.375000 1.000000
vt 0.125000 0.750000
vt 0.125000 0.500000
vt 0.875000 0.500000
vt 0.625000 1.000000
vt 0.875000 0.750000
s 0
usemtl MortarBaseBodyMat
f 37/1/1 2/2/1 31/3/1
f 51/4/2 30/5/2 45/6/2
f 22/7/3 36/8/3 50/9/3
f 10/10/4 16/11/4 3/12/4
f 23/13/5 44/14/5 17/15/5
f 1/16/6 5/17/6 7/18/6
f 2/2/7 5/19/7 4/20/7
f 3/12/8 5/21/8 6/22/8
f 8/23/9 12/24/9 14/25/9
f 9/26/10 12/27/10 11/28/10
f 10/10/11 12/29/11 13/30/11
f 15/31/12 19/32/12 21/33/12
f 16/11/13 19/34/13 18/35/13
f 17/15/14 19/36/14 20/37/14
f 22/7/15 26/38/15 28/39/15
f 23/13/16 26/40/16 25/41/16
f 24/42/17 26/43/17 27/44/17
f 29/45/18 33/46/18 35/47/18
f 30/5/19 33/46/19 32/48/19
f 31/3/20 33/46/20 34/49/20
f 36/8/21 40/50/21 42/51/21
f 37/1/22 40/50/22 39/52/22
f 38/53/23 40/50/23 41/54/23
f 43/55/24 47/56/24 49/57/24
f 44/14/25 47/56/25 46/58/25
f 45/6/26 47/56/26 48/59/26
f 50/9/27 54/60/27 56/61/27
f 51/4/28 54/60/28 53/62/28
f 52/63/29 54/60/29 55/64/29
f 1/16/30 18/65/30 15/31/30
f 7/66/31 16/11/31 18/35/31
f 8/23/32 6/67/32 2/2/32
f 14/68/33 3/12/33 6/22/33
f 22/7/34 13/69/34 9/26/34
f 28/70/35 10/10/35 13/30/35
f 17/15/36 27/44/36 23/13/36
f 20/37/37 24/42/37 27/44/37
f 15/31/38 46/71/38 43/55/38
f 21/72/39 44/14/39 46/58/39
f 50/9/40 25/73/40 22/7/40
f 56/74/41 23/13/41 25/41/41
f 45/6/42 55/64/42 51/4/42
f 48/59/43 52/63/43 55/64/43
f 43/55/44 32/48/44 29/45/44
f 49/57/45 30/5/45 32/48/45
f 36/8/46 53/62/46 50/9/46
f 42/51/47 51/4/47 53/62/47
f 31/3/48 41/54/48 37/1/48
f 34/49/49 38/53/49 41/54/49
f 29/45/50 4/75/50 1/16/50
f 35/76/51 2/2/51 4/20/51
f 9/26/52 39/77/52 36/8/52
f 11/78/53 37/1/53 39/52/53
f 43/55/54 1/16/54 15/31/54
f 37/1/1 8/23/1 2/2/1
f 51/4/2 38/53/2 30/5/2
f 22/7/3 9/26/3 36/8/3
f 10/10/4 24/42/4 16/11/4
f 23/13/5 52/63/5 44/14/5
f 1/16/55 4/75/55 5/17/55
f 2/2/56 6/67/56 5/19/56
f 3/12/57 7/66/57 5/21/57
f 8/23/58 11/78/58 12/24/58
f 9/26/59 13/69/59 12/27/59
f 10/10/60 14/68/60 12/29/60
f 15/31/61 18/65/61 19/32/61
f 16/11/62 20/37/62 19/34/62
f 17/15/63 21/72/63 19/36/63
f 22/7/64 25/73/64 26/38/64
f 23/13/65 27/44/65 26/40/65
f 24/42/66 28/70/66 26/43/66
f 29/45/67 32/48/67 33/46/67
f 30/5/68 34/49/68 33/46/68
f 31/3/69 35/76/69 33/46/69
f 36/8/70 39/77/70 40/50/70
f 37/1/71 41/54/71 40/50/71
f 38/53/72 42/51/72 40/50/72
f 43/55/73 46/71/73 47/56/73
f 44/14/74 48/59/74 47/56/74
f 45/6/75 49/57/75 47/56/75
f 50/9/76 53/62/76 54/60/76
f 51/4/77 55/64/77 54/60/77
f 52/63/78 56/74/78 54/60/78
f 1/16/30 7/18/30 18/65/30
f 7/66/31 3/12/31 16/11/31
f 8/23/32 14/25/32 6/67/32
f 14/68/33 10/10/33 3/12/33
f 22/7/34 28/39/34 13/69/34
f 28/70/35 24/42/35 10/10/35
f 17/15/36 20/37/36 27/44/36
f 20/37/37 16/11/37 24/42/37
f 15/31/38 21/33/38 46/71/38
f 21/72/39 17/15/39 44/14/39
f 50/9/40 56/61/40 25/73/40
f 56/74/41 52/63/41 23/13/41
f 45/6/42 48/59/42 55/64/42
f 48/59/43 44/14/43 52/63/43
f 43/55/44 49/57/44 32/48/44
f 49/57/45 45/6/45 30/5/45
f 36/8/46 42/51/46 53/62/46
f 42/51/47 38/53/47 51/4/47
f 31/3/48 34/49/48 41/54/48
f 34/49/49 30/5/49 38/53/49
f 29/45/50 35/47/50 4/75/50
f 35/76/51 31/3/51 2/2/51
f 9/26/52 11/28/52 39/77/52
f 11/78/53 8/23/53 37/1/53
f 43/55/54 29/45/54 1/16/54
usemtl MortarBaseAccentMat
f 58/79/4 59/80/4 57/81/4
f 60/82/5 63/83/5 59/80/5
f 64/84/2 61/85/2 63/83/2
f 62/86/1 57/87/1 61/85/1
f 63/83/54 57/88/54 59/89/54
f 60/90/3 62/86/3 64/84/3
f 66/79/4 67/80/4 65/81/4
f 68/82/5 71/83/5 67/80/5
f 72/84/2 69/85/2 71/83/2
f 70/86/1 65/87/1 69/85/1
f 71/83/54 65/88/54 67/89/54
f 68/90/3 70/86/3 72/84/3
f 74/79/4 75/80/4 73/81/4
f 76/82/5 79/83/5 75/80/5
f 80/84/2 77/85/2 79/83/2
f 78/86/1 73/87/1 77/85/1
f 79/83/54 73/88/54 75/89/54
f 76/90/3 78/86/3 80/84/3
f 58/79/4 60/82/4 59/80/4
f 60/82/5 64/84/5 63/83/5
f 64/84/2 62/86/2 61/85/2
f 62/86/1 58/91/1 57/87/1
f 63/83/54 61/85/54 57/88/54
f 60/90/3 58/92/3 62/86/3
f 66/79/4 68/82/4 67/80/4
f 68/82/5 72/84/5 71/83/5
f 72/84/2 70/86/2 69/85/2
f 70/86/1 66/91/1 65/87/1
f 71/83/54 69/85/54 65/88/54
f 68/90/3 66/92/3 70/86/3
f 74/79/4 76/82/4 75/80/4
f 76/82/5 80/84/5 79/83/5
f 80/84/2 78/86/2 77/85/2
f 78/86/1 74/91/1 73/87/1
f 79/83/54 77/85/54 73/88/54
f 76/90/3 74/92/3 78/86/3
