# Blender 4.0.2
# www.blender.org
mtllib sniper_base.mtl
o SniperBase
v 0.000000 0.290000 -0.100000
v 0.000000 0.350000 -0.100000
v 0.050000 0.290000 -0.086603
v 0.050000 0.350000 -0.086603
v 0.086603 0.290000 -0.050000
v 0.086603 0.350000 -0.050000
v 0.100000 0.290000 0.000000
v 0.100000 0.350000 0.000000
v 0.086603 0.290000 0.050000
v 0.086603 0.350000 0.050000
v 0.050000 0.290000 0.086603
v 0.050000 0.350000 0.086603
v 0.000000 0.290000 0.100000
v 0.000000 0.350000 0.100000
v -0.050000 0.290000 0.086603
v -0.050000 0.350000 0.086603
v -0.086603 0.290000 0.050000
v -0.086603 0.350000 0.050000
v -0.100000 0.290000 0.000000
v -0.100000 0.350000 0.000000
v -0.086603 0.290000 -0.050000
v -0.086603 0.350000 -0.050000
v -0.050000 0.290000 -0.086603
v -0.050000 0.350000 -0.086603
v 0.000000 0.049122 -0.439415
v 0.000000 0.329122 -0.019414
v 0.024749 0.040592 -0.433728
v 0.035000 0.020000 -0.420000
v 0.035000 0.300000 0.000000
v 0.024749 -0.000592 -0.406272
v 0.024749 0.279408 0.013728
v 0.000000 -0.009122 -0.400586
v -0.000000 0.270878 0.019415
v -0.024749 -0.000592 -0.406272
v -0.035000 0.020000 -0.420000
v -0.035000 0.300000 0.000000
v -0.024749 0.040592 -0.433728
v -0.024749 0.320592 -0.013728
v -0.380544 0.049122 0.219707
v -0.016813 0.329122 0.009707
v -0.387994 0.040592 0.195431
v -0.381231 0.020000 0.179689
v -0.017500 0.300000 -0.030311
v -0.364216 -0.000592 0.181703
v -0.000485 0.279408 -0.028297
v -0.346917 -0.009122 0.200293
v 0.016813 0.270878 -0.009707
v -0.339467 -0.000592 0.224569
v -0.346231 0.020000 0.240311
v 0.017500 0.300000 0.030311
v -0.363245 0.040592 0.238297
v 0.380544 0.049122 0.219707
v 0.016813 0.329122 0.009707
v 0.363245 0.040592 0.238297
v -0.000485 0.320592 0.028297
v 0.346231 0.020000 0.240311
v -0.017500 0.300000 0.030311
v 0.339467 -0.000592 0.224569
v -0.024263 0.279408 0.014569
v 0.346917 -0.009122 0.200293
v -0.016813 0.270878 -0.009707
v 0.364216 -0.000592 0.181703
v 0.381231 0.020000 0.179689
v 0.017500 0.300000 -0.030311
v 0.387994 0.040592 0.195431
v 0.024263 0.320592 -0.014569
vn 0.2588 -0.0000 -0.9659
vn 0.7071 -0.0000 -0.7071
vn 0.9659 -0.0000 -0.2588
vn 0.9659 -0.0000 0.2588
vn 0.7071 -0.0000 0.7071
vn 0.2588 -0.0000 0.9659
vn -0.2588 -0.0000 0.9659
vn -0.7071 -0.0000 0.7071
vn -0.9659 -0.0000 0.2588
vn -0.9659 -0.0000 -0.2588
vn -0.0000 1.0000 -0.0000
vn -0.7071 -0.0000 -0.7071
vn -0.2588 -0.0000 -0.9659
vn -0.0000 -1.0000 -0.0000
vn 0.3827 0.7684 -0.5129
vn 0.9239 0.3187 -0.2118
vn 0.9239 -0.3184 0.2123
vn 0.3827 -0.7687 0.5125
vn -0.3827 -0.7687 0.5125
vn -0.9239 -0.3184 0.2123
vn -0.0000 0.5547 0.8321
vn -0.9239 0.3184 -0.2123
vn -0.3827 0.7687 -0.5125
vn -0.0000 -0.5547 -0.8321
vn -0.6355 0.7684 -0.0750
vn -0.6454 0.3187 -0.6942
vn -0.2781 -0.3184 -0.9062
vn 0.2525 -0.7687 -0.5877
vn 0.6352 -0.7687 0.0752
vn 0.6458 -0.3184 0.6940
vn 0.7206 0.5547 -0.4160
vn 0.2785 0.3187 0.9060
vn -0.2528 0.7684 0.5879
vn -0.7206 -0.5547 0.4160
vn 0.2525 0.7687 0.5877
vn -0.2781 0.3184 0.9062
vn -0.6458 -0.3184 0.6940
vn -0.6352 -0.7687 0.0752
vn -0.2525 -0.7687 -0.5877
vn 0.2781 -0.3184 -0.9062
vn -0.7206 0.5547 -0.4160
vn 0.6458 0.3184 -0.6940
vn 0.6352 0.7687 -0.0752
vn 0.7206 -0.5547 0.4160
vn 0.3740 0.7717 -0.5144
vn 0.9201 0.3260 -0.2173
vn -0.3740 -0.7719 0.5140
vn -0.9201 -0.3257 0.2177
vn 0.0482 0.5935 0.8034
vn -0.6325 0.7717 -0.0667
vn -0.6482 0.3260 -0.6881
vn 0.6322 -0.7719 0.0669
vn 0.6486 -0.3257 0.6879
vn 0.6716 0.5935 -0.4434
vn 0.7198 0.5935 -0.3599
vn 0.2718 0.3260 0.9055
vn -0.2585 0.7717 0.5811
vn -0.2581 -0.7719 -0.5809
vn 0.2715 -0.3257 -0.9057
vn -0.7198 0.5935 -0.3599
vt 1.000000 1.000000
vt 0.916667 0.500000
vt 1.000000 0.500000
vt 0.916667 1.000000
vt 0.833333 0.500000
vt 0.833333 1.000000
vt 0.750000 0.500000
vt 0.750000 1.000000
vt 0.666667 0.500000
vt 0.666667 1.000000
vt 0.583333 0.500000
vt 0.583333 1.000000
vt 0.500000 0.500000
vt 0.500000 1.000000
vt 0.416667 0.500000
vt 0.416667 1.000000
vt 0.333333 0.500000
vt 0.333333 1.000000
vt 0.250000 0.500000
vt 0.250000 1.000000
vt 0.166667 0.500000
vt 0.042154 0.370000
vt 0.250000 0.010000
vt 0.457846 0.370000
vt 0.166667 1.000000
vt 0.083333 0.500000
vt 0.083333 1.000000
vt 0.000000 0.500000
vt 0.990000 0.250000
vt 0.630000 0.042154
vt 0.630000 0.457846
vt 0.875000 1.000000
vt 0.875000 0.500000
vt 0.750000 0.500000
vt 0.625000 1.000000
vt 0.625000 0.500000
vt 0.500000 0.500000
vt 0.500000 1.000000
vt 0.375000 0.500000
vt 0.250000 1.000000
vt 0.250000 0.500000
vt 0.010000 0.250000
vt 0.250000 0.010000
vt 0.490000 0.250000
vt 0.125000 1.000000
vt 0.125000 0.500000
vt 0.000000 1.000000
vt 0.000000 0.500000
vt 0.919706 0.080294
vt 0.580294 0.080294
vt 0.580294 0.419706
vt 0.750000 1.000000
vt 0.370000 0.457846
vt 0.250000 0.490000
vt 0.130000 0.457846
vt 0.010000 0.250000
vt 0.042154 0.130000
vt 0.130000 0.042154
vt 0.370000 0.042154
vt 0.457846 0.130000
vt 0.490000 0.250000
vt 0.000000 1.000000
vt 0.750000 0.490000
vt 0.870000 0.457846
vt 0.957846 0.370000
vt 0.957846 0.130000
vt 0.870000 0.042154
vt 0.750000 0.010000
vt 0.542154 0.130000
vt 0.510000 0.250000
vt 0.542154 0.370000
vt 0.375000 1.000000
vt 0.419706 0.419706
vt 0.250000 0.490000
vt 0.080294 0.419706
vt 0.080294 0.080294
vt 0.419706 0.080294
vt 0.750000 0.490000
vt 0.919706 0.419706
vt 0.750000 0.010000
s 0
usemtl SniperTripod
f 2/1/1 3/2/1 1/3/1
f 4/4/2 5/5/2 3/2/2
f 6/6/3 7/7/3 5/5/3
f 8/8/4 9/9/4 7/7/4
f 10/10/5 11/11/5 9/9/5
f 12/12/6 13/13/6 11/11/6
f 14/14/7 15/15/7 13/13/7
f 16/16/8 17/17/8 15/15/8
f 18/18/9 19/19/9 17/17/9
f 20/20/10 21/21/10 19/19/10
f 22/22/11 14/23/11 6/24/11
f 22/25/12 23/26/12 21/21/12
f 24/27/13 1/28/13 23/26/13
f 7/29/14 15/30/14 23/31/14
f 25/3/15 66/32/15 27/33/15
f 66/32/16 28/34/16 27/33/16
f 28/34/17 31/35/17 30/36/17
f 31/35/18 32/37/18 30/36/18
f 33/38/19 34/39/19 32/37/19
f 34/39/20 36/40/20 35/41/20
f 36/42/21 33/43/21 29/44/21
f 35/41/22 38/45/22 37/46/22
f 37/46/23 26/47/23 25/48/23
f 30/49/24 34/50/24 37/51/24
f 39/3/25 38/32/25 41/33/25
f 38/32/26 42/34/26 41/33/26
f 43/52/27 44/36/27 42/34/27
f 45/35/28 46/37/28 44/36/28
f 47/38/29 48/39/29 46/37/29
f 48/39/30 50/40/30 49/41/30
f 50/42/31 47/43/31 43/44/31
f 49/41/32 55/45/32 51/46/32
f 55/45/33 39/48/33 51/46/33
f 44/49/34 48/50/34 51/51/34
f 52/3/35 55/32/35 54/33/35
f 54/33/36 57/52/36 56/34/36
f 57/52/37 58/36/37 56/34/37
f 58/36/38 61/38/38 60/37/38
f 61/38/39 62/39/39 60/37/39
f 62/39/40 64/40/40 63/41/40
f 64/42/41 61/43/41 57/44/41
f 64/40/42 65/46/42 63/41/42
f 65/46/43 53/47/43 52/48/43
f 58/49/44 62/50/44 65/51/44
f 2/1/1 4/4/1 3/2/1
f 4/4/2 6/6/2 5/5/2
f 6/6/3 8/8/3 7/7/3
f 8/8/4 10/10/4 9/9/4
f 10/10/5 12/12/5 11/11/5
f 12/12/6 14/14/6 13/13/6
f 14/14/7 16/16/7 15/15/7
f 16/16/8 18/18/8 17/17/8
f 18/18/9 20/20/9 19/19/9
f 20/20/10 22/25/10 21/21/10
f 6/24/11 4/53/11 2/54/11
f 2/54/11 24/55/11 22/22/11
f 22/22/11 20/56/11 18/57/11
f 18/57/11 16/58/11 14/23/11
f 14/23/11 12/59/11 10/60/11
f 10/60/11 8/61/11 6/24/11
f 6/24/11 2/54/11 22/22/11
f 22/22/11 18/57/11 14/23/11
f 14/23/11 10/60/11 6/24/11
f 22/25/12 24/27/12 23/26/12
f 24/27/13 2/62/13 1/28/13
f 23/31/14 1/63/14 3/64/14
f 3/64/14 5/65/14 7/29/14
f 7/29/14 9/66/14 11/67/14
f 11/67/14 13/68/14 15/30/14
f 15/30/14 17/69/14 19/70/14
f 19/70/14 21/71/14 23/31/14
f 23/31/14 3/64/14 7/29/14
f 7/29/14 11/67/14 15/30/14
f 15/30/14 19/70/14 23/31/14
f 25/3/45 26/1/45 66/32/45
f 66/32/46 29/52/46 28/34/46
f 28/34/17 29/52/17 31/35/17
f 31/35/18 33/38/18 32/37/18
f 33/38/47 59/72/47 34/39/47
f 34/39/48 59/72/48 36/40/48
f 29/44/49 66/73/49 26/74/49
f 26/74/21 38/75/21 36/42/21
f 36/42/49 59/76/49 33/43/49
f 33/43/21 31/77/21 29/44/21
f 29/44/21 26/74/21 36/42/21
f 35/41/22 36/40/22 38/45/22
f 37/46/23 38/45/23 26/47/23
f 37/51/24 25/78/24 27/79/24
f 27/79/24 28/29/24 30/49/24
f 30/49/24 32/80/24 34/50/24
f 34/50/24 35/70/24 37/51/24
f 37/51/24 27/79/24 30/49/24
f 39/3/50 40/1/50 38/32/50
f 38/32/51 43/52/51 42/34/51
f 43/52/27 45/35/27 44/36/27
f 45/35/28 47/38/28 46/37/28
f 47/38/52 31/72/52 48/39/52
f 48/39/53 31/72/53 50/40/53
f 43/44/54 38/73/54 40/74/54
f 40/74/55 55/75/55 50/42/55
f 50/42/54 31/76/54 47/43/54
f 47/43/31 45/77/31 43/44/31
f 43/44/31 40/74/31 50/42/31
f 49/41/56 50/40/56 55/45/56
f 55/45/57 40/47/57 39/48/57
f 51/51/34 39/78/34 41/79/34
f 41/79/34 42/29/34 44/49/34
f 44/49/34 46/80/34 48/50/34
f 48/50/34 49/70/34 51/51/34
f 51/51/34 41/79/34 44/49/34
f 52/3/35 53/1/35 55/32/35
f 54/33/36 55/32/36 57/52/36
f 57/52/37 59/35/37 58/36/37
f 58/36/38 59/35/38 61/38/38
f 61/38/58 45/72/58 62/39/58
f 62/39/59 45/72/59 64/40/59
f 57/44/41 55/73/41 53/74/41
f 53/74/41 66/75/41 64/42/41
f 64/42/60 45/76/60 61/43/60
f 61/43/41 59/77/41 57/44/41
f 57/44/41 53/74/41 64/42/41
f 64/40/42 66/45/42 65/46/42
f 65/46/43 66/45/43 53/47/43
f 65/51/44 52/78/44 54/79/44
f 54/79/44 56/29/44 58/49/44
f 58/49/44 60/80/44 62/50/44
f 62/50/44 63/70/44 65/51/44
f 65/51/44 54/79/44 58/49/44
