# Blender 4.0.2
# www.blender.org
mtllib sniper_turret.mtl
o SniperTurret
v 0.075000 0.060000 -0.035000
v 0.725000 0.060000 -0.035000
v 0.075000 0.042500 -0.030311
v 0.725000 0.042500 -0.030311
v 0.075000 0.029689 -0.017500
v 0.725000 0.029689 -0.017500
v 0.075000 0.025000 0.000000
v 0.725000 0.025000 0.000000
v 0.075000 0.029689 0.017500
v 0.725000 0.029689 0.017500
v 0.075000 0.042500 0.030311
v 0.725000 0.042500 0.030311
v 0.075000 0.060000 0.035000
v 0.725000 0.060000 0.035000
v 0.075000 0.077500 0.030311
v 0.725000 0.077500 0.030311
v 0.075000 0.090311 0.017500
v 0.725000 0.090311 0.017500
v 0.075000 0.095000 0.000000
v 0.725000 0.095000 0.000000
v 0.075000 0.090311 -0.017500
v 0.725000 0.090311 -0.017500
v 0.075000 0.077500 -0.030311
v 0.725000 0.077500 -0.030311
v -0.200000 -0.010000 0.045000
v -0.200000 0.130000 0.045000
v -0.200000 -0.010000 -0.045000
v -0.200000 0.130000 -0.045000
v 0.040000 -0.010000 0.045000
v 0.040000 0.130000 0.045000
v 0.040000 -0.010000 -0.045000
v 0.040000 0.130000 -0.045000
v 0.010000 0.140000 -0.025000
v 0.230000 0.140000 -0.025000
v 0.010000 0.127500 -0.021651
v 0.230000 0.127500 -0.021651
v 0.010000 0.118349 -0.012500
v 0.230000 0.118349 -0.012500
v 0.010000 0.115000 0.000000
v 0.230000 0.115000 0.000000
v 0.010000 0.118349 0.012500
v 0.230000 0.118349 0.012500
v 0.010000 0.127500 0.021651
v 0.230000 0.127500 0.021651
v 0.010000 0.140000 0.025000
v 0.230000 0.140000 0.025000
v 0.010000 0.152500 0.021651
v 0.230000 0.152500 0.021651
v 0.010000 0.161651 0.012500
v 0.230000 0.161651 0.012500
v 0.010000 0.165000 0.000000
v 0.230000 0.165000 0.000000
v 0.010000 0.161651 -0.012500
v 0.230000 0.161651 -0.012500
v 0.010000 0.152500 -0.021651
v 0.230000 0.152500 -0.021651
v 0.020000 0.080000 -0.028000
v 0.020000 0.120000 -0.028000
v 0.039799 0.080000 -0.019799
v 0.039799 0.120000 -0.019799
v 0.048000 0.080000 0.000000
v 0.048000 0.120000 0.000000
v 0.039799 0.080000 0.019799
v 0.039799 0.120000 0.019799
v 0.020000 0.080000 0.028000
v 0.020000 0.120000 0.028000
v 0.000201 0.080000 0.019799
v 0.000201 0.120000 0.019799
v -0.008000 0.080000 0.000000
v -0.008000 0.120000 0.000000
v 0.000201 0.080000 -0.019799
v 0.000201 0.120000 -0.019799
vn -0.0000 -0.2588 -0.9659
vn -0.0000 -0.7071 -0.7071
vn -0.0000 -0.9659 -0.2588
vn -0.0000 -0.9659 0.2588
vn -0.0000 -0.7071 0.7071
vn -0.0000 -0.2588 0.9659
vn -0.0000 0.2588 0.9659
vn -0.0000 0.7071 0.7071
vn -0.0000 0.9659 0.2588
vn -0.0000 0.9659 -0.2588
vn 1.0000 -0.0000 -0.0000
vn -0.0000 0.7071 -0.7071
vn -0.0000 0.2588 -0.9659
vn -1.0000 -0.0000 -0.0000
vn -0.0000 -0.0000 -1.0000
vn -0.0000 -0.0000 1.0000
vn -0.0000 -1.0000 -0.0000
vn -0.0000 1.0000 -0.0000
vn 0.3827 -0.0000 -0.9239
vn 0.9239 -0.0000 -0.3827
vn 0.9239 -0.0000 0.3827
vn 0.3827 -0.0000 0.9239
vn -0.3827 -0.0000 0.9239
vn -0.9239 -0.0000 0.3827
vn -0.9239 -0.0000 -0.3827
vn -0.3827 -0.0000 -0.9239
vt 1.000000 1.000000
vt 0.916667 0.500000
vt 1.000000 0.500000
vt 0.916667 1.000000
vt 0.833333 0.500000
vt 0.833333 1.000000
vt 0.750000 0.500000
vt 0.750000 1.000000
vt 0.666667 0.500000
vt 0.666667 1.000000
vt 0.583333 0.500000
vt 0.583333 1.000000
vt 0.500000 0.500000
vt 0.500000 1.000000
vt 0.416667 0.500000
vt 0.416667 1.000000
vt 0.333333 0.500000
vt 0.333333 1.000000
vt 0.250000 0.500000
vt 0.250000 1.000000
vt 0.166667 0.500000
vt 0.042154 0.370000
vt 0.250000 0.010000
vt 0.457846 0.370000
vt 0.166667 1.000000
vt 0.083333 0.500000
vt 0.083333 1.000000
vt 0.000000 0.500000
vt 0.990000 0.250000
vt 0.630000 0.042154
vt 0.630000 0.457846
vt 0.625000 0.000000
vt 0.375000 0.250000
vt 0.375000 0.000000
vt 0.625000 0.250000
vt 0.375000 0.500000
vt 0.625000 0.500000
vt 0.375000 0.750000
vt 0.625000 1.000000
vt 0.375000 1.000000
vt 0.125000 0.750000
vt 0.125000 0.500000
vt 0.875000 0.500000
vt 0.625000 0.750000
vt 0.250000 0.010000
vt 0.875000 1.000000
vt 0.750000 0.500000
vt 0.500000 0.500000
vt 0.500000 1.000000
vt 0.250000 1.000000
vt 0.250000 0.500000
vt 0.010000 0.250000
vt 0.490000 0.250000
vt 0.125000 1.000000
vt 0.000000 0.500000
vt 0.919706 0.080294
vt 0.580294 0.080294
vt 0.580294 0.419706
vt 0.370000 0.457846
vt 0.250000 0.490000
vt 0.130000 0.457846
vt 0.010000 0.250000
vt 0.042154 0.130000
vt 0.130000 0.042154
vt 0.370000 0.042154
vt 0.457846 0.130000
vt 0.490000 0.250000
vt 0.000000 1.000000
vt 0.750000 0.490000
vt 0.870000 0.457846
vt 0.957846 0.370000
vt 0.957846 0.130000
vt 0.870000 0.042154
vt 0.750000 0.010000
vt 0.542154 0.130000
vt 0.510000 0.250000
vt 0.542154 0.370000
vt 0.875000 0.750000
vt 0.250000 0.490000
vt 0.130000 0.457846
vt 0.042154 0.130000
vt 0.130000 0.042154
vt 0.457846 0.130000
vt 0.750000 0.490000
vt 0.957846 0.130000
vt 0.750000 0.010000
vt 0.542154 0.130000
vt 0.750000 1.000000
vt 0.419706 0.419706
vt 0.080294 0.419706
vt 0.080294 0.080294
vt 0.419706 0.080294
vt 0.000000 1.000000
vt 0.919706 0.419706
s 0
usemtl SniperBody
f 2/1/1 3/2/1 1/3/1
f 4/4/2 5/5/2 3/2/2
f 6/6/3 7/7/3 5/5/3
f 8/8/4 9/9/4 7/7/4
f 10/10/5 11/11/5 9/9/5
f 12/12/6 13/13/6 11/11/6
f 14/14/7 15/15/7 13/13/7
f 16/16/8 17/17/8 15/15/8
f 18/18/9 19/19/9 17/17/9
f 20/20/10 21/21/10 19/19/10
f 22/22/11 14/23/11 6/24/11
f 22/25/12 23/26/12 21/21/12
f 24/27/13 1/28/13 23/26/13
f 7/29/14 15/30/14 23/31/14
f 26/32/14 27/33/14 25/34/14
f 28/35/15 31/36/15 27/33/15
f 32/37/11 29/38/11 31/36/11
f 29/38/16 26/39/16 25/40/16
f 31/36/17 25/41/17 27/42/17
f 28/43/18 30/44/18 32/37/18
f 2/1/1 4/4/1 3/2/1
f 4/4/2 6/6/2 5/5/2
f 6/6/3 8/8/3 7/7/3
f 8/8/4 10/10/4 9/9/4
f 10/10/5 12/12/5 11/11/5
f 12/12/6 14/14/6 13/13/6
f 14/14/7 16/16/7 15/15/7
f 16/16/8 18/18/8 17/17/8
f 18/18/9 20/20/9 19/19/9
f 20/20/10 22/25/10 21/21/10
f 6/24/11 4/59/11 2/60/11
f 2/60/11 24/61/11 22/22/11
f 22/22/11 20/62/11 18/63/11
f 18/63/11 16/64/11 14/23/11
f 14/23/11 12/65/11 10/66/11
f 10/66/11 8/67/11 6/24/11
f 6/24/11 2/60/11 22/22/11
f 22/22/11 18/63/11 14/23/11
f 14/23/11 10/66/11 6/24/11
f 22/25/12 24/27/12 23/26/12
f 24/27/13 2/68/13 1/28/13
f 23/31/14 1/69/14 3/70/14
f 3/70/14 5/71/14 7/29/14
f 7/29/14 9/72/14 11/73/14
f 11/73/14 13/74/14 15/30/14
f 15/30/14 17/75/14 19/76/14
f 19/76/14 21/77/14 23/31/14
f 23/31/14 3/70/14 7/29/14
f 7/29/14 11/73/14 15/30/14
f 15/30/14 19/76/14 23/31/14
f 26/32/14 28/35/14 27/33/14
f 28/35/15 32/37/15 31/36/15
f 32/37/11 30/44/11 29/38/11
f 29/38/16 30/44/16 26/39/16
f 31/36/17 29/38/17 25/41/17
f 28/43/18 26/78/18 30/44/18
usemtl SniperAccent
f 34/1/1 35/2/1 33/3/1
f 36/4/2 37/5/2 35/2/2
f 38/6/3 39/7/3 37/5/3
f 40/8/4 41/9/4 39/7/4
f 42/10/5 43/11/5 41/9/5
f 44/12/6 45/13/6 43/11/6
f 46/14/7 47/15/7 45/13/7
f 48/16/8 49/17/8 47/15/8
f 50/18/9 51/19/9 49/17/9
f 52/20/10 53/21/10 51/19/10
f 54/22/11 46/45/11 38/24/11
f 54/25/12 55/26/12 53/21/12
f 56/27/13 33/28/13 55/26/13
f 39/29/14 47/30/14 55/31/14
f 58/1/19 59/43/19 57/3/19
f 60/46/20 61/47/20 59/43/20
f 61/47/21 64/39/21 63/37/21
f 64/39/22 65/48/22 63/37/22
f 66/49/23 67/36/23 65/48/23
f 67/36/24 70/50/24 69/51/24
f 70/52/18 66/45/18 62/53/18
f 70/50/25 71/42/25 69/51/25
f 72/54/26 57/55/26 71/42/26
f 63/56/17 67/57/17 71/58/17
f 34/1/1 36/4/1 35/2/1
f 36/4/2 38/6/2 37/5/2
f 38/6/3 40/8/3 39/7/3
f 40/8/4 42/10/4 41/9/4
f 42/10/5 44/12/5 43/11/5
f 44/12/6 46/14/6 45/13/6
f 46/14/7 48/16/7 47/15/7
f 48/16/8 50/18/8 49/17/8
f 50/18/9 52/20/9 51/19/9
f 52/20/10 54/25/10 53/21/10
f 38/24/11 36/59/11 34/79/11
f 34/79/11 56/80/11 54/22/11
f 54/22/11 52/52/11 50/81/11
f 50/81/11 48/82/11 46/45/11
f 46/45/11 44/65/11 42/83/11
f 42/83/11 40/53/11 38/24/11
f 38/24/11 34/79/11 54/22/11
f 54/22/11 50/81/11 46/45/11
f 46/45/11 42/83/11 38/24/11
f 54/25/12 56/27/12 55/26/12
f 56/27/13 34/68/13 33/28/13
f 55/31/14 33/84/14 35/70/14
f 35/70/14 37/71/14 39/29/14
f 39/29/14 41/85/14 43/73/14
f 43/73/14 45/86/14 47/30/14
f 47/30/14 49/87/14 51/76/14
f 51/76/14 53/77/14 55/31/14
f 55/31/14 35/70/14 39/29/14
f 39/29/14 43/73/14 47/30/14
f 47/30/14 51/76/14 55/31/14
f 58/1/19 60/46/19 59/43/19
f 60/46/20 62/88/20 61/47/20
f 61/47/21 62/88/21 64/39/21
f 64/39/22 66/49/22 65/48/22
f 66/49/23 68/40/23 67/36/23
f 67/36/24 68/40/24 70/50/24
f 62/53/18 60/89/18 58/79/18
f 58/79/18 72/90/18 70/52/18
f 70/52/18 68/91/18 66/45/18
f 66/45/18 64/92/18 62/53/18
f 62/53/18 58/79/18 70/52/18
f 70/50/25 72/54/25 71/42/25
f 72/54/26 58/93/26 57/55/26
f 71/58/17 57/84/17 59/94/17
f 59/94/17 61/29/17 63/56/17
f 63/56/17 65/86/17 67/57/17
f 67/57/17 69/76/17 71/58/17
f 71/58/17 59/94/17 63/56/17
