# Blender 4.0.2
# www.blender.org
mtllib tesla_turret.mtl
o TeslaTurret
v 0.000000 0.000000 -0.150000
v 0.000000 0.040000 -0.150000
v 0.029264 0.000000 -0.147118
v 0.029264 0.040000 -0.147118
v 0.057403 0.000000 -0.138582
v 0.057403 0.040000 -0.138582
v 0.083336 0.000000 -0.124720
v 0.083336 0.040000 -0.124720
v 0.106066 0.000000 -0.106066
v 0.106066 0.040000 -0.106066
v 0.124720 0.000000 -0.083336
v 0.124720 0.040000 -0.083336
v 0.138582 0.000000 -0.057403
v 0.138582 0.040000 -0.057403
v 0.147118 0.000000 -0.029264
v 0.147118 0.040000 -0.029264
v 0.150000 0.000000 0.000000
v 0.150000 0.040000 0.000000
v 0.147118 0.000000 0.029264
v 0.147118 0.040000 0.029264
v 0.138582 0.000000 0.057403
v 0.138582 0.040000 0.057403
v 0.124720 0.000000 0.083336
v 0.124720 0.040000 0.083336
v 0.106066 0.000000 0.106066
v 0.106066 0.040000 0.106066
v 0.083336 0.000000 0.124720
v 0.083336 0.040000 0.124720
v 0.057403 0.000000 0.138582
v 0.057403 0.040000 0.138582
v 0.029264 0.000000 0.147118
v 0.029264 0.040000 0.147118
v 0.000000 0.000000 0.150000
v 0.000000 0.040000 0.150000
v -0.029264 0.000000 0.147118
v -0.029264 0.040000 0.147118
v -0.057403 0.000000 0.138582
v -0.057403 0.040000 0.138582
v -0.083336 0.000000 0.124720
v -0.083336 0.040000 0.124720
v -0.106066 0.000000 0.106066
v -0.106066 0.040000 0.106066
v -0.124720 0.000000 0.083336
v -0.124720 0.040000 0.083336
v -0.138582 0.000000 0.057403
v -0.138582 0.040000 0.057403
v -0.147118 0.000000 0.029264
v -0.147118 0.040000 0.029264
v -0.150000 0.000000 0.000000
v -0.150000 0.040000 0.000000
v -0.147118 0.000000 -0.029264
v -0.147118 0.040000 -0.029264
v -0.138582 0.000000 -0.057403
v -0.138582 0.040000 -0.057403
v -0.124720 0.000000 -0.083336
v -0.124720 0.040000 -0.083336
v -0.106066 0.000000 -0.106066
v -0.106066 0.040000 -0.106066
v -0.083336 0.000000 -0.124720
v -0.083336 0.040000 -0.124720
v -0.057403 0.000000 -0.138582
v -0.057403 0.040000 -0.138582
v -0.029264 0.000000 -0.147118
v -0.029264 0.040000 -0.147118
v 0.000000 0.040000 -0.035000
v 0.000000 0.460000 -0.035000
v 0.020572 0.040000 -0.028316
v 0.020572 0.460000 -0.028316
v 0.033287 0.040000 -0.010816
v 0.033287 0.460000 -0.010816
v 0.033287 0.040000 0.010816
v 0.033287 0.460000 0.010816
v 0.020572 0.040000 0.028316
v 0.020572 0.460000 0.028316
v 0.000000 0.040000 0.035000
v 0.000000 0.460000 0.035000
v -0.020572 0.040000 0.028316
v -0.020572 0.460000 0.028316
v -0.033287 0.040000 0.010816
v -0.033287 0.460000 0.010816
v -0.033287 0.040000 -0.010816
v -0.033287 0.460000 -0.010816
v -0.020572 0.040000 -0.028316
v -0.020572 0.460000 -0.028316
v 0.020572 0.570622 -0.028316
v 0.035633 0.545000 -0.049044
v 0.041145 0.510000 -0.056631
v 0.035633 0.475000 -0.049044
v 0.020572 0.449378 -0.028316
v 0.033287 0.570622 -0.010816
v 0.057655 0.545000 -0.018733
v 0.066574 0.510000 -0.021631
v 0.057655 0.475000 -0.018733
v 0.033287 0.449378 -0.010816
v 0.033287 0.570622 0.010816
v 0.057655 0.545000 0.018733
v 0.066574 0.510000 0.021631
v 0.057655 0.475000 0.018733
v 0.033287 0.449378 0.010816
v 0.020572 0.570622 0.028316
v 0.035633 0.545000 0.049044
v 0.041145 0.510000 0.056631
v 0.035633 0.475000 0.049044
v 0.020572 0.449378 0.028316
v 0.000000 0.570622 0.035000
v 0.000000 0.545000 0.060622
v 0.000000 0.510000 0.070000
v 0.000000 0.475000 0.060622
v 0.000000 0.449378 0.035000
v -0.020572 0.570622 0.028316
v -0.035633 0.545000 0.049044
v -0.041145 0.510000 0.056631
v -0.035633 0.475000 0.049044
v -0.020572 0.449378 0.028316
v 0.000000 0.580000 0.000000
v -0.033287 0.570622 0.010816
v -0.057655 0.545000 0.018733
v -0.066574 0.510000 0.021631
v -0.057655 0.475000 0.018733
v -0.033287 0.449378 0.010816
v 0.000000 0.440000 0.000000
v -0.033287 0.570622 -0.010816
v -0.057655 0.545000 -0.018733
v -0.066574 0.510000 -0.021631
v -0.057655 0.475000 -0.018733
v -0.033287 0.449378 -0.010816
v -0.020572 0.570622 -0.028316
v -0.035633 0.545000 -0.049044
v -0.041145 0.510000 -0.056631
v -0.035633 0.475000 -0.049044
v -0.020572 0.449378 -0.028316
v -0.000000 0.570622 -0.035000
v -0.000000 0.545000 -0.060622
v -0.000000 0.510000 -0.070000
v -0.000000 0.475000 -0.060622
v -0.000000 0.449378 -0.035000
v 0.180000 0.040000 -0.215000
v 0.180000 0.340000 -0.215000
v 0.200572 0.040000 -0.208316
v 0.200572 0.340000 -0.208316
v 0.213287 0.040000 -0.190816
v 0.213287 0.340000 -0.190816
v 0.213287 0.040000 -0.169184
v 0.213287 0.340000 -0.169184
v 0.200572 0.040000 -0.151684
v 0.200572 0.340000 -0.151684
v 0.180000 0.040000 -0.145000
v 0.180000 0.340000 -0.145000
v 0.159428 0.040000 -0.151684
v 0.159428 0.340000 -0.151684
v 0.146713 0.040000 -0.169184
v 0.146713 0.340000 -0.169184
v 0.146713 0.040000 -0.190816
v 0.146713 0.340000 -0.190816
v 0.159428 0.040000 -0.208316
v 0.159428 0.340000 -0.208316
v 0.200572 0.450622 -0.208316
v 0.215633 0.425000 -0.229044
v 0.221145 0.390000 -0.236631
v 0.215633 0.355000 -0.229044
v 0.200572 0.329378 -0.208316
v 0.213287 0.450622 -0.190816
v 0.237655 0.425000 -0.198733
v 0.246574 0.390000 -0.201631
v 0.237655 0.355000 -0.198733
v 0.213287 0.329378 -0.190816
v 0.213287 0.450622 -0.169184
v 0.237655 0.425000 -0.161267
v 0.246574 0.390000 -0.158369
v 0.237655 0.355000 -0.161267
v 0.213287 0.329378 -0.169184
v 0.200572 0.450622 -0.151684
v 0.215633 0.425000 -0.130956
v 0.221145 0.390000 -0.123369
v 0.215633 0.355000 -0.130956
v 0.200572 0.329378 -0.151684
v 0.180000 0.450622 -0.145000
v 0.180000 0.425000 -0.119378
v 0.180000 0.390000 -0.110000
v 0.180000 0.355000 -0.119378
v 0.180000 0.329378 -0.145000
v 0.159428 0.450622 -0.151684
v 0.144367 0.425000 -0.130956
v 0.138855 0.390000 -0.123369
v 0.144367 0.355000 -0.130956
v 0.159428 0.329378 -0.151684
v 0.180000 0.460000 -0.180000
v 0.146713 0.450622 -0.169184
v 0.122345 0.425000 -0.161267
v 0.113426 0.390000 -0.158369
v 0.122345 0.355000 -0.161267
v 0.146713 0.329378 -0.169184
v 0.180000 0.320000 -0.180000
v 0.146713 0.450622 -0.190816
v 0.122345 0.425000 -0.198733
v 0.113426 0.390000 -0.201631
v 0.122345 0.355000 -0.198733
v 0.146713 0.329378 -0.190816
v 0.159428 0.450622 -0.208316
v 0.144367 0.425000 -0.229044
v 0.138855 0.390000 -0.236631
v 0.144367 0.355000 -0.229044
v 0.159428 0.329378 -0.208316
v 0.180000 0.450622 -0.215000
v 0.180000 0.425000 -0.240622
v 0.180000 0.390000 -0.250000
v 0.180000 0.355000 -0.240622
v 0.180000 0.329378 -0.215000
v -0.180000 0.040000 -0.215000
v -0.180000 0.300000 -0.215000
v -0.159428 0.040000 -0.208316
v -0.159428 0.300000 -0.208316
v -0.146713 0.040000 -0.190816
v -0.146713 0.300000 -0.190816
v -0.146713 0.040000 -0.169184
v -0.146713 0.300000 -0.169184
v -0.159428 0.040000 -0.151684
v -0.159428 0.300000 -0.151684
v -0.180000 0.040000 -0.145000
v -0.180000 0.300000 -0.145000
v -0.200572 0.040000 -0.151684
v -0.200572 0.300000 -0.151684
v -0.213287 0.040000 -0.169184
v -0.213287 0.300000 -0.169184
v -0.213287 0.040000 -0.190816
v -0.213287 0.300000 -0.190816
v -0.200572 0.040000 -0.208316
v -0.200572 0.300000 -0.208316
v -0.159428 0.410622 -0.208316
v -0.144367 0.385000 -0.229044
v -0.138855 0.350000 -0.236631
v -0.144367 0.315000 -0.229044
v -0.159428 0.289378 -0.208316
v -0.146713 0.410622 -0.190816
v -0.122345 0.385000 -0.198733
v -0.113426 0.350000 -0.201631
v -0.122345 0.315000 -0.198733
v -0.146713 0.289378 -0.190816
v -0.146713 0.410622 -0.169184
v -0.122345 0.385000 -0.161267
v -0.113426 0.350000 -0.158369
v -0.122345 0.315000 -0.161267
v -0.146713 0.289378 -0.169184
v -0.159428 0.410622 -0.151684
v -0.144367 0.385000 -0.130956
v -0.138855 0.350000 -0.123369
v -0.144367 0.315000 -0.130956
v -0.159428 0.289378 -0.151684
v -0.180000 0.410622 -0.145000
v -0.180000 0.385000 -0.119378
v -0.180000 0.350000 -0.110000
v -0.180000 0.315000 -0.119378
v -0.180000 0.289378 -0.145000
v -0.200572 0.410622 -0.151684
v -0.215633 0.385000 -0.130956
v -0.221145 0.350000 -0.123369
v -0.215633 0.315000 -0.130956
v -0.200572 0.289378 -0.151684
v -0.180000 0.420000 -0.180000
v -0.213287 0.410622 -0.169184
v -0.237655 0.385000 -0.161267
v -0.246574 0.350000 -0.158369
v -0.237655 0.315000 -0.161267
v -0.213287 0.289378 -0.169184
v -0.180000 0.280000 -0.180000
v -0.213287 0.410622 -0.190816
v -0.237655 0.385000 -0.198733
v -0.246574 0.350000 -0.201631
v -0.237655 0.315000 -0.198733
v -0.213287 0.289378 -0.190816
v -0.200572 0.410622 -0.208316
v -0.215633 0.385000 -0.229044
v -0.221145 0.350000 -0.236631
v -0.215633 0.315000 -0.229044
v -0.200572 0.289378 -0.208316
v -0.180000 0.410622 -0.215000
v -0.180000 0.385000 -0.240622
v -0.180000 0.350000 -0.250000
v -0.180000 0.315000 -0.240622
v -0.180000 0.289378 -0.215000
v 0.180000 0.040000 0.145000
v 0.180000 0.300000 0.145000
v 0.200572 0.040000 0.151684
v 0.200572 0.300000 0.151684
v 0.213287 0.040000 0.169184
v 0.213287 0.300000 0.169184
v 0.213287 0.040000 0.190816
v 0.213287 0.300000 0.190816
v 0.200572 0.040000 0.208316
v 0.200572 0.300000 0.208316
v 0.180000 0.040000 0.215000
v 0.180000 0.300000 0.215000
v 0.159428 0.040000 0.208316
v 0.159428 0.300000 0.208316
v 0.146713 0.040000 0.190816
v 0.146713 0.300000 0.190816
v 0.146713 0.040000 0.169184
v 0.146713 0.300000 0.169184
v 0.159428 0.040000 0.151684
v 0.159428 0.300000 0.151684
v 0.200572 0.410622 0.151684
v 0.215633 0.385000 0.130956
v 0.221145 0.350000 0.123369
v 0.215633 0.315000 0.130956
v 0.200572 0.289378 0.151684
v 0.213287 0.410622 0.169184
v 0.237655 0.385000 0.161267
v 0.246574 0.350000 0.158369
v 0.237655 0.315000 0.161267
v 0.213287 0.289378 0.169184
v 0.213287 0.410622 0.190816
v 0.237655 0.385000 0.198733
v 0.246574 0.350000 0.201631
v 0.237655 0.315000 0.198733
v 0.213287 0.289378 0.190816
v 0.200572 0.410622 0.208316
v 0.215633 0.385000 0.229044
v 0.221145 0.350000 0.236631
v 0.215633 0.315000 0.229044
v 0.200572 0.289378 0.208316
v 0.180000 0.410622 0.215000
v 0.180000 0.385000 0.240622
v 0.180000 0.350000 0.250000
v 0.180000 0.315000 0.240622
v 0.180000 0.289378 0.215000
v 0.159428 0.410622 0.208316
v 0.144367 0.385000 0.229044
v 0.138855 0.350000 0.236631
v 0.144367 0.315000 0.229044
v 0.159428 0.289378 0.208316
v 0.180000 0.420000 0.180000
v 0.146713 0.410622 0.190816
v 0.122345 0.385000 0.198733
v 0.113426 0.350000 0.201631
v 0.122345 0.315000 0.198733
v 0.146713 0.289378 0.190816
v 0.180000 0.280000 0.180000
v 0.146713 0.410622 0.169184
v 0.122345 0.385000 0.161267
v 0.113426 0.350000 0.158369
v 0.122345 0.315000 0.161267
v 0.146713 0.289378 0.169184
v 0.159428 0.410622 0.151684
v 0.144367 0.385000 0.130956
v 0.138855 0.350000 0.123369
v 0.144367 0.315000 0.130956
v 0.159428 0.289378 0.151684
v 0.180000 0.410622 0.145000
v 0.180000 0.385000 0.119378
v 0.180000 0.350000 0.110000
v 0.180000 0.315000 0.119378
v 0.180000 0.289378 0.145000
v -0.180000 0.040000 0.145000
v -0.180000 0.340000 0.145000
v -0.159428 0.040000 0.151684
v -0.159428 0.340000 0.151684
v -0.146713 0.040000 0.169184
v -0.146713 0.340000 0.169184
v -0.146713 0.040000 0.190816
v -0.146713 0.340000 0.190816
v -0.159428 0.040000 0.208316
v -0.159428 0.340000 0.208316
v -0.180000 0.040000 0.215000
v -0.180000 0.340000 0.215000
v -0.200572 0.040000 0.208316
v -0.200572 0.340000 0.208316
v -0.213287 0.040000 0.190816
v -0.213287 0.340000 0.190816
v -0.213287 0.040000 0.169184
v -0.213287 0.340000 0.169184
v -0.200572 0.040000 0.151684
v -0.200572 0.340000 0.151684
v -0.159428 0.450622 0.151684
v -0.144367 0.425000 0.130956
v -0.138855 0.390000 0.123369
v -0.144367 0.355000 0.130956
v -0.159428 0.329378 0.151684
v -0.146713 0.450622 0.169184
v -0.122345 0.425000 0.161267
v -0.113426 0.390000 0.158369
v -0.122345 0.355000 0.161267
v -0.146713 0.329378 0.169184
v -0.146713 0.450622 0.190816
v -0.122345 0.425000 0.198733
v -0.113426 0.390000 0.201631
v -0.122345 0.355000 0.198733
v -0.146713 0.329378 0.190816
v -0.159428 0.450622 0.208316
v -0.144367 0.425000 0.229044
v -0.138855 0.390000 0.236631
v -0.144367 0.355000 0.229044
v -0.159428 0.329378 0.208316
v -0.180000 0.450622 0.215000
v -0.180000 0.425000 0.240622
v -0.180000 0.390000 0.250000
v -0.180000 0.355000 0.240622
v -0.180000 0.329378 0.215000
v -0.200572 0.450622 0.208316
v -0.215633 0.425000 0.229044
v -0.221145 0.390000 0.236631
v -0.215633 0.355000 0.229044
v -0.200572 0.329378 0.208316
v -0.180000 0.460000 0.180000
v -0.213287 0.450622 0.190816
v -0.237655 0.425000 0.198733
v -0.246574 0.390000 0.201631
v -0.237655 0.355000 0.198733
v -0.213287 0.329378 0.190816
v -0.180000 0.320000 0.180000
v -0.213287 0.450622 0.169184
v -0.237655 0.425000 0.161267
v -0.246574 0.390000 0.158369
v -0.237655 0.355000 0.161267
v -0.213287 0.329378 0.169184
v -0.200572 0.450622 0.151684
v -0.215633 0.425000 0.130956
v -0.221145 0.390000 0.123369
v -0.215633 0.355000 0.130956
v -0.200572 0.329378 0.151684
v -0.180000 0.450622 0.145000
v -0.180000 0.425000 0.119378
v -0.180000 0.390000 0.110000
v -0.180000 0.355000 0.119378
v -0.180000 0.329378 0.145000
vn 0.0980 -0.0000 -0.9952
vn 0.2903 -0.0000 -0.9569
vn 0.4714 -0.0000 -0.8819
vn 0.6344 -0.0000 -0.7730
vn 0.7730 -0.0000 -0.6344
vn 0.8819 -0.0000 -0.4714
vn 0.9569 -0.0000 -0.2903
vn 0.9952 -0.0000 -0.0980
vn 0.9952 -0.0000 0.0980
vn 0.9569 -0.0000 0.2903
vn 0.8819 -0.0000 0.4714
vn 0.7730 -0.0000 0.6344
vn 0.6344 -0.0000 0.7730
vn 0.4714 -0.0000 0.8819
vn 0.2903 -0.0000 0.9569
vn 0.0980 -0.0000 0.9952
vn -0.0980 -0.0000 0.9952
vn -0.2903 -0.0000 0.9569
vn -0.4714 -0.0000 0.8819
vn -0.6344 -0.0000 0.7730
vn -0.7730 -0.0000 0.6344
vn -0.8819 -0.0000 0.4714
vn -0.9569 -0.0000 0.2903
vn -0.9952 -0.0000 0.0980
vn -0.9952 -0.0000 -0.0980
vn -0.9569 -0.0000 -0.2903
vn -0.8819 -0.0000 -0.4714
vn -0.7730 -0.0000 -0.6344
vn -0.6344 -0.0000 -0.7730
vn -0.4714 -0.0000 -0.8819
vn -0.0000 1.0000 -0.0000
vn -0.2903 -0.0000 -0.9569
vn -0.0980 -0.0000 -0.9952
vn -0.0000 -1.0000 -0.0000
vn 0.3090 -0.0000 -0.9511
vn 0.8090 -0.0000 -0.5878
vn 1.0000 -0.0000 -0.0000
vn 0.8090 -0.0000 0.5878
vn 0.3090 -0.0000 0.9511
vn -0.3090 -0.0000 0.9511
vn -0.8090 -0.0000 0.5878
vn -1.0000 -0.0000 -0.0000
vn -0.8090 -0.0000 -0.5878
vn -0.3090 -0.0000 -0.9511
vn 0.0838 -0.9625 -0.2579
vn 0.2994 -0.2469 -0.9216
vn 0.2239 0.6892 -0.6892
vn 0.2239 -0.6892 -0.6892
vn 0.2994 0.2469 -0.9216
vn 0.0838 0.9625 -0.2579
vn 0.7840 -0.2469 -0.5696
vn 0.5862 0.6892 -0.4259
vn 0.5862 -0.6892 -0.4259
vn 0.7840 0.2469 -0.5696
vn 0.2194 0.9625 -0.1594
vn 0.2194 -0.9625 -0.1594
vn 0.7246 0.6892 -0.0000
vn 0.7246 -0.6892 -0.0000
vn 0.9690 0.2469 -0.0000
vn 0.2712 0.9625 -0.0000
vn 0.2712 -0.9625 -0.0000
vn 0.9690 -0.2469 -0.0000
vn 0.5862 -0.6892 0.4259
vn 0.7840 0.2469 0.5696
vn 0.2194 0.9625 0.1594
vn 0.2194 -0.9625 0.1594
vn 0.7840 -0.2469 0.5696
vn 0.5862 0.6892 0.4259
vn 0.2239 -0.6892 0.6892
vn 0.2994 0.2469 0.9216
vn 0.0838 0.9625 0.2579
vn 0.0838 -0.9625 0.2579
vn 0.2994 -0.2469 0.9216
vn 0.2239 0.6892 0.6892
vn -0.2239 -0.6892 0.6892
vn -0.2994 0.2469 0.9216
vn -0.0838 0.9625 0.2579
vn -0.0838 -0.9625 0.2579
vn -0.2994 -0.2469 0.9216
vn -0.2239 0.6892 0.6892
vn -0.5862 -0.6892 0.4259
vn -0.7840 0.2469 0.5696
vn -0.2194 0.9625 0.1594
vn -0.2194 -0.9625 0.1594
vn -0.7840 -0.2469 0.5696
vn -0.5862 0.6892 0.4259
vn -0.9690 0.2469 -0.0000
vn -0.2712 0.9625 -0.0000
vn -0.2712 -0.9625 -0.0000
vn -0.9690 -0.2469 -0.0000
vn -0.7246 0.6892 -0.0000
vn -0.7246 -0.6892 -0.0000
vn -0.2194 0.9625 -0.1594
vn -0.2194 -0.9625 -0.1594
vn -0.7840 -0.2469 -0.5696
vn -0.5862 0.6892 -0.4259
vn -0.5862 -0.6892 -0.4259
vn -0.7840 0.2469 -0.5696
vn -0.0838 -0.9625 -0.2579
vn -0.2994 -0.2469 -0.9216
vn -0.2239 0.6892 -0.6892
vn -0.2239 -0.6892 -0.6892
vn -0.2994 0.2469 -0.9216
vn -0.0838 0.9625 -0.2579
vt 1.000000 1.000000
vt 0.968750 0.500000
vt 1.000000 0.500000
vt 0.968750 1.000000
vt 0.937500 0.500000
vt 0.937500 1.000000
vt 0.906250 0.500000
vt 0.906250 1.000000
vt 0.875000 0.500000
vt 0.875000 1.000000
vt 0.843750 0.500000
vt 0.843750 1.000000
vt 0.812500 0.500000
vt 0.812500 1.000000
vt 0.781250 0.500000
vt 0.781250 1.000000
vt 0.750000 0.500000
vt 0.750000 1.000000
vt 0.718750 0.500000
vt 0.718750 1.000000
vt 0.687500 0.500000
vt 0.687500 1.000000
vt 0.656250 0.500000
vt 0.656250 1.000000
vt 0.625000 0.500000
vt 0.625000 1.000000
vt 0.593750 0.500000
vt 0.593750 1.000000
vt 0.562500 0.500000
vt 0.562500 1.000000
vt 0.531250 0.500000
vt 0.531250 1.000000
vt 0.500000 0.500000
vt 0.500000 1.000000
vt 0.468750 0.500000
vt 0.468750 1.000000
vt 0.437500 0.500000
vt 0.437500 1.000000
vt 0.406250 0.500000
vt 0.406250 1.000000
vt 0.375000 0.500000
vt 0.375000 1.000000
vt 0.343750 0.500000
vt 0.343750 1.000000
vt 0.312500 0.500000
vt 0.312500 1.000000
vt 0.281250 0.500000
vt 0.281250 1.000000
vt 0.250000 0.500000
vt 0.250000 1.000000
vt 0.218750 0.500000
vt 0.218750 1.000000
vt 0.187500 0.500000
vt 0.187500 1.000000
vt 0.156250 0.500000
vt 0.156250 1.000000
vt 0.125000 0.500000
vt 0.125000 1.000000
vt 0.093750 0.500000
vt 0.093750 1.000000
vt 0.062500 0.500000
vt 0.158156 0.028269
vt 0.471731 0.158156
vt 0.341844 0.471731
vt 0.062500 1.000000
vt 0.031250 0.500000
vt 0.031250 1.000000
vt 0.000000 0.500000
vt 0.796822 0.014612
vt 0.514612 0.203178
vt 0.703178 0.485388
vt 0.900000 0.500000
vt 0.900000 1.000000
vt 0.800000 0.500000
vt 0.800000 1.000000
vt 0.700000 0.500000
vt 0.700000 1.000000
vt 0.600000 0.500000
vt 0.600000 1.000000
vt 0.500000 0.500000
vt 0.500000 1.000000
vt 0.400000 0.500000
vt 0.400000 1.000000
vt 0.300000 0.500000
vt 0.300000 1.000000
vt 0.200000 0.500000
vt 0.021746 0.324164
vt 0.391068 0.055836
vt 0.478254 0.324164
vt 0.200000 1.000000
vt 0.100000 0.500000
vt 0.100000 1.000000
vt -0.000000 0.500000
vt 0.978254 0.175836
vt 0.521746 0.175836
vt 0.608932 0.444164
vt 0.650000 0.000000
vt 0.700000 0.166667
vt 0.600000 0.166667
vt 0.700000 0.500000
vt 0.600000 0.333333
vt 0.700000 0.333333
vt 0.700000 0.833333
vt 0.600000 0.666667
vt 0.700000 0.666667
vt 0.600000 0.500000
vt 0.650000 1.000000
vt 0.600000 0.833333
vt 0.500000 0.333333
vt 0.500000 0.666667
vt 0.500000 0.166667
vt 0.550000 1.000000
vt 0.500000 0.833333
vt 0.550000 0.000000
vt 0.400000 0.666667
vt 0.400000 0.166667
vt 0.400000 0.500000
vt 0.450000 1.000000
vt 0.400000 0.833333
vt 0.450000 0.000000
vt 0.400000 0.333333
vt 0.300000 0.166667
vt 0.300000 0.500000
vt 0.350000 1.000000
vt 0.300000 0.833333
vt 0.350000 0.000000
vt 0.300000 0.333333
vt 0.300000 0.666667
vt 0.200000 0.166667
vt 0.200000 0.500000
vt 0.200000 0.833333
vt 0.250000 0.000000
vt 0.200000 0.333333
vt 0.200000 0.666667
vt 0.100000 0.166667
vt 0.100000 0.500000
vt 0.150000 1.000000
vt 0.100000 0.833333
vt 0.150000 0.000000
vt 0.100000 0.333333
vt 0.100000 0.666667
vt 0.000000 0.166667
vt 0.050000 1.000000
vt 0.000000 0.833333
vt 0.050000 0.000000
vt 0.000000 0.333333
vt 0.000000 0.666667
vt 1.000000 0.500000
vt 0.900000 0.666667
vt 0.900000 0.500000
vt 1.000000 0.833333
vt 0.950000 1.000000
vt 0.900000 0.833333
vt 0.950000 0.000000
vt 1.000000 0.166667
vt 0.900000 0.166667
vt 0.900000 0.333333
vt 1.000000 0.333333
vt 1.000000 0.666667
vt 0.850000 1.000000
vt 0.800000 0.833333
vt 0.850000 0.000000
vt 0.800000 0.166667
vt 0.800000 0.500000
vt 0.800000 0.333333
vt 0.800000 0.666667
vt 0.750000 0.000000
vt 0.296822 0.485388
vt 0.250000 0.490000
vt 0.203178 0.485388
vt 0.158156 0.471731
vt 0.116663 0.449553
vt 0.080294 0.419706
vt 0.050447 0.383337
vt 0.028269 0.341844
vt 0.014612 0.296822
vt 0.010000 0.250000
vt 0.014612 0.203178
vt 0.028269 0.158156
vt 0.050447 0.116663
vt 0.080294 0.080294
vt 0.116663 0.050447
vt 0.203178 0.014612
vt 0.250000 0.010000
vt 0.296822 0.014612
vt 0.341844 0.028269
vt 0.383337 0.050447
vt 0.419706 0.080294
vt 0.449553 0.116663
vt 0.485388 0.203178
vt 0.490000 0.250000
vt 0.485388 0.296822
vt 0.471731 0.341844
vt 0.449553 0.383337
vt 0.419706 0.419706
vt 0.383337 0.449553
vt 0.000000 1.000000
vt 0.750000 0.490000
vt 0.796822 0.485388
vt 0.841844 0.471731
vt 0.883337 0.449553
vt 0.919706 0.419706
vt 0.949553 0.383337
vt 0.971731 0.341844
vt 0.985388 0.296822
vt 0.990000 0.250000
vt 0.985388 0.203178
vt 0.971731 0.158156
vt 0.949553 0.116663
vt 0.919706 0.080294
vt 0.883337 0.050447
vt 0.841844 0.028269
vt 0.750000 0.010000
vt 0.703178 0.014612
vt 0.658156 0.028269
vt 0.616663 0.050447
vt 0.580294 0.080294
vt 0.550447 0.116663
vt 0.528269 0.158156
vt 0.510000 0.250000
vt 0.514612 0.296822
vt 0.528269 0.341844
vt 0.550447 0.383337
vt 0.580294 0.419706
vt 0.616663 0.449553
vt 0.658156 0.471731
vt 0.391068 0.444164
vt 0.250000 0.490000
vt 0.108932 0.444164
vt 0.021746 0.175836
vt 0.108932 0.055836
vt 0.250000 0.010000
vt 0.478254 0.175836
vt -0.000000 1.000000
vt 0.750000 0.490000
vt 0.891068 0.444164
vt 0.978254 0.324164
vt 0.891068 0.055836
vt 0.750000 0.010000
vt 0.608932 0.055836
vt 0.521746 0.324164
s 0
usemtl TeslaCoilMat
f 2/1/1 3/2/1 1/3/1
f 4/4/2 5/5/2 3/2/2
f 6/6/3 7/7/3 5/5/3
f 8/8/4 9/9/4 7/7/4
f 10/10/5 11/11/5 9/9/5
f 12/12/6 13/13/6 11/11/6
f 14/14/7 15/15/7 13/13/7
f 16/16/8 17/17/8 15/15/8
f 18/18/9 19/19/9 17/17/9
f 20/20/10 21/21/10 19/19/10
f 22/22/11 23/23/11 21/21/11
f 24/24/12 25/25/12 23/23/12
f 26/26/13 27/27/13 25/25/13
f 28/28/14 29/29/14 27/27/14
f 30/30/15 31/31/15 29/29/15
f 32/32/16 33/33/16 31/31/16
f 34/34/17 35/35/17 33/33/17
f 36/36/18 37/37/18 35/35/18
f 38/38/19 39/39/19 37/37/19
f 40/40/20 41/41/20 39/39/20
f 42/42/21 43/43/21 41/41/21
f 44/44/22 45/45/22 43/43/22
f 46/46/23 47/47/23 45/45/23
f 48/48/24 49/49/24 47/47/24
f 50/50/25 51/51/25 49/49/25
f 52/52/26 53/53/26 51/51/26
f 54/54/27 55/55/27 53/53/27
f 56/56/28 57/57/28 55/55/28
f 58/58/29 59/59/29 57/57/29
f 60/60/30 61/61/30 59/59/30
f 38/62/31 22/63/31 6/64/31
f 62/65/32 63/66/32 61/61/32
f 64/67/33 1/68/33 63/66/33
f 31/69/34 47/70/34 63/71/34
f 66/1/35 67/72/35 65/3/35
f 68/73/36 69/74/36 67/72/36
f 70/75/37 71/76/37 69/74/37
f 72/77/38 73/78/38 71/76/38
f 74/79/39 75/80/39 73/78/39
f 76/81/40 77/82/40 75/80/40
f 78/83/41 79/84/41 77/82/41
f 80/85/42 81/86/42 79/84/42
f 82/87/31 74/88/31 70/89/31
f 82/90/43 83/91/43 81/86/43
f 84/92/44 65/93/44 83/91/44
f 71/94/34 79/95/34 83/96/34
f 138/1/35 139/72/35 137/3/35
f 140/73/36 141/74/36 139/72/36
f 142/75/37 143/76/37 141/74/37
f 144/77/38 145/78/38 143/76/38
f 146/79/39 147/80/39 145/78/39
f 148/81/40 149/82/40 147/80/40
f 150/83/41 151/84/41 149/82/41
f 152/85/42 153/86/42 151/84/42
f 154/87/31 146/88/31 142/89/31
f 154/90/43 155/91/43 153/86/43
f 156/92/44 137/93/44 155/91/44
f 143/94/34 151/95/34 155/96/34
f 210/1/35 211/72/35 209/3/35
f 212/73/36 213/74/36 211/72/36
f 214/75/37 215/76/37 213/74/37
f 216/77/38 217/78/38 215/76/38
f 218/79/39 219/80/39 217/78/39
f 220/81/40 221/82/40 219/80/40
f 222/83/41 223/84/41 221/82/41
f 224/85/42 225/86/42 223/84/42
f 226/87/31 218/88/31 214/89/31
f 226/90/43 227/91/43 225/86/43
f 228/92/44 209/93/44 227/91/44
f 215/94/34 223/95/34 227/96/34
f 282/1/35 283/72/35 281/3/35
f 284/73/36 285/74/36 283/72/36
f 286/75/37 287/76/37 285/74/37
f 288/77/38 289/78/38 287/76/38
f 290/79/39 291/80/39 289/78/39
f 292/81/40 293/82/40 291/80/40
f 294/83/41 295/84/41 293/82/41
f 296/85/42 297/86/42 295/84/42
f 298/87/31 290/88/31 286/89/31
f 298/90/43 299/91/43 297/86/43
f 300/92/44 281/93/44 299/91/44
f 287/94/34 295/95/34 299/96/34
f 354/1/35 355/72/35 353/3/35
f 356/73/36 357/74/36 355/72/36
f 358/75/37 359/76/37 357/74/37
f 360/77/38 361/78/38 359/76/38
f 362/79/39 363/80/39 361/78/39
f 364/81/40 365/82/40 363/80/40
f 366/83/41 367/84/41 365/82/41
f 368/85/42 369/86/42 367/84/42
f 370/87/31 362/88/31 358/89/31
f 370/90/43 371/91/43 369/86/43
f 372/92/44 353/93/44 371/91/44
f 359/94/34 367/95/34 371/96/34
f 2/1/1 4/4/1 3/2/1
f 4/4/2 6/6/2 5/5/2
f 6/6/3 8/8/3 7/7/3
f 8/8/4 10/10/4 9/9/4
f 10/10/5 12/12/5 11/11/5
f 12/12/6 14/14/6 13/13/6
f 14/14/7 16/16/7 15/15/7
f 16/16/8 18/18/8 17/17/8
f 18/18/9 20/20/9 19/19/9
f 20/20/10 22/22/10 21/21/10
f 22/22/11 24/24/11 23/23/11
f 24/24/12 26/26/12 25/25/12
f 26/26/13 28/28/13 27/27/13
f 28/28/14 30/30/14 29/29/14
f 30/30/15 32/32/15 31/31/15
f 32/32/16 34/34/16 33/33/16
f 34/34/17 36/36/17 35/35/17
f 36/36/18 38/38/18 37/37/18
f 38/38/19 40/40/19 39/39/19
f 40/40/20 42/42/20 41/41/20
f 42/42/21 44/44/21 43/43/21
f 44/44/22 46/46/22 45/45/22
f 46/46/23 48/48/23 47/47/23
f 48/48/24 50/50/24 49/49/24
f 50/50/25 52/52/25 51/51/25
f 52/52/26 54/54/26 53/53/26
f 54/54/27 56/56/27 55/55/27
f 56/56/28 58/58/28 57/57/28
f 58/58/29 60/60/29 59/59/29
f 60/60/30 62/65/30 61/61/30
f 6/64/31 4/168/31 2/169/31
f 2/169/31 64/170/31 62/171/31
f 62/171/31 60/172/31 58/173/31
f 58/173/31 56/174/31 54/175/31
f 54/175/31 52/176/31 50/177/31
f 50/177/31 48/178/31 46/179/31
f 46/179/31 44/180/31 42/181/31
f 42/181/31 40/182/31 38/62/31
f 38/62/31 36/183/31 34/184/31
f 34/184/31 32/185/31 30/186/31
f 30/186/31 28/187/31 26/188/31
f 26/188/31 24/189/31 22/63/31
f 22/63/31 20/190/31 18/191/31
f 18/191/31 16/192/31 14/193/31
f 14/193/31 12/194/31 10/195/31
f 10/195/31 8/196/31 6/64/31
f 6/64/31 2/169/31 62/171/31
f 62/171/31 58/173/31 54/175/31
f 54/175/31 50/177/31 46/179/31
f 46/179/31 42/181/31 38/62/31
f 38/62/31 34/184/31 30/186/31
f 30/186/31 26/188/31 22/63/31
f 22/63/31 18/191/31 14/193/31
f 14/193/31 10/195/31 6/64/31
f 6/64/31 62/171/31 54/175/31
f 54/175/31 46/179/31 38/62/31
f 38/62/31 30/186/31 22/63/31
f 22/63/31 14/193/31 6/64/31
f 6/64/31 54/175/31 38/62/31
f 62/65/32 64/67/32 63/66/32
f 64/67/33 2/197/33 1/68/33
f 63/71/34 1/198/34 3/199/34
f 3/199/34 5/200/34 7/201/34
f 7/201/34 9/202/34 11/203/34
f 11/203/34 13/204/34 15/205/34
f 15/205/34 17/206/34 19/207/34
f 19/207/34 21/208/34 23/209/34
f 23/209/34 25/210/34 27/211/34
f 27/211/34 29/212/34 31/69/34
f 31/69/34 33/213/34 35/214/34
f 35/214/34 37/215/34 39/216/34
f 39/216/34 41/217/34 43/218/34
f 43/218/34 45/219/34 47/70/34
f 47/70/34 49/220/34 51/221/34
f 51/221/34 53/222/34 55/223/34
f 55/223/34 57/224/34 59/225/34
f 59/225/34 61/226/34 63/71/34
f 63/71/34 3/199/34 7/201/34
f 7/201/34 11/203/34 15/205/34
f 15/205/34 19/207/34 23/209/34
f 23/209/34 27/211/34 31/69/34
f 31/69/34 35/214/34 39/216/34
f 39/216/34 43/218/34 47/70/34
f 47/70/34 51/221/34 55/223/34
f 55/223/34 59/225/34 63/71/34
f 63/71/34 7/201/34 15/205/34
f 15/205/34 23/209/34 31/69/34
f 31/69/34 39/216/34 47/70/34
f 47/70/34 55/223/34 63/71/34
f 63/71/34 15/205/34 31/69/34
f 66/1/35 68/73/35 67/72/35
f 68/73/36 70/75/36 69/74/36
f 70/75/37 72/77/37 71/76/37
f 72/77/38 74/79/38 73/78/38
f 74/79/39 76/81/39 75/80/39
f 76/81/40 78/83/40 77/82/40
f 78/83/41 80/85/41 79/84/41
f 80/85/42 82/90/42 81/86/42
f 70/89/31 68/227/31 66/228/31
f 66/228/31 84/229/31 82/87/31
f 82/87/31 80/230/31 78/231/31
f 78/231/31 76/232/31 74/88/31
f 74/88/31 72/233/31 70/89/31
f 70/89/31 66/228/31 82/87/31
f 82/87/31 78/231/31 74/88/31
f 82/90/43 84/92/43 83/91/43
f 84/92/44 66/234/44 65/93/44
f 83/96/34 65/235/34 67/236/34
f 67/236/34 69/237/34 71/94/34
f 71/94/34 73/238/34 75/239/34
f 75/239/34 77/240/34 79/95/34
f 79/95/34 81/241/34 83/96/34
f 83/96/34 67/236/34 71/94/34
f 71/94/34 75/239/34 79/95/34
f 138/1/35 140/73/35 139/72/35
f 140/73/36 142/75/36 141/74/36
f 142/75/37 144/77/37 143/76/37
f 144/77/38 146/79/38 145/78/38
f 146/79/39 148/81/39 147/80/39
f 148/81/40 150/83/40 149/82/40
f 150/83/41 152/85/41 151/84/41
f 152/85/42 154/90/42 153/86/42
f 142/89/31 140/227/31 138/228/31
f 138/228/31 156/229/31 154/87/31
f 154/87/31 152/230/31 150/231/31
f 150/231/31 148/232/31 146/88/31
f 146/88/31 144/233/31 142/89/31
f 142/89/31 138/228/31 154/87/31
f 154/87/31 150/231/31 146/88/31
f 154/90/43 156/92/43 155/91/43
f 156/92/44 138/234/44 137/93/44
f 155/96/34 137/235/34 139/236/34
f 139/236/34 141/237/34 143/94/34
f 143/94/34 145/238/34 147/239/34
f 147/239/34 149/240/34 151/95/34
f 151/95/34 153/241/34 155/96/34
f 155/96/34 139/236/34 143/94/34
f 143/94/34 147/239/34 151/95/34
f 210/1/35 212/73/35 211/72/35
f 212/73/36 214/75/36 213/74/36
f 214/75/37 216/77/37 215/76/37
f 216/77/38 218/79/38 217/78/38
f 218/79/39 220/81/39 219/80/39
f 220/81/40 222/83/40 221/82/40
f 222/83/41 224/85/41 223/84/41
f 224/85/42 226/90/42 225/86/42
f 214/89/31 212/227/31 210/228/31
f 210/228/31 228/229/31 226/87/31
f 226/87/31 224/230/31 222/231/31
f 222/231/31 220/232/31 218/88/31
f 218/88/31 216/233/31 214/89/31
f 214/89/31 210/228/31 226/87/31
f 226/87/31 222/231/31 218/88/31
f 226/90/43 228/92/43 227/91/43
f 228/92/44 210/234/44 209/93/44
f 227/96/34 209/235/34 211/236/34
f 211/236/34 213/237/34 215/94/34
f 215/94/34 217/238/34 219/239/34
f 219/239/34 221/240/34 223/95/34
f 223/95/34 225/241/34 227/96/34
f 227/96/34 211/236/34 215/94/34
f 215/94/34 219/239/34 223/95/34
f 282/1/35 284/73/35 283/72/35
f 284/73/36 286/75/36 285/74/36
f 286/75/37 288/77/37 287/76/37
f 288/77/38 290/79/38 289/78/38
f 290/79/39 292/81/39 291/80/39
f 292/81/40 294/83/40 293/82/40
f 294/83/41 296/85/41 295/84/41
f 296/85/42 298/90/42 297/86/42
f 286/89/31 284/227/31 282/228/31
f 282/228/31 300/229/31 298/87/31
f 298/87/31 296/230/31 294/231/31
f 294/231/31 292/232/31 290/88/31
f 290/88/31 288/233/31 286/89/31
f 286/89/31 282/228/31 298/87/31
f 298/87/31 294/231/31 290/88/31
f 298/90/43 300/92/43 299/91/43
f 300/92/44 282/234/44 281/93/44
f 299/96/34 281/235/34 283/236/34
f 283/236/34 285/237/34 287/94/34
f 287/94/34 289/238/34 291/239/34
f 291/239/34 293/240/34 295/95/34
f 295/95/34 297/241/34 299/96/34
f 299/96/34 283/236/34 287/94/34
f 287/94/34 291/239/34 295/95/34
f 354/1/35 356/73/35 355/72/35
f 356/73/36 358/75/36 357/74/36
f 358/75/37 360/77/37 359/76/37
f 360/77/38 362/79/38 361/78/38
f 362/79/39 364/81/39 363/80/39
f 364/81/40 366/83/40 365/82/40
f 366/83/41 368/85/41 367/84/41
f 368/85/42 370/90/42 369/86/42
f 358/89/31 356/227/31 354/228/31
f 354/228/31 372/229/31 370/87/31
f 370/87/31 368/230/31 366/231/31
f 366/231/31 364/232/31 362/88/31
f 362/88/31 360/233/31 358/89/31
f 358/89/31 354/228/31 370/87/31
f 370/87/31 366/231/31 362/88/31
f 370/90/43 372/92/43 371/91/43
f 372/92/44 354/234/44 353/93/44
f 371/96/34 353/235/34 355/236/34
f 355/236/34 357/237/34 359/94/34
f 359/94/34 361/238/34 363/239/34
f 363/239/34 365/240/34 367/95/34
f 367/95/34 369/241/34 371/96/34
f 371/96/34 355/236/34 359/94/34
f 359/94/34 363/239/34 367/95/34
usemtl TeslaOrbMat
f 121/97/45 136/98/45 89/99/45
f 134/100/46 88/101/46 135/102/46
f 132/103/47 86/104/47 133/105/47
f 135/102/48 89/99/48 136/98/48
f 133/105/49 87/106/49 134/100/49
f 132/103/50 115/107/50 85/108/50
f 87/106/51 93/109/51 88/101/51
f 85/108/52 91/110/52 86/104/52
f 88/101/53 94/111/53 89/99/53
f 86/104/54 92/33/54 87/106/54
f 85/108/55 115/112/55 90/113/55
f 121/114/56 89/99/56 94/111/56
f 90/113/57 96/115/57 91/110/57
f 93/109/58 99/116/58 94/111/58
f 91/110/59 97/117/59 92/33/59
f 90/113/60 115/118/60 95/119/60
f 121/120/61 94/111/61 99/116/61
f 92/33/62 98/121/62 93/109/62
f 98/121/63 104/122/63 99/116/63
f 96/115/64 102/123/64 97/117/64
f 95/119/65 115/124/65 100/125/65
f 121/126/66 99/116/66 104/122/66
f 97/117/67 103/127/67 98/121/67
f 95/119/68 101/128/68 96/115/68
f 103/127/69 109/129/69 104/122/69
f 101/128/70 107/130/70 102/123/70
f 100/125/71 115/50/71 105/131/71
f 121/132/72 104/122/72 109/129/72
f 102/123/73 108/133/73 103/127/73
f 100/125/74 106/134/74 101/128/74
f 108/133/75 114/135/75 109/129/75
f 106/134/76 112/136/76 107/130/76
f 105/131/77 115/137/77 110/138/77
f 121/139/78 109/129/78 114/135/78
f 107/130/79 113/140/79 108/133/79
f 105/131/80 111/141/80 106/134/80
f 113/140/81 120/142/81 114/135/81
f 111/141/82 118/68/82 112/136/82
f 110/138/83 115/143/83 116/144/83
f 121/145/84 114/135/84 120/142/84
f 113/140/85 118/68/85 119/146/85
f 110/138/86 117/147/86 111/141/86
f 118/148/87 123/149/87 124/150/87
f 116/151/88 115/152/88 122/153/88
f 121/154/89 120/155/89 126/156/89
f 118/148/90 125/157/90 119/158/90
f 117/159/91 122/153/91 123/149/91
f 119/158/92 126/156/92 120/155/92
f 122/153/93 115/160/93 127/161/93
f 121/162/94 126/156/94 131/163/94
f 125/157/95 129/164/95 130/165/95
f 123/149/96 127/161/96 128/166/96
f 125/157/97 131/163/97 126/156/97
f 123/149/98 129/164/98 124/150/98
f 121/167/99 131/163/99 136/98/99
f 130/165/100 134/100/100 135/102/100
f 127/161/101 133/105/101 128/166/101
f 130/165/102 136/98/102 131/163/102
f 128/166/103 134/100/103 129/164/103
f 127/161/104 115/18/104 132/103/104
f 193/97/45 208/98/45 161/99/45
f 207/102/46 159/106/46 160/101/46
f 204/103/47 158/104/47 205/105/47
f 208/98/48 160/101/48 161/99/48
f 205/105/49 159/106/49 206/100/49
f 204/103/50 187/107/50 157/108/50
f 160/101/51 164/33/51 165/109/51
f 157/108/52 163/110/52 158/104/52
f 160/101/53 166/111/53 161/99/53
f 158/104/54 164/33/54 159/106/54
f 157/108/55 187/112/55 162/113/55
f 193/114/56 161/99/56 166/111/56
f 163/110/57 167/119/57 168/115/57
f 165/109/58 171/116/58 166/111/58
f 163/110/59 169/117/59 164/33/59
f 162/113/60 187/118/60 167/119/60
f 193/120/61 166/111/61 171/116/61
f 164/33/62 170/121/62 165/109/62
f 171/116/63 175/127/63 176/122/63
f 169/117/64 173/128/64 174/123/64
f 167/119/65 187/124/65 172/125/65
f 193/126/66 171/116/66 176/122/66
f 169/117/67 175/127/67 170/121/67
f 167/119/68 173/128/68 168/115/68
f 176/122/69 180/133/69 181/129/69
f 173/128/70 179/130/70 174/123/70
f 172/125/71 187/50/71 177/131/71
f 193/132/72 176/122/72 181/129/72
f 175/127/73 179/130/73 180/133/73
f 172/125/74 178/134/74 173/128/74
f 180/133/75 186/135/75 181/129/75
f 178/134/76 184/136/76 179/130/76
f 177/131/77 187/137/77 182/138/77
f 193/139/78 181/129/78 186/135/78
f 180/133/79 184/136/79 185/140/79
f 177/131/80 183/141/80 178/134/80
f 185/140/81 192/142/81 186/135/81
f 183/141/82 190/68/82 184/136/82
f 182/138/83 187/143/83 188/144/83
f 193/145/84 186/135/84 192/142/84
f 184/136/85 191/146/85 185/140/85
f 182/138/86 189/147/86 183/141/86
f 189/159/87 196/150/87 190/148/87
f 188/151/88 187/152/88 194/153/88
f 193/154/89 192/155/89 198/156/89
f 190/148/90 197/157/90 191/158/90
f 188/151/91 195/149/91 189/159/91
f 191/158/92 198/156/92 192/155/92
f 194/153/93 187/160/93 199/161/93
f 193/162/94 198/156/94 203/163/94
f 196/150/95 202/165/95 197/157/95
f 194/153/96 200/166/96 195/149/96
f 197/157/97 203/163/97 198/156/97
f 195/149/98 201/164/98 196/150/98
f 193/167/99 203/163/99 208/98/99
f 201/164/100 207/102/100 202/165/100
f 200/166/101 204/103/101 205/105/101
f 202/165/102 208/98/102 203/163/102
f 200/166/103 206/100/103 201/164/103
f 199/161/104 187/18/104 204/103/104
f 277/105/49 231/106/49 278/100/49
f 276/103/50 259/107/50 229/108/50
f 265/97/45 280/98/45 233/99/45
f 278/100/46 232/101/46 279/102/46
f 276/103/47 230/104/47 277/105/47
f 280/98/48 232/101/48 233/99/48
f 265/114/56 233/99/56 238/111/56
f 231/106/51 237/109/51 232/101/51
f 229/108/52 235/110/52 230/104/52
f 232/101/53 238/111/53 233/99/53
f 231/106/54 235/110/54 236/33/54
f 229/108/55 259/112/55 234/113/55
f 265/120/61 238/111/61 243/116/61
f 236/33/62 242/121/62 237/109/62
f 234/113/57 240/115/57 235/110/57
f 237/109/58 243/116/58 238/111/58
f 235/110/59 241/117/59 236/33/59
f 234/113/60 259/118/60 239/119/60
f 242/121/67 246/123/67 247/127/67
f 239/119/68 245/128/68 240/115/68
f 242/121/63 248/122/63 243/116/63
f 240/115/64 246/123/64 241/117/64
f 239/119/65 259/124/65 244/125/65
f 265/126/66 243/116/66 248/122/66
f 244/125/74 250/134/74 245/128/74
f 247/127/69 253/129/69 248/122/69
f 245/128/70 251/130/70 246/123/70
f 244/125/71 259/50/71 249/131/71
f 265/132/72 248/122/72 253/129/72
f 247/127/73 251/130/73 252/133/73
f 252/133/75 258/135/75 253/129/75
f 250/134/76 256/136/76 251/130/76
f 249/131/77 259/137/77 254/138/77
f 265/139/78 253/129/78 258/135/78
f 252/133/79 256/136/79 257/140/79
f 250/134/80 254/138/80 255/141/80
f 257/140/81 264/142/81 258/135/81
f 255/141/82 262/68/82 256/136/82
f 254/138/83 259/143/83 260/144/83
f 265/145/84 258/135/84 264/142/84
f 257/140/85 262/68/85 263/146/85
f 255/141/86 260/144/86 261/147/86
f 263/158/92 270/156/92 264/155/92
f 261/159/87 268/150/87 262/148/87
f 260/151/88 259/152/88 266/153/88
f 265/154/89 264/155/89 270/156/89
f 262/148/90 269/157/90 263/158/90
f 261/159/91 266/153/91 267/149/91
f 269/157/97 275/163/97 270/156/97
f 267/149/98 273/164/98 268/150/98
f 266/153/93 259/160/93 271/161/93
f 265/162/94 270/156/94 275/163/94
f 268/150/95 274/165/95 269/157/95
f 267/149/96 271/161/96 272/166/96
f 272/166/103 278/100/103 273/164/103
f 271/161/104 259/18/104 276/103/104
f 265/167/99 275/163/99 280/98/99
f 274/165/100 278/100/100 279/102/100
f 272/166/101 276/103/101 277/105/101
f 274/165/102 280/98/102 275/163/102
f 349/105/47 301/108/47 302/104/47
f 351/102/48 305/99/48 352/98/48
f 349/105/49 303/106/49 350/100/49
f 348/103/50 331/107/50 301/108/50
f 337/97/45 352/98/45 305/99/45
f 351/102/46 303/106/46 304/101/46
f 304/101/53 310/111/53 305/99/53
f 302/104/54 308/33/54 303/106/54
f 301/108/55 331/112/55 306/113/55
f 337/114/56 305/99/56 310/111/56
f 304/101/51 308/33/51 309/109/51
f 302/104/52 306/113/52 307/110/52
f 309/109/58 315/116/58 310/111/58
f 307/110/59 313/117/59 308/33/59
f 306/113/60 331/118/60 311/119/60
f 337/120/61 310/111/61 315/116/61
f 308/33/62 314/121/62 309/109/62
f 307/110/57 311/119/57 312/115/57
f 312/115/64 318/123/64 313/117/64
f 311/119/65 331/124/65 316/125/65
f 337/126/66 315/116/66 320/122/66
f 313/117/67 319/127/67 314/121/67
f 312/115/68 316/125/68 317/128/68
f 314/121/63 320/122/63 315/116/63
f 316/125/71 331/50/71 321/131/71
f 337/132/72 320/122/72 325/129/72
f 318/123/73 324/133/73 319/127/73
f 317/128/74 321/131/74 322/134/74
f 319/127/69 325/129/69 320/122/69
f 317/128/70 323/130/70 318/123/70
f 337/139/78 325/129/78 330/135/78
f 323/130/79 329/140/79 324/133/79
f 321/131/80 327/141/80 322/134/80
f 325/129/75 329/140/75 330/135/75
f 322/134/76 328/136/76 323/130/76
f 321/131/77 331/137/77 326/138/77
f 337/145/84 330/135/84 336/142/84
f 329/140/85 334/68/85 335/146/85
f 326/138/86 333/147/86 327/141/86
f 330/135/81 335/146/81 336/142/81
f 327/141/82 334/68/82 328/136/82
f 326/138/83 331/143/83 332/144/83
f 337/154/89 336/155/89 342/156/89
f 334/148/90 341/157/90 335/158/90
f 333/159/91 338/153/91 339/149/91
f 335/158/92 342/156/92 336/155/92
f 334/148/87 339/149/87 340/150/87
f 332/151/88 331/152/88 338/153/88
f 341/157/95 345/164/95 346/165/95
f 338/153/96 344/166/96 339/149/96
f 341/157/97 347/163/97 342/156/97
f 339/149/98 345/164/98 340/150/98
f 338/153/93 331/160/93 343/161/93
f 337/162/94 342/156/94 347/163/94
f 343/161/101 349/105/101 344/166/101
f 346/165/102 352/98/102 347/163/102
f 344/166/103 350/100/103 345/164/103
f 343/161/104 331/18/104 348/103/104
f 337/167/99 347/163/99 352/98/99
f 346/165/100 350/100/100 351/102/100
f 423/102/48 377/99/48 424/98/48
f 421/105/49 375/106/49 422/100/49
f 420/103/50 403/107/50 373/108/50
f 409/97/45 424/98/45 377/99/45
f 422/100/46 376/101/46 423/102/46
f 420/103/47 374/104/47 421/105/47
f 373/108/55 403/112/55 378/113/55
f 409/114/56 377/99/56 382/111/56
f 375/106/51 381/109/51 376/101/51
f 374/104/52 378/113/52 379/110/52
f 376/101/53 382/111/53 377/99/53
f 374/104/54 380/33/54 375/106/54
f 409/120/61 382/111/61 387/116/61
f 380/33/62 386/121/62 381/109/62
f 378/113/57 384/115/57 379/110/57
f 382/111/58 386/121/58 387/116/58
f 379/110/59 385/117/59 380/33/59
f 378/113/60 403/118/60 383/119/60
f 409/126/66 387/116/66 392/122/66
f 385/117/67 391/127/67 386/121/67
f 383/119/68 389/128/68 384/115/68
f 386/121/63 392/122/63 387/116/63
f 384/115/64 390/123/64 385/117/64
f 383/119/65 403/124/65 388/125/65
f 409/132/72 392/122/72 397/129/72
f 390/123/73 396/133/73 391/127/73
f 389/128/74 393/131/74 394/134/74
f 391/127/69 397/129/69 392/122/69
f 389/128/70 395/130/70 390/123/70
f 388/125/71 403/50/71 393/131/71
f 396/133/79 400/136/79 401/140/79
f 393/131/80 399/141/80 394/134/80
f 397/129/75 401/140/75 402/135/75
f 394/134/76 400/136/76 395/130/76
f 393/131/77 403/137/77 398/138/77
f 409/139/78 397/129/78 402/135/78
f 398/138/86 405/147/86 399/141/86
f 401/140/81 408/142/81 402/135/81
f 399/141/82 406/68/82 400/136/82
f 398/138/83 403/143/83 404/144/83
f 409/145/84 402/135/84 408/142/84
f 401/140/85 406/68/85 407/146/85
f 407/158/92 414/156/92 408/155/92
f 405/159/87 412/150/87 406/148/87
f 404/151/88 403/152/88 410/153/88
f 409/154/89 408/155/89 414/156/89
f 406/148/90 413/157/90 407/158/90
f 405/159/91 410/153/91 411/149/91
f 414/156/97 418/165/97 419/163/97
f 411/149/98 417/164/98 412/150/98
f 410/153/93 403/160/93 415/161/93
f 409/162/94 414/156/94 419/163/94
f 412/150/95 418/165/95 413/157/95
f 410/153/96 416/166/96 411/149/96
f 419/163/102 423/102/102 424/98/102
f 416/166/103 422/100/103 417/164/103
f 415/161/104 403/18/104 420/103/104
f 409/167/99 419/163/99 424/98/99
f 418/165/100 422/100/100 423/102/100
f 415/161/101 421/105/101 416/166/101
f 134/100/46 87/106/46 88/101/46
f 132/103/47 85/108/47 86/104/47
f 135/102/48 88/101/48 89/99/48
f 133/105/49 86/104/49 87/106/49
f 87/106/51 92/33/51 93/109/51
f 85/108/52 90/113/52 91/110/52
f 88/101/53 93/109/53 94/111/53
f 86/104/54 91/110/54 92/33/54
f 90/113/57 95/119/57 96/115/57
f 93/109/58 98/121/58 99/116/58
f 91/110/59 96/115/59 97/117/59
f 92/33/62 97/117/62 98/121/62
f 98/121/63 103/127/63 104/122/63
f 96/115/64 101/128/64 102/123/64
f 97/117/67 102/123/67 103/127/67
f 95/119/68 100/125/68 101/128/68
f 103/127/69 108/133/69 109/129/69
f 101/128/70 106/134/70 107/130/70
f 102/123/73 107/130/73 108/133/73
f 100/125/74 105/131/74 106/134/74
f 108/133/75 113/140/75 114/135/75
f 106/134/76 111/141/76 112/136/76
f 107/130/79 112/136/79 113/140/79
f 105/131/80 110/138/80 111/141/80
f 113/140/81 119/146/81 120/142/81
f 111/141/82 117/147/82 118/68/82
f 113/140/85 112/136/85 118/68/85
f 110/138/86 116/144/86 117/147/86
f 118/148/87 117/159/87 123/149/87
f 118/148/90 124/150/90 125/157/90
f 117/159/91 116/151/91 122/153/91
f 119/158/92 125/157/92 126/156/92
f 125/157/95 124/150/95 129/164/95
f 123/149/96 122/153/96 127/161/96
f 125/157/97 130/165/97 131/163/97
f 123/149/98 128/166/98 129/164/98
f 130/165/100 129/164/100 134/100/100
f 127/161/101 132/103/101 133/105/101
f 130/165/102 135/102/102 136/98/102
f 128/166/103 133/105/103 134/100/103
f 207/102/46 206/100/46 159/106/46
f 204/103/47 157/108/47 158/104/47
f 208/98/48 207/102/48 160/101/48
f 205/105/49 158/104/49 159/106/49
f 160/101/51 159/106/51 164/33/51
f 157/108/52 162/113/52 163/110/52
f 160/101/53 165/109/53 166/111/53
f 158/104/54 163/110/54 164/33/54
f 163/110/57 162/113/57 167/119/57
f 165/109/58 170/121/58 171/116/58
f 163/110/59 168/115/59 169/117/59
f 164/33/62 169/117/62 170/121/62
f 171/116/63 170/121/63 175/127/63
f 169/117/64 168/115/64 173/128/64
f 169/117/67 174/123/67 175/127/67
f 167/119/68 172/125/68 173/128/68
f 176/122/69 175/127/69 180/133/69
f 173/128/70 178/134/70 179/130/70
f 175/127/73 174/123/73 179/130/73
f 172/125/74 177/131/74 178/134/74
f 180/133/75 185/140/75 186/135/75
f 178/134/76 183/141/76 184/136/76
f 180/133/79 179/130/79 184/136/79
f 177/131/80 182/138/80 183/141/80
f 185/140/81 191/146/81 192/142/81
f 183/141/82 189/147/82 190/68/82
f 184/136/85 190/68/85 191/146/85
f 182/138/86 188/144/86 189/147/86
f 189/159/87 195/149/87 196/150/87
f 190/148/90 196/150/90 197/157/90
f 188/151/91 194/153/91 195/149/91
f 191/158/92 197/157/92 198/156/92
f 196/150/95 201/164/95 202/165/95
f 194/153/96 199/161/96 200/166/96
f 197/157/97 202/165/97 203/163/97
f 195/149/98 200/166/98 201/164/98
f 201/164/100 206/100/100 207/102/100
f 200/166/101 199/161/101 204/103/101
f 202/165/102 207/102/102 208/98/102
f 200/166/103 205/105/103 206/100/103
f 277/105/49 230/104/49 231/106/49
f 278/100/46 231/106/46 232/101/46
f 276/103/47 229/108/47 230/104/47
f 280/98/48 279/102/48 232/101/48
f 231/106/51 236/33/51 237/109/51
f 229/108/52 234/113/52 235/110/52
f 232/101/53 237/109/53 238/111/53
f 231/106/54 230/104/54 235/110/54
f 236/33/62 241/117/62 242/121/62
f 234/113/57 239/119/57 240/115/57
f 237/109/58 242/121/58 243/116/58
f 235/110/59 240/115/59 241/117/59
f 242/121/67 241/117/67 246/123/67
f 239/119/68 244/125/68 245/128/68
f 242/121/63 247/127/63 248/122/63
f 240/115/64 245/128/64 246/123/64
f 244/125/74 249/131/74 250/134/74
f 247/127/69 252/133/69 253/129/69
f 245/128/70 250/134/70 251/130/70
f 247/127/73 246/123/73 251/130/73
f 252/133/75 257/140/75 258/135/75
f 250/134/76 255/141/76 256/136/76
f 252/133/79 251/130/79 256/136/79
f 250/134/80 249/131/80 254/138/80
f 257/140/81 263/146/81 264/142/81
f 255/141/82 261/147/82 262/68/82
f 257/140/85 256/136/85 262/68/85
f 255/141/86 254/138/86 260/144/86
f 263/158/92 269/157/92 270/156/92
f 261/159/87 267/149/87 268/150/87
f 262/148/90 268/150/90 269/157/90
f 261/159/91 260/151/91 266/153/91
f 269/157/97 274/165/97 275/163/97
f 267/149/98 272/166/98 273/164/98
f 268/150/95 273/164/95 274/165/95
f 267/149/96 266/153/96 271/161/96
f 272/166/103 277/105/103 278/100/103
f 274/165/100 273/164/100 278/100/100
f 272/166/101 271/161/101 276/103/101
f 274/165/102 279/102/102 280/98/102
f 349/105/47 348/103/47 301/108/47
f 351/102/48 304/101/48 305/99/48
f 349/105/49 302/104/49 303/106/49
f 351/102/46 350/100/46 303/106/46
f 304/101/53 309/109/53 310/111/53
f 302/104/54 307/110/54 308/33/54
f 304/101/51 303/106/51 308/33/51
f 302/104/52 301/108/52 306/113/52
f 309/109/58 314/121/58 315/116/58
f 307/110/59 312/115/59 313/117/59
f 308/33/62 313/117/62 314/121/62
f 307/110/57 306/113/57 311/119/57
f 312/115/64 317/128/64 318/123/64
f 313/117/67 318/123/67 319/127/67
f 312/115/68 311/119/68 316/125/68
f 314/121/63 319/127/63 320/122/63
f 318/123/73 323/130/73 324/133/73
f 317/128/74 316/125/74 321/131/74
f 319/127/69 324/133/69 325/129/69
f 317/128/70 322/134/70 323/130/70
f 323/130/79 328/136/79 329/140/79
f 321/131/80 326/138/80 327/141/80
f 325/129/75 324/133/75 329/140/75
f 322/134/76 327/141/76 328/136/76
f 329/140/85 328/136/85 334/68/85
f 326/138/86 332/144/86 333/147/86
f 330/135/81 329/140/81 335/146/81
f 327/141/82 333/147/82 334/68/82
f 334/148/90 340/150/90 341/157/90
f 333/159/91 332/151/91 338/153/91
f 335/158/92 341/157/92 342/156/92
f 334/148/87 333/159/87 339/149/87
f 341/157/95 340/150/95 345/164/95
f 338/153/96 343/161/96 344/166/96
f 341/157/97 346/165/97 347/163/97
f 339/149/98 344/166/98 345/164/98
f 343/161/101 348/103/101 349/105/101
f 346/165/102 351/102/102 352/98/102
f 344/166/103 349/105/103 350/100/103
f 346/165/100 345/164/100 350/100/100
f 423/102/48 376/101/48 377/99/48
f 421/105/49 374/104/49 375/106/49
f 422/100/46 375/106/46 376/101/46
f 420/103/47 373/108/47 374/104/47
f 375/106/51 380/33/51 381/109/51
f 374/104/52 373/108/52 378/113/52
f 376/101/53 381/109/53 382/111/53
f 374/104/54 379/110/54 380/33/54
f 380/33/62 385/117/62 386/121/62
f 378/113/57 383/119/57 384/115/57
f 382/111/58 381/109/58 386/121/58
f 379/110/59 384/115/59 385/117/59
f 385/117/67 390/123/67 391/127/67
f 383/119/68 388/125/68 389/128/68
f 386/121/63 391/127/63 392/122/63
f 384/115/64 389/128/64 390/123/64
f 390/123/73 395/130/73 396/133/73
f 389/128/74 388/125/74 393/131/74
f 391/127/69 396/133/69 397/129/69
f 389/128/70 394/134/70 395/130/70
f 396/133/79 395/130/79 400/136/79
f 393/131/80 398/138/80 399/141/80
f 397/129/75 396/133/75 401/140/75
f 394/134/76 399/141/76 400/136/76
f 398/138/86 404/144/86 405/147/86
f 401/140/81 407/146/81 408/142/81
f 399/141/82 405/147/82 406/68/82
f 401/140/85 400/136/85 406/68/85
f 407/158/92 413/157/92 414/156/92
f 405/159/87 411/149/87 412/150/87
f 406/148/90 412/150/90 413/157/90
f 405/159/91 404/151/91 410/153/91
f 414/156/97 413/157/97 418/165/97
f 411/149/98 416/166/98 417/164/98
f 412/150/95 417/164/95 418/165/95
f 410/153/96 415/161/96 416/166/96
f 419/163/102 418/165/102 423/102/102
f 416/166/103 421/105/103 422/100/103
f 418/165/100 417/164/100 422/100/100
f 415/161/101 420/103/101 421/105/101
