# Blender 4.0.2
# www.blender.org
mtllib tesla_base.mtl
o TeslaBase
v 0.000000 0.000000 -0.478352
v -0.018478 0.020000 -0.492346
v 0.018478 0.020000 -0.492346
v -0.013066 0.005858 -0.486934
v -0.000000 0.008453 -0.492190
v -0.000000 0.020000 -0.496830
v 0.013066 0.005858 -0.486934
v -0.000000 0.250000 -0.478352
v 0.018478 0.230000 -0.492346
v -0.018478 0.230000 -0.492346
v 0.010824 0.244142 -0.489176
v 0.000000 0.241547 -0.492849
v 0.000000 0.230000 -0.495517
v -0.010824 0.244142 -0.489176
v 0.338246 0.000000 -0.338246
v 0.335076 0.020000 -0.361207
v 0.361207 0.020000 -0.335076
v 0.338246 0.005858 -0.353553
v 0.348497 0.008453 -0.348497
v 0.350383 0.020000 -0.350383
v 0.353553 0.005858 -0.338246
v 0.338246 0.250000 -0.338246
v 0.361207 0.230000 -0.335076
v 0.335076 0.230000 -0.361207
v 0.353553 0.244142 -0.338246
v 0.348497 0.241547 -0.348497
v 0.350383 0.230000 -0.350383
v 0.338246 0.244142 -0.353553
v 0.478352 0.000000 0.000000
v 0.492346 0.020000 -0.018478
v 0.492346 0.020000 0.018478
v 0.486934 0.005858 -0.013066
v 0.492190 0.008453 -0.000000
v 0.496830 0.020000 -0.000000
v 0.486934 0.005858 0.013066
v 0.478352 0.250000 -0.000000
v 0.492346 0.230000 0.018478
v 0.492346 0.230000 -0.018478
v 0.489176 0.244142 0.010824
v 0.492849 0.241547 0.000000
v 0.495517 0.230000 0.000000
v 0.489176 0.244142 -0.010824
v 0.338246 0.000000 0.338246
v 0.361207 0.020000 0.335076
v 0.335076 0.020000 0.361207
v 0.353553 0.005858 0.338246
v 0.348497 0.008453 0.348497
v 0.350383 0.020000 0.350383
v 0.338246 0.005858 0.353553
v 0.338246 0.250000 0.338246
v 0.335076 0.230000 0.361207
v 0.361207 0.230000 0.335076
v 0.338246 0.244142 0.353553
v 0.348497 0.241547 0.348497
v 0.350383 0.230000 0.350383
v 0.353553 0.244142 0.338246
v -0.000000 0.000000 0.478352
v 0.018478 0.020000 0.492346
v -0.018478 0.020000 0.492346
v 0.013066 0.005858 0.486934
v 0.000000 0.008453 0.492190
v 0.000000 0.020000 0.496830
v -0.013066 0.005858 0.486934
v 0.000000 0.250000 0.478352
v -0.018478 0.230000 0.492346
v 0.018478 0.230000 0.492346
v -0.010824 0.244142 0.489176
v -0.000000 0.241547 0.492849
v -0.000000 0.230000 0.495517
v 0.010824 0.244142 0.489176
v -0.338246 0.000000 0.338246
v -0.335076 0.020000 0.361207
v -0.361207 0.020000 0.335076
v -0.338246 0.005858 0.353553
v -0.348497 0.008453 0.348497
v -0.350383 0.020000 0.350383
v -0.353553 0.005858 0.338246
v -0.338246 0.250000 0.338246
v -0.361207 0.230000 0.335076
v -0.335076 0.230000 0.361207
v -0.353553 0.244142 0.338246
v -0.348497 0.241547 0.348497
v -0.350383 0.230000 0.350383
v -0.338246 0.244142 0.353553
v -0.478352 0.000000 -0.000000
v -0.492346 0.020000 0.018478
v -0.492346 0.020000 -0.018478
v -0.489176 0.005858 0.010824
v -0.492849 0.008453 0.000000
v -0.495517 0.020000 0.000000
v -0.489176 0.005858 -0.010824
v -0.478352 0.250000 0.000000
v -0.492346 0.230000 -0.018478
v -0.492346 0.230000 0.018478
v -0.489176 0.244142 -0.010824
v -0.492849 0.241547 -0.000000
v -0.495517 0.230000 -0.000000
v -0.489176 0.244142 0.010824
v -0.338246 0.000000 -0.338246
v -0.361207 0.020000 -0.335076
v -0.335076 0.020000 -0.361207
v -0.353553 0.005858 -0.338246
v -0.348497 0.008453 -0.348497
v -0.350383 0.020000 -0.350383
v -0.338246 0.005858 -0.353553
v -0.338246 0.250000 -0.338246
v -0.335076 0.230000 -0.361207
v -0.361207 0.230000 -0.335076
v -0.338246 0.244142 -0.353553
v -0.348497 0.241547 -0.348497
v -0.350383 0.230000 -0.350383
v -0.353553 0.244142 -0.338246
v 0.000000 0.250000 -0.400000
v 0.000000 0.310000 -0.400000
v 0.282843 0.250000 -0.282843
v 0.282843 0.310000 -0.282843
v 0.400000 0.250000 0.000000
v 0.400000 0.310000 0.000000
v 0.282843 0.250000 0.282843
v 0.282843 0.310000 0.282843
v 0.000000 0.250000 0.400000
v 0.000000 0.310000 0.400000
v -0.282843 0.250000 0.282843
v -0.282843 0.310000 0.282843
v -0.400000 0.250000 0.000000
v -0.400000 0.310000 0.000000
v -0.282843 0.250000 -0.282843
v -0.282843 0.310000 -0.282843
vn -0.3827 -0.0000 -0.9239
vn 0.9239 -0.0000 0.3827
vn 0.3827 -0.0000 0.9239
vn -0.3827 -0.0000 0.9239
vn -0.9239 -0.0000 0.3827
vn -0.9239 -0.0000 -0.3827
vn 0.9239 -0.0000 -0.3827
vn -0.0000 1.0000 -0.0000
vn 0.3827 -0.0000 -0.9239
vn 0.0402 -0.8527 -0.5209
vn -0.2619 -0.4307 -0.8637
vn 0.2196 -0.3637 -0.9053
vn 0.0361 0.8633 -0.5034
vn 0.1614 0.2982 -0.9407
vn -0.1614 0.2982 -0.9407
vn 0.3304 -0.8633 -0.3815
vn 0.5511 -0.2982 -0.7793
vn 0.7793 -0.2982 -0.5511
vn 0.3815 0.8633 -0.3304
vn 0.7793 0.2982 -0.5511
vn 0.5511 0.2982 -0.7793
vn 0.5209 -0.8527 0.0402
vn 0.8637 -0.4307 -0.2619
vn 0.9052 -0.3637 0.2196
vn 0.5034 0.8633 0.0361
vn 0.9407 0.2982 0.1614
vn 0.9407 0.2982 -0.1614
vn 0.3815 -0.8633 0.3304
vn 0.7793 -0.2982 0.5511
vn 0.5511 -0.2982 0.7793
vn 0.3304 0.8633 0.3815
vn 0.5511 0.2982 0.7793
vn 0.7793 0.2982 0.5511
vn -0.0402 -0.8527 0.5209
vn 0.2619 -0.4307 0.8637
vn -0.2196 -0.3637 0.9053
vn -0.0361 0.8633 0.5034
vn -0.1614 0.2982 0.9407
vn 0.1614 0.2982 0.9407
vn -0.3304 -0.8633 0.3815
vn -0.5511 -0.2982 0.7793
vn -0.7793 -0.2982 0.5511
vn -0.3815 0.8633 0.3304
vn -0.7793 0.2982 0.5511
vn -0.5511 0.2982 0.7793
vn -0.5034 -0.8633 0.0361
vn -0.9407 -0.2982 0.1614
vn -0.9407 -0.2982 -0.1614
vn -0.5034 0.8633 -0.0361
vn -0.9407 0.2982 -0.1614
vn -0.9407 0.2982 0.1614
vn -0.3815 -0.8633 -0.3304
vn -0.7793 -0.2982 -0.5511
vn -0.5511 -0.2982 -0.7793
vn -0.3304 0.8633 -0.3815
vn -0.5511 0.2982 -0.7793
vn -0.7793 0.2982 -0.5511
vn 0.3423 -0.4472 -0.8263
vn 0.1579 -0.9109 -0.3813
vn 0.3536 0.3827 -0.8536
vn 0.1464 0.9239 -0.3536
vn -0.2358 0.0061 -0.9718
vn 0.2358 0.0061 -0.9718
vn 0.8165 -0.0000 -0.5774
vn 0.5774 -0.0000 -0.8165
vn 0.8543 -0.3838 -0.3504
vn 0.3536 -0.9241 -0.1450
vn 0.8536 0.3827 -0.3536
vn 0.3536 0.9239 -0.1464
vn 0.9856 -0.0000 0.1691
vn 0.9856 -0.0000 -0.1691
vn 0.8263 -0.4472 0.3423
vn 0.3813 -0.9109 0.1579
vn 0.8536 0.3827 0.3536
vn 0.3536 0.9239 0.1464
vn 0.5774 -0.0000 0.8165
vn 0.8165 -0.0000 0.5774
vn 0.3504 -0.3838 0.8543
vn 0.1450 -0.9241 0.3536
vn 0.3536 0.3827 0.8536
vn 0.1464 0.9239 0.3536
vn -0.1691 -0.0000 0.9856
vn 0.1691 -0.0000 0.9856
vn -0.3423 -0.4472 0.8263
vn -0.1579 -0.9109 0.3813
vn -0.3536 0.3827 0.8536
vn -0.1464 0.9239 0.3536
vn -0.8165 -0.0000 0.5774
vn -0.5774 -0.0000 0.8165
vn -0.8536 -0.3827 0.3536
vn -0.3536 -0.9239 0.1464
vn -0.8536 0.3827 0.3536
vn -0.3536 0.9239 0.1464
vn -0.9856 -0.0000 -0.1691
vn -0.9856 -0.0000 0.1691
vn -0.8536 -0.3827 -0.3536
vn -0.3536 -0.9239 -0.1464
vn -0.8536 0.3827 -0.3536
vn -0.3536 0.9239 -0.1464
vn -0.5774 -0.0000 -0.8165
vn -0.8165 -0.0000 -0.5774
vn -0.3504 -0.3838 -0.8543
vn -0.1450 -0.9241 -0.3536
vn -0.3536 0.3827 -0.8536
vn -0.1464 0.9239 -0.3536
vn -0.0000 -1.0000 -0.0000
vn -0.0402 -0.8527 -0.5209
vn -0.2196 -0.3637 -0.9053
vn 0.2619 -0.4307 -0.8637
vn -0.0361 0.8633 -0.5034
vn 0.2667 0.2169 -0.9391
vn -0.2667 0.2169 -0.9391
vn 0.3815 -0.8633 -0.3304
vn 0.4754 -0.2169 -0.8526
vn 0.8526 -0.2169 -0.4754
vn 0.3304 0.8633 -0.3815
vn 0.8526 0.2169 -0.4754
vn 0.4755 0.2169 -0.8526
vn 0.5209 -0.8527 -0.0402
vn 0.9052 -0.3637 -0.2196
vn 0.8637 -0.4307 0.2619
vn 0.5034 0.8633 -0.0361
vn 0.9391 0.2169 0.2667
vn 0.9391 0.2169 -0.2667
vn 0.3304 -0.8633 0.3815
vn 0.8526 -0.2169 0.4754
vn 0.4754 -0.2169 0.8526
vn 0.3815 0.8633 0.3304
vn 0.4754 0.2169 0.8526
vn 0.8526 0.2169 0.4754
vn 0.0402 -0.8527 0.5209
vn 0.2196 -0.3637 0.9053
vn -0.2619 -0.4307 0.8637
vn 0.0361 0.8633 0.5034
vn -0.2667 0.2169 0.9391
vn 0.2667 0.2169 0.9391
vn -0.3815 -0.8633 0.3304
vn -0.4754 -0.2169 0.8526
vn -0.8526 -0.2169 0.4754
vn -0.3304 0.8633 0.3815
vn -0.8526 0.2169 0.4754
vn -0.4755 0.2169 0.8526
vn -0.5034 -0.8633 -0.0361
vn -0.9391 -0.2169 0.2667
vn -0.9391 -0.2169 -0.2667
vn -0.5034 0.8633 0.0361
vn -0.9391 0.2169 -0.2667
vn -0.9391 0.2169 0.2667
vn -0.3304 -0.8633 -0.3815
vn -0.8526 -0.2169 -0.4754
vn -0.4754 -0.2169 -0.8526
vn -0.3815 0.8633 -0.3304
vn -0.4754 0.2169 -0.8526
vn -0.8526 0.2169 -0.4754
vn 0.3504 -0.3838 -0.8543
vn 0.1450 -0.9241 -0.3536
vn -0.1691 -0.0000 -0.9856
vn 0.1691 -0.0000 -0.9856
vn 0.8263 -0.4472 -0.3423
vn 0.3813 -0.9109 -0.1579
vn 0.9718 0.0061 0.2358
vn 0.9718 0.0061 -0.2358
vn 0.8543 -0.3838 0.3504
vn 0.3536 -0.9241 0.1450
vn 0.3423 -0.4472 0.8263
vn 0.1579 -0.9109 0.3813
vn -0.2358 0.0061 0.9718
vn 0.2358 0.0061 0.9718
vn -0.3504 -0.3838 0.8543
vn -0.1450 -0.9241 0.3536
vn -0.3423 -0.4472 -0.8263
vn -0.1579 -0.9109 -0.3813
vt 0.118467 0.960000
vt 0.006533 0.540000
vt 0.118467 0.540000
vt 0.743467 0.960000
vt 0.631533 0.540000
vt 0.743467 0.540000
vt 0.618467 0.960000
vt 0.506533 0.540000
vt 0.618467 0.540000
vt 0.493467 0.960000
vt 0.381533 0.540000
vt 0.493467 0.540000
vt 0.368467 0.960000
vt 0.256533 0.540000
vt 0.368467 0.540000
vt 0.243467 0.960000
vt 0.131533 0.540000
vt 0.243467 0.540000
vt 0.868467 0.960000
vt 0.756533 0.540000
vt 0.868467 0.540000
vt 0.020391 0.250000
vt 0.250000 0.020391
vt 0.479609 0.250000
vt 0.993467 0.960000
vt 0.881533 0.540000
vt 0.993467 0.540000
vt 0.750000 0.479609
vt 0.748675 0.489451
vt 0.757570 0.486864
vt 0.000000 0.516906
vt 0.005576 0.500000
vt 0.999024 0.500000
vt 1.000000 0.540000
vt 0.250000 0.479609
vt 0.251214 0.489497
vt 0.243729 0.487402
vt 1.000000 0.960000
vt 0.995381 1.000000
vt 0.004619 1.000000
vt 0.000000 0.960000
vt 0.006533 0.960000
vt 0.912358 0.412358
vt 0.918492 0.420208
vt 0.922303 0.413434
vt 0.875000 0.540000
vt 0.879619 0.500000
vt 0.870381 0.500000
vt 0.412358 0.412358
vt 0.420208 0.418492
vt 0.413434 0.422303
vt 0.875000 0.960000
vt 0.870381 1.000000
vt 0.879619 1.000000
vt 0.881533 0.960000
vt 0.979609 0.250000
vt 0.989451 0.251325
vt 0.986864 0.242430
vt 0.750000 0.516906
vt 0.755576 0.500000
vt 0.749024 0.500000
vt 0.750000 0.540000
vt 0.489497 0.248786
vt 0.487402 0.256272
vt 0.750000 0.960000
vt 0.745381 1.000000
vt 0.754619 1.000000
vt 0.756533 0.960000
vt 0.912358 0.087642
vt 0.920208 0.081508
vt 0.913434 0.077697
vt 0.625000 0.540000
vt 0.629619 0.500000
vt 0.620381 0.500000
vt 0.412358 0.087642
vt 0.418492 0.079792
vt 0.422303 0.086566
vt 0.625000 0.960000
vt 0.620381 1.000000
vt 0.629619 1.000000
vt 0.631533 0.960000
vt 0.750000 0.020391
vt 0.751325 0.010549
vt 0.742430 0.013136
vt 0.500000 0.516906
vt 0.505576 0.500000
vt 0.499024 0.500000
vt 0.500000 0.540000
vt 0.248786 0.010503
vt 0.256272 0.012598
vt 0.500000 0.960000
vt 0.495381 1.000000
vt 0.504619 1.000000
vt 0.506533 0.960000
vt 0.587642 0.087642
vt 0.581508 0.079792
vt 0.577697 0.086566
vt 0.375000 0.540000
vt 0.379619 0.500000
vt 0.370381 0.500000
vt 0.087642 0.087642
vt 0.079792 0.081508
vt 0.086566 0.077697
vt 0.375000 0.960000
vt 0.370381 1.000000
vt 0.379619 1.000000
vt 0.381533 0.960000
vt 0.520391 0.250000
vt 0.510503 0.248786
vt 0.512598 0.256272
vt 0.250000 0.540000
vt 0.254619 0.500000
vt 0.245381 0.500000
vt 0.010503 0.251214
vt 0.012598 0.243729
vt 0.250000 0.960000
vt 0.245381 1.000000
vt 0.254619 1.000000
vt 0.256533 0.960000
vt 0.587642 0.412358
vt 0.579792 0.418492
vt 0.586566 0.422303
vt 0.125000 0.540000
vt 0.129619 0.500000
vt 0.120381 0.500000
vt 0.087642 0.412358
vt 0.081508 0.420208
vt 0.077697 0.413434
vt 0.125000 0.960000
vt 0.120381 1.000000
vt 0.129619 1.000000
vt 0.131533 0.960000
vt 0.994424 0.500000
vt 0.256272 0.487402
vt 0.000000 0.540000
vt 0.986864 0.257570
vt 0.422303 0.413434
vt 0.744424 0.500000
vt 0.487402 0.243728
vt 0.757570 0.013136
vt 0.413434 0.077697
vt 0.494424 0.500000
vt 0.243728 0.012598
vt 0.512598 0.243728
vt 0.077697 0.086566
vt 0.577697 0.413434
vt 0.012598 0.256272
vt 0.742430 0.486864
vt 0.086566 0.422303
vt 1.000000 1.000000
vt 0.875000 0.500000
vt 1.000000 0.500000
vt 0.875000 1.000000
vt 0.750000 0.500000
vt 0.750000 1.000000
vt 0.625000 0.500000
vt 0.625000 1.000000
vt 0.500000 0.500000
vt 0.500000 1.000000
vt 0.375000 0.500000
vt 0.375000 1.000000
vt 0.250000 0.500000
vt 0.010000 0.250000
vt 0.250000 0.010000
vt 0.490000 0.250000
vt 0.250000 1.000000
vt 0.125000 0.500000
vt 0.125000 1.000000
vt 0.000000 0.500000
vt 0.919706 0.080294
vt 0.580294 0.080294
vt 0.580294 0.419706
vt 1.000000 0.983095
vt 0.000894 1.000000
vt 0.913434 0.422303
vt 0.875000 0.516905
vt 0.874106 0.500000
vt 0.875000 0.983094
vt 0.875894 1.000000
vt 0.750000 0.983094
vt 0.750894 1.000000
vt 0.922303 0.086566
vt 0.625000 0.516905
vt 0.624106 0.500000
vt 0.625000 0.983094
vt 0.625894 1.000000
vt 0.500000 0.983094
vt 0.500894 1.000000
vt 0.586566 0.077697
vt 0.375000 0.516905
vt 0.374106 0.500000
vt 0.375000 0.983094
vt 0.375894 1.000000
vt 0.250000 0.516905
vt 0.249106 0.500000
vt 0.250000 0.983094
vt 0.250894 1.000000
vt 0.125000 0.516905
vt 0.124106 0.500000
vt 0.125000 0.983094
vt 0.125894 1.000000
vt 0.419706 0.419706
vt 0.250000 0.490000
vt 0.080294 0.419706
vt 0.080294 0.080294
vt 0.419706 0.080294
vt 0.000000 1.000000
vt 0.750000 0.490000
vt 0.919706 0.419706
vt 0.990000 0.250000
vt 0.750000 0.010000
vt 0.510000 0.250000
s 0
usemtl TeslaBaseMat
f 107/1/1 2/2/1 101/3/1
f 37/4/2 44/5/2 31/6/2
f 51/7/3 58/8/3 45/9/3
f 65/10/4 72/11/4 59/12/4
f 79/13/5 86/14/5 73/15/5
f 93/16/6 100/17/6 87/18/6
f 23/19/7 30/20/7 17/21/7
f 92/22/8 64/23/8 36/24/8
f 9/25/9 16/26/9 3/27/9
f 1/28/10 5/29/10 7/30/10
f 2/2/11 5/31/11 4/32/11
f 3/27/12 5/33/12 6/34/12
f 8/35/13 12/36/13 14/37/13
f 13/38/14 11/39/14 9/25/14
f 14/40/15 13/41/15 10/42/15
f 15/43/16 19/44/16 21/45/16
f 20/46/17 18/47/17 16/26/17
f 21/48/18 20/46/18 17/21/18
f 22/49/19 26/50/19 28/51/19
f 27/52/20 25/53/20 23/19/20
f 28/54/21 27/52/21 24/55/21
f 29/56/22 33/57/22 35/58/22
f 30/20/23 33/59/23 32/60/23
f 31/6/24 33/61/24 34/62/24
f 36/24/25 40/63/25 42/64/25
f 41/65/26 39/66/26 37/4/26
f 42/67/27 41/65/27 38/68/27
f 43/69/28 47/70/28 49/71/28
f 48/72/29 46/73/29 44/5/29
f 49/74/30 48/72/30 45/9/30
f 50/75/31 54/76/31 56/77/31
f 55/78/32 53/79/32 51/7/32
f 56/80/33 55/78/33 52/81/33
f 57/82/34 61/83/34 63/84/34
f 58/8/35 61/85/35 60/86/35
f 59/12/36 61/87/36 62/88/36
f 64/23/37 68/89/37 70/90/37
f 69/91/38 67/92/38 65/10/38
f 70/93/39 69/91/39 66/94/39
f 71/95/40 75/96/40 77/97/40
f 76/98/41 74/99/41 72/11/41
f 77/100/42 76/98/42 73/15/42
f 78/101/43 82/102/43 84/103/43
f 83/104/44 81/105/44 79/13/44
f 84/106/45 83/104/45 80/107/45
f 85/108/46 89/109/46 91/110/46
f 90/111/47 88/112/47 86/14/47
f 91/113/48 90/111/48 87/18/48
f 92/22/49 96/114/49 98/115/49
f 97/116/50 95/117/50 93/16/50
f 98/118/51 97/116/51 94/119/51
f 99/120/52 103/121/52 105/122/52
f 104/123/53 102/124/53 100/17/53
f 105/125/54 104/123/54 101/3/54
f 106/126/55 110/127/55 112/128/55
f 111/129/56 109/130/56 107/1/56
f 112/131/57 111/129/57 108/132/57
f 16/26/58 7/133/58 3/27/58
f 7/30/59 15/43/59 1/28/59
f 9/25/60 28/54/60 24/55/60
f 11/134/61 22/49/61 28/51/61
f 2/2/62 13/41/62 6/135/62
f 13/38/63 3/27/63 6/34/63
f 17/21/64 27/52/64 23/19/64
f 20/46/65 24/55/65 27/52/65
f 17/21/66 32/60/66 21/48/66
f 32/136/67 15/43/67 21/45/67
f 23/19/68 42/67/68 38/68/68
f 25/137/69 36/24/69 42/64/69
f 31/6/70 41/65/70 37/4/70
f 41/65/71 30/20/71 38/68/71
f 44/5/72 35/138/72 31/6/72
f 35/58/73 43/69/73 29/56/73
f 37/4/74 56/80/74 52/81/74
f 39/139/75 50/75/75 56/77/75
f 45/9/76 55/78/76 51/7/76
f 48/72/77 52/81/77 55/78/77
f 45/9/78 60/86/78 49/74/78
f 60/140/79 43/69/79 49/71/79
f 51/7/80 70/93/80 66/94/80
f 53/141/81 64/23/81 70/90/81
f 59/12/82 69/91/82 65/10/82
f 69/91/83 58/8/83 66/94/83
f 72/11/84 63/142/84 59/12/84
f 63/84/85 71/95/85 57/82/85
f 65/10/86 84/106/86 80/107/86
f 67/143/87 78/101/87 84/103/87
f 73/15/88 83/104/88 79/13/88
f 76/98/89 80/107/89 83/104/89
f 86/14/90 77/100/90 73/15/90
f 88/144/91 71/95/91 77/97/91
f 79/13/92 98/118/92 94/119/92
f 81/145/93 92/22/93 98/115/93
f 87/18/94 97/116/94 93/16/94
f 90/111/95 94/119/95 97/116/95
f 100/17/96 91/113/96 87/18/96
f 102/146/97 85/108/97 91/110/97
f 93/16/98 112/131/98 108/132/98
f 95/147/99 106/126/99 112/128/99
f 101/3/100 111/129/100 107/1/100
f 104/123/101 108/132/101 111/129/101
f 101/3/102 4/32/102 105/125/102
f 4/148/103 99/120/103 105/122/103
f 107/1/104 14/40/104 10/42/104
f 109/149/105 8/35/105 14/37/105
f 43/69/106 71/95/106 99/120/106
f 107/1/1 10/42/1 2/2/1
f 37/4/2 52/81/2 44/5/2
f 51/7/3 66/94/3 58/8/3
f 65/10/4 80/107/4 72/11/4
f 79/13/5 94/119/5 86/14/5
f 93/16/6 108/132/6 100/17/6
f 23/19/7 38/68/7 30/20/7
f 36/24/8 22/49/8 8/35/8
f 8/35/8 106/126/8 92/22/8
f 92/22/8 78/101/8 64/23/8
f 64/23/8 50/75/8 36/24/8
f 36/24/8 8/35/8 92/22/8
f 9/25/9 24/55/9 16/26/9
f 1/28/107 4/148/107 5/29/107
f 2/2/108 6/135/108 5/31/108
f 3/27/109 7/133/109 5/33/109
f 8/35/110 11/134/110 12/36/110
f 13/38/111 12/173/111 11/39/111
f 14/40/112 12/174/112 13/41/112
f 15/43/113 18/175/113 19/44/113
f 20/46/114 19/176/114 18/47/114
f 21/48/115 19/177/115 20/46/115
f 22/49/116 25/137/116 26/50/116
f 27/52/117 26/178/117 25/53/117
f 28/54/118 26/179/118 27/52/118
f 29/56/119 32/136/119 33/57/119
f 30/20/120 34/62/120 33/59/120
f 31/6/121 35/138/121 33/61/121
f 36/24/122 39/139/122 40/63/122
f 41/65/123 40/180/123 39/66/123
f 42/67/124 40/181/124 41/65/124
f 43/69/125 46/182/125 47/70/125
f 48/72/126 47/183/126 46/73/126
f 49/74/127 47/184/127 48/72/127
f 50/75/128 53/141/128 54/76/128
f 55/78/129 54/185/129 53/79/129
f 56/80/130 54/186/130 55/78/130
f 57/82/131 60/140/131 61/83/131
f 58/8/132 62/88/132 61/85/132
f 59/12/133 63/142/133 61/87/133
f 64/23/134 67/143/134 68/89/134
f 69/91/135 68/187/135 67/92/135
f 70/93/136 68/188/136 69/91/136
f 71/95/137 74/189/137 75/96/137
f 76/98/138 75/190/138 74/99/138
f 77/100/139 75/191/139 76/98/139
f 78/101/140 81/145/140 82/102/140
f 83/104/141 82/192/141 81/105/141
f 84/106/142 82/193/142 83/104/142
f 85/108/143 88/144/143 89/109/143
f 90/111/144 89/194/144 88/112/144
f 91/113/145 89/195/145 90/111/145
f 92/22/146 95/147/146 96/114/146
f 97/116/147 96/196/147 95/117/147
f 98/118/148 96/197/148 97/116/148
f 99/120/149 102/146/149 103/121/149
f 104/123/150 103/198/150 102/124/150
f 105/125/151 103/199/151 104/123/151
f 106/126/152 109/149/152 110/127/152
f 111/129/153 110/200/153 109/130/153
f 112/131/154 110/201/154 111/129/154
f 16/26/155 18/47/155 7/133/155
f 7/30/156 18/175/156 15/43/156
f 9/25/60 11/39/60 28/54/60
f 11/134/61 8/35/61 22/49/61
f 2/2/157 10/42/157 13/41/157
f 13/38/158 9/25/158 3/27/158
f 17/21/64 20/46/64 27/52/64
f 20/46/65 16/26/65 24/55/65
f 17/21/159 30/20/159 32/60/159
f 32/136/160 29/56/160 15/43/160
f 23/19/68 25/53/68 42/67/68
f 25/137/69 22/49/69 36/24/69
f 31/6/161 34/62/161 41/65/161
f 41/65/162 34/62/162 30/20/162
f 44/5/163 46/73/163 35/138/163
f 35/58/164 46/182/164 43/69/164
f 37/4/74 39/66/74 56/80/74
f 39/139/75 36/24/75 50/75/75
f 45/9/76 48/72/76 55/78/76
f 48/72/77 44/5/77 52/81/77
f 45/9/165 58/8/165 60/86/165
f 60/140/166 57/82/166 43/69/166
f 51/7/80 53/79/80 70/93/80
f 53/141/81 50/75/81 64/23/81
f 59/12/167 62/88/167 69/91/167
f 69/91/168 62/88/168 58/8/168
f 72/11/169 74/99/169 63/142/169
f 63/84/170 74/189/170 71/95/170
f 65/10/86 67/92/86 84/106/86
f 67/143/87 64/23/87 78/101/87
f 73/15/88 76/98/88 83/104/88
f 76/98/89 72/11/89 80/107/89
f 86/14/90 88/112/90 77/100/90
f 88/144/91 85/108/91 71/95/91
f 79/13/92 81/105/92 98/118/92
f 81/145/93 78/101/93 92/22/93
f 87/18/94 90/111/94 97/116/94
f 90/111/95 86/14/95 94/119/95
f 100/17/96 102/124/96 91/113/96
f 102/146/97 99/120/97 85/108/97
f 93/16/98 95/117/98 112/131/98
f 95/147/99 92/22/99 106/126/99
f 101/3/100 104/123/100 111/129/100
f 104/123/101 100/17/101 108/132/101
f 101/3/171 2/2/171 4/32/171
f 4/148/172 1/28/172 99/120/172
f 107/1/104 109/130/104 14/40/104
f 109/149/105 106/126/105 8/35/105
f 99/120/106 1/28/106 15/43/106
f 15/43/106 29/56/106 43/69/106
f 43/69/106 57/82/106 71/95/106
f 71/95/106 85/108/106 99/120/106
f 99/120/106 15/43/106 43/69/106
usemtl TeslaBasePanelMat
f 114/150/9 115/151/9 113/152/9
f 116/153/7 117/154/7 115/151/7
f 118/155/2 119/156/2 117/154/2
f 120/157/3 121/158/3 119/156/3
f 122/159/4 123/160/4 121/158/4
f 124/161/5 125/162/5 123/160/5
f 126/163/8 122/164/8 118/165/8
f 126/166/6 127/167/6 125/162/6
f 128/168/1 113/169/1 127/167/1
f 119/170/106 123/171/106 127/172/106
f 114/150/9 116/153/9 115/151/9
f 116/153/7 118/155/7 117/154/7
f 118/155/2 120/157/2 119/156/2
f 120/157/3 122/159/3 121/158/3
f 122/159/4 124/161/4 123/160/4
f 124/161/5 126/166/5 125/162/5
f 118/165/8 116/202/8 114/203/8
f 114/203/8 128/204/8 126/163/8
f 126/163/8 124/205/8 122/164/8
f 122/164/8 120/206/8 118/165/8
f 118/165/8 114/203/8 126/163/8
f 126/166/6 128/168/6 127/167/6
f 128/168/1 114/207/1 113/169/1
f 127/172/106 113/208/106 115/209/106
f 115/209/106 117/210/106 119/170/106
f 119/170/106 121/211/106 123/171/106
f 123/171/106 125/212/106 127/172/106
f 127/172/106 115/209/106 119/170/106
