<?xml version="1.0" encoding="UTF-8" standalone="no"?>
<!-- Created with Inkscape (http://www.inkscape.org/) -->

<svg
   width="1920"
   height="1080"
   viewBox="0 0 1920 1080"
   version="1.1"
   id="svg1"
   xml:space="preserve"
   sodipodi:docname="iconos_1.svg"
   inkscape:version="1.4.4 (dcaf3e7, 2026-05-05)"
   inkscape:export-batch-name="icon"
   inkscape:export-batch-path="C:\dev\towerdef_odin\images"
   xmlns:inkscape="http://www.inkscape.org/namespaces/inkscape"
   xmlns:sodipodi="http://sodipodi.sourceforge.net/DTD/sodipodi-0.dtd"
   xmlns="http://www.w3.org/2000/svg"
   xmlns:svg="http://www.w3.org/2000/svg"><sodipodi:namedview
     id="namedview1"
     pagecolor="#ffffff"
     bordercolor="#000000"
     borderopacity="0.25"
     inkscape:showpageshadow="2"
     inkscape:pageopacity="0.0"
     inkscape:pagecheckerboard="0"
     inkscape:deskcolor="#d1d1d1"
     inkscape:document-units="px"
     inkscape:zoom="0.45833334"
     inkscape:cx="775.63636"
     inkscape:cy="533.45454"
     inkscape:window-width="1366"
     inkscape:window-height="697"
     inkscape:window-x="-8"
     inkscape:window-y="-8"
     inkscape:window-maximized="1"
     inkscape:current-layer="layer4" /><defs
     id="defs1"><inkscape:path-effect
       effect="fillet_chamfer"
       id="path-effect9"
       is_visible="true"
       lpeversion="1"
       nodesatellites_param="F,0,0,1,0,5.0513254,0,1 @ F,0,0,1,0,5.0513254,0,1 @ F,0,0,1,0,0,0,1 @ F,0,0,1,0,5.0513254,0,1 @ F,0,0,1,0,18.868032,0,1 @ F,0,0,1,0,0,0,1 @ F,0,0,1,0,5.0513254,0,1"
       radius="0"
       unit="px"
       method="auto"
       mode="F"
       chamfer_steps="1"
       flexible="false"
       use_knot_distance="true"
       apply_no_radius="true"
       apply_with_radius="true"
       only_selected="false"
       hide_knots="false" /><inkscape:path-effect
       effect="fillet_chamfer"
       id="path-effect8"
       is_visible="true"
       lpeversion="1"
       nodesatellites_param="F,0,0,1,0,0,0,1 @ F,0,0,1,0,0,0,1 @ F,0,0,1,0,0,0,1 @ F,0,0,1,0,0,0,1 @ F,0,0,1,0,0,0,1 @ F,0,0,1,0,0,0,1 @ F,0,0,1,0,0,0,1"
       radius="0"
       unit="px"
       method="auto"
       mode="F"
       chamfer_steps="1"
       flexible="false"
       use_knot_distance="true"
       apply_no_radius="true"
       apply_with_radius="true"
       only_selected="false"
       hide_knots="false" /><inkscape:path-effect
       effect="fillet_chamfer"
       id="path-effect6"
       is_visible="true"
       lpeversion="1"
       nodesatellites_param="F,0,0,1,0,0,0,1 @ F,0,0,1,0,2.8430787,0,1 @ F,0,0,1,0,3.4479928,0,1 @ F,0,0,1,0,3.4479928,0,1 @ F,0,0,1,0,12.495272,0,1 @ F,0,0,1,0,0,0,1 @ F,0,0,1,0,0,0,1 @ F,0,0,1,0,0,0,1"
       radius="0"
       unit="px"
       method="auto"
       mode="F"
       chamfer_steps="1"
       flexible="false"
       use_knot_distance="true"
       apply_no_radius="true"
       apply_with_radius="true"
       only_selected="false"
       hide_knots="false" /><inkscape:path-effect
       effect="fillet_chamfer"
       id="path-effect5"
       is_visible="true"
       lpeversion="1"
       nodesatellites_param="F,0,1,1,0,6.3218352,0,1 @ F,0,0,1,0,0,0,1 @ F,0,0,1,0,0,0,1 @ F,0,0,1,0,6.3218352,0,1 @ F,0,0,1,0,7.4944074,0,1"
       radius="0"
       unit="px"
       method="auto"
       mode="F"
       chamfer_steps="1"
       flexible="false"
       use_knot_distance="true"
       apply_no_radius="true"
       apply_with_radius="true"
       only_selected="false"
       hide_knots="false" /><inkscape:path-effect
       effect="fillet_chamfer"
       id="path-effect4"
       is_visible="true"
       lpeversion="1"
       nodesatellites_param="F,0,0,1,0,0,0,1 @ F,0,0,1,0,0,0,1 @ F,0,0,1,0,0,0,1 @ F,0,0,1,0,0,0,1 @ F,0,0,1,0,0,0,1 @ F,0,0,1,0,0,0,1 @ F,0,0,1,0,0,0,1 @ F,0,0,1,0,0,0,1"
       radius="0"
       unit="px"
       method="auto"
       mode="F"
       chamfer_steps="1"
       flexible="false"
       use_knot_distance="true"
       apply_no_radius="true"
       apply_with_radius="true"
       only_selected="false"
       hide_knots="false" /><inkscape:path-effect
       effect="fillet_chamfer"
       id="path-effect3"
       is_visible="true"
       lpeversion="1"
       nodesatellites_param="F,0,0,1,0,0,0,1 @ F,0,0,1,0,0,0,1 @ F,0,0,1,0,0,0,1 @ F,0,0,1,0,0,0,1"
       radius="0"
       unit="px"
       method="auto"
       mode="F"
       chamfer_steps="1"
       flexible="false"
       use_knot_distance="true"
       apply_no_radius="true"
       apply_with_radius="true"
       only_selected="false"
       hide_knots="false" /><inkscape:path-effect
       effect="fillet_chamfer"
       id="path-effect2"
       is_visible="true"
       lpeversion="1"
       nodesatellites_param="F,0,0,1,0,0,0,1 @ F,0,0,1,0,0,0,1 @ F,0,0,1,0,0,0,1 @ F,0,0,1,0,0,0,1 @ F,0,0,1,0,0,0,1 @ F,0,0,1,0,0,0,1 @ F,0,0,1,0,0,0,1 @ F,0,0,1,0,0,0,1 @ F,0,0,1,0,0,0,1 @ F,0,0,1,0,0,0,1 @ F,0,0,1,0,0,0,1 @ F,0,0,1,0,0,0,1 @ F,0,0,1,0,0,0,1 @ F,0,0,1,0,0,0,1 @ F,0,0,1,0,0,0,1 @ F,0,0,1,0,0,0,1 @ F,0,0,1,0,0,0,1 @ F,0,0,1,0,0,0,1 @ F,0,0,1,0,0,0,1 @ F,0,0,1,0,2.4720276,0,1"
       radius="0"
       unit="px"
       method="auto"
       mode="F"
       chamfer_steps="1"
       flexible="false"
       use_knot_distance="true"
       apply_no_radius="true"
       apply_with_radius="true"
       only_selected="false"
       hide_knots="false" /><inkscape:path-effect
       effect="fillet_chamfer"
       id="path-effect4-2"
       is_visible="true"
       lpeversion="1"
       nodesatellites_param="F,0,0,1,0,0,0,1 @ F,0,0,1,0,0,0,1 @ F,0,0,1,0,0,0,1 @ F,0,0,1,0,0,0,1 @ F,0,0,1,0,0,0,1 @ F,0,0,1,0,0,0,1 @ F,0,0,1,0,0,0,1 @ F,0,0,1,0,0,0,1"
       radius="0"
       unit="px"
       method="auto"
       mode="F"
       chamfer_steps="1"
       flexible="false"
       use_knot_distance="true"
       apply_no_radius="true"
       apply_with_radius="true"
       only_selected="false"
       hide_knots="false" /><inkscape:path-effect
       effect="fillet_chamfer"
       id="path-effect6-5"
       is_visible="true"
       lpeversion="1"
       nodesatellites_param="F,0,0,1,0,0,0,1 @ F,0,0,1,0,2.8430787,0,1 @ F,0,0,1,0,3.4479928,0,1 @ F,0,0,1,0,3.4479928,0,1 @ F,0,0,1,0,12.495272,0,1 @ F,0,0,1,0,0,0,1 @ F,0,0,1,0,0,0,1 @ F,0,0,1,0,0,0,1"
       radius="0"
       unit="px"
       method="auto"
       mode="F"
       chamfer_steps="1"
       flexible="false"
       use_knot_distance="true"
       apply_no_radius="true"
       apply_with_radius="true"
       only_selected="false"
       hide_knots="false" /><inkscape:path-effect
       effect="fillet_chamfer"
       id="path-effect9-6"
       is_visible="true"
       lpeversion="1"
       nodesatellites_param="F,0,0,1,0,5.0513254,0,1 @ F,0,0,1,0,5.0513254,0,1 @ F,0,0,1,0,0,0,1 @ F,0,0,1,0,5.0513254,0,1 @ F,0,0,1,0,18.868032,0,1 @ F,0,0,1,0,0,0,1 @ F,0,0,1,0,5.0513254,0,1"
       radius="0"
       unit="px"
       method="auto"
       mode="F"
       chamfer_steps="1"
       flexible="false"
       use_knot_distance="true"
       apply_no_radius="true"
       apply_with_radius="true"
       only_selected="false"
       hide_knots="false" /><inkscape:path-effect
       effect="fillet_chamfer"
       id="path-effect5-6"
       is_visible="true"
       lpeversion="1"
       nodesatellites_param="F,0,1,1,0,6.3218352,0,1 @ F,0,0,1,0,0,0,1 @ F,0,0,1,0,0,0,1 @ F,0,0,1,0,6.3218352,0,1 @ F,0,0,1,0,7.4944074,0,1"
       radius="0"
       unit="px"
       method="auto"
       mode="F"
       chamfer_steps="1"
       flexible="false"
       use_knot_distance="true"
       apply_no_radius="true"
       apply_with_radius="true"
       only_selected="false"
       hide_knots="false" /><inkscape:path-effect
       effect="fillet_chamfer"
       id="path-effect4-6"
       is_visible="true"
       lpeversion="1"
       nodesatellites_param="F,0,0,1,0,0,0,1 @ F,0,0,1,0,0,0,1 @ F,0,0,1,0,0,0,1 @ F,0,0,1,0,0,0,1 @ F,0,0,1,0,0,0,1 @ F,0,0,1,0,0,0,1 @ F,0,0,1,0,0,0,1 @ F,0,0,1,0,0,0,1"
       radius="0"
       unit="px"
       method="auto"
       mode="F"
       chamfer_steps="1"
       flexible="false"
       use_knot_distance="true"
       apply_no_radius="true"
       apply_with_radius="true"
       only_selected="false"
       hide_knots="false" /><inkscape:path-effect
       effect="fillet_chamfer"
       id="path-effect4-2-5"
       is_visible="true"
       lpeversion="1"
       nodesatellites_param="F,0,0,1,0,0,0,1 @ F,0,0,1,0,0,0,1 @ F,0,0,1,0,0,0,1 @ F,0,0,1,0,0,0,1 @ F,0,0,1,0,0,0,1 @ F,0,0,1,0,0,0,1 @ F,0,0,1,0,0,0,1 @ F,0,0,1,0,0,0,1"
       radius="0"
       unit="px"
       method="auto"
       mode="F"
       chamfer_steps="1"
       flexible="false"
       use_knot_distance="true"
       apply_no_radius="true"
       apply_with_radius="true"
       only_selected="false"
       hide_knots="false" /></defs><g
     inkscape:label="wave"
     inkscape:groupmode="layer"
     id="layer1"><path
       style="fill:#0000ff;stroke:none"
       d="m 374.50946,330.92597 c 0,0 15.23494,-3.08556 27.96287,-38.18376 12.6837,-34.97625 46.28335,-72.70344 88.32406,-71.93205 42.04071,0.77139 68.0751,25.263 68.0751,38.37662 0,8.09958 -5.39973,10.02806 -5.39973,10.02806 0,0 4.82119,9.44951 4.82119,19.86326 0,10.41376 -7.52105,17.93481 -14.84925,17.93481 -13.11361,0 -6.36396,-20.44182 -21.98459,-20.44182 -13.11362,0 -26.22723,15.81348 -26.22723,31.62696 0,15.81348 17.5491,49.56176 67.30371,49.56176 16.97056,0 24.10591,-4.62834 26.99862,-4.62834 2.89271,0 3.85695,1.34994 3.85695,4.0498 0,2.69986 -18.24787,41.00835 -57.6032,41.31611 -31.2282,0.24421 -85.02393,-26.51894 -85.68235,-89.33509 0.20093,-12.14772 2.12132,-15.23494 -1.54278,-15.23494 -3.6641,0 -8.09959,16.00633 -8.09959,30.27703 0,14.2707 8.29244,54.96148 31.62696,67.49655 4.43549,2.69987 3.66447,7.56644 -2.31417,6.36397 -6.87633,-1.38303 -37.1744,-15.9459 -43.58349,-53.41871 -7.87849,12.48188 -26.27757,29.1464 -49.22037,29.0377 -1.36509,-0.006 -2.4704,-1.18327 -2.47019,-2.54854 z"
       id="path1"
       sodipodi:nodetypes="cssscsssssssscsscsccc"
       inkscape:path-effect="#path-effect2"
       inkscape:original-d="m 374.50946,330.92597 c 0,0 15.23494,-3.08556 27.96287,-38.18376 12.6837,-34.97625 46.28335,-72.70344 88.32406,-71.93205 42.04071,0.77139 68.0751,25.263 68.0751,38.37662 0,8.09958 -5.39973,10.02806 -5.39973,10.02806 0,0 4.82119,9.44951 4.82119,19.86326 0,10.41376 -7.52105,17.93481 -14.84925,17.93481 -13.11361,0 -6.36396,-20.44182 -21.98459,-20.44182 -13.11362,0 -26.22723,15.81348 -26.22723,31.62696 0,15.81348 17.5491,49.56176 67.30371,49.56176 16.97056,0 24.10591,-4.62834 26.99862,-4.62834 2.89271,0 3.85695,1.34994 3.85695,4.0498 0,2.69986 -18.24787,41.00835 -57.6032,41.31611 -31.2282,0.24421 -85.02393,-26.51894 -85.68235,-89.33509 0.20093,-12.14772 2.12132,-15.23494 -1.54278,-15.23494 -3.6641,0 -8.09959,16.00633 -8.09959,30.27703 0,14.2707 8.29244,54.96148 31.62696,67.49655 4.43549,2.69987 3.66447,7.56644 -2.31417,6.36397 -6.87633,-1.38303 -37.1744,-15.9459 -43.58349,-53.41871 -8.15933,12.92682 -27.60267,30.33978 -51.69093,28.96119 z"
       transform="translate(52.55701,-9.61482)" /></g><g
     inkscape:groupmode="layer"
     id="layer3"
     inkscape:label="speed"><path
       style="fill:#f7f700;stroke:none;fill-opacity:1"
       d="m 877.01042,549.61482 h 60.86514 a 2.9605632,2.9605632 59.62559 0 1 2.58305,4.40721 l -37.54753,67.04271 h 48.36737 a 2.4818517,2.4818517 63.833875 0 1 1.96456,3.99847 l -95.4027,123.58037 a 3.4481969,3.4481969 27.311043 0 1 -6.02781,-3.11266 l 24.86932,-81.57637 H 834.2786 a 3.5047474,3.5047474 55.246031 0 1 -3.28297,-4.73168 l 39.1951,-104.87637 a 7.2803787,7.2803787 145.24603 0 1 6.81969,-4.73168 z"
       id="path8"
       inkscape:path-effect="#path-effect9-6"
       inkscape:original-d="m 871.95909,549.61482 h 70.9678 l -40.01581,71.44992 h 53.4187 L 846.3104,763.5789 876.68182,663.95455 h -47.45455 z"
       transform="matrix(1.0759574,0,0,1.0759574,-72.33035,-51.55874)" /></g><g
     inkscape:groupmode="layer"
     id="layer4"
     inkscape:label="damage"><g
       id="g11"
       transform="matrix(1.1867052,0,0,1.1867052,-97.9003,-115.99566)"><path
         style="fill:#ff0000;stroke:none"
         d="M 504.87424,569.05027 V 686.5364 H 463.60492 V 568.27888 a 23.914664,23.914664 104.80741 0 1 3.12404,-11.81784 l 13.99998,-24.62959 a 4.1770445,4.1770445 0.48149514 0 1 7.29695,0.0613 l 13.81712,25.28794 a 24.754764,24.754764 75.674086 0 1 3.03123,11.86956 z"
         id="path4"
         inkscape:path-effect="#path-effect5-6"
         inkscape:original-d="M 504.87424,562.72843 V 686.5364 H 463.60492 V 561.95704 l 20.82751,-36.64098 z"
         transform="rotate(45,522.12387,704.12563)" /><path
         id="path5"
         style="fill:#ff0000;stroke:none"
         d="m 484.91777,639.61492 c -1.34653,-1.34652 -3.52866,-1.34652 -4.87517,-10e-6 l -4.92628,4.92627 c -4.8797,4.87971 -4.87832,12.79106 0.001,17.67077 l 9.29182,9.29182 -22.88015,22.88015 a 16.370264,12.534025 45 0 0 -9.30978,2.9182 16.370264,12.534025 45 0 0 2.7138,20.43842 16.370264,12.534025 45 0 0 20.43704,2.71243 16.370264,12.534025 45 0 0 2.91958,-9.3084 l 22.88016,-22.88015 9.29182,9.29182 c 4.87971,4.87971 12.78967,4.87971 17.66938,0 l 4.92627,-4.92627 c 1.34652,-1.34653 1.34652,-3.52864 0,-4.87517 l -0.13811,-0.13811 c -1.34652,-1.34652 -3.52865,-1.34651 -4.87516,0 l -1.33688,1.33688 c -1.11029,1.11029 -2.91138,1.11029 -4.02167,0 L 483.719,649.98674 c -1.11029,-1.11029 -1.10891,-2.91 0.001,-4.02029 l 1.33688,-1.33688 c 1.34652,-1.34652 1.34513,-3.53003 -10e-4,-4.87655 z" /></g></g><g
     inkscape:groupmode="layer"
     id="layer6"
     inkscape:label="money"><path
       id="path2-7"
       style="fill:#fac700;fill-opacity:1;stroke:none;stroke-width:3.77219;stroke-linecap:round;stroke-dasharray:none"
       d="M 1208.002 210.4375 A 100.063 100.063 0 0 0 1107.9375 310.5 A 100.063 100.063 0 0 0 1208.002 410.5625 A 100.063 100.063 0 0 0 1308.0645 310.5 A 100.063 100.063 0 0 0 1208.002 210.4375 z M 1208.002 227.89844 C 1224.1825 227.89846 1239.3054 232.56071 1252.0547 240.61328 A 3.329555 3.329555 0 0 1 1253.0918 245.20508 A 3.329555 3.329555 0 0 1 1248.498 246.24219 C 1236.7759 238.83836 1222.905 234.55666 1208.002 234.55664 C 1166.0201 234.55662 1132.0586 268.51812 1132.0586 310.5 C 1132.0586 352.48189 1166.0201 386.44334 1208.002 386.44336 C 1249.9838 386.44334 1283.9453 352.48188 1283.9453 310.5 C 1283.9453 291.70521 1277.1336 274.54192 1265.8398 261.2832 A 3.329555 3.329555 0 0 1 1266.2148 256.58984 A 3.329555 3.329555 0 0 1 1270.9102 256.96484 C 1283.1886 271.37956 1290.6035 290.09405 1290.6035 310.5 C 1290.6035 356.08074 1253.5827 393.10349 1208.002 393.10352 C 1162.4212 393.10349 1125.3984 356.08073 1125.3984 310.5 C 1125.3984 264.91928 1162.4212 227.89842 1208.002 227.89844 z M 1201.25 262.7832 L 1214.752 262.7832 L 1214.752 273.39844 L 1230.3125 273.39844 C 1233.0608 273.39844 1235.501 274.05201 1237.6309 275.35742 C 1239.8295 276.59414 1241.5465 278.31118 1242.7832 280.50977 C 1244.0887 282.63965 1244.7422 285.04508 1244.7422 287.72461 L 1244.6387 293.18555 L 1231.2402 293.18555 L 1231.2402 288.13672 C 1231.2402 287.79319 1231.1029 287.51862 1230.8281 287.3125 C 1230.5533 287.03767 1230.2439 286.90039 1229.9004 286.90039 L 1214.752 286.90039 L 1214.752 304.00781 L 1230.3125 304.00781 C 1233.0608 304.00781 1235.501 304.65943 1237.6309 305.96484 C 1239.8295 307.20155 1241.5465 308.88574 1242.7832 311.01562 C 1244.0887 313.14552 1244.7422 315.48132 1244.7422 318.02344 L 1244.7422 333.27539 C 1244.7422 335.88622 1244.0887 338.29164 1242.7832 340.49023 C 1241.5465 342.62012 1239.8295 344.33716 1237.6309 345.64258 C 1235.501 346.94799 1233.0955 347.60156 1230.416 347.60156 L 1214.752 347.60156 L 1214.752 358.2168 L 1201.25 358.2168 L 1201.25 347.60156 L 1185.5859 347.60156 C 1182.8377 347.60156 1180.3645 346.94799 1178.166 345.64258 C 1176.0361 344.33716 1174.3519 342.62012 1173.1152 340.49023 C 1171.8785 338.29164 1171.2598 335.88622 1171.2598 333.27539 L 1171.2598 327.91797 L 1184.7617 327.91797 L 1184.7617 332.86328 C 1184.7617 333.20681 1184.8642 333.51619 1185.0703 333.79102 C 1185.3451 333.99713 1185.6545 334.10156 1185.998 334.10156 L 1201.25 334.10156 L 1201.25 317.50781 L 1185.5859 317.50781 C 1182.9064 317.50781 1180.4681 316.88906 1178.2695 315.65234 C 1176.1397 314.34693 1174.4206 312.59508 1173.1152 310.39648 C 1171.8785 308.1979 1171.2598 305.7248 1171.2598 302.97656 L 1171.2598 287.72461 C 1171.2598 285.04508 1171.8785 282.63965 1173.1152 280.50977 C 1174.3519 278.31118 1176.0361 276.59414 1178.166 275.35742 C 1180.3645 274.05201 1182.8377 273.39844 1185.5859 273.39844 L 1201.25 273.39844 L 1201.25 262.7832 z M 1185.998 286.90039 C 1185.6545 286.90039 1185.3451 287.03767 1185.0703 287.3125 C 1184.8642 287.51862 1184.7617 287.79319 1184.7617 288.13672 L 1184.7617 302.77148 C 1184.7617 303.11501 1184.8642 303.42439 1185.0703 303.69922 C 1185.3451 303.90534 1185.6545 304.00781 1185.998 304.00781 L 1201.25 304.00781 L 1201.25 286.90039 L 1185.998 286.90039 z M 1214.752 317.50781 L 1214.752 334.10156 L 1230.0039 334.10156 C 1230.2788 334.10156 1230.5533 333.99713 1230.8281 333.79102 C 1231.1029 333.51619 1231.2402 333.20681 1231.2402 332.86328 L 1231.2402 318.74414 C 1231.2402 318.40061 1231.1029 318.12604 1230.8281 317.91992 C 1230.5533 317.6451 1230.2439 317.50781 1229.9004 317.50781 L 1214.752 317.50781 z " /></g><g
     inkscape:groupmode="layer"
     id="layer5"
     inkscape:label="health"><g
       id="g3"
       transform="translate(-35.165854)"><path
         style="fill:#00ff00;stroke:none;stroke-width:0.963345"
         id="rect2"
         width="195.58382"
         height="51.719734"
         x="772.52795"
         y="292.33817"
         sodipodi:type="rect"
         inkscape:path-effect="#path-effect4-6"
         d="m 782.09342,292.33817 h 176.45289 c 5.29926,0 9.56546,4.26619 9.56546,9.56546 v 32.5888 c 0,5.29927 -4.2662,9.56547 -9.56546,9.56547 H 782.09342 c -5.29927,0 -9.56547,-4.2662 -9.56547,-9.56547 v -32.5888 c 0,-5.29927 4.2662,-9.56546 9.56547,-9.56546 z"
         transform="matrix(0.99978678,0,0,1.0886825,52.742576,-37.833408)"
         ry="9.565465" /><path
         style="fill:#00ff00;stroke:none;stroke-width:0.963345"
         id="rect2-5"
         width="195.58382"
         height="51.719734"
         x="772.52795"
         y="292.33817"
         sodipodi:type="rect"
         inkscape:path-effect="#path-effect4-2-5"
         d="m 782.09342,292.33817 h 176.45289 c 5.29926,0 9.56546,4.26619 9.56546,9.56546 v 32.5888 c 0,5.29927 -4.2662,9.56547 -9.56546,9.56547 H 782.09342 c -5.29927,0 -9.56547,-4.2662 -9.56547,-9.56547 v -32.5888 c 0,-5.29927 4.2662,-9.56546 9.56547,-9.56546 z"
         transform="matrix(0,-0.99978678,1.0886825,0,576.46024,1178.7175)"
         ry="9.565465" /></g></g><g
     inkscape:groupmode="layer"
     id="layer2"
     inkscape:label="crit"><circle
       style="fill:none;stroke:#0096fb;stroke-width:10;stroke-dasharray:none;stroke-opacity:1"
       id="path9"
       cx="1208.0012"
       cy="641.6579"
       r="77.454544" /><circle
       style="fill:none;stroke:#0096fb;stroke-width:8;stroke-dasharray:none;stroke-opacity:1"
       id="circle9"
       cx="1208.0012"
       cy="641.6579"
       r="54.150436" /><g
       id="g10"
       style="stroke:#0096fb;stroke-opacity:1"
       transform="translate(-55.263293,-9.61482)"><path
         style="fill:none;stroke:#0096fb;stroke-width:11.8804;stroke-linecap:round;stroke-dasharray:none;stroke-opacity:1"
         d="m 1296.0174,651.27271 h 69.1016"
         id="path10" /><path
         style="fill:none;stroke:#0096fb;stroke-width:11.8804;stroke-linecap:round;stroke-dasharray:none;stroke-opacity:1"
         d="m 1161.41,651.27271 h 69.1016"
         id="path10-2" /><path
         style="fill:none;stroke:#0096fb;stroke-width:11.8804;stroke-linecap:round;stroke-dasharray:none;stroke-opacity:1"
         d="m 1263.2645,684.02561 v 69.1016"
         id="path10-3" /><path
         style="fill:none;stroke:#0096fb;stroke-width:11.8804;stroke-linecap:round;stroke-dasharray:none;stroke-opacity:1"
         d="m 1263.2645,549.41821 v 69.1016"
         id="path10-2-8" /></g></g></svg>
