# Blender 4.0.2
# www.blender.org
mtllib lily_pad.mtl
o LilyPad
v 0.000000 0.000000 -1.000000
v 0.000000 0.160000 -1.000000
v 0.433884 0.000000 -0.900969
v 0.433884 0.160000 -0.900969
v 0.781831 0.000000 -0.623490
v 0.781831 0.160000 -0.623490
v 0.974928 0.000000 -0.222521
v 0.974928 0.160000 -0.222521
v 0.974928 0.000000 0.222521
v 0.974928 0.160000 0.222521
v 0.781831 0.000000 0.623490
v 0.781831 0.160000 0.623490
v 0.433884 0.000000 0.900969
v 0.433884 0.160000 0.900969
v 0.000000 0.000000 1.000000
v 0.000000 0.160000 1.000000
v -0.433884 0.000000 0.900969
v -0.433884 0.160000 0.900969
v -0.781831 0.000000 0.623490
v -0.781831 0.160000 0.623490
v -0.974928 0.000000 0.222521
v -0.974928 0.160000 0.222521
v -0.974928 0.000000 -0.222521
v -0.974928 0.160000 -0.222521
v -0.781831 0.000000 -0.623490
v -0.781831 0.160000 -0.623490
v -0.433884 0.000000 -0.900969
v -0.433884 0.160000 -0.900969
vn 0.2225 -0.0000 -0.9749
vn 0.6235 -0.0000 -0.7818
vn 0.9010 -0.0000 -0.4339
vn 1.0000 -0.0000 -0.0000
vn 0.9010 -0.0000 0.4339
vn 0.6235 -0.0000 0.7818
vn 0.2225 -0.0000 0.9749
vn -0.2225 -0.0000 0.9749
vn -0.6235 -0.0000 0.7818
vn -0.9010 -0.0000 0.4339
vn -1.0000 -0.0000 -0.0000
vn -0.9010 -0.0000 -0.4339
vn -0.0000 1.0000 -0.0000
vn -0.6235 -0.0000 -0.7818
vn -0.2225 -0.0000 -0.9749
vn -0.0000 -1.0000 -0.0000
vt 1.000000 1.000000
vt 0.928571 0.500000
vt 1.000000 0.500000
vt 0.928571 1.000000
vt 0.857143 0.500000
vt 0.857143 1.000000
vt 0.785714 0.500000
vt 0.785714 1.000000
vt 0.714286 0.500000
vt 0.714286 1.000000
vt 0.642857 0.500000
vt 0.642857 1.000000
vt 0.571428 0.500000
vt 0.571428 1.000000
vt 0.500000 0.500000
vt 0.500000 1.000000
vt 0.428571 0.500000
vt 0.428571 1.000000
vt 0.357143 0.500000
vt 0.357143 1.000000
vt 0.285714 0.500000
vt 0.285714 1.000000
vt 0.214286 0.500000
vt 0.214286 1.000000
vt 0.142857 0.500000
vt 0.062360 0.399638
vt 0.145868 0.033767
vt 0.483983 0.196595
vt 0.142857 1.000000
vt 0.071428 0.500000
vt 0.071428 1.000000
vt -0.000000 0.500000
vt 0.983983 0.303405
vt 0.750000 0.010000
vt 0.516017 0.303405
vt 0.437640 0.399638
vt 0.354132 0.466233
vt 0.250000 0.490000
vt 0.145868 0.466233
vt 0.016017 0.303405
vt 0.016017 0.196595
vt 0.062360 0.100362
vt 0.250000 0.010000
vt 0.354132 0.033767
vt 0.437640 0.100362
vt 0.483983 0.303405
vt -0.000000 1.000000
vt 0.645868 0.466233
vt 0.750000 0.490000
vt 0.854132 0.466233
vt 0.937640 0.399638
vt 0.983983 0.196595
vt 0.937640 0.100362
vt 0.854132 0.033767
vt 0.645868 0.033767
vt 0.562360 0.100362
vt 0.516017 0.196595
vt 0.562360 0.399638
s 0
usemtl LilyPadMat
f 2/1/1 3/2/1 1/3/1
f 4/4/2 5/5/2 3/2/2
f 6/6/3 7/7/3 5/5/3
f 8/8/4 9/9/4 7/7/4
f 10/10/5 11/11/5 9/9/5
f 12/12/6 13/13/6 11/11/6
f 14/14/7 15/15/7 13/13/7
f 16/16/8 17/17/8 15/15/8
f 18/18/9 19/19/9 17/17/9
f 20/20/10 21/21/10 19/19/10
f 22/22/11 23/23/11 21/21/11
f 24/24/12 25/25/12 23/23/12
f 26/26/13 18/27/13 10/28/13
f 26/29/14 27/30/14 25/25/14
f 28/31/15 1/32/15 27/30/15
f 7/33/16 15/34/16 23/35/16
f 2/1/1 4/4/1 3/2/1
f 4/4/2 6/6/2 5/5/2
f 6/6/3 8/8/3 7/7/3
f 8/8/4 10/10/4 9/9/4
f 10/10/5 12/12/5 11/11/5
f 12/12/6 14/14/6 13/13/6
f 14/14/7 16/16/7 15/15/7
f 16/16/8 18/18/8 17/17/8
f 18/18/9 20/20/9 19/19/9
f 20/20/10 22/22/10 21/21/10
f 22/22/11 24/24/11 23/23/11
f 24/24/12 26/29/12 25/25/12
f 6/36/13 4/37/13 2/38/13
f 2/38/13 28/39/13 26/26/13
f 26/26/13 24/40/13 22/41/13
f 22/41/13 20/42/13 18/27/13
f 18/27/13 16/43/13 14/44/13
f 14/44/13 12/45/13 10/28/13
f 10/28/13 8/46/13 6/36/13
f 6/36/13 2/38/13 26/26/13
f 26/26/13 22/41/13 18/27/13
f 18/27/13 14/44/13 10/28/13
f 10/28/13 6/36/13 26/26/13
f 26/29/14 28/31/14 27/30/14
f 28/31/15 2/47/15 1/32/15
f 27/48/16 1/49/16 3/50/16
f 3/50/16 5/51/16 7/33/16
f 7/33/16 9/52/16 11/53/16
f 11/53/16 13/54/16 15/34/16
f 15/34/16 17/55/16 19/56/16
f 19/56/16 21/57/16 23/35/16
f 23/35/16 25/58/16 27/48/16
f 27/48/16 3/50/16 7/33/16
f 7/33/16 11/53/16 15/34/16
f 15/34/16 19/56/16 23/35/16
f 23/35/16 27/48/16 7/33/16
