# Blender 4.0.2
# www.blender.org
mtllib lily_pad_flower.mtl
o LilyPadFlower
v 3.000000 0.000000 -1.000000
v 3.000000 0.160000 -1.000000
v 3.433884 0.000000 -0.900969
v 3.433884 0.160000 -0.900969
v 3.781832 0.000000 -0.623490
v 3.781832 0.160000 -0.623490
v 3.974928 0.000000 -0.222521
v 3.974928 0.160000 -0.222521
v 3.974928 0.000000 0.222521
v 3.974928 0.160000 0.222521
v 3.781832 0.000000 0.623490
v 3.781832 0.160000 0.623490
v 3.433884 0.000000 0.900969
v 3.433884 0.160000 0.900969
v 3.000000 0.000000 1.000000
v 3.000000 0.160000 1.000000
v 2.566116 0.000000 0.900969
v 2.566116 0.160000 0.900969
v 2.218168 0.000000 0.623490
v 2.218168 0.160000 0.623490
v 2.025072 0.000000 0.222521
v 2.025072 0.160000 0.222521
v 2.025072 0.000000 -0.222521
v 2.025072 0.160000 -0.222521
v 2.218168 0.000000 -0.623490
v 2.218168 0.160000 -0.623490
v 2.566116 0.000000 -0.900969
v 2.566116 0.160000 -0.900969
v 2.992947 0.355000 -0.009708
v 2.973550 0.265000 -0.036406
v 2.988587 0.355000 -0.003708
v 2.957202 0.265000 -0.013906
v 2.988587 0.355000 0.003708
v 2.957202 0.265000 0.013906
v 2.992947 0.355000 0.009708
v 2.973550 0.265000 0.036406
v 3.000000 0.355000 0.012000
v 3.000000 0.265000 0.045000
v 3.007053 0.355000 0.009708
v 3.026450 0.265000 0.036406
v 3.011413 0.355000 0.003708
v 3.042798 0.265000 0.013906
v 3.011413 0.355000 -0.003708
v 3.042798 0.265000 -0.013906
v 3.007053 0.355000 -0.009708
v 3.026450 0.265000 -0.036406
v 3.000000 0.355000 -0.012000
v 3.000000 0.265000 -0.045000
v 3.000000 0.355000 0.000000
v 3.000000 0.265000 0.000000
v 3.181014 0.616232 0.071383
v 3.181014 0.616232 0.071383
v 3.158854 0.566952 0.107698
v 3.189605 0.566952 0.029718
v 3.138800 0.518971 0.123763
v 3.185915 0.518971 0.004290
v 3.124969 0.472137 0.113039
v 3.168487 0.472137 0.002686
v 3.115691 0.426149 0.083518
v 3.141557 0.426149 0.017929
v 3.109292 0.380607 0.043100
v 3.109292 0.380607 0.043100
v 3.102475 0.608692 0.221831
v 3.102475 0.608692 0.221831
v 3.059994 0.559694 0.227447
v 3.134290 0.559694 0.193126
v 3.032646 0.512456 0.220165
v 3.146475 0.512456 0.167582
v 3.027756 0.466705 0.198168
v 3.132896 0.466705 0.149599
v 3.038763 0.422025 0.165981
v 3.101253 0.422025 0.137113
v 3.059153 0.377903 0.128049
v 3.059153 0.377903 0.128049
v 2.923249 0.575729 0.253631
v 2.923249 0.575729 0.253631
v 2.894022 0.532106 0.225306
v 2.963276 0.532106 0.246263
v 2.882352 0.490675 0.197411
v 2.988455 0.490675 0.229519
v 2.894143 0.451034 0.173056
v 2.992146 0.451034 0.202713
v 2.922405 0.412653 0.151364
v 2.980653 0.412653 0.168991
v 2.960230 0.374923 0.131423
v 2.960230 0.374923 0.131423
v 2.767878 0.594237 0.160543
v 2.767878 0.594237 0.160543
v 2.762546 0.546369 0.121750
v 2.802294 0.546369 0.179219
v 2.770763 0.500668 0.093464
v 2.831660 0.500668 0.181512
v 2.794985 0.456755 0.081679
v 2.851233 0.456755 0.163006
v 2.830321 0.414109 0.081626
v 2.863752 0.414109 0.129962
v 2.871966 0.372119 0.088552
v 2.871966 0.372119 0.088552
v 2.728410 0.593569 -0.014438
v 2.728410 0.593569 -0.014438
v 2.746413 0.546654 -0.056386
v 2.741864 0.546654 0.029182
v 2.768429 0.501729 -0.078045
v 2.761460 0.501729 0.053053
v 2.792687 0.458456 -0.071737
v 2.786250 0.458456 0.049353
v 2.818338 0.416357 -0.045744
v 2.814512 0.416357 0.026226
v 2.844584 0.374869 -0.008262
v 2.844584 0.374869 -0.008262
v 2.836926 0.569600 -0.181649
v 2.836926 0.569600 -0.181649
v 2.880143 0.527559 -0.197767
v 2.816257 0.527559 -0.140414
v 2.911432 0.487536 -0.197105
v 2.813553 0.487536 -0.109235
v 2.924192 0.449169 -0.175376
v 2.833785 0.449169 -0.094214
v 2.923790 0.411971 -0.138937
v 2.870056 0.411971 -0.090698
v 2.915567 0.375377 -0.094051
v 2.915567 0.375377 -0.094051
v 2.997241 0.563973 -0.249165
v 2.997241 0.563973 -0.249165
v 3.031982 0.524145 -0.233269
v 2.962861 0.524145 -0.232504
v 3.050599 0.486255 -0.212918
v 2.944699 0.486255 -0.211745
v 3.046819 0.449952 -0.189198
v 2.949003 0.449952 -0.188115
v 3.027264 0.414768 -0.163267
v 2.969127 0.414768 -0.162623
v 2.998492 0.380163 -0.136230
v 2.998492 0.380163 -0.136230
v 3.142543 0.600247 -0.229266
v 3.142543 0.600247 -0.229266
v 3.165956 0.552940 -0.197946
v 3.104098 0.552940 -0.236406
v 3.172177 0.507499 -0.171251
v 3.077405 0.507499 -0.230175
v 3.156330 0.463618 -0.153829
v 3.068792 0.463618 -0.208255
v 3.125038 0.420854 -0.143095
v 3.073010 0.420854 -0.175444
v 3.084841 0.378669 -0.136458
v 3.084841 0.378669 -0.136458
v 3.261980 0.576516 -0.097654
v 3.261980 0.576516 -0.097654
v 3.259817 0.533757 -0.053489
v 3.231436 0.533757 -0.129628
v 3.246712 0.493076 -0.025533
v 3.203229 0.493076 -0.142185
v 3.221256 0.454097 -0.021115
v 3.181093 0.454097 -0.128863
v 3.187266 0.416319 -0.033336
v 3.163395 0.416319 -0.097375
v 3.148476 0.379162 -0.055345
v 3.148476 0.379162 -0.055345
v 3.572728 0.550567 0.288298
v 3.572728 0.550567 0.288298
v 3.479331 0.492053 0.323926
v 3.545711 0.492053 0.192057
v 3.394185 0.444901 0.325037
v 3.495884 0.444901 0.123003
v 3.325859 0.406659 0.280978
v 3.419795 0.406659 0.094366
v 3.269916 0.374522 0.205378
v 3.325747 0.374522 0.094465
v 3.221554 0.345482 0.111525
v 3.221554 0.345482 0.111525
v 3.194351 0.540255 0.565168
v 3.194351 0.540255 0.565168
v 3.104625 0.486515 0.535437
v 3.246815 0.486515 0.486541
v 3.045677 0.442578 0.487031
v 3.263525 0.442578 0.412117
v 3.031238 0.406362 0.418005
v 3.232456 0.406362 0.348809
v 3.048321 0.375450 0.334968
v 3.167915 0.375450 0.293841
v 3.083937 0.347235 0.244086
v 3.083937 0.347235 0.244086
v 2.947502 0.553055 0.665463
v 2.947502 0.553055 0.665463
v 2.888440 0.493735 0.587447
v 3.018066 0.493735 0.597673
v 2.860341 0.446590 0.503762
v 3.058940 0.446590 0.519429
v 2.874716 0.408958 0.418227
v 3.058155 0.408958 0.432699
v 2.918955 0.377830 0.332015
v 3.027982 0.377830 0.340617
v 2.980609 0.349996 0.245793
v 2.980609 0.349996 0.245793
v 2.625172 0.536985 0.512156
v 2.625172 0.536985 0.512156
v 2.602973 0.483728 0.418125
v 2.721514 0.483728 0.504880
v 2.612858 0.441008 0.338446
v 2.794472 0.441008 0.471363
v 2.664022 0.406539 0.283081
v 2.831773 0.406539 0.405852
v 2.743931 0.377720 0.245286
v 2.843634 0.377720 0.318255
v 2.840427 0.351766 0.218037
v 2.840427 0.351766 0.218037
v 2.407922 0.525963 0.206763
v 2.407922 0.525963 0.206763
v 2.444569 0.472836 0.115950
v 2.493135 0.472836 0.255021
v 2.499448 0.430482 0.055274
v 2.573856 0.430482 0.268344
v 2.574504 0.396552 0.038187
v 2.643232 0.396552 0.234992
v 2.663243 0.368384 0.051983
v 2.704091 0.368384 0.168954
v 2.759648 0.343136 0.083935
v 2.759648 0.343136 0.083935
v 2.362815 0.504098 -0.160535
v 2.362815 0.504098 -0.160535
v 2.448653 0.453647 -0.204901
v 2.417385 0.453647 -0.080794
v 2.533485 0.414949 -0.218642
v 2.485579 0.414949 -0.028499
v 2.612081 0.385366 -0.191122
v 2.567833 0.385366 -0.015493
v 2.685740 0.361982 -0.134682
v 2.659441 0.361982 -0.030296
v 2.756206 0.341729 -0.061423
v 2.756206 0.341729 -0.061423
v 2.642285 0.511242 -0.506771
v 2.642285 0.511242 -0.506771
v 2.745064 0.461455 -0.496275
v 2.617755 0.461455 -0.406412
v 2.821836 0.422773 -0.459402
v 2.626789 0.422773 -0.321724
v 2.859667 0.392724 -0.390007
v 2.679508 0.392724 -0.262839
v 2.869757 0.368556 -0.298153
v 2.762680 0.368556 -0.222570
v 2.863458 0.347363 -0.193437
v 2.863458 0.347363 -0.193437
v 2.893628 0.578737 -0.641468
v 2.893628 0.578737 -0.641468
v 2.967341 0.513855 -0.586291
v 2.841670 0.513855 -0.565452
v 3.013180 0.460441 -0.517028
v 2.820641 0.460441 -0.485101
v 3.019244 0.416080 -0.434921
v 2.841403 0.416080 -0.405430
v 2.997192 0.377948 -0.344403
v 2.891492 0.377948 -0.326875
v 2.958642 0.342983 -0.249403
v 2.958642 0.342983 -0.249403
v 3.273349 0.540413 -0.566632
v 3.273349 0.540413 -0.566632
v 3.307571 0.487249 -0.483466
v 3.186957 0.487249 -0.541652
v 3.310339 0.444242 -0.407206
v 3.125546 0.444242 -0.496351
v 3.271858 0.409209 -0.345461
v 3.101172 0.409209 -0.427802
v 3.204565 0.379644 -0.294431
v 3.103117 0.379644 -0.343370
v 3.120591 0.352855 -0.249977
v 3.120591 0.352855 -0.249977
v 3.565354 0.488123 -0.271543
v 3.565354 0.488123 -0.271543
v 3.536871 0.442190 -0.179268
v 3.475524 0.442190 -0.306992
v 3.488686 0.406917 -0.114305
v 3.394698 0.406917 -0.309990
v 3.417273 0.379915 -0.089197
v 3.330459 0.379915 -0.269944
v 3.329963 0.358536 -0.092378
v 3.278365 0.358536 -0.199806
v 3.233627 0.340000 -0.112212
v 3.233627 0.340000 -0.112212
v 3.630145 0.544476 0.031025
v 3.630145 0.544476 0.031025
v 3.559579 0.486957 0.091800
v 3.565890 0.486957 -0.036387
v 3.482533 0.440775 0.122192
v 3.492202 0.440775 -0.074201
v 3.402390 0.403476 0.110732
v 3.411321 0.403476 -0.070670
v 3.320661 0.372258 0.069827
v 3.325970 0.372258 -0.037990
v 3.238385 0.344125 0.011737
v 3.238385 0.344125 0.011737
vn 0.2225 -0.0000 -0.9749
vn 0.6235 -0.0000 -0.7818
vn 0.9010 -0.0000 -0.4339
vn 1.0000 -0.0000 -0.0000
vn 0.9010 -0.0000 0.4339
vn 0.6235 -0.0000 0.7818
vn 0.2225 -0.0000 0.9749
vn -0.2225 -0.0000 0.9749
vn -0.6235 -0.0000 0.7818
vn -0.9010 -0.0000 0.4339
vn -1.0000 -0.0000 -0.0000
vn -0.9010 -0.0000 -0.4339
vn -0.0000 1.0000 -0.0000
vn -0.6235 -0.0000 -0.7818
vn -0.2225 -0.0000 -0.9749
vn -0.0000 -1.0000 -0.0000
vn -0.2918 0.3293 -0.8980
vn -0.7639 0.3293 -0.5550
vn -0.9442 0.3293 -0.0000
vn -0.7639 0.3293 0.5550
vn -0.2918 0.3293 0.8980
vn 0.2918 0.3293 0.8980
vn 0.7639 0.3293 0.5550
vn 0.9442 0.3293 -0.0000
vn 0.7639 0.3293 -0.5550
vn 0.2918 0.3293 -0.8980
vn 0.9203 -0.1464 0.3629
vn 0.8990 -0.2570 0.3545
vn 0.8756 -0.3377 0.3453
vn 0.8567 -0.3897 0.3379
vn 0.4059 -0.2512 0.8787
vn 0.3917 -0.3574 0.8478
vn 0.3779 -0.4337 0.8180
vn 0.3674 -0.4824 0.7952
vn -0.2663 -0.3930 0.8801
vn -0.2524 -0.4905 0.8341
vn -0.2402 -0.5590 0.7936
vn -0.2312 -0.6022 0.7642
vn -0.7715 -0.3465 0.5336
vn -0.7356 -0.4472 0.5088
vn -0.7033 -0.5185 0.4864
vn -0.6794 -0.5635 0.4699
vn -0.9467 -0.3183 -0.0503
vn -0.9059 -0.4207 -0.0482
vn -0.8685 -0.4936 -0.0462
vn -0.8406 -0.5398 -0.0447
vn -0.6200 -0.3725 -0.6906
vn -0.5891 -0.4714 -0.6562
vn -0.5617 -0.5412 -0.6257
vn -0.5417 -0.5852 -0.6034
vn -0.0102 -0.3783 -0.9256
vn -0.0097 -0.4769 -0.8789
vn -0.0093 -0.5463 -0.8376
vn -0.0089 -0.5900 -0.8073
vn 0.5056 -0.2882 -0.8132
vn 0.4857 -0.3924 -0.7811
vn 0.4669 -0.4668 -0.7510
vn 0.4529 -0.5142 -0.7284
vn 0.8675 -0.3779 -0.3234
vn 0.8238 -0.4764 -0.3071
vn 0.7851 -0.5459 -0.2927
vn 0.7568 -0.5897 -0.2821
vn 0.5855 -0.7552 0.2948
vn 0.4729 -0.8483 0.2380
vn 0.3820 -0.9040 0.1923
vn 0.3193 -0.9339 0.1607
vn 0.2225 -0.7294 0.6469
vn 0.1822 -0.8283 0.5299
vn 0.1495 -0.8881 0.4347
vn 0.1268 -0.9208 0.3689
vn -0.0495 -0.7766 0.6280
vn -0.0395 -0.8648 0.5005
vn -0.0314 -0.9168 0.3981
vn -0.0259 -0.9444 0.3277
vn -0.3821 -0.7625 0.5221
vn -0.3072 -0.8540 0.4198
vn -0.2469 -0.9084 0.3374
vn -0.2054 -0.9376 0.2806
vn -0.6000 -0.7721 0.2095
vn -0.4796 -0.8614 0.1675
vn -0.3828 -0.9141 0.1337
vn -0.3163 -0.9422 0.1104
vn -0.5544 -0.8204 -0.1397
vn -0.4270 -0.8978 -0.1076
vn -0.3258 -0.9419 -0.0821
vn -0.2566 -0.9643 -0.0647
vn -0.3412 -0.8062 -0.4833
vn -0.2660 -0.8872 -0.3769
vn -0.2061 -0.9339 -0.2920
vn -0.1651 -0.9581 -0.2339
vn -0.1143 -0.7157 -0.6890
vn -0.0942 -0.8175 -0.5681
vn -0.0778 -0.8795 -0.4694
vn -0.0665 -0.9136 -0.4011
vn 0.2881 -0.7486 -0.5971
vn 0.2335 -0.8433 -0.4841
vn 0.1894 -0.9000 -0.3926
vn 0.1590 -0.9307 -0.3295
vn 0.5169 -0.8193 -0.2483
vn 0.3985 -0.8970 -0.1914
vn 0.3045 -0.9412 -0.1462
vn 0.2402 -0.9638 -0.1154
vn 0.6479 -0.7611 0.0319
vn 0.5214 -0.8529 0.0257
vn 0.4194 -0.9076 0.0207
vn 0.3493 -0.9369 0.0172
vn 0.8463 -0.4151 0.3338
vn 0.3617 -0.5060 0.7830
vn -0.2266 -0.6229 0.7488
vn -0.6669 -0.5853 0.4612
vn -0.8259 -0.5621 -0.0439
vn -0.5312 -0.6064 -0.5917
vn -0.0088 -0.6111 -0.7915
vn 0.4454 -0.5371 -0.7163
vn 0.7851 -0.5459 -0.2926
vn 0.7420 -0.6107 -0.2766
vn 0.2876 -0.9468 0.1448
vn 0.1154 -0.9350 0.3355
vn -0.0230 -0.9561 0.2922
vn -0.1844 -0.9500 0.2519
vn -0.2826 -0.9541 0.0987
vn -0.2217 -0.9735 -0.0559
vn -0.1444 -0.9681 -0.2046
vn -0.0608 -0.9285 -0.3664
vn 0.1436 -0.9438 -0.2976
vn 0.2078 -0.9731 -0.0998
vn 0.3137 -0.9494 0.0154
vt 1.000000 1.000000
vt 0.928571 0.500000
vt 1.000000 0.500000
vt 0.928571 1.000000
vt 0.857143 0.500000
vt 0.857143 1.000000
vt 0.785714 0.500000
vt 0.785714 1.000000
vt 0.714286 0.500000
vt 0.714286 1.000000
vt 0.642857 0.500000
vt 0.642857 1.000000
vt 0.571428 0.500000
vt 0.571428 1.000000
vt 0.500000 0.500000
vt 0.500000 1.000000
vt 0.428571 0.500000
vt 0.428571 1.000000
vt 0.357143 0.500000
vt 0.357143 1.000000
vt 0.285714 0.500000
vt 0.285714 1.000000
vt 0.214286 0.500000
vt 0.214286 1.000000
vt 0.142857 0.500000
vt 0.062360 0.399638
vt 0.145868 0.033767
vt 0.483983 0.196595
vt 0.142857 1.000000
vt 0.071428 0.500000
vt 0.071428 1.000000
vt -0.000000 0.500000
vt 0.983983 0.303405
vt 0.750000 0.010000
vt 0.516017 0.303405
vt 0.000000 0.000000
vt 0.437640 0.399638
vt 0.354132 0.466233
vt 0.250000 0.490000
vt 0.145868 0.466233
vt 0.016017 0.303405
vt 0.016017 0.196595
vt 0.062360 0.100362
vt 0.250000 0.010000
vt 0.354132 0.033767
vt 0.437640 0.100362
vt 0.483983 0.303405
vt -0.000000 1.000000
vt 0.645868 0.466233
vt 0.750000 0.490000
vt 0.854132 0.466233
vt 0.937640 0.399638
vt 0.983983 0.196595
vt 0.937640 0.100362
vt 0.854132 0.033767
vt 0.645868 0.033767
vt 0.562360 0.100362
vt 0.516017 0.196595
vt 0.562360 0.399638
s 0
usemtl LilyPadFlowerPadMat
f 2/1/1 3/2/1 1/3/1
f 4/4/2 5/5/2 3/2/2
f 6/6/3 7/7/3 5/5/3
f 8/8/4 9/9/4 7/7/4
f 10/10/5 11/11/5 9/9/5
f 12/12/6 13/13/6 11/11/6
f 14/14/7 15/15/7 13/13/7
f 16/16/8 17/17/8 15/15/8
f 18/18/9 19/19/9 17/17/9
f 20/20/10 21/21/10 19/19/10
f 22/22/11 23/23/11 21/21/11
f 24/24/12 25/25/12 23/23/12
f 26/26/13 18/27/13 10/28/13
f 26/29/14 27/30/14 25/25/14
f 28/31/15 1/32/15 27/30/15
f 7/33/16 15/34/16 23/35/16
f 29/36/17 48/36/17 30/36/17
f 49/36/13 47/36/13 29/36/13
f 50/36/16 30/36/16 48/36/16
f 31/36/18 30/36/18 32/36/18
f 49/36/13 29/36/13 31/36/13
f 50/36/16 32/36/16 30/36/16
f 33/36/19 32/36/19 34/36/19
f 49/36/13 31/36/13 33/36/13
f 50/36/16 34/36/16 32/36/16
f 35/36/20 34/36/20 36/36/20
f 49/36/13 33/36/13 35/36/13
f 50/36/16 36/36/16 34/36/16
f 37/36/21 36/36/21 38/36/21
f 49/36/13 35/36/13 37/36/13
f 50/36/16 38/36/16 36/36/16
f 39/36/22 38/36/22 40/36/22
f 49/36/13 37/36/13 39/36/13
f 50/36/16 40/36/16 38/36/16
f 41/36/23 40/36/23 42/36/23
f 49/36/13 39/36/13 41/36/13
f 50/36/16 42/36/16 40/36/16
f 43/36/24 42/36/24 44/36/24
f 49/36/13 41/36/13 43/36/13
f 50/36/16 44/36/16 42/36/16
f 45/36/25 44/36/25 46/36/25
f 49/36/13 43/36/13 45/36/13
f 50/36/16 46/36/16 44/36/16
f 47/36/26 46/36/26 48/36/26
f 49/36/13 45/36/13 47/36/13
f 50/36/16 48/36/16 46/36/16
f 2/1/1 4/4/1 3/2/1
f 4/4/2 6/6/2 5/5/2
f 6/6/3 8/8/3 7/7/3
f 8/8/4 10/10/4 9/9/4
f 10/10/5 12/12/5 11/11/5
f 12/12/6 14/14/6 13/13/6
f 14/14/7 16/16/7 15/15/7
f 16/16/8 18/18/8 17/17/8
f 18/18/9 20/20/9 19/19/9
f 20/20/10 22/22/10 21/21/10
f 22/22/11 24/24/11 23/23/11
f 24/24/12 26/29/12 25/25/12
f 6/37/13 4/38/13 2/39/13
f 2/39/13 28/40/13 26/26/13
f 26/26/13 24/41/13 22/42/13
f 22/42/13 20/43/13 18/27/13
f 18/27/13 16/44/13 14/45/13
f 14/45/13 12/46/13 10/28/13
f 10/28/13 8/47/13 6/37/13
f 6/37/13 2/39/13 26/26/13
f 26/26/13 22/42/13 18/27/13
f 18/27/13 14/45/13 10/28/13
f 10/28/13 6/37/13 26/26/13
f 26/29/14 28/31/14 27/30/14
f 28/31/15 2/48/15 1/32/15
f 27/49/16 1/50/16 3/51/16
f 3/51/16 5/52/16 7/33/16
f 7/33/16 9/53/16 11/54/16
f 11/54/16 13/55/16 15/34/16
f 15/34/16 17/56/16 19/57/16
f 19/57/16 21/58/16 23/35/16
f 23/35/16 25/59/16 27/49/16
f 27/49/16 3/51/16 7/33/16
f 7/33/16 11/54/16 15/34/16
f 15/34/16 19/57/16 23/35/16
f 23/35/16 27/49/16 7/33/16
f 29/36/17 47/36/17 48/36/17
f 31/36/18 29/36/18 30/36/18
f 33/36/19 31/36/19 32/36/19
f 35/36/20 33/36/20 34/36/20
f 37/36/21 35/36/21 36/36/21
f 39/36/22 37/36/22 38/36/22
f 41/36/23 39/36/23 40/36/23
f 43/36/24 41/36/24 42/36/24
f 45/36/25 43/36/25 44/36/25
f 47/36/26 45/36/26 46/36/26
usemtl LilyFlowerMat
f 54/36/27 51/36/27 53/36/27
f 54/36/28 55/36/28 56/36/28
f 58/36/29 55/36/29 57/36/29
f 58/36/30 59/36/30 60/36/30
f 62/36/13 59/36/13 61/36/13
f 66/36/31 63/36/31 65/36/31
f 66/36/32 67/36/32 68/36/32
f 68/36/33 69/36/33 70/36/33
f 70/36/34 71/36/34 72/36/34
f 74/36/13 71/36/13 73/36/13
f 78/36/35 75/36/35 77/36/35
f 78/36/36 79/36/36 80/36/36
f 82/36/37 79/36/37 81/36/37
f 82/36/38 83/36/38 84/36/38
f 86/36/13 83/36/13 85/36/13
f 90/36/39 87/36/39 89/36/39
f 92/36/40 89/36/40 91/36/40
f 92/36/41 93/36/41 94/36/41
f 94/36/42 95/36/42 96/36/42
f 98/36/13 95/36/13 97/36/13
f 102/36/43 99/36/43 101/36/43
f 102/36/44 103/36/44 104/36/44
f 104/36/45 105/36/45 106/36/45
f 106/36/46 107/36/46 108/36/46
f 110/36/13 107/36/13 109/36/13
f 114/36/47 111/36/47 113/36/47
f 116/36/48 113/36/48 115/36/48
f 116/36/49 117/36/49 118/36/49
f 118/36/50 119/36/50 120/36/50
f 122/36/13 119/36/13 121/36/13
f 126/36/51 123/36/51 125/36/51
f 126/36/52 127/36/52 128/36/52
f 128/36/53 129/36/53 130/36/53
f 132/36/54 129/36/54 131/36/54
f 134/36/13 131/36/13 133/36/13
f 138/36/55 135/36/55 137/36/55
f 140/36/56 137/36/56 139/36/56
f 140/36/57 141/36/57 142/36/57
f 144/36/58 141/36/58 143/36/58
f 146/36/13 143/36/13 145/36/13
f 150/36/59 147/36/59 149/36/59
f 152/36/60 149/36/60 151/36/60
f 152/36/61 153/36/61 154/36/61
f 156/36/62 153/36/62 155/36/62
f 158/36/13 155/36/13 157/36/13
f 162/36/63 159/36/63 161/36/63
f 164/36/64 161/36/64 163/36/64
f 164/36/65 165/36/65 166/36/65
f 166/36/66 167/36/66 168/36/66
f 170/36/13 167/36/13 169/36/13
f 174/36/67 171/36/67 173/36/67
f 174/36/68 175/36/68 176/36/68
f 176/36/69 177/36/69 178/36/69
f 178/36/70 179/36/70 180/36/70
f 182/36/13 179/36/13 181/36/13
f 186/36/71 183/36/71 185/36/71
f 186/36/72 187/36/72 188/36/72
f 188/36/73 189/36/73 190/36/73
f 190/36/74 191/36/74 192/36/74
f 194/36/13 191/36/13 193/36/13
f 198/36/75 195/36/75 197/36/75
f 198/36/76 199/36/76 200/36/76
f 200/36/77 201/36/77 202/36/77
f 204/36/78 201/36/78 203/36/78
f 206/36/13 203/36/13 205/36/13
f 210/36/79 207/36/79 209/36/79
f 210/36/80 211/36/80 212/36/80
f 212/36/81 213/36/81 214/36/81
f 216/36/82 213/36/82 215/36/82
f 218/36/13 215/36/13 217/36/13
f 54/36/13 52/36/13 51/36/13
f 54/36/28 53/36/28 55/36/28
f 58/36/29 56/36/29 55/36/29
f 58/36/30 57/36/30 59/36/30
f 62/36/107 60/36/107 59/36/107
f 66/36/13 64/36/13 63/36/13
f 66/36/32 65/36/32 67/36/32
f 68/36/33 67/36/33 69/36/33
f 70/36/34 69/36/34 71/36/34
f 74/36/108 72/36/108 71/36/108
f 78/36/13 76/36/13 75/36/13
f 78/36/36 77/36/36 79/36/36
f 82/36/37 80/36/37 79/36/37
f 82/36/38 81/36/38 83/36/38
f 86/36/109 84/36/109 83/36/109
f 90/36/13 88/36/13 87/36/13
f 92/36/40 90/36/40 89/36/40
f 92/36/41 91/36/41 93/36/41
f 94/36/42 93/36/42 95/36/42
f 98/36/110 96/36/110 95/36/110
f 102/36/13 100/36/13 99/36/13
f 102/36/44 101/36/44 103/36/44
f 104/36/45 103/36/45 105/36/45
f 106/36/46 105/36/46 107/36/46
f 110/36/111 108/36/111 107/36/111
f 114/36/13 112/36/13 111/36/13
f 116/36/48 114/36/48 113/36/48
f 116/36/49 115/36/49 117/36/49
f 118/36/50 117/36/50 119/36/50
f 122/36/112 120/36/112 119/36/112
f 126/36/13 124/36/13 123/36/13
f 126/36/52 125/36/52 127/36/52
f 128/36/53 127/36/53 129/36/53
f 132/36/54 130/36/54 129/36/54
f 134/36/113 132/36/113 131/36/113
f 138/36/13 136/36/13 135/36/13
f 140/36/56 138/36/56 137/36/56
f 140/36/57 139/36/57 141/36/57
f 144/36/58 142/36/58 141/36/58
f 146/36/114 144/36/114 143/36/114
f 150/36/13 148/36/13 147/36/13
f 152/36/60 150/36/60 149/36/60
f 152/36/115 151/36/115 153/36/115
f 156/36/62 154/36/62 153/36/62
f 158/36/116 156/36/116 155/36/116
f 162/36/13 160/36/13 159/36/13
f 164/36/64 162/36/64 161/36/64
f 164/36/65 163/36/65 165/36/65
f 166/36/66 165/36/66 167/36/66
f 170/36/117 168/36/117 167/36/117
f 174/36/13 172/36/13 171/36/13
f 174/36/68 173/36/68 175/36/68
f 176/36/69 175/36/69 177/36/69
f 178/36/70 177/36/70 179/36/70
f 182/36/118 180/36/118 179/36/118
f 186/36/13 184/36/13 183/36/13
f 186/36/72 185/36/72 187/36/72
f 188/36/73 187/36/73 189/36/73
f 190/36/74 189/36/74 191/36/74
f 194/36/119 192/36/119 191/36/119
f 198/36/13 196/36/13 195/36/13
f 198/36/76 197/36/76 199/36/76
f 200/36/77 199/36/77 201/36/77
f 204/36/78 202/36/78 201/36/78
f 206/36/120 204/36/120 203/36/120
f 210/36/13 208/36/13 207/36/13
f 210/36/80 209/36/80 211/36/80
f 212/36/81 211/36/81 213/36/81
f 216/36/82 214/36/82 213/36/82
f 218/36/121 216/36/121 215/36/121
usemtl LilyCenterMat
f 222/36/83 219/36/83 221/36/83
f 222/36/84 223/36/84 224/36/84
f 224/36/85 225/36/85 226/36/85
f 228/36/86 225/36/86 227/36/86
f 230/36/13 227/36/13 229/36/13
f 234/36/87 231/36/87 233/36/87
f 236/36/88 233/36/88 235/36/88
f 236/36/89 237/36/89 238/36/89
f 238/36/90 239/36/90 240/36/90
f 242/36/13 239/36/13 241/36/13
f 246/36/91 243/36/91 245/36/91
f 246/36/92 247/36/92 248/36/92
f 248/36/93 249/36/93 250/36/93
f 250/36/94 251/36/94 252/36/94
f 254/36/13 251/36/13 253/36/13
f 258/36/95 255/36/95 257/36/95
f 258/36/96 259/36/96 260/36/96
f 260/36/97 261/36/97 262/36/97
f 262/36/98 263/36/98 264/36/98
f 266/36/13 263/36/13 265/36/13
f 270/36/99 267/36/99 269/36/99
f 270/36/100 271/36/100 272/36/100
f 272/36/101 273/36/101 274/36/101
f 274/36/102 275/36/102 276/36/102
f 278/36/13 275/36/13 277/36/13
f 282/36/103 279/36/103 281/36/103
f 284/36/104 281/36/104 283/36/104
f 286/36/105 283/36/105 285/36/105
f 286/36/106 287/36/106 288/36/106
f 290/36/13 287/36/13 289/36/13
f 222/36/13 220/36/13 219/36/13
f 222/36/84 221/36/84 223/36/84
f 224/36/85 223/36/85 225/36/85
f 228/36/86 226/36/86 225/36/86
f 230/36/122 228/36/122 227/36/122
f 234/36/13 232/36/13 231/36/13
f 236/36/88 234/36/88 233/36/88
f 236/36/89 235/36/89 237/36/89
f 238/36/90 237/36/90 239/36/90
f 242/36/123 240/36/123 239/36/123
f 246/36/13 244/36/13 243/36/13
f 246/36/92 245/36/92 247/36/92
f 248/36/93 247/36/93 249/36/93
f 250/36/94 249/36/94 251/36/94
f 254/36/124 252/36/124 251/36/124
f 258/36/13 256/36/13 255/36/13
f 258/36/96 257/36/96 259/36/96
f 260/36/97 259/36/97 261/36/97
f 262/36/98 261/36/98 263/36/98
f 266/36/125 264/36/125 263/36/125
f 270/36/13 268/36/13 267/36/13
f 270/36/100 269/36/100 271/36/100
f 272/36/101 271/36/101 273/36/101
f 274/36/102 273/36/102 275/36/102
f 278/36/126 276/36/126 275/36/126
f 282/36/13 280/36/13 279/36/13
f 284/36/104 282/36/104 281/36/104
f 286/36/105 284/36/105 283/36/105
f 286/36/106 285/36/106 287/36/106
f 290/36/127 288/36/127 287/36/127
