# Blender 4.0.2
# www.blender.org
mtllib cargo_plane.mtl
o CargoPlane
v 0.500000 0.020000 0.000000
v 0.100000 -0.020000 0.045000
v 0.100000 -0.020000 -0.045000
v 0.100000 0.050000 -0.045000
v 0.100000 0.050000 0.045000
v -0.300000 -0.020000 0.040000
v -0.300000 -0.020000 -0.040000
v -0.300000 0.040000 -0.040000
v -0.300000 0.040000 0.040000
v -0.500000 0.010000 0.000000
v 0.200000 0.045000 0.000000
v 0.272360 0.045000 0.014720
v 0.172361 0.045000 0.023818
v 0.110558 0.045000 0.000000
v 0.172361 0.045000 -0.023818
v 0.272360 0.045000 -0.014720
v 0.227638 0.065125 0.023818
v 0.127640 0.065125 0.014720
v 0.127640 0.065125 -0.014720
v 0.227638 0.065125 -0.023818
v 0.289443 0.065125 0.000000
v 0.200000 0.090000 0.000000
v 0.250000 0.024000 -0.045000
v -0.050000 0.019000 -0.045000
v -0.050000 0.016000 -0.100000
v 0.250000 0.016000 -0.045000
v -0.050000 0.011000 -0.045000
v -0.050000 0.008000 -0.100000
v 0.250000 0.024000 0.045000
v -0.050000 0.019000 0.045000
v -0.050000 0.016000 0.100000
v 0.250000 0.016000 0.045000
v -0.050000 0.011000 0.045000
v -0.050000 0.008000 0.100000
v 0.050000 0.017500 -0.045000
v -0.350000 0.017500 -0.045000
v -0.300000 0.017500 -0.315000
v -0.050000 0.017500 -0.280000
v 0.050000 0.002500 -0.045000
v -0.350000 0.002500 -0.045000
v -0.300000 0.002500 -0.315000
v -0.050000 0.002500 -0.280000
v 0.050000 0.017500 0.045000
v -0.350000 0.017500 0.045000
v -0.300000 0.017500 0.315000
v -0.050000 0.017500 0.280000
v 0.050000 0.002500 0.045000
v -0.350000 0.002500 0.045000
v -0.300000 0.002500 0.315000
v -0.050000 0.002500 0.280000
v 0.300000 -0.005000 -0.030000
v 0.050000 -0.005000 -0.035000
v 0.050000 -0.075000 -0.020000
v 0.280000 -0.060000 -0.018000
v 0.300000 -0.002000 -0.030000
v 0.050000 -0.002000 -0.035000
v 0.050000 -0.072000 -0.020000
v 0.280000 -0.057000 -0.018000
v 0.300000 -0.008000 -0.030000
v 0.050000 -0.008000 -0.035000
v 0.050000 -0.078000 -0.020000
v 0.280000 -0.063000 -0.018000
v 0.300000 -0.002000 0.030000
v 0.050000 -0.002000 0.035000
v 0.050000 -0.072000 0.020000
v 0.280000 -0.057000 0.018000
v 0.300000 -0.008000 0.030000
v 0.050000 -0.008000 0.035000
v 0.050000 -0.078000 0.020000
v 0.280000 -0.063000 0.018000
v -0.300000 0.015000 -0.004000
v -0.500000 0.015000 -0.004000
v -0.420000 0.190000 -0.004000
v -0.330000 0.150000 -0.004000
v -0.300000 0.015000 0.004000
v -0.500000 0.015000 0.004000
v -0.420000 0.190000 0.004000
v -0.330000 0.150000 0.004000
v -0.320000 0.015000 -0.020000
v -0.500000 0.015000 -0.020000
v -0.450000 0.015000 -0.160000
v -0.340000 0.015000 -0.100000
v -0.320000 0.005000 -0.020000
v -0.500000 0.005000 -0.020000
v -0.450000 0.005000 -0.160000
v -0.340000 0.005000 -0.100000
v -0.320000 0.015000 0.020000
v -0.500000 0.015000 0.020000
v -0.450000 0.015000 0.160000
v -0.340000 0.015000 0.100000
v -0.320000 0.005000 0.020000
v -0.500000 0.005000 0.020000
v -0.450000 0.005000 0.160000
v -0.340000 0.005000 0.100000
v -0.500000 -0.008000 0.018000
v -0.500000 -0.008000 -0.018000
v -0.500000 0.028000 -0.018000
v -0.500000 0.028000 0.018000
v -0.560000 0.010000 0.000000
vn 0.0995 -0.9950 -0.0000
vn 0.1118 -0.0000 -0.9937
vn 0.0748 0.9972 -0.0000
vn 0.1118 -0.0000 0.9937
vn -0.0000 -1.0000 -0.0000
vn -0.0125 -0.0000 -0.9999
vn -0.0250 0.9997 -0.0000
vn -0.0125 -0.0000 0.9999
vn -0.1483 -0.9889 -0.0000
vn -0.1961 -0.0000 -0.9806
vn -0.1483 0.9889 -0.0000
vn -0.1961 -0.0000 0.9806
vn 0.7624 -0.6471 -0.0000
vn 0.0879 -0.2415 0.9664
vn -0.3365 -0.3530 0.8730
vn -0.3365 -0.3530 -0.8730
vn 0.0879 -0.2415 -0.9664
vn 0.3365 0.3530 0.8730
vn -0.0879 0.2415 0.9664
vn -0.7624 0.6471 -0.0000
vn -0.0879 0.2415 -0.9664
vn 0.3365 0.3530 -0.8730
vn 0.2200 0.7910 0.5709
vn -0.0689 0.6489 0.7577
vn -0.3251 0.9457 -0.0000
vn -0.0689 0.6489 -0.7577
vn 0.2200 0.7910 -0.5709
vn 0.0166 -0.9984 0.0545
vn -0.0166 0.9984 -0.0545
vn -0.0000 -0.0000 -1.0000
vn 1.0000 -0.0000 -0.0000
vn -0.1803 -0.0000 0.9836
vn -0.0166 0.9984 0.0545
vn 0.0166 -0.9984 -0.0545
vn -1.0000 -0.0000 -0.0000
vn 0.1803 -0.0000 0.9836
vn -0.0000 1.0000 -0.0000
vn 0.9833 -0.0000 0.1821
vn -0.1386 -0.0000 0.9903
vn -0.9202 -0.0000 0.3916
vn -0.9833 -0.0000 0.1821
vn 0.1386 -0.0000 0.9903
vn 0.9202 -0.0000 0.3916
vn -0.0195 0.2199 0.9753
vn 0.0195 -0.2199 -0.9753
vn 0.0200 -0.0000 -0.9998
vn -0.0087 -0.0000 1.0000
vn 0.5145 -0.0000 0.8575
vn 0.0195 -0.2199 0.9753
vn -0.0195 0.2199 -0.9753
vn -0.0200 -0.0000 -0.9998
vn 0.0087 -0.0000 1.0000
vn -0.5145 -0.0000 0.8575
vn -0.0000 -0.0000 1.0000
vn -0.9095 0.4158 -0.0000
vn 0.4061 0.9138 -0.0000
vn 0.9762 0.2169 -0.0000
vn 0.9417 -0.0000 0.3363
vn -0.4789 -0.0000 0.8779
vn -0.9701 -0.0000 0.2425
vn -0.9417 -0.0000 0.3363
vn 0.4789 -0.0000 0.8779
vn 0.9701 -0.0000 0.2425
vn -0.2873 -0.9578 -0.0000
vn -0.2873 -0.0000 -0.9578
vn -0.2873 0.9578 -0.0000
vn -0.2873 -0.0000 0.9578
vn -0.0222 0.2095 0.9776
vn 0.0222 -0.2095 -0.9776
vn 0.0222 -0.2095 0.9776
vn -0.0222 0.2095 -0.9776
s 0
usemtl PlaneBodyMat.002
f 1//1 2//1 3//1
f 1//2 3//2 4//2
f 1//3 4//3 5//3
f 1//4 5//4 2//4
f 6//5 3//5 2//5
f 3//6 8//6 4//6
f 8//7 5//7 4//7
f 9//8 2//8 5//8
f 6//9 10//9 7//9
f 7//10 10//10 8//10
f 8//11 10//11 9//11
f 9//12 10//12 6//12
f 23//28 24//28 25//28
f 28//29 27//29 26//29
f 26//30 24//30 23//30
f 27//31 25//31 24//31
f 26//32 25//32 28//32
f 29//33 30//33 31//33
f 34//34 33//34 32//34
f 32//30 30//30 29//30
f 33//35 31//35 30//35
f 32//36 31//36 34//36
f 36//5 38//5 35//5
f 42//37 40//37 39//37
f 40//30 35//30 39//30
f 41//38 36//38 40//38
f 42//39 37//39 41//39
f 39//40 38//40 42//40
f 44//37 46//37 43//37
f 50//5 48//5 47//5
f 48//30 43//30 47//30
f 49//41 44//41 48//41
f 50//42 45//42 49//42
f 47//43 46//43 50//43
f 72//30 74//30 71//30
f 78//54 76//54 75//54
f 76//5 71//5 75//5
f 77//55 72//55 76//55
f 78//56 73//56 77//56
f 75//57 74//57 78//57
f 80//5 82//5 79//5
f 86//37 84//37 83//37
f 84//30 79//30 83//30
f 85//58 80//58 84//58
f 86//59 81//59 85//59
f 83//60 82//60 86//60
f 88//37 90//37 87//37
f 94//5 92//5 91//5
f 92//30 87//30 91//30
f 93//61 88//61 92//61
f 94//62 89//62 93//62
f 91//63 90//63 94//63
f 6//5 7//5 3//5
f 3//6 7//6 8//6
f 8//7 9//7 5//7
f 9//8 6//8 2//8
f 26//30 27//30 24//30
f 27//31 28//31 25//31
f 26//32 23//32 25//32
f 32//30 33//30 30//30
f 33//35 34//35 31//35
f 32//36 29//36 31//36
f 36//5 37//5 38//5
f 42//37 41//37 40//37
f 40//30 36//30 35//30
f 41//38 37//38 36//38
f 42//39 38//39 37//39
f 39//40 35//40 38//40
f 44//37 45//37 46//37
f 50//5 49//5 48//5
f 48//30 44//30 43//30
f 49//41 45//41 44//41
f 50//42 46//42 45//42
f 47//43 43//43 46//43
f 72//30 73//30 74//30
f 78//54 77//54 76//54
f 76//5 72//5 71//5
f 77//55 73//55 72//55
f 78//56 74//56 73//56
f 75//57 71//57 74//57
f 80//5 81//5 82//5
f 86//37 85//37 84//37
f 84//30 80//30 79//30
f 85//58 81//58 80//58
f 86//59 82//59 81//59
f 83//60 79//60 82//60
f 88//37 89//37 90//37
f 94//5 93//5 92//5
f 92//30 88//30 87//30
f 93//61 89//61 88//61
f 94//62 90//62 89//62
f 91//63 87//63 90//63
usemtl PlaneDarkMat.001
f 56//44 58//44 55//44
f 62//45 60//45 59//45
f 60//46 55//46 59//46
f 60//35 57//35 56//35
f 62//47 57//47 61//47
f 59//48 58//48 62//48
f 64//49 66//49 63//49
f 70//50 68//50 67//50
f 68//51 63//51 67//51
f 68//31 65//31 64//31
f 70//52 65//52 69//52
f 67//53 66//53 70//53
f 95//64 99//64 96//64
f 96//65 99//65 97//65
f 97//66 99//66 98//66
f 98//67 99//67 95//67
f 56//68 57//68 58//68
f 62//69 61//69 60//69
f 60//46 56//46 55//46
f 60//35 61//35 57//35
f 62//47 58//47 57//47
f 59//48 55//48 58//48
f 64//70 65//70 66//70
f 70//71 69//71 68//71
f 68//51 64//51 63//51
f 68//31 69//31 65//31
f 70//52 66//52 65//52
f 67//53 63//53 66//53
usemtl PlaneGlassMat.001
f 11//5 12//5 13//5
f 12//5 11//5 16//5
f 11//5 13//5 14//5
f 11//5 14//5 15//5
f 11//5 15//5 16//5
f 12//13 16//13 21//13
f 13//14 12//14 17//14
f 14//15 13//15 18//15
f 15//16 14//16 19//16
f 16//17 15//17 20//17
f 12//18 21//18 17//18
f 13//19 17//19 18//19
f 14//20 18//20 19//20
f 15//21 19//21 20//21
f 16//22 20//22 21//22
f 17//23 21//23 22//23
f 18//24 17//24 22//24
f 19//25 18//25 22//25
f 20//26 19//26 22//26
f 21//27 20//27 22//27
