# Blender 4.0.2
# www.blender.org
mtllib forest_pine.mtl
o ForestTree
v 0.000000 0.000000 -0.050000
v 0.000000 0.250000 -0.050000
v 0.035355 0.000000 -0.035355
v 0.035355 0.250000 -0.035355
v 0.050000 0.000000 0.000000
v 0.050000 0.250000 0.000000
v 0.035355 0.000000 0.035355
v 0.035355 0.250000 0.035355
v 0.000000 0.000000 0.050000
v 0.000000 0.250000 0.050000
v -0.035355 0.000000 0.035355
v -0.035355 0.250000 0.035355
v -0.050000 0.000000 0.000000
v -0.050000 0.250000 0.000000
v -0.035355 0.000000 -0.035355
v -0.035355 0.250000 -0.035355
v 0.000000 0.150000 -0.420000
v 0.246870 0.150000 -0.339787
v 0.399444 0.150000 -0.129787
v 0.399444 0.150000 0.129787
v 0.246870 0.150000 0.339787
v 0.000000 0.150000 0.420000
v -0.246870 0.150000 0.339787
v -0.399444 0.150000 0.129787
v -0.399444 0.150000 -0.129787
v -0.246870 0.150000 -0.339787
v 0.000000 0.650000 0.000000
v 0.000000 0.450000 -0.340000
v 0.199847 0.450000 -0.275066
v 0.323359 0.450000 -0.105066
v 0.323359 0.450000 0.105066
v 0.199847 0.450000 0.275066
v 0.000000 0.450000 0.340000
v -0.199847 0.450000 0.275066
v -0.323359 0.450000 0.105066
v -0.323359 0.450000 -0.105066
v -0.199847 0.450000 -0.275066
v 0.000000 0.900000 0.000000
v 0.000000 0.750000 -0.260000
v 0.152824 0.750000 -0.210344
v 0.247275 0.750000 -0.080344
v 0.247275 0.750000 0.080344
v 0.152824 0.750000 0.210344
v 0.000000 0.750000 0.260000
v -0.152824 0.750000 0.210344
v -0.247275 0.750000 0.080344
v -0.247275 0.750000 -0.080344
v -0.152824 0.750000 -0.210344
v 0.000000 1.150000 0.000000
v 0.000000 1.000000 -0.160000
v 0.094046 1.000000 -0.129443
v 0.152169 1.000000 -0.049443
v 0.152169 1.000000 0.049443
v 0.094046 1.000000 0.129443
v 0.000000 1.000000 0.160000
v -0.094046 1.000000 0.129443
v -0.152169 1.000000 0.049443
v -0.152169 1.000000 -0.049443
v -0.094046 1.000000 -0.129443
v 0.000000 1.300000 0.000000
vn 0.3827 -0.0000 -0.9239
vn 0.9239 -0.0000 -0.3827
vn 0.9239 -0.0000 0.3827
vn 0.3827 -0.0000 0.9239
vn -0.3827 -0.0000 0.9239
vn -0.9239 -0.0000 0.3827
vn -0.0000 1.0000 -0.0000
vn -0.9239 -0.0000 -0.3827
vn -0.3827 -0.0000 -0.9239
vn -0.0000 -1.0000 -0.0000
vn 0.2414 0.6242 -0.7431
vn 0.6321 0.6242 -0.4592
vn 0.7813 0.6242 -0.0000
vn 0.6321 0.6242 0.4592
vn 0.2414 0.6242 0.7431
vn -0.2414 0.6242 0.7431
vn -0.6321 0.6242 0.4592
vn -0.7813 0.6242 -0.0000
vn -0.6321 0.6242 -0.4592
vn -0.2414 0.6242 -0.7431
vn 0.2509 0.5835 -0.7723
vn 0.6570 0.5835 -0.4773
vn 0.8121 0.5835 -0.0000
vn 0.6570 0.5835 0.4773
vn 0.2509 0.5835 0.7723
vn -0.2509 0.5835 0.7723
vn -0.6570 0.5835 0.4773
vn -0.8121 0.5835 -0.0000
vn -0.6570 0.5835 -0.4773
vn -0.2509 0.5835 -0.7723
vn 0.2628 0.5258 -0.8090
vn 0.6881 0.5258 -0.5000
vn 0.8506 0.5258 -0.0000
vn 0.6881 0.5258 0.5000
vn 0.2628 0.5258 0.8090
vn -0.2628 0.5258 0.8090
vn -0.6881 0.5258 0.5000
vn -0.8506 0.5258 -0.0000
vn -0.6881 0.5258 -0.5000
vn -0.2628 0.5258 -0.8090
vn 0.2756 0.4524 -0.8482
vn 0.7215 0.4524 -0.5242
vn 0.8918 0.4524 -0.0000
vn 0.7215 0.4524 0.5242
vn 0.2756 0.4524 0.8482
vn -0.2756 0.4524 0.8482
vn -0.7215 0.4524 0.5242
vn -0.8918 0.4524 -0.0000
vn -0.7215 0.4524 -0.5242
vn -0.2756 0.4524 -0.8482
vt 1.000000 1.000000
vt 0.875000 0.500000
vt 1.000000 0.500000
vt 0.875000 1.000000
vt 0.750000 0.500000
vt 0.750000 1.000000
vt 0.625000 0.500000
vt 0.625000 1.000000
vt 0.500000 0.500000
vt 0.500000 1.000000
vt 0.375000 0.500000
vt 0.375000 1.000000
vt 0.250000 0.500000
vt 0.010000 0.250000
vt 0.250000 0.010000
vt 0.490000 0.250000
vt 0.250000 1.000000
vt 0.125000 0.500000
vt 0.125000 1.000000
vt 0.000000 0.500000
vt 0.919706 0.080294
vt 0.580294 0.080294
vt 0.580294 0.419706
vt 0.250000 0.490000
vt 0.250000 0.250000
vt 0.391068 0.444164
vt 0.478254 0.324164
vt 0.478254 0.175836
vt 0.391068 0.055836
vt 0.250000 0.010000
vt 0.108932 0.055836
vt 0.021746 0.175836
vt 0.021746 0.324164
vt 0.978254 0.175836
vt 0.521746 0.175836
vt 0.608932 0.444164
vt 0.108932 0.444164
vt 0.391068 0.444164
vt 0.478254 0.324164
vt 0.478254 0.175836
vt 0.391068 0.055836
vt 0.108932 0.055836
vt 0.021746 0.175836
vt 0.021746 0.324164
vt 0.978254 0.175836
vt 0.521746 0.175836
vt 0.608932 0.444164
vt 0.108932 0.444164
vt 0.419706 0.419706
vt 0.080294 0.419706
vt 0.080294 0.080294
vt 0.419706 0.080294
vt 0.000000 1.000000
vt 0.750000 0.490000
vt 0.919706 0.419706
vt 0.990000 0.250000
vt 0.750000 0.010000
vt 0.510000 0.250000
vt 0.891068 0.444164
vt 0.978254 0.324164
vt 0.891068 0.055836
vt 0.750000 0.010000
vt 0.608932 0.055836
vt 0.521746 0.324164
vt 0.891068 0.444164
vt 0.978254 0.324164
vt 0.891068 0.055836
vt 0.608932 0.055836
vt 0.521746 0.324164
s 0
usemtl ForestTrunk
f 2/1/1 3/2/1 1/3/1
f 4/4/2 5/5/2 3/2/2
f 6/6/3 7/7/3 5/5/3
f 8/8/4 9/9/4 7/7/4
f 10/10/5 11/11/5 9/9/5
f 12/12/6 13/13/6 11/11/6
f 14/14/7 10/15/7 6/16/7
f 14/17/8 15/18/8 13/13/8
f 16/19/9 1/20/9 15/18/9
f 7/21/10 11/22/10 15/23/10
f 2/1/1 4/4/1 3/2/1
f 4/4/2 6/6/2 5/5/2
f 6/6/3 8/8/3 7/7/3
f 8/8/4 10/10/4 9/9/4
f 10/10/5 12/12/5 11/11/5
f 12/12/6 14/17/6 13/13/6
f 6/16/7 4/49/7 2/24/7
f 2/24/7 16/50/7 14/14/7
f 14/14/7 12/51/7 10/15/7
f 10/15/7 8/52/7 6/16/7
f 6/16/7 2/24/7 14/14/7
f 14/17/8 16/19/8 15/18/8
f 16/19/9 2/53/9 1/20/9
f 15/23/10 1/54/10 3/55/10
f 3/55/10 5/56/10 7/21/10
f 7/21/10 9/57/10 11/22/10
f 11/22/10 13/58/10 15/23/10
f 15/23/10 3/55/10 7/21/10
usemtl ForestFoliage
f 17/24/11 27/25/11 18/26/11
f 18/26/12 27/25/12 19/27/12
f 19/27/13 27/25/13 20/28/13
f 20/28/14 27/25/14 21/29/14
f 21/29/15 27/25/15 22/30/15
f 22/30/16 27/25/16 23/31/16
f 23/31/17 27/25/17 24/32/17
f 24/32/18 27/25/18 25/33/18
f 20/34/10 24/35/10 26/36/10
f 25/33/19 27/25/19 26/37/19
f 26/37/20 27/25/20 17/24/20
f 28/24/21 38/25/21 29/38/21
f 29/38/22 38/25/22 30/39/22
f 30/39/23 38/25/23 31/40/23
f 31/40/24 38/25/24 32/41/24
f 32/41/25 38/25/25 33/15/25
f 33/15/26 38/25/26 34/42/26
f 34/42/27 38/25/27 35/43/27
f 35/43/28 38/25/28 36/44/28
f 31/45/10 35/46/10 37/47/10
f 36/44/29 38/25/29 37/48/29
f 37/48/30 38/25/30 28/24/30
f 39/24/31 49/25/31 40/26/31
f 40/26/32 49/25/32 41/27/32
f 41/27/33 49/25/33 42/28/33
f 42/28/34 49/25/34 43/29/34
f 43/29/35 49/25/35 44/15/35
f 44/15/36 49/25/36 45/31/36
f 45/31/37 49/25/37 46/32/37
f 46/32/38 49/25/38 47/33/38
f 42/34/10 46/35/10 48/36/10
f 47/33/39 49/25/39 48/37/39
f 48/37/40 49/25/40 39/24/40
f 50/24/41 60/25/41 51/26/41
f 51/26/42 60/25/42 52/27/42
f 52/27/43 60/25/43 53/28/43
f 53/28/44 60/25/44 54/29/44
f 54/29/45 60/25/45 55/15/45
f 55/15/46 60/25/46 56/31/46
f 56/31/47 60/25/47 57/32/47
f 57/32/48 60/25/48 58/33/48
f 53/34/10 57/35/10 59/36/10
f 58/33/49 60/25/49 59/37/49
f 59/37/50 60/25/50 50/24/50
f 26/36/10 17/54/10 18/59/10
f 18/59/10 19/60/10 20/34/10
f 20/34/10 21/61/10 22/62/10
f 22/62/10 23/63/10 24/35/10
f 24/35/10 25/64/10 26/36/10
f 26/36/10 18/59/10 20/34/10
f 20/34/10 22/62/10 24/35/10
f 37/47/10 28/54/10 29/65/10
f 29/65/10 30/66/10 31/45/10
f 31/45/10 32/67/10 33/57/10
f 33/57/10 34/68/10 35/46/10
f 35/46/10 36/69/10 37/47/10
f 37/47/10 29/65/10 31/45/10
f 31/45/10 33/57/10 35/46/10
f 48/36/10 39/54/10 40/59/10
f 40/59/10 41/60/10 42/34/10
f 42/34/10 43/61/10 44/57/10
f 44/57/10 45/63/10 46/35/10
f 46/35/10 47/64/10 48/36/10
f 48/36/10 40/59/10 42/34/10
f 42/34/10 44/57/10 46/35/10
f 59/36/10 50/54/10 51/59/10
f 51/59/10 52/60/10 53/34/10
f 53/34/10 54/61/10 55/57/10
f 55/57/10 56/63/10 57/35/10
f 57/35/10 58/64/10 59/36/10
f 59/36/10 51/59/10 53/34/10
f 53/34/10 55/57/10 57/35/10
