# Blender 4.0.2
# www.blender.org
mtllib mountain_bush.mtl
o MountainBush
v 0.000000 0.000000 0.000000
v 0.246024 0.187947 0.178745
v -0.093971 0.187947 0.289218
v -0.304105 0.187947 0.000000
v -0.093971 0.187947 -0.289218
v 0.246024 0.187947 -0.178745
v 0.093971 0.492053 0.289218
v -0.246024 0.492053 0.178745
v -0.246024 0.492053 -0.178745
v 0.093971 0.492053 -0.289218
v 0.304105 0.492053 0.000000
v 0.000000 0.680000 0.000000
v 0.240000 -0.000000 -0.100000
v 0.442608 0.154780 0.047202
v 0.162612 0.154780 0.138179
v -0.010439 0.154780 -0.100000
v 0.162612 0.154780 -0.338179
v 0.442608 0.154780 -0.247202
v 0.317388 0.405220 0.138179
v 0.037392 0.405220 0.047202
v 0.037392 0.405220 -0.247202
v 0.317388 0.405220 -0.338179
v 0.490439 0.405220 -0.100000
v 0.240000 0.560000 -0.100000
v -0.220000 0.020000 0.120000
v -0.017392 0.174780 0.267202
v -0.297388 0.174780 0.358179
v -0.470439 0.174780 0.120000
v -0.297388 0.174780 -0.118179
v -0.017392 0.174780 -0.027202
v -0.142612 0.425220 0.358179
v -0.422608 0.425220 0.267202
v -0.422608 0.425220 -0.027202
v -0.142612 0.425220 -0.118179
v 0.030439 0.425220 0.120000
v -0.220000 0.580000 0.120000
v 0.100000 0.020000 0.260000
v 0.273664 0.152668 0.386173
v 0.033668 0.152668 0.464154
v -0.114662 0.152668 0.260000
v 0.033668 0.152668 0.055846
v 0.273664 0.152668 0.133827
v 0.166332 0.367332 0.464154
v -0.073664 0.367332 0.386173
v -0.073664 0.367332 0.133827
v 0.166332 0.367332 0.055846
v 0.314662 0.367332 0.260000
v 0.100000 0.500000 0.260000
v -0.080000 0.000000 -0.260000
v 0.093664 0.132668 -0.133827
v -0.146332 0.132668 -0.055846
v -0.294662 0.132668 -0.260000
v -0.146332 0.132668 -0.464154
v 0.093664 0.132668 -0.386173
v -0.013668 0.347332 -0.055846
v -0.253664 0.347332 -0.133827
v -0.253664 0.347332 -0.386173
v -0.013668 0.347332 -0.464154
v 0.134662 0.347332 -0.260000
v -0.080000 0.480000 -0.260000
v 0.300000 0.000000 0.180000
v 0.459192 0.121613 0.295658
v 0.239195 0.121613 0.367141
v 0.103227 0.121613 0.180000
v 0.239195 0.121613 -0.007141
v 0.459192 0.121613 0.064342
v 0.360805 0.318387 0.367141
v 0.140808 0.318387 0.295658
v 0.140808 0.318387 0.064342
v 0.360805 0.318387 -0.007141
v 0.496774 0.318387 0.180000
v 0.300000 0.440000 0.180000
vn 0.1876 -0.7947 0.5774
vn 0.6071 -0.7947 -0.0000
vn -0.4911 -0.7947 0.3568
vn -0.4911 -0.7947 -0.3568
vn 0.1876 -0.7947 -0.5774
vn 0.9822 -0.1876 -0.0000
vn 0.3035 -0.1876 0.9342
vn -0.7946 -0.1876 0.5774
vn -0.7946 -0.1876 -0.5774
vn 0.3035 -0.1876 -0.9342
vn 0.7946 0.1876 0.5774
vn -0.3035 0.1876 0.9342
vn -0.9822 0.1876 -0.0000
vn -0.3035 0.1876 -0.9342
vn 0.7946 0.1876 -0.5774
vn 0.4911 0.7947 0.3568
vn -0.1876 0.7947 0.5774
vn -0.6071 0.7947 -0.0000
vn -0.1876 0.7947 -0.5774
vn 0.4911 0.7947 -0.3568
vt 0.181819 0.000000
vt 0.272728 0.157461
vt 0.090910 0.157461
vt 0.363637 0.000000
vt 0.454546 0.157461
vt 0.909091 0.000000
vt 1.000000 0.157461
vt 0.818182 0.157461
vt 0.727273 0.000000
vt 0.636364 0.157461
vt 0.545455 0.000000
vt 0.363637 0.314921
vt 0.181819 0.314921
vt 0.909091 0.314921
vt 0.727273 0.314921
vt 0.545455 0.314921
vt 0.000000 0.314921
vt 0.272728 0.472382
vt 0.090910 0.472382
vt 0.818182 0.472382
vt 0.636364 0.472382
vt 0.454546 0.472382
s 0
usemtl MountainFoliage
f 1/1/1 2/2/1 3/3/1
f 2/2/2 1/4/2 6/5/2
f 1/6/3 3/7/3 4/8/3
f 1/9/4 4/8/4 5/10/4
f 1/11/5 5/10/5 6/5/5
f 2/2/6 6/5/6 11/12/6
f 3/3/7 2/2/7 7/13/7
f 4/8/8 3/7/8 8/14/8
f 5/10/9 4/8/9 9/15/9
f 6/5/10 5/10/10 10/16/10
f 2/2/11 11/12/11 7/13/11
f 3/3/12 7/13/12 8/17/12
f 4/8/13 8/14/13 9/15/13
f 5/10/14 9/15/14 10/16/14
f 6/5/15 10/16/15 11/12/15
f 7/13/16 11/12/16 12/18/16
f 8/17/17 7/13/17 12/19/17
f 9/15/18 8/14/18 12/20/18
f 10/16/19 9/15/19 12/21/19
f 11/12/20 10/16/20 12/22/20
f 13/1/1 14/2/1 15/3/1
f 14/2/2 13/4/2 18/5/2
f 13/6/3 15/7/3 16/8/3
f 13/9/4 16/8/4 17/10/4
f 13/11/5 17/10/5 18/5/5
f 14/2/6 18/5/6 23/12/6
f 15/3/7 14/2/7 19/13/7
f 16/8/8 15/7/8 20/14/8
f 17/10/9 16/8/9 21/15/9
f 18/5/10 17/10/10 22/16/10
f 14/2/11 23/12/11 19/13/11
f 15/3/12 19/13/12 20/17/12
f 16/8/13 20/14/13 21/15/13
f 17/10/14 21/15/14 22/16/14
f 18/5/15 22/16/15 23/12/15
f 19/13/16 23/12/16 24/18/16
f 20/17/17 19/13/17 24/19/17
f 21/15/18 20/14/18 24/20/18
f 22/16/19 21/15/19 24/21/19
f 23/12/20 22/16/20 24/22/20
f 25/1/1 26/2/1 27/3/1
f 26/2/2 25/4/2 30/5/2
f 25/6/3 27/7/3 28/8/3
f 25/9/4 28/8/4 29/10/4
f 25/11/5 29/10/5 30/5/5
f 26/2/6 30/5/6 35/12/6
f 27/3/7 26/2/7 31/13/7
f 28/8/8 27/7/8 32/14/8
f 29/10/9 28/8/9 33/15/9
f 30/5/10 29/10/10 34/16/10
f 26/2/11 35/12/11 31/13/11
f 27/3/12 31/13/12 32/17/12
f 28/8/13 32/14/13 33/15/13
f 29/10/14 33/15/14 34/16/14
f 30/5/15 34/16/15 35/12/15
f 31/13/16 35/12/16 36/18/16
f 32/17/17 31/13/17 36/19/17
f 33/15/18 32/14/18 36/20/18
f 34/16/19 33/15/19 36/21/19
f 35/12/20 34/16/20 36/22/20
f 37/1/1 38/2/1 39/3/1
f 38/2/2 37/4/2 42/5/2
f 37/6/3 39/7/3 40/8/3
f 37/9/4 40/8/4 41/10/4
f 37/11/5 41/10/5 42/5/5
f 38/2/6 42/5/6 47/12/6
f 39/3/7 38/2/7 43/13/7
f 40/8/8 39/7/8 44/14/8
f 41/10/9 40/8/9 45/15/9
f 42/5/10 41/10/10 46/16/10
f 38/2/11 47/12/11 43/13/11
f 39/3/12 43/13/12 44/17/12
f 40/8/13 44/14/13 45/15/13
f 41/10/14 45/15/14 46/16/14
f 42/5/15 46/16/15 47/12/15
f 43/13/16 47/12/16 48/18/16
f 44/17/17 43/13/17 48/19/17
f 45/15/18 44/14/18 48/20/18
f 46/16/19 45/15/19 48/21/19
f 47/12/20 46/16/20 48/22/20
f 49/1/1 50/2/1 51/3/1
f 50/2/2 49/4/2 54/5/2
f 49/6/3 51/7/3 52/8/3
f 49/9/4 52/8/4 53/10/4
f 49/11/5 53/10/5 54/5/5
f 50/2/6 54/5/6 59/12/6
f 51/3/7 50/2/7 55/13/7
f 52/8/8 51/7/8 56/14/8
f 53/10/9 52/8/9 57/15/9
f 54/5/10 53/10/10 58/16/10
f 50/2/11 59/12/11 55/13/11
f 51/3/12 55/13/12 56/17/12
f 52/8/13 56/14/13 57/15/13
f 53/10/14 57/15/14 58/16/14
f 54/5/15 58/16/15 59/12/15
f 55/13/16 59/12/16 60/18/16
f 56/17/17 55/13/17 60/19/17
f 57/15/18 56/14/18 60/20/18
f 58/16/19 57/15/19 60/21/19
f 59/12/20 58/16/20 60/22/20
f 61/1/1 62/2/1 63/3/1
f 62/2/2 61/4/2 66/5/2
f 61/6/3 63/7/3 64/8/3
f 61/9/4 64/8/4 65/10/4
f 61/11/5 65/10/5 66/5/5
f 62/2/6 66/5/6 71/12/6
f 63/3/7 62/2/7 67/13/7
f 64/8/8 63/7/8 68/14/8
f 65/10/9 64/8/9 69/15/9
f 66/5/10 65/10/10 70/16/10
f 62/2/11 71/12/11 67/13/11
f 63/3/12 67/13/12 68/17/12
f 64/8/13 68/14/13 69/15/13
f 65/10/14 69/15/14 70/16/14
f 66/5/15 70/16/15 71/12/15
f 67/13/16 71/12/16 72/18/16
f 68/17/17 67/13/17 72/19/17
f 69/15/18 68/14/18 72/20/18
f 70/16/19 69/15/19 72/21/19
f 71/12/20 70/16/20 72/22/20
